<svg id="svg" version="1.1" xmlns="http://www.w3.org/2000/svg" xmlns:xlink="http://www.w3.org/1999/xlink" width="400" height="716.6666666666666" viewBox="0, 0, 400,716.6666666666666"><g id="svgg"><path id="path0" d="M321.603 3.553 C 321.512 3.700,319.857 5.003,317.926 6.449 C 315.994 7.894,313.850 9.585,313.160 10.206 L 311.906 11.335 310.772 10.861 C 308.377 9.860,305.244 10.502,302.277 12.602 C 301.888 12.877,301.617 12.810,300.933 12.271 C 294.383 7.119,283.584 12.822,287.142 19.554 L 287.609 20.437 286.275 21.385 C 284.510 22.640,282.012 26.070,281.968 27.298 C 281.919 28.680,282.032 29.672,282.290 30.138 C 283.105 31.610,280.865 33.812,279.350 33.029 C 276.840 31.731,273.110 33.359,272.757 35.905 C 272.592 37.102,272.583 37.110,269.952 38.161 C 267.035 39.328,266.988 39.719,269.766 39.727 C 273.994 39.738,279.856 38.466,282.952 36.865 C 283.435 36.615,284.796 36.359,285.978 36.295 C 290.826 36.033,296.502 33.069,297.930 30.053 C 298.644 28.545,298.748 28.458,300.048 28.280 C 301.929 28.022,304.082 26.869,305.395 25.415 C 306.095 24.641,306.754 24.197,307.206 24.197 C 311.738 24.197,315.710 18.614,314.219 14.338 C 313.902 13.428,313.936 13.308,314.660 12.781 C 315.915 11.866,322.474 3.286,321.917 3.286 C 321.835 3.286,321.694 3.406,321.603 3.553 M90.217 7.040 C 90.217 9.798,97.176 21.047,100.018 22.883 C 101.010 23.523,101.971 24.389,102.153 24.806 C 103.162 27.114,107.616 30.460,109.689 30.468 C 110.908 30.472,111.951 30.965,112.165 31.639 C 112.270 31.971,112.946 33.044,113.666 34.022 C 114.902 35.701,114.959 35.864,114.671 36.904 C 112.251 45.669,131.212 56.465,139.254 50.901 C 140.281 50.190,140.447 50.164,142.072 50.465 C 143.022 50.641,144.413 50.785,145.163 50.786 C 145.913 50.788,147.401 51.056,148.469 51.382 C 149.623 51.735,152.108 52.099,154.593 52.279 C 156.893 52.446,160.388 52.720,162.360 52.888 C 164.332 53.056,166.751 53.247,167.737 53.313 L 169.529 53.432 167.886 53.135 C 164.734 52.566,157.264 50.752,154.943 49.992 L 152.605 49.226 154.103 48.218 C 157.703 45.793,159.057 41.745,157.407 38.338 C 157.042 37.583,156.690 36.295,156.625 35.474 C 156.180 29.827,150.252 26.547,143.047 27.960 C 142.334 28.100,142.179 27.957,141.488 26.530 C 138.979 21.346,136.516 18.391,133.478 16.919 C 127.753 14.146,120.010 14.830,115.310 18.525 L 114.264 19.347 113.219 18.625 C 110.880 17.011,108.111 16.731,105.074 17.802 C 103.869 18.227,103.835 18.220,102.933 17.352 C 102.429 16.866,100.941 15.771,99.627 14.919 C 96.965 13.192,92.921 9.863,91.286 8.053 C 90.698 7.402,90.217 6.946,90.217 7.040 M-0.000 49.547 L -0.000 82.963 1.224 84.353 C 3.199 86.597,7.854 89.035,11.883 89.936 C 13.484 90.294,14.937 91.503,14.937 92.479 C 14.937 92.840,15.290 94.193,15.722 95.485 C 18.460 103.676,23.672 109.712,31.815 114.122 C 33.129 114.834,34.877 115.844,35.698 116.368 C 40.102 119.175,46.840 121.753,52.016 122.612 C 52.972 122.770,53.160 122.953,53.628 124.181 C 58.192 136.129,70.353 143.630,85.269 143.695 C 85.936 143.697,87.701 144.085,89.191 144.555 C 90.681 145.025,93.302 145.642,95.016 145.926 C 96.730 146.209,99.513 146.764,101.200 147.158 C 102.887 147.553,105.576 148.009,107.175 148.173 C 115.433 149.018,135.958 150.624,136.143 150.439 C 136.187 150.395,135.147 150.114,133.832 149.813 C 129.006 148.711,130.659 148.656,142.177 149.532 C 147.890 149.967,149.277 149.931,146.025 149.432 L 144.137 149.143 145.631 149.084 C 148.397 148.974,148.489 148.574,145.802 148.340 C 144.419 148.219,143.451 148.019,143.652 147.895 C 143.852 147.771,142.498 147.431,140.641 147.139 C 135.137 146.274,128.648 144.925,123.077 143.486 C 120.202 142.744,116.975 141.933,115.907 141.684 C 114.378 141.327,105.107 137.445,104.586 136.944 C 104.520 136.881,104.857 136.267,105.333 135.580 C 108.465 131.062,104.903 122.469,98.341 118.715 C 97.587 118.283,97.397 118.009,97.533 117.551 C 99.451 111.112,98.488 104.277,95.163 100.721 L 93.795 99.259 94.389 97.949 C 95.948 94.514,93.443 88.497,89.998 87.404 C 89.532 87.256,89.456 86.858,89.436 84.468 C 89.356 74.763,83.437 66.365,74.546 63.339 L 73.065 62.834 71.990 59.722 C 64.261 37.353,47.932 24.368,25.849 23.031 L 21.658 22.777 19.600 21.408 C 14.913 18.292,7.719 16.173,1.718 16.141 L 0.000 16.131 -0.000 49.547 M394.470 23.007 C 391.031 23.691,387.956 25.235,385.859 27.332 C 384.659 28.532,384.427 28.648,383.745 28.389 C 373.487 24.489,351.278 36.899,344.318 50.421 C 344.040 50.960,343.707 51.336,343.578 51.256 C 340.531 49.372,326.489 49.916,319.711 52.179 C 304.489 57.263,297.387 73.450,304.210 87.514 L 305.200 89.555 303.235 90.356 C 294.633 93.859,290.795 100.923,294.054 107.255 L 294.752 108.610 293.195 110.323 C 290.399 113.399,288.883 117.008,288.876 120.602 C 288.873 122.222,288.787 122.503,288.200 122.811 C 287.830 123.006,287.087 123.547,286.549 124.015 C 285.007 125.354,283.562 125.945,280.508 126.485 C 276.599 127.176,268.022 128.990,268.504 129.024 C 269.092 129.065,275.312 129.928,277.396 130.258 C 278.395 130.416,280.075 130.549,281.130 130.554 C 283.503 130.566,283.190 130.782,278.828 132.146 C 277.041 132.705,274.044 133.720,272.167 134.401 C 269.755 135.277,267.217 135.904,263.504 136.540 C 255.088 137.982,253.500 138.481,254.860 139.255 C 255.939 139.870,266.341 139.762,270.202 139.096 C 271.845 138.813,274.747 138.387,276.650 138.150 C 283.080 137.350,286.614 136.591,293.133 134.610 C 297.353 133.328,300.142 132.636,301.095 132.636 C 304.824 132.636,310.085 130.978,313.972 128.577 C 315.703 127.507,316.643 127.136,318.148 126.927 C 337.046 124.305,349.854 116.951,353.897 106.401 C 354.311 105.320,354.494 105.138,355.015 105.288 C 359.141 106.476,364.521 106.109,369.149 104.325 C 376.082 101.651,382.951 91.212,382.998 83.278 C 383.021 79.387,384.140 76.554,386.156 75.278 C 391.206 72.084,396.219 65.041,398.168 58.402 C 399.643 53.376,399.754 52.017,399.912 36.968 L 400.062 22.704 397.865 22.736 C 396.657 22.754,395.129 22.876,394.470 23.007 M279.871 63.704 C 279.498 64.238,278.514 65.486,277.685 66.477 C 276.855 67.468,275.933 68.610,275.637 69.016 C 275.280 69.503,275.152 69.571,275.260 69.215 C 275.783 67.485,266.745 75.922,265.138 78.664 C 264.019 80.572,263.396 81.050,262.330 80.816 C 260.725 80.464,259.135 81.136,257.738 82.757 C 257.035 83.574,256.244 84.242,255.979 84.242 C 255.715 84.242,254.754 84.618,253.843 85.077 L 252.187 85.913 251.037 84.750 C 247.963 81.642,244.243 81.169,238.409 83.146 C 229.476 86.173,225.465 91.431,227.895 96.926 C 228.638 98.604,228.670 98.880,228.123 98.880 C 226.282 98.880,223.573 103.163,223.862 105.618 L 224.051 107.230 222.856 107.840 C 222.198 108.176,221.021 108.527,220.240 108.620 C 219.459 108.714,216.669 109.245,214.040 109.802 C 211.412 110.359,207.984 111.080,206.423 111.406 C 203.630 111.989,203.616 111.996,205.527 111.865 C 206.594 111.792,209.686 111.585,212.397 111.405 C 215.108 111.225,219.141 110.738,221.359 110.324 C 225.557 109.538,225.804 109.522,229.349 109.807 C 233.593 110.149,237.483 107.818,237.489 104.929 L 237.491 103.958 239.059 103.953 C 243.117 103.940,246.893 102.416,250.117 99.492 C 251.327 98.395,252.450 97.666,253.323 97.412 C 257.001 96.339,260.242 93.884,261.635 91.113 C 262.329 89.734,262.835 89.224,264.780 87.942 C 267.833 85.929,268.630 85.149,270.546 82.300 C 271.430 80.986,272.690 79.238,273.345 78.417 C 274.945 76.413,275.796 74.089,275.698 71.995 C 275.623 70.410,275.668 70.302,276.952 68.997 C 277.684 68.252,278.858 66.538,279.560 65.188 C 280.899 62.615,281.013 62.068,279.871 63.704 M82.450 109.037 C 82.800 109.263,82.723 109.327,82.094 109.331 C 81.652 109.333,81.207 109.201,81.105 109.037 C 80.870 108.655,81.859 108.655,82.450 109.037 M-0.000 221.340 L -0.000 268.280 0.789 269.838 C 7.917 283.919,27.327 294.613,38.686 290.718 C 39.671 290.379,41.332 289.810,42.375 289.451 L 44.273 288.800 44.876 289.403 C 45.208 289.735,45.740 290.779,46.058 291.722 C 47.348 295.542,50.653 299.213,56.019 302.787 C 58.878 304.691,65.179 307.991,65.956 307.991 C 66.101 307.991,67.121 309.047,68.224 310.338 C 69.326 311.629,70.591 312.997,71.036 313.377 C 71.481 313.757,72.502 314.654,73.306 315.370 C 80.212 321.523,92.083 325.915,101.806 325.915 C 103.403 325.915,104.749 326.152,106.743 326.784 C 108.251 327.262,110.560 327.914,111.875 328.233 C 114.906 328.968,123.068 331.369,124.979 332.089 C 126.299 332.586,126.486 332.779,127.004 334.172 C 129.516 340.927,146.326 344.929,151.740 340.061 C 152.536 339.346,153.411 338.760,153.686 338.760 C 153.960 338.760,154.458 338.613,154.794 338.434 C 155.233 338.199,155.763 338.198,156.686 338.431 C 158.111 338.790,160.728 339.183,164.677 339.632 C 169.911 340.226,203.741 339.290,216.281 338.204 L 218.820 337.984 215.534 337.764 C 203.215 336.940,193.802 336.096,186.408 335.153 C 179.330 334.251,178.823 334.126,176.904 332.824 C 174.563 331.234,173.654 330.889,168.994 329.823 C 166.792 329.320,164.398 328.695,163.675 328.435 C 161.184 327.541,158.165 327.096,153.323 326.909 C 149.080 326.746,148.469 326.660,148.469 326.228 C 148.469 319.214,130.042 313.460,121.537 317.818 L 119.251 318.989 118.903 317.598 C 117.277 311.089,105.448 304.291,95.708 304.267 L 91.790 304.257 90.707 302.277 C 86.364 294.336,78.707 286.862,69.469 281.546 C 68.968 281.258,68.965 281.157,69.420 279.818 C 70.346 277.092,69.895 274.161,67.966 270.351 C 67.425 269.283,66.586 267.533,66.101 266.462 C 64.278 262.436,59.597 258.663,54.433 257.059 C 51.729 256.220,49.588 255.427,49.235 255.135 C 49.123 255.042,49.222 254.160,49.455 253.174 C 51.901 242.830,42.333 230.526,26.438 223.575 L 22.853 222.007 22.948 219.534 C 23.594 202.689,13.641 182.408,1.120 175.057 L 0.000 174.400 -0.000 221.340 M383.062 185.080 C 374.374 186.347,366.595 191.112,360.926 198.639 C 360.005 199.863,358.692 201.493,358.008 202.263 C 352.480 208.487,349.007 217.317,348.910 225.392 L 348.892 226.886 345.693 228.425 C 338.559 231.859,334.357 237.020,332.323 244.846 C 332.273 245.041,330.640 244.382,328.443 243.282 C 320.422 239.263,312.389 237.498,302.101 237.493 C 280.465 237.482,266.012 247.309,265.016 262.708 L 264.824 265.669 262.831 266.512 C 255.461 269.629,250.910 274.778,249.897 281.144 L 249.725 282.229 245.108 282.257 C 236.661 282.307,232.997 284.002,231.071 288.750 L 230.354 290.515 226.828 290.703 C 224.606 290.821,221.808 291.227,219.268 291.800 C 217.050 292.300,213.824 292.943,212.099 293.229 C 208.175 293.878,207.905 294.102,210.660 294.421 C 217.818 295.250,204.793 294.703,195.370 293.779 C 188.722 293.127,188.321 293.239,192.266 294.645 C 196.035 295.988,201.347 297.167,208.663 298.285 C 211.452 298.711,219.215 299.390,226.112 299.812 L 234.002 300.294 235.373 301.269 C 242.066 306.032,249.582 306.108,256.154 301.478 L 258.551 299.789 261.240 299.626 C 263.434 299.493,264.203 299.567,265.422 300.029 C 272.106 302.563,280.167 301.568,285.931 297.498 C 286.884 296.825,287.478 296.794,288.360 297.370 C 310.205 311.646,334.486 307.153,344.946 286.898 L 346.043 284.775 347.558 285.468 C 355.354 289.037,369.888 286.599,377.093 280.513 C 380.933 277.269,382.509 273.995,382.310 269.669 C 382.205 267.382,382.250 267.069,382.656 267.230 C 386.280 268.669,393.619 269.099,397.834 268.118 L 400.000 267.615 400.000 227.495 L 400.000 187.376 399.178 187.053 C 393.765 184.925,388.527 184.283,383.062 185.080 M193.320 190.912 C 185.828 191.635,180.249 193.691,175.716 197.400 L 174.435 198.448 172.430 198.107 C 171.328 197.920,168.132 197.731,165.329 197.688 L 160.232 197.610 159.094 198.506 C 156.730 200.367,154.576 201.549,153.976 201.314 C 151.717 200.429,148.897 201.403,147.727 203.472 L 147.125 204.536 141.484 202.941 L 135.844 201.345 132.522 198.938 C 130.696 197.613,128.088 195.712,126.728 194.713 C 122.795 191.822,123.369 193.489,127.960 198.289 C 134.580 205.210,140.801 209.349,153.479 215.268 C 155.719 216.313,157.677 217.406,157.830 217.696 C 161.199 224.093,176.403 227.628,184.534 223.906 L 186.194 223.146 187.209 223.919 C 195.033 229.887,214.190 227.030,214.190 219.895 C 214.190 218.790,214.179 218.791,215.770 219.642 C 220.565 222.204,230.615 219.227,231.695 214.925 C 231.841 214.344,232.222 214.161,234.156 213.742 C 241.504 212.149,247.223 209.390,257.131 202.656 C 260.378 200.449,267.662 194.895,267.662 194.625 C 267.662 194.569,266.490 195.198,265.057 196.022 C 260.590 198.592,257.354 200.102,255.282 200.583 C 252.710 201.179,252.414 201.159,253.323 200.449 C 253.834 200.050,253.314 200.187,251.680 200.880 C 250.000 201.594,248.127 202.077,245.369 202.509 C 243.212 202.847,241.120 203.248,240.719 203.401 C 240.319 203.553,239.260 203.766,238.367 203.874 L 236.744 204.070 236.146 202.509 C 234.577 198.407,230.316 197.455,222.405 199.437 C 221.980 199.544,221.334 199.146,220.164 198.057 C 214.500 192.781,203.711 189.910,193.320 190.912 M149.213 210.558 C 149.091 210.680,146.378 208.850,146.378 208.647 C 146.378 208.571,147.039 208.947,147.847 209.482 C 148.656 210.016,149.270 210.501,149.213 210.558 M139.955 274.996 C 142.178 277.131,142.277 277.277,141.374 277.083 C 137.197 276.189,148.387 283.294,153.152 284.562 C 156.430 285.434,157.160 285.742,159.522 287.248 C 160.426 287.825,161.501 288.362,161.912 288.443 C 162.323 288.523,164.376 289.004,166.474 289.511 C 172.876 291.059,179.357 291.236,180.342 289.888 C 181.537 288.255,180.135 286.890,176.699 286.342 C 174.769 286.035,174.459 285.879,174.459 285.221 C 174.459 284.308,172.341 282.446,170.517 281.755 C 169.645 281.425,168.015 280.673,166.894 280.085 C 163.790 278.454,161.201 278.592,159.603 280.472 L 158.937 281.255 159.116 280.294 C 160.015 275.446,153.890 271.825,149.042 274.340 C 147.570 275.104,147.464 275.117,145.977 274.711 C 144.676 274.356,142.665 273.874,138.312 272.873 C 137.746 272.742,138.144 273.256,139.955 274.996 M344.026 357.728 C 340.322 358.741,338.934 359.266,337.682 360.129 C 336.353 361.044,335.910 361.201,335.092 361.048 C 334.068 360.856,329.960 362.147,328.451 363.136 C 327.780 363.576,327.667 363.568,326.896 363.028 C 326.079 362.457,323.344 361.436,320.986 360.824 C 316.724 359.716,309.969 362.179,306.066 366.264 L 303.844 368.590 302.911 367.137 C 301.223 364.507,297.093 362.367,293.695 362.363 C 286.858 362.354,282.029 369.494,284.513 375.937 C 285.065 377.366,285.065 377.426,284.537 377.729 C 282.355 378.983,280.345 381.696,279.970 383.894 C 279.762 385.112,279.580 385.299,276.321 387.658 C 265.976 395.146,266.514 394.623,269.161 394.623 C 272.554 394.623,279.942 392.558,284.051 390.462 C 284.762 390.099,285.767 389.831,286.286 389.866 C 286.805 389.901,287.589 389.910,288.029 389.887 C 288.865 389.841,291.379 387.936,293.430 385.792 L 294.591 384.579 296.136 385.344 C 302.166 388.331,317.535 383.787,319.810 378.343 C 320.117 377.608,320.521 377.252,321.353 376.983 C 325.802 375.545,328.612 373.367,329.488 370.678 L 330.007 369.081 332.292 368.872 C 335.173 368.607,337.080 367.788,337.850 366.484 C 338.430 365.503,342.561 361.885,346.834 358.617 C 349.639 356.471,349.737 356.380,349.201 356.408 C 348.963 356.420,346.634 357.014,344.026 357.728 M395.313 374.636 C 389.854 375.123,384.774 376.889,379.808 380.025 C 378.179 381.053,377.769 381.180,376.069 381.182 C 360.583 381.202,345.010 389.015,337.073 400.747 C 333.359 406.237,329.135 414.331,327.733 418.642 L 326.960 421.019 324.548 421.960 C 315.850 425.353,309.296 435.726,310.553 444.110 C 310.716 445.200,310.655 445.399,310.056 445.720 C 306.094 447.840,304.039 452.663,305.617 456.139 L 306.217 457.462 305.197 458.529 C 301.959 461.918,300.400 470.069,302.108 474.683 C 302.381 475.422,302.607 476.109,302.610 476.208 C 302.612 476.308,301.835 476.871,300.884 477.458 C 296.465 480.185,293.644 484.981,293.659 489.741 C 293.665 491.826,294.342 494.051,295.115 494.529 C 297.917 496.261,266.239 505.532,256.700 505.772 C 255.975 505.790,255.943 505.825,256.460 506.032 C 256.889 506.205,256.469 506.334,254.966 506.491 C 250.988 506.908,250.513 507.177,253.622 507.255 L 256.460 507.325 254.369 507.697 C 251.450 508.217,252.549 508.213,259.185 507.678 C 262.342 507.424,265.843 507.256,266.966 507.305 L 269.007 507.394 266.537 507.961 C 265.178 508.273,264.113 508.574,264.168 508.629 C 264.321 508.782,272.909 508.210,280.508 507.542 C 284.205 507.217,288.910 506.805,290.963 506.627 C 293.017 506.449,296.445 505.921,298.581 505.454 C 300.717 504.986,303.742 504.386,305.302 504.120 C 306.863 503.853,309.485 503.249,311.128 502.776 C 312.860 502.277,315.244 501.841,316.804 501.737 C 331.492 500.756,341.496 494.372,346.159 483.004 L 346.973 481.019 349.066 480.675 C 353.363 479.968,360.481 477.071,364.969 474.202 C 365.830 473.652,367.376 472.777,368.405 472.258 C 376.327 468.264,382.516 460.644,384.743 452.141 C 385.498 449.258,386.032 448.651,388.260 448.140 C 392.357 447.202,396.410 445.089,398.595 442.753 L 400.000 441.250 400.000 407.964 L 400.000 374.678 399.328 374.497 C 398.958 374.398,398.521 374.334,398.357 374.354 C 398.193 374.375,396.823 374.502,395.313 374.636 M113.816 377.276 C 113.816 378.041,119.329 382.905,122.625 385.048 C 124.721 386.411,126.014 387.352,124.944 386.737 C 124.739 386.619,124.571 386.579,124.571 386.649 C 124.571 387.045,130.522 390.605,132.930 391.649 C 136.397 393.153,139.678 395.553,139.920 396.763 C 140.400 399.163,143.773 401.260,147.792 401.656 L 149.905 401.864 150.267 403.156 C 151.904 409.004,160.352 412.140,166.827 409.303 C 167.793 408.879,168.991 408.760,172.785 408.710 C 175.397 408.676,178.422 408.522,179.506 408.368 L 181.479 408.087 183.186 409.283 C 191.817 415.329,207.477 415.675,215.686 410.003 L 216.735 409.279 218.626 409.867 C 222.720 411.142,229.005 410.464,233.906 408.219 C 235.579 407.453,236.865 407.110,238.983 406.867 C 243.252 406.378,243.829 406.189,247.445 404.096 C 250.035 402.598,251.304 402.057,253.103 401.685 C 254.378 401.422,255.857 400.984,256.389 400.712 C 257.726 400.029,265.311 394.861,265.176 394.726 C 265.116 394.665,264.039 394.759,262.782 394.934 C 261.526 395.108,258.985 395.357,257.135 395.485 C 254.630 395.660,253.276 395.916,251.830 396.489 C 250.151 397.155,249.342 397.273,245.855 397.360 L 241.822 397.461 241.349 395.519 C 239.667 388.619,232.558 385.502,224.027 387.924 C 223.703 388.016,223.124 387.370,222.153 385.838 C 217.377 378.298,205.134 377.348,198.967 384.039 L 197.769 385.339 195.870 384.624 C 186.014 380.914,171.623 383.387,164.600 389.998 C 163.546 390.990,162.959 391.301,161.875 391.438 L 160.494 391.614 159.586 390.153 C 156.683 385.484,148.363 383.762,144.168 386.962 L 143.180 387.715 141.741 386.987 C 139.479 385.842,136.768 386.056,135.331 387.493 L 134.477 388.348 130.463 386.445 C 128.255 385.398,125.455 383.875,124.240 383.059 C 119.331 379.763,113.816 376.703,113.816 377.276 M0.000 392.948 C 0.000 417.809,2.855 425.937,14.403 433.946 C 15.474 434.689,15.798 435.120,15.968 436.027 C 16.086 436.656,16.359 437.512,16.574 437.928 C 16.799 438.364,16.972 439.737,16.981 441.159 C 17.030 448.924,22.981 458.709,29.624 461.954 C 33.860 464.022,40.343 464.867,43.889 463.814 C 44.780 463.549,45.533 463.366,45.563 463.407 C 45.593 463.447,45.965 464.252,46.390 465.195 C 51.224 475.913,62.151 482.113,81.553 485.147 C 83.037 485.378,84.248 485.782,85.138 486.340 C 89.388 489.004,93.569 490.479,97.535 490.711 C 99.457 490.823,101.289 491.195,103.958 492.012 C 113.840 495.039,115.397 495.392,123.674 496.478 C 126.221 496.812,129.716 497.297,131.441 497.554 C 137.193 498.413,145.780 498.133,145.780 497.087 C 145.780 496.584,143.308 495.985,135.924 494.701 C 132.898 494.174,129.897 493.443,128.155 492.807 C 124.032 491.302,122.015 490.614,119.492 489.850 C 117.986 489.395,117.496 489.147,117.999 489.096 C 118.409 489.054,119.686 488.891,120.836 488.733 C 121.987 488.575,124.675 488.219,126.811 487.942 C 128.947 487.664,130.790 487.355,130.908 487.255 C 131.126 487.068,121.144 484.900,118.447 484.549 C 116.810 484.336,114.277 483.157,113.421 482.210 C 113.122 481.879,112.483 481.445,112.002 481.246 C 111.160 480.897,111.128 480.810,111.124 478.903 C 111.118 475.226,110.064 472.591,107.188 469.057 L 105.405 466.868 106.247 464.885 C 108.719 459.069,105.797 453.167,98.638 449.515 C 97.108 448.734,95.663 448.096,95.426 448.096 C 94.829 448.096,94.885 447.698,95.711 446.067 C 100.020 437.564,98.774 426.032,92.756 418.737 C 85.964 410.503,71.349 406.403,58.402 409.100 C 56.501 409.496,56.283 409.491,56.012 409.050 C 46.916 394.278,28.863 383.707,17.361 386.418 L 15.455 386.867 13.856 385.355 C 11.101 382.750,6.006 380.881,1.656 380.881 L 0.000 380.881 0.000 392.948 M319.044 467.054 C 319.044 467.371,317.810 467.823,317.489 467.625 C 317.255 467.480,317.330 467.336,317.720 467.184 C 318.394 466.920,319.044 466.856,319.044 467.054 M397.097 534.491 C 388.416 540.417,382.157 550.536,378.841 564.003 C 377.459 569.619,377.201 571.520,377.196 576.156 L 377.190 580.392 375.479 581.016 C 359.465 586.855,348.043 600.731,350.535 611.321 C 350.802 612.454,350.984 613.402,350.939 613.426 C 350.312 613.777,348.587 614.388,346.588 614.969 C 340.514 616.733,335.731 620.456,333.772 624.944 C 333.377 625.848,332.516 627.662,331.859 628.977 C 330.014 632.666,329.667 636.076,330.836 639.022 C 330.979 639.383,330.618 639.760,329.443 640.480 C 320.168 646.160,313.758 652.546,309.427 660.418 L 308.236 662.583 305.793 662.396 C 296.221 661.660,282.464 669.338,280.969 676.251 C 280.714 677.431,280.738 677.429,279.040 676.352 C 271.765 671.734,253.586 676.547,251.820 683.559 L 251.482 684.903 247.249 685.075 C 242.607 685.264,238.665 685.869,236.048 686.794 C 235.116 687.123,233.119 687.652,231.610 687.969 C 227.119 688.913,225.676 689.432,223.377 690.933 C 222.153 691.732,220.669 692.442,220.005 692.547 C 211.102 693.949,189.308 695.989,182.411 696.065 C 179.117 696.102,180.311 696.263,187.603 696.766 C 213.014 698.519,236.075 698.478,243.572 696.667 C 244.961 696.332,246.977 697.071,248.394 698.435 C 253.714 703.555,273.338 698.084,273.338 691.480 C 273.338 690.973,275.404 690.079,278.566 689.217 C 279.716 688.903,282.472 688.107,284.690 687.449 C 286.908 686.790,289.462 686.084,290.366 685.878 C 291.270 685.672,292.950 685.188,294.100 684.801 C 295.703 684.261,296.854 684.095,299.029 684.089 C 311.350 684.058,323.808 677.966,332.646 667.652 C 333.279 666.914,334.784 665.997,337.650 664.606 C 346.688 660.218,354.294 653.126,354.294 649.087 C 354.294 648.772,354.634 648.200,355.050 647.815 C 355.897 647.030,355.820 647.017,360.525 648.698 C 372.266 652.891,390.511 643.486,398.759 628.990 L 400.002 626.805 399.926 579.708 L 399.851 532.611 397.097 534.491 M8.215 543.300 C 6.629 543.509,2.831 544.546,1.394 545.162 L -0.002 545.760 0.074 585.875 L 0.149 625.990 1.942 626.362 C 6.551 627.320,12.081 627.124,16.145 625.859 L 17.852 625.328 17.705 627.750 C 16.920 640.626,38.075 649.825,53.531 643.328 C 53.937 643.158,54.255 643.550,55.136 645.307 C 65.251 665.470,90.371 669.886,112.107 655.322 C 112.540 655.032,112.842 655.093,113.750 655.652 C 120.609 659.882,128.302 660.972,133.814 658.493 C 135.355 657.800,135.694 657.760,138.531 657.934 L 141.587 658.121 143.784 659.697 C 150.286 664.362,158.381 664.293,164.636 659.519 L 165.964 658.505 172.754 658.146 C 189.148 657.277,201.134 655.439,208.222 652.705 C 211.283 651.525,211.160 651.439,206.986 651.836 C 198.990 652.596,197.041 652.730,192.084 652.857 C 186.935 652.989,186.899 652.986,189.694 652.632 L 192.532 652.274 189.246 651.734 C 187.438 651.438,183.742 650.719,181.031 650.139 C 178.228 649.538,174.709 648.998,172.874 648.888 L 169.646 648.693 168.930 646.928 C 166.995 642.162,162.489 640.269,153.694 640.527 L 150.296 640.627 149.963 638.686 C 148.985 632.978,144.161 627.665,137.474 624.931 L 135.101 623.961 134.943 620.942 C 134.110 605.045,118.062 594.857,95.295 595.772 C 85.872 596.151,76.520 598.561,70.079 602.271 C 67.779 603.596,67.739 603.585,67.235 601.505 C 65.680 595.095,59.818 588.726,52.892 585.920 C 51.382 585.309,51.226 585.159,51.163 584.260 C 50.444 574.078,47.666 566.849,42.058 560.568 C 41.178 559.582,39.758 557.820,38.903 556.653 C 31.856 547.030,19.777 541.774,8.215 543.300 M195.519 549.543 C 188.842 550.725,183.549 552.987,180.197 556.091 L 178.142 557.993 176.921 557.572 C 170.639 555.408,164.573 557.149,163.534 561.415 C 163.290 562.419,162.660 562.414,157.580 561.372 C 155.937 561.034,153.501 560.556,152.166 560.308 C 150.831 560.061,149.025 559.514,148.152 559.093 C 146.255 558.178,146.134 558.159,146.795 558.890 C 148.528 560.805,140.000 557.356,133.831 553.646 C 129.716 551.172,139.289 558.640,144.918 562.294 C 154.344 568.415,158.943 570.534,166.188 572.097 C 167.651 572.412,167.999 572.616,168.395 573.390 C 170.349 577.213,172.953 578.491,178.784 578.491 C 182.988 578.491,183.168 578.458,185.586 577.213 C 185.709 577.149,185.810 577.626,185.810 578.273 C 185.810 585.210,204.987 588.130,212.563 582.347 C 213.815 581.391,213.948 581.353,214.585 581.771 C 219.513 584.999,230.500 584.263,237.096 580.262 C 240.346 578.290,240.957 577.803,241.824 576.493 C 242.404 575.617,243.093 575.121,244.742 574.395 C 259.118 568.059,272.354 558.589,275.596 552.319 C 276.388 550.788,276.022 550.987,270.079 555.328 L 264.346 559.515 258.617 561.182 C 255.467 562.098,252.851 562.738,252.806 562.604 C 251.954 560.084,248.841 558.630,246.241 559.536 C 245.238 559.886,244.148 559.366,241.985 557.507 C 239.972 555.777,239.157 555.593,234.409 555.791 C 230.449 555.957,227.004 556.336,226.018 556.715 C 225.779 556.806,225.067 556.403,224.392 555.794 C 218.512 550.481,205.784 547.726,195.519 549.543 M253.078 567.374 C 252.903 567.585,252.181 568.076,251.473 568.466 C 249.914 569.325,250.101 569.056,251.872 567.892 C 253.368 566.909,253.517 566.845,253.078 567.374 M259.447 631.655 C 257.969 632.031,255.783 632.565,254.590 632.844 L 252.421 633.349 250.766 632.539 C 246.108 630.261,240.291 633.588,240.832 638.222 L 240.956 639.284 239.980 638.338 C 238.344 636.753,236.391 636.776,232.939 638.424 C 226.652 641.424,226.632 641.436,225.912 642.864 C 225.254 644.168,225.181 644.214,223.074 644.670 C 219.632 645.416,218.614 646.455,219.700 648.113 C 220.627 649.528,226.581 649.469,232.452 647.987 C 234.320 647.516,236.626 646.967,237.578 646.767 C 238.685 646.535,239.990 645.947,241.198 645.137 C 242.571 644.217,243.913 643.648,246.112 643.058 C 251.340 641.653,260.975 635.836,258.796 635.400 C 258.091 635.258,258.173 635.131,260.285 633.084 C 261.514 631.893,262.434 630.931,262.328 630.946 C 262.222 630.961,260.926 631.280,259.447 631.655 " stroke="none" fill="#ecf4f4" fill-rule="evenodd"></path><path id="path1" d="M0.000 8.066 L 0.000 16.131 1.718 16.141 C 7.719 16.173,14.913 18.292,19.600 21.408 L 21.658 22.777 25.849 23.031 C 47.932 24.368,64.261 37.353,71.990 59.722 L 73.065 62.834 74.546 63.339 C 83.437 66.365,89.356 74.763,89.436 84.468 C 89.456 86.858,89.532 87.256,89.998 87.404 C 93.443 88.497,95.948 94.514,94.389 97.949 L 93.795 99.259 95.163 100.721 C 98.488 104.277,99.451 111.112,97.533 117.551 C 97.397 118.009,97.587 118.283,98.341 118.715 C 104.903 122.469,108.465 131.062,105.333 135.580 C 104.857 136.267,104.520 136.881,104.586 136.944 C 105.107 137.445,114.378 141.327,115.907 141.684 C 116.975 141.933,120.202 142.744,123.077 143.486 C 128.648 144.925,135.137 146.274,140.641 147.139 C 142.498 147.431,143.852 147.771,143.652 147.895 C 143.451 148.019,144.419 148.219,145.802 148.340 C 148.489 148.574,148.397 148.974,145.631 149.084 L 144.137 149.143 146.025 149.432 C 149.277 149.931,147.890 149.967,142.177 149.532 C 130.659 148.656,129.006 148.711,133.832 149.813 C 135.147 150.114,136.187 150.395,136.143 150.439 C 135.958 150.624,115.433 149.018,107.175 148.173 C 105.576 148.009,102.887 147.553,101.200 147.158 C 99.513 146.764,96.730 146.209,95.016 145.926 C 93.302 145.642,90.681 145.025,89.191 144.555 C 87.701 144.085,85.936 143.697,85.269 143.695 C 70.353 143.630,58.192 136.129,53.628 124.181 C 53.160 122.953,52.972 122.770,52.016 122.612 C 46.840 121.753,40.102 119.175,35.698 116.368 C 34.877 115.844,33.129 114.834,31.815 114.122 C 23.672 109.712,18.460 103.676,15.722 95.485 C 15.290 94.193,14.937 92.840,14.937 92.479 C 14.937 91.503,13.484 90.294,11.883 89.936 C 7.854 89.035,3.199 86.597,1.224 84.353 L 0.000 82.963 0.000 128.639 L 0.000 174.316 2.740 176.105 C 14.255 183.625,23.558 203.617,22.948 219.534 L 22.853 222.007 26.438 223.575 C 42.333 230.526,51.901 242.830,49.455 253.174 C 49.222 254.160,49.123 255.042,49.235 255.135 C 49.588 255.427,51.729 256.220,54.433 257.059 C 59.597 258.663,64.278 262.436,66.101 266.462 C 66.586 267.533,67.425 269.283,67.966 270.351 C 69.895 274.161,70.346 277.092,69.420 279.818 C 68.965 281.157,68.968 281.258,69.469 281.546 C 78.707 286.862,86.364 294.336,90.707 302.277 L 91.790 304.257 95.708 304.267 C 105.448 304.291,117.277 311.089,118.903 317.598 L 119.251 318.989 121.537 317.818 C 130.042 313.460,148.469 319.214,148.469 326.228 C 148.469 326.660,149.080 326.746,153.323 326.909 C 158.165 327.096,161.184 327.541,163.675 328.435 C 164.398 328.695,166.792 329.320,168.994 329.823 C 173.654 330.889,174.563 331.234,176.904 332.824 C 178.823 334.126,179.330 334.251,186.408 335.153 C 193.802 336.096,203.215 336.940,215.534 337.764 L 218.820 337.984 216.281 338.204 C 203.741 339.290,169.911 340.226,164.677 339.632 C 160.728 339.183,158.111 338.790,156.686 338.431 C 155.763 338.198,155.233 338.199,154.794 338.434 C 154.458 338.613,153.960 338.760,153.686 338.760 C 153.411 338.760,152.536 339.346,151.740 340.061 C 146.326 344.929,129.516 340.927,127.004 334.172 C 126.486 332.779,126.299 332.586,124.979 332.089 C 123.068 331.369,114.906 328.968,111.875 328.233 C 110.560 327.914,108.251 327.262,106.743 326.784 C 104.749 326.152,103.403 325.915,101.806 325.915 C 92.083 325.915,80.212 321.523,73.306 315.370 C 72.502 314.654,71.481 313.757,71.036 313.377 C 70.591 312.997,69.326 311.629,68.224 310.338 C 67.121 309.047,66.101 307.991,65.956 307.991 C 65.179 307.991,58.878 304.691,56.019 302.787 C 50.653 299.213,47.348 295.542,46.058 291.722 C 45.740 290.779,45.208 289.735,44.876 289.403 L 44.273 288.800 42.375 289.451 C 41.332 289.810,39.671 290.379,38.686 290.718 C 27.404 294.586,8.677 284.395,0.985 270.202 L 0.014 268.409 0.007 324.645 L 0.000 380.881 1.656 380.881 C 6.006 380.881,11.101 382.750,13.856 385.355 L 15.455 386.867 17.361 386.418 C 28.863 383.707,46.916 394.278,56.012 409.050 C 56.283 409.491,56.501 409.496,58.402 409.100 C 71.349 406.403,85.964 410.503,92.756 418.737 C 98.774 426.032,100.020 437.564,95.711 446.067 C 94.885 447.698,94.829 448.096,95.426 448.096 C 95.663 448.096,97.108 448.734,98.638 449.515 C 105.797 453.167,108.719 459.069,106.247 464.885 L 105.405 466.868 107.188 469.057 C 110.064 472.591,111.118 475.226,111.124 478.903 C 111.128 480.810,111.160 480.897,112.002 481.246 C 112.483 481.445,113.122 481.879,113.421 482.210 C 114.277 483.157,116.810 484.336,118.447 484.549 C 121.144 484.900,131.126 487.068,130.908 487.255 C 130.790 487.355,128.947 487.664,126.811 487.942 C 124.675 488.219,121.987 488.575,120.836 488.733 C 119.686 488.891,118.409 489.054,117.999 489.096 C 117.496 489.147,117.986 489.395,119.492 489.850 C 122.015 490.614,124.032 491.302,128.155 492.807 C 129.897 493.443,132.898 494.174,135.924 494.701 C 143.308 495.985,145.780 496.584,145.780 497.087 C 145.780 498.133,137.193 498.413,131.441 497.554 C 129.716 497.297,126.221 496.812,123.674 496.478 C 115.397 495.392,113.840 495.039,103.958 492.012 C 101.289 491.195,99.457 490.823,97.535 490.711 C 93.569 490.479,89.388 489.004,85.138 486.340 C 84.248 485.782,83.037 485.378,81.553 485.147 C 62.151 482.113,51.224 475.913,46.390 465.195 C 45.965 464.252,45.593 463.447,45.563 463.407 C 45.533 463.366,44.780 463.549,43.889 463.814 C 31.718 467.430,17.070 455.098,16.981 441.159 C 16.972 439.737,16.799 438.364,16.574 437.928 C 16.359 437.512,16.086 436.656,15.968 436.027 C 15.798 435.120,15.474 434.689,14.403 433.946 C 6.054 428.155,1.497 419.923,0.325 408.514 C 0.190 407.198,0.062 437.490,0.040 475.942 L 0.000 545.759 1.383 545.166 C 13.862 539.817,30.247 544.833,38.903 556.653 C 39.758 557.820,41.178 559.582,42.058 560.568 C 47.666 566.849,50.444 574.078,51.163 584.260 C 51.226 585.159,51.382 585.309,52.892 585.920 C 59.818 588.726,65.680 595.095,67.235 601.505 C 67.739 603.585,67.779 603.596,70.079 602.271 C 76.520 598.561,85.872 596.151,95.295 595.772 C 118.062 594.857,134.110 605.045,134.943 620.942 L 135.101 623.961 137.474 624.931 C 144.161 627.665,148.985 632.978,149.963 638.686 L 150.296 640.627 153.694 640.527 C 162.489 640.269,166.995 642.162,168.930 646.928 L 169.646 648.693 172.874 648.888 C 174.709 648.998,178.228 649.538,181.031 650.139 C 183.742 650.719,187.438 651.438,189.246 651.734 L 192.532 652.274 189.694 652.632 C 186.899 652.986,186.935 652.989,192.084 652.857 C 197.041 652.730,198.990 652.596,206.986 651.836 C 211.160 651.439,211.283 651.525,208.222 652.705 C 201.134 655.439,189.148 657.277,172.754 658.146 L 165.964 658.505 164.636 659.519 C 158.381 664.293,150.286 664.362,143.784 659.697 L 141.587 658.121 138.531 657.934 C 135.694 657.760,135.355 657.800,133.814 658.493 C 128.302 660.972,120.609 659.882,113.750 655.652 C 112.842 655.093,112.540 655.032,112.107 655.322 C 90.371 669.886,65.251 665.470,55.136 645.307 C 54.255 643.550,53.937 643.158,53.531 643.328 C 38.075 649.825,16.920 640.626,17.705 627.750 L 17.852 625.328 16.145 625.859 C 12.044 627.135,6.455 627.324,1.867 626.341 L -0.000 625.941 -0.000 671.447 L 0.000 716.953 200.000 716.953 L 400.000 716.953 399.998 671.919 L 399.996 626.886 398.430 629.538 C 390.018 643.780,372.106 652.834,360.525 648.698 C 355.820 647.017,355.897 647.030,355.050 647.815 C 354.634 648.200,354.294 648.772,354.294 649.087 C 354.294 653.126,346.688 660.218,337.650 664.606 C 334.784 665.997,333.279 666.914,332.646 667.652 C 323.808 677.966,311.350 684.058,299.029 684.089 C 296.854 684.095,295.703 684.261,294.100 684.801 C 292.950 685.188,291.270 685.672,290.366 685.878 C 289.462 686.084,286.908 686.790,284.690 687.449 C 282.472 688.107,279.716 688.903,278.566 689.217 C 275.404 690.079,273.338 690.973,273.338 691.480 C 273.338 698.084,253.714 703.555,248.394 698.435 C 246.977 697.071,244.961 696.332,243.572 696.667 C 236.075 698.478,213.014 698.519,187.603 696.766 C 180.311 696.263,179.117 696.102,182.411 696.065 C 189.308 695.989,211.102 693.949,220.005 692.547 C 220.669 692.442,222.153 691.732,223.377 690.933 C 225.676 689.432,227.119 688.913,231.610 687.969 C 233.119 687.652,235.116 687.123,236.048 686.794 C 238.665 685.869,242.607 685.264,247.249 685.075 L 251.482 684.903 251.820 683.559 C 253.586 676.547,271.765 671.734,279.040 676.352 C 280.738 677.429,280.714 677.431,280.969 676.251 C 282.464 669.338,296.221 661.660,305.793 662.396 L 308.236 662.583 309.427 660.418 C 313.758 652.546,320.168 646.160,329.443 640.480 C 330.618 639.760,330.979 639.383,330.836 639.022 C 329.667 636.076,330.014 632.666,331.859 628.977 C 332.516 627.662,333.377 625.848,333.772 624.944 C 335.731 620.456,340.514 616.733,346.588 614.969 C 348.587 614.388,350.312 613.777,350.939 613.426 C 350.984 613.402,350.802 612.454,350.535 611.321 C 348.043 600.731,359.465 586.855,375.479 581.016 L 377.190 580.392 377.196 576.156 C 377.201 571.520,377.459 569.619,378.841 564.003 C 382.153 550.549,388.457 540.359,397.087 534.504 L 400.000 532.528 400.000 486.889 L 400.000 441.250 398.595 442.753 C 396.410 445.089,392.357 447.202,388.260 448.140 C 386.032 448.651,385.498 449.258,384.743 452.141 C 382.516 460.644,376.327 468.264,368.405 472.258 C 367.376 472.777,365.830 473.652,364.969 474.202 C 360.481 477.071,353.363 479.968,349.066 480.675 L 346.973 481.019 346.159 483.004 C 341.496 494.372,331.492 500.756,316.804 501.737 C 315.244 501.841,312.860 502.277,311.128 502.776 C 309.485 503.249,306.863 503.853,305.302 504.120 C 303.742 504.386,300.717 504.986,298.581 505.454 C 296.445 505.921,293.017 506.449,290.963 506.627 C 288.910 506.805,284.205 507.217,280.508 507.542 C 272.909 508.210,264.321 508.782,264.168 508.629 C 264.113 508.574,265.178 508.273,266.537 507.961 L 269.007 507.394 266.966 507.305 C 265.843 507.256,262.342 507.424,259.185 507.678 C 252.549 508.213,251.450 508.217,254.369 507.697 L 256.460 507.325 253.622 507.255 C 250.513 507.177,250.988 506.908,254.966 506.491 C 256.469 506.334,256.889 506.205,256.460 506.032 C 255.943 505.825,255.975 505.790,256.700 505.772 C 266.239 505.532,297.917 496.261,295.115 494.529 C 294.342 494.051,293.665 491.826,293.659 489.741 C 293.644 484.981,296.465 480.185,300.884 477.458 C 301.835 476.871,302.612 476.308,302.610 476.208 C 302.607 476.109,302.381 475.422,302.108 474.683 C 300.400 470.069,301.959 461.918,305.197 458.529 L 306.217 457.462 305.617 456.139 C 304.039 452.663,306.094 447.840,310.056 445.720 C 310.655 445.399,310.716 445.200,310.553 444.110 C 309.296 435.726,315.850 425.353,324.548 421.960 L 326.960 421.019 327.733 418.642 C 329.135 414.331,333.359 406.237,337.073 400.747 C 345.010 389.015,360.583 381.202,376.069 381.182 C 377.769 381.180,378.179 381.053,379.808 380.025 C 385.640 376.341,395.629 373.535,399.399 374.520 C 400.000 374.677,400.000 374.637,400.000 321.170 C 400.000 291.741,399.941 267.662,399.869 267.662 C 399.797 267.662,398.823 267.879,397.703 268.144 C 393.653 269.102,386.236 268.651,382.656 267.230 C 382.250 267.069,382.205 267.382,382.310 269.669 C 382.509 273.995,380.933 277.269,377.093 280.513 C 369.888 286.599,355.354 289.037,347.558 285.468 L 346.043 284.775 344.946 286.898 C 334.486 307.153,310.205 311.646,288.360 297.370 C 287.478 296.794,286.884 296.825,285.931 297.498 C 280.167 301.568,272.106 302.563,265.422 300.029 C 264.203 299.567,263.434 299.493,261.240 299.626 L 258.551 299.789 256.154 301.478 C 249.582 306.108,242.066 306.032,235.373 301.269 L 234.002 300.294 226.112 299.812 C 219.215 299.390,211.452 298.711,208.663 298.285 C 201.347 297.167,196.035 295.988,192.266 294.645 C 188.321 293.239,188.722 293.127,195.370 293.779 C 204.793 294.703,217.818 295.250,210.660 294.421 C 207.905 294.102,208.175 293.878,212.099 293.229 C 213.824 292.943,217.050 292.300,219.268 291.800 C 221.808 291.227,224.606 290.821,226.828 290.703 L 230.354 290.515 231.071 288.750 C 232.997 284.002,236.661 282.307,245.108 282.257 L 249.725 282.229 249.897 281.144 C 250.910 274.778,255.461 269.629,262.831 266.512 L 264.824 265.669 265.016 262.708 C 266.012 247.309,280.465 237.482,302.101 237.493 C 312.389 237.498,320.422 239.263,328.443 243.282 C 330.640 244.382,332.273 245.041,332.323 244.846 C 334.357 237.020,338.559 231.859,345.693 228.425 L 348.892 226.886 348.910 225.392 C 349.007 217.317,352.480 208.487,358.008 202.263 C 358.692 201.493,360.005 199.863,360.926 198.639 C 370.388 186.076,385.528 181.567,399.477 187.158 C 399.974 187.358,399.998 183.931,399.958 117.508 C 399.935 79.085,399.813 48.814,399.686 50.239 C 398.735 60.930,393.488 70.641,386.156 75.278 C 384.140 76.554,383.021 79.387,382.998 83.278 C 382.951 91.212,376.082 101.651,369.149 104.325 C 364.521 106.109,359.141 106.476,355.015 105.288 C 354.494 105.138,354.311 105.320,353.897 106.401 C 352.572 109.858,348.324 115.092,344.464 118.023 C 339.462 121.821,328.700 125.463,318.148 126.927 C 316.643 127.136,315.703 127.507,313.972 128.577 C 310.085 130.978,304.824 132.636,301.095 132.636 C 300.142 132.636,297.353 133.328,293.133 134.610 C 286.614 136.591,283.080 137.350,276.650 138.150 C 274.747 138.387,271.845 138.813,270.202 139.096 C 266.341 139.762,255.939 139.870,254.860 139.255 C 253.500 138.481,255.088 137.982,263.504 136.540 C 267.217 135.904,269.755 135.277,272.167 134.401 C 274.044 133.720,277.041 132.705,278.828 132.146 C 283.190 130.782,283.503 130.566,281.130 130.554 C 280.075 130.549,278.395 130.416,277.396 130.258 C 275.312 129.928,269.092 129.065,268.504 129.024 C 268.022 128.990,276.599 127.176,280.508 126.485 C 283.562 125.945,285.007 125.354,286.549 124.015 C 287.087 123.547,287.830 123.006,288.200 122.811 C 288.787 122.503,288.873 122.222,288.876 120.602 C 288.883 117.008,290.399 113.399,293.195 110.323 L 294.752 108.610 294.054 107.255 C 290.795 100.923,294.633 93.859,303.235 90.356 L 305.200 89.555 304.210 87.514 C 297.387 73.450,304.489 57.263,319.711 52.179 C 326.489 49.916,340.531 49.372,343.578 51.256 C 343.707 51.336,344.040 50.960,344.318 50.421 C 351.278 36.899,373.487 24.489,383.745 28.389 C 384.427 28.648,384.659 28.532,385.859 27.332 C 388.581 24.610,392.421 23.055,397.087 22.785 L 400.000 22.617 400.000 11.308 L 400.000 0.000 200.000 0.000 L 0.000 0.000 0.000 8.066 M321.840 3.659 C 320.453 5.949,315.634 12.071,314.660 12.781 C 313.936 13.308,313.902 13.428,314.219 14.338 C 315.710 18.614,311.738 24.197,307.206 24.197 C 306.754 24.197,306.095 24.641,305.395 25.415 C 304.082 26.869,301.929 28.022,300.048 28.280 C 298.748 28.458,298.644 28.545,297.930 30.053 C 296.502 33.069,290.826 36.033,285.978 36.295 C 284.796 36.359,283.435 36.615,282.952 36.865 C 279.856 38.466,273.994 39.738,269.766 39.727 C 266.988 39.719,267.035 39.328,269.952 38.161 C 272.583 37.110,272.592 37.102,272.757 35.905 C 273.110 33.359,276.840 31.731,279.350 33.029 C 280.865 33.812,283.105 31.610,282.290 30.138 C 282.032 29.672,281.919 28.680,281.968 27.298 C 282.012 26.070,284.510 22.640,286.275 21.385 L 287.609 20.437 287.142 19.554 C 283.584 12.822,294.383 7.119,300.933 12.271 C 301.617 12.810,301.888 12.877,302.277 12.602 C 305.244 10.502,308.377 9.860,310.772 10.861 L 311.906 11.335 313.160 10.206 C 313.850 9.585,315.994 7.894,317.926 6.449 C 319.857 5.003,321.512 3.700,321.603 3.553 C 321.694 3.406,321.835 3.286,321.917 3.286 C 321.999 3.286,321.965 3.454,321.840 3.659 M94.796 11.302 C 96.138 12.438,98.312 14.066,99.627 14.919 C 100.941 15.771,102.429 16.866,102.933 17.352 C 103.835 18.220,103.869 18.227,105.074 17.802 C 108.111 16.731,110.880 17.011,113.219 18.625 L 114.264 19.347 115.310 18.525 C 120.010 14.830,127.753 14.146,133.478 16.919 C 136.516 18.391,138.979 21.346,141.488 26.530 C 142.179 27.957,142.334 28.100,143.047 27.960 C 150.252 26.547,156.180 29.827,156.625 35.474 C 156.690 36.295,157.042 37.583,157.407 38.338 C 159.057 41.745,157.703 45.793,154.103 48.218 L 152.605 49.226 154.943 49.992 C 157.264 50.752,164.734 52.566,167.886 53.135 L 169.529 53.432 167.737 53.313 C 166.751 53.247,164.332 53.056,162.360 52.888 C 160.388 52.720,156.893 52.446,154.593 52.279 C 152.108 52.099,149.623 51.735,148.469 51.382 C 147.401 51.056,145.913 50.788,145.163 50.786 C 144.413 50.785,143.022 50.641,142.072 50.465 C 140.447 50.164,140.281 50.190,139.254 50.901 C 131.212 56.465,112.251 45.669,114.671 36.904 C 114.959 35.864,114.902 35.701,113.666 34.022 C 112.946 33.044,112.270 31.971,112.165 31.639 C 111.951 30.965,110.908 30.472,109.689 30.468 C 107.616 30.460,103.162 27.114,102.153 24.806 C 101.971 24.389,101.010 23.523,100.018 22.883 C 97.325 21.143,93.782 15.775,91.144 9.439 C 89.983 6.649,89.986 6.614,91.286 8.053 C 91.874 8.704,93.454 10.166,94.796 11.302 M279.560 65.188 C 278.858 66.538,277.684 68.252,276.952 68.997 C 275.668 70.302,275.623 70.410,275.698 71.995 C 275.796 74.089,274.945 76.413,273.345 78.417 C 272.690 79.238,271.430 80.986,270.546 82.300 C 268.630 85.149,267.833 85.929,264.780 87.942 C 262.835 89.224,262.329 89.734,261.635 91.113 C 260.242 93.884,257.001 96.339,253.323 97.412 C 252.450 97.666,251.327 98.395,250.117 99.492 C 246.893 102.416,243.117 103.940,239.059 103.953 L 237.491 103.958 237.489 104.929 C 237.483 107.818,233.593 110.149,229.349 109.807 C 225.804 109.522,225.557 109.538,221.359 110.324 C 219.141 110.738,215.108 111.225,212.397 111.405 C 209.686 111.585,206.594 111.792,205.527 111.865 C 203.616 111.996,203.630 111.989,206.423 111.406 C 207.984 111.080,211.412 110.359,214.040 109.802 C 216.669 109.245,219.459 108.714,220.240 108.620 C 221.021 108.527,222.198 108.176,222.856 107.840 L 224.051 107.230 223.862 105.618 C 223.573 103.163,226.282 98.880,228.123 98.880 C 228.670 98.880,228.638 98.604,227.895 96.926 C 225.465 91.431,229.476 86.173,238.409 83.146 C 244.243 81.169,247.963 81.642,251.037 84.750 L 252.187 85.913 253.843 85.077 C 254.754 84.618,255.715 84.242,255.979 84.242 C 256.244 84.242,257.035 83.574,257.738 82.757 C 259.135 81.136,260.725 80.464,262.330 80.816 C 263.396 81.050,264.019 80.572,265.138 78.664 C 266.745 75.922,275.783 67.485,275.260 69.215 C 275.152 69.571,275.280 69.503,275.637 69.016 C 275.933 68.610,276.855 67.468,277.685 66.477 C 278.514 65.486,279.498 64.238,279.871 63.704 C 281.013 62.068,280.899 62.615,279.560 65.188 M81.105 109.037 C 81.207 109.201,81.652 109.333,82.094 109.331 C 82.723 109.327,82.800 109.263,82.450 109.037 C 81.859 108.655,80.870 108.655,81.105 109.037 M201.387 190.900 C 209.416 191.704,216.063 194.238,220.164 198.057 C 221.334 199.146,221.980 199.544,222.405 199.437 C 230.316 197.455,234.577 198.407,236.146 202.509 L 236.744 204.070 238.367 203.874 C 239.260 203.766,240.319 203.553,240.719 203.401 C 241.120 203.248,243.212 202.847,245.369 202.509 C 248.127 202.077,250.000 201.594,251.680 200.880 C 253.314 200.187,253.834 200.050,253.323 200.449 C 250.221 202.871,258.739 199.658,265.057 196.022 C 266.490 195.198,267.662 194.569,267.662 194.625 C 267.662 194.895,260.378 200.449,257.131 202.656 C 247.223 209.390,241.504 212.149,234.156 213.742 C 232.222 214.161,231.841 214.344,231.695 214.925 C 230.615 219.227,220.565 222.204,215.770 219.642 C 214.179 218.791,214.190 218.790,214.190 219.895 C 214.190 227.030,195.033 229.887,187.209 223.919 L 186.194 223.146 184.534 223.906 C 176.403 227.628,161.199 224.093,157.830 217.696 C 157.677 217.406,155.719 216.313,153.479 215.268 C 140.801 209.349,134.580 205.210,127.960 198.289 C 123.369 193.489,122.795 191.822,126.728 194.713 C 128.088 195.712,130.696 197.613,132.522 198.938 L 135.844 201.345 141.484 202.941 L 147.125 204.536 147.727 203.472 C 148.897 201.403,151.717 200.429,153.976 201.314 C 154.576 201.549,156.730 200.367,159.094 198.506 L 160.232 197.610 165.329 197.688 C 168.132 197.731,171.328 197.920,172.430 198.107 L 174.435 198.448 175.716 197.400 C 180.249 193.691,185.828 191.635,193.320 190.912 C 196.983 190.559,197.969 190.557,201.387 190.900 M146.378 208.647 C 146.378 208.850,149.091 210.680,149.213 210.558 C 149.270 210.501,148.656 210.016,147.847 209.482 C 147.039 208.947,146.378 208.571,146.378 208.647 M141.748 273.667 C 143.226 274.010,145.129 274.479,145.977 274.711 C 147.464 275.117,147.570 275.104,149.042 274.340 C 153.890 271.825,160.015 275.446,159.116 280.294 L 158.937 281.255 159.603 280.472 C 161.201 278.592,163.790 278.454,166.894 280.085 C 168.015 280.673,169.645 281.425,170.517 281.755 C 172.341 282.446,174.459 284.308,174.459 285.221 C 174.459 285.879,174.769 286.035,176.699 286.342 C 180.135 286.890,181.537 288.255,180.342 289.888 C 179.357 291.236,172.876 291.059,166.474 289.511 C 164.376 289.004,162.323 288.523,161.912 288.443 C 161.501 288.362,160.426 287.825,159.522 287.248 C 157.160 285.742,156.430 285.434,153.152 284.562 C 149.354 283.552,147.848 282.776,143.764 279.724 C 140.119 277.000,139.911 276.770,141.374 277.083 C 142.277 277.277,142.178 277.131,139.955 274.996 C 138.144 273.256,137.746 272.742,138.312 272.873 C 138.723 272.967,140.269 273.325,141.748 273.667 M349.350 356.647 C 349.194 356.791,348.062 357.678,346.834 358.617 C 342.561 361.885,338.430 365.503,337.850 366.484 C 337.080 367.788,335.173 368.607,332.292 368.872 L 330.007 369.081 329.488 370.678 C 328.612 373.367,325.802 375.545,321.353 376.983 C 320.521 377.252,320.117 377.608,319.810 378.343 C 317.535 383.787,302.166 388.331,296.136 385.344 L 294.591 384.579 293.430 385.792 C 291.379 387.936,288.865 389.841,288.029 389.887 C 287.589 389.910,286.805 389.901,286.286 389.866 C 285.767 389.831,284.762 390.099,284.051 390.462 C 279.942 392.558,272.554 394.623,269.161 394.623 C 266.514 394.623,265.976 395.146,276.321 387.658 C 279.580 385.299,279.762 385.112,279.970 383.894 C 280.345 381.696,282.355 378.983,284.537 377.729 C 285.065 377.426,285.065 377.366,284.513 375.937 C 280.197 364.746,296.402 356.994,302.911 367.137 L 303.844 368.590 306.066 366.264 C 309.969 362.179,316.724 359.716,320.986 360.824 C 323.344 361.436,326.079 362.457,326.896 363.028 C 327.667 363.568,327.780 363.576,328.451 363.136 C 329.960 362.147,334.068 360.856,335.092 361.048 C 335.910 361.201,336.353 361.044,337.682 360.129 C 339.553 358.840,350.519 355.568,349.350 356.647 M118.626 379.561 C 120.499 380.669,123.025 382.243,124.240 383.059 C 125.455 383.875,128.255 385.398,130.463 386.445 L 134.477 388.348 135.331 387.493 C 136.768 386.056,139.479 385.842,141.741 386.987 L 143.180 387.715 144.168 386.962 C 148.363 383.762,156.683 385.484,159.586 390.153 L 160.494 391.614 161.875 391.438 C 162.959 391.301,163.546 390.990,164.600 389.998 C 171.623 383.387,186.014 380.914,195.870 384.624 L 197.769 385.339 198.967 384.039 C 205.134 377.348,217.377 378.298,222.153 385.838 C 223.124 387.370,223.703 388.016,224.027 387.924 C 232.558 385.502,239.667 388.619,241.349 395.519 L 241.822 397.461 245.855 397.360 C 249.342 397.273,250.151 397.155,251.830 396.489 C 253.276 395.916,254.630 395.660,257.135 395.485 C 258.985 395.357,261.526 395.108,262.782 394.934 C 264.039 394.759,265.116 394.665,265.176 394.726 C 265.311 394.861,257.726 400.029,256.389 400.712 C 255.857 400.984,254.378 401.422,253.103 401.685 C 251.304 402.057,250.035 402.598,247.445 404.096 C 243.829 406.189,243.252 406.378,238.983 406.867 C 236.865 407.110,235.579 407.453,233.906 408.219 C 229.005 410.464,222.720 411.142,218.626 409.867 L 216.735 409.279 215.686 410.003 C 207.477 415.675,191.817 415.329,183.186 409.283 L 181.479 408.087 179.506 408.368 C 178.422 408.522,175.397 408.676,172.785 408.710 C 168.991 408.760,167.793 408.879,166.827 409.303 C 160.352 412.140,151.904 409.004,150.267 403.156 L 149.905 401.864 147.792 401.656 C 143.773 401.260,140.400 399.163,139.920 396.763 C 139.678 395.553,136.397 393.153,132.930 391.649 C 130.522 390.605,124.571 387.045,124.571 386.649 C 124.571 386.579,124.739 386.619,124.944 386.737 C 126.014 387.352,124.721 386.411,122.625 385.048 C 120.156 383.442,117.297 381.086,115.089 378.837 C 112.672 376.374,113.539 376.552,118.626 379.561 M317.720 467.184 C 317.330 467.336,317.255 467.480,317.489 467.625 C 317.810 467.823,319.044 467.371,319.044 467.054 C 319.044 466.856,318.394 466.920,317.720 467.184 M209.372 549.523 C 215.389 550.388,221.004 552.733,224.392 555.794 C 225.067 556.403,225.779 556.806,226.018 556.715 C 227.004 556.336,230.449 555.957,234.409 555.791 C 239.157 555.593,239.972 555.777,241.985 557.507 C 244.148 559.366,245.238 559.886,246.241 559.536 C 248.841 558.630,251.954 560.084,252.806 562.604 C 252.851 562.738,255.467 562.098,258.617 561.182 L 264.346 559.515 270.079 555.328 C 276.022 550.987,276.388 550.788,275.596 552.319 C 272.354 558.589,259.118 568.059,244.742 574.395 C 243.093 575.121,242.404 575.617,241.824 576.493 C 240.005 579.242,233.730 582.563,228.699 583.439 C 224.101 584.239,217.088 583.411,214.585 581.771 C 213.948 581.353,213.815 581.391,212.563 582.347 C 204.987 588.130,185.810 585.210,185.810 578.273 C 185.810 577.626,185.709 577.149,185.586 577.213 C 183.168 578.458,182.988 578.491,178.784 578.491 C 172.953 578.491,170.349 577.213,168.395 573.390 C 167.999 572.616,167.651 572.412,166.188 572.097 C 158.943 570.534,154.344 568.415,144.918 562.294 C 139.289 558.640,129.716 551.172,133.831 553.646 C 140.000 557.356,148.528 560.805,146.795 558.890 C 146.134 558.159,146.255 558.178,148.152 559.093 C 149.025 559.514,150.831 560.061,152.166 560.308 C 153.501 560.556,155.937 561.034,157.580 561.372 C 162.660 562.414,163.290 562.419,163.534 561.415 C 164.573 557.149,170.639 555.408,176.921 557.572 L 178.142 557.993 180.197 556.091 C 186.141 550.588,198.082 547.899,209.372 549.523 M251.872 567.892 C 250.101 569.056,249.914 569.325,251.473 568.466 C 252.181 568.076,252.903 567.585,253.078 567.374 C 253.517 566.845,253.368 566.909,251.872 567.892 M260.285 633.084 C 258.173 635.131,258.091 635.258,258.796 635.400 C 260.975 635.836,251.340 641.653,246.112 643.058 C 243.913 643.648,242.571 644.217,241.198 645.137 C 239.990 645.947,238.685 646.535,237.578 646.767 C 236.626 646.967,234.320 647.516,232.452 647.987 C 226.581 649.469,220.627 649.528,219.700 648.113 C 218.614 646.455,219.632 645.416,223.074 644.670 C 225.181 644.214,225.254 644.168,225.912 642.864 C 226.632 641.436,226.652 641.424,232.939 638.424 C 236.391 636.776,238.344 636.753,239.980 638.338 L 240.956 639.284 240.832 638.222 C 240.291 633.588,246.108 630.261,250.766 632.539 L 252.421 633.349 254.590 632.844 C 255.783 632.565,257.969 632.031,259.447 631.655 C 260.926 631.280,262.222 630.961,262.328 630.946 C 262.434 630.931,261.514 631.893,260.285 633.084 " stroke="none" fill="#d4e4e4" fill-rule="evenodd"></path></g></svg>