<svg id="svg" version="1.1" xmlns="http://www.w3.org/2000/svg" xmlns:xlink="http://www.w3.org/1999/xlink" width="400" height="9.375" viewBox="0, 0, 400,9.375"><g id="svgg"><path id="path0" d="M7.283 2.106 C 6.900 2.489,7.191 2.817,7.958 2.866 L 8.750 2.917 8.797 4.875 L 8.844 6.833 9.339 6.833 L 9.833 6.833 9.833 4.833 L 9.833 2.833 10.595 2.833 C 11.289 2.833,11.352 2.800,11.303 2.458 C 11.249 2.080,7.627 1.762,7.283 2.106 M26.617 2.105 C 26.553 2.170,26.500 3.260,26.500 4.528 L 26.500 6.833 28.167 6.833 L 29.833 6.833 29.833 6.417 C 29.833 6.012,29.801 6.000,28.656 6.000 L 27.479 6.000 27.531 5.458 C 27.582 4.930,27.605 4.915,28.458 4.866 C 29.088 4.830,29.333 4.748,29.333 4.575 C 29.333 4.442,29.352 4.277,29.375 4.208 C 29.398 4.140,29.004 4.046,28.500 4.000 C 27.611 3.919,27.583 3.902,27.583 3.417 L 27.583 2.917 28.719 2.867 C 29.782 2.821,29.851 2.794,29.802 2.450 C 29.749 2.078,26.948 1.774,26.617 2.105 M376.375 2.458 C 375.430 2.928,375.829 3.542,376.848 3.187 C 378.487 2.615,378.326 3.891,376.515 5.820 C 375.310 7.103,375.415 7.223,377.669 7.133 C 378.875 7.085,378.917 7.070,378.917 6.667 C 378.917 6.289,378.839 6.242,378.083 6.167 C 377.326 6.091,377.283 6.065,377.607 5.879 C 380.027 4.492,378.851 1.225,376.375 2.458 M380.552 2.483 C 378.969 3.476,379.596 7.167,381.348 7.167 C 382.490 7.167,383.142 6.473,383.282 5.110 C 383.513 2.854,382.111 1.504,380.552 2.483 M384.375 2.488 C 383.793 2.854,383.729 2.996,384.018 3.284 C 384.152 3.419,384.355 3.404,384.771 3.230 C 386.616 2.460,386.366 3.939,384.292 6.075 C 383.325 7.069,383.520 7.219,385.669 7.133 C 386.892 7.084,386.918 7.074,386.969 6.625 C 387.020 6.182,386.996 6.167,386.228 6.167 L 385.435 6.167 385.949 5.625 C 387.872 3.599,386.611 1.085,384.375 2.488 M388.494 2.820 C 387.804 3.401,387.974 3.884,388.745 3.532 L 389.167 3.340 389.167 4.743 L 389.167 6.146 388.625 6.198 C 388.172 6.241,388.083 6.318,388.083 6.667 C 388.083 7.080,388.094 7.083,389.583 7.083 C 391.072 7.083,391.083 7.080,391.083 6.667 C 391.083 6.336,390.989 6.239,390.625 6.197 L 390.167 6.145 390.167 4.239 L 390.167 2.333 389.619 2.333 C 389.256 2.333,388.875 2.498,388.494 2.820 M47.367 2.867 C 47.257 2.977,47.167 3.164,47.167 3.283 C 47.167 3.402,47.054 3.500,46.917 3.500 C 46.761 3.500,46.667 3.657,46.667 3.917 C 46.667 4.176,46.761 4.333,46.917 4.333 C 47.105 4.333,47.167 4.536,47.167 5.156 C 47.167 6.637,47.658 7.176,48.758 6.900 C 49.296 6.765,49.238 6.301,48.666 6.167 C 47.985 6.008,47.942 4.381,48.617 4.304 C 49.334 4.221,49.389 3.500,48.678 3.500 C 48.244 3.500,48.167 3.437,48.167 3.083 C 48.167 2.627,47.726 2.508,47.367 2.867 M381.767 3.128 C 382.671 3.731,382.456 6.250,381.500 6.250 C 380.911 6.250,380.640 5.624,380.714 4.436 C 380.784 3.305,381.220 2.763,381.767 3.128 M12.076 3.909 C 11.174 4.811,11.698 6.699,12.913 6.927 C 13.461 7.030,14.669 6.755,14.664 6.529 C 14.655 6.150,14.338 5.973,13.858 6.078 C 13.223 6.217,12.667 6.059,12.667 5.739 C 12.667 5.564,12.886 5.500,13.486 5.500 C 14.875 5.500,15.121 5.206,14.589 4.179 C 14.162 3.353,12.780 3.205,12.076 3.909 M15.625 3.680 C 14.910 4.096,15.363 4.557,16.247 4.313 C 16.734 4.178,16.910 4.188,17.012 4.353 C 17.206 4.667,17.080 4.777,16.400 4.887 C 14.256 5.235,14.859 7.094,17.049 6.889 L 18.167 6.785 18.167 5.513 C 18.167 3.651,17.053 2.848,15.625 3.680 M19.000 5.181 L 19.000 6.833 19.500 6.833 L 20.000 6.833 20.000 5.595 C 20.000 4.487,20.037 4.344,20.346 4.246 C 20.834 4.091,20.873 4.176,20.963 5.580 C 21.039 6.765,21.066 6.833,21.439 6.833 C 21.816 6.833,21.833 6.782,21.833 5.673 C 21.833 4.678,21.882 4.486,22.170 4.331 C 22.711 4.042,22.833 4.276,22.833 5.593 L 22.833 6.833 23.333 6.833 L 23.833 6.833 23.833 5.354 C 23.833 3.484,23.904 3.533,21.208 3.531 L 19.000 3.530 19.000 5.181 M30.167 3.691 C 30.167 4.498,31.402 6.833,31.828 6.833 C 32.243 6.833,33.500 4.454,33.500 3.670 C 33.500 2.977,32.542 3.559,32.272 4.417 C 31.915 5.548,31.835 5.552,31.417 4.456 C 31.091 3.603,30.167 3.037,30.167 3.691 M34.253 3.898 C 32.897 5.255,34.189 7.424,36.038 6.894 C 36.787 6.679,36.824 6.063,36.083 6.126 C 35.357 6.189,34.833 6.030,34.833 5.747 C 34.833 5.556,35.061 5.500,35.833 5.500 L 36.833 5.500 36.833 4.989 C 36.833 3.572,35.249 2.902,34.253 3.898 M37.500 5.178 L 37.500 6.833 38.000 6.833 L 38.500 6.833 38.500 5.783 C 38.500 4.662,38.673 4.333,39.266 4.333 C 39.595 4.333,39.833 4.051,39.833 3.661 C 39.833 3.581,39.308 3.518,38.667 3.520 L 37.500 3.523 37.500 5.178 M40.487 3.930 C 39.181 5.321,40.514 7.398,42.359 6.845 C 43.314 6.559,43.197 6.061,42.193 6.137 C 41.528 6.188,41.000 5.974,41.000 5.654 C 41.000 5.578,41.469 5.494,42.042 5.466 C 43.069 5.417,43.084 5.409,43.133 4.908 C 43.260 3.609,41.426 2.931,40.487 3.930 M43.845 3.939 C 43.311 4.618,43.606 5.169,44.702 5.540 C 45.581 5.838,45.470 6.083,44.458 6.083 C 43.776 6.083,43.579 6.144,43.535 6.365 C 43.454 6.774,44.643 7.106,45.458 6.903 C 46.818 6.564,46.739 5.235,45.334 4.814 C 44.417 4.539,44.416 4.095,45.333 4.250 C 45.872 4.341,46.020 4.309,46.107 4.081 C 46.384 3.359,44.400 3.234,43.845 3.939 M13.727 4.417 C 13.801 4.610,13.688 4.667,13.224 4.667 C 12.711 4.667,12.655 4.631,12.833 4.417 C 12.947 4.279,13.174 4.167,13.336 4.167 C 13.498 4.167,13.674 4.279,13.727 4.417 M35.793 4.458 C 35.837 4.595,35.684 4.667,35.347 4.667 C 34.852 4.667,34.704 4.518,34.951 4.271 C 35.130 4.092,35.715 4.222,35.793 4.458 M42.126 4.458 C 42.171 4.595,42.017 4.667,41.681 4.667 C 41.185 4.667,41.037 4.518,41.285 4.271 C 41.464 4.092,42.048 4.222,42.126 4.458 M17.136 5.792 C 17.065 6.166,16.167 6.305,16.167 5.942 C 16.167 5.675,16.404 5.534,16.887 5.513 C 17.090 5.504,17.173 5.597,17.136 5.792 " stroke="none" fill="#f7f8fa" fill-rule="evenodd"></path><path id="path1" d="M0.000 4.667 L 0.000 9.333 200.000 9.333 L 400.000 9.333 400.000 4.667 L 400.000 0.000 200.000 0.000 L 0.000 0.000 0.000 4.667 M11.303 2.458 C 11.352 2.800,11.289 2.833,10.595 2.833 L 9.833 2.833 9.833 4.833 L 9.833 6.833 9.339 6.833 L 8.844 6.833 8.797 4.875 L 8.750 2.917 7.958 2.866 C 7.191 2.817,6.900 2.489,7.283 2.106 C 7.627 1.762,11.249 2.080,11.303 2.458 M29.802 2.450 C 29.851 2.794,29.782 2.821,28.719 2.867 L 27.583 2.917 27.583 3.417 C 27.583 3.902,27.611 3.919,28.500 4.000 C 29.004 4.046,29.398 4.140,29.375 4.208 C 29.352 4.277,29.333 4.442,29.333 4.575 C 29.333 4.748,29.088 4.830,28.458 4.866 C 27.605 4.915,27.582 4.930,27.531 5.458 L 27.479 6.000 28.656 6.000 C 29.801 6.000,29.833 6.012,29.833 6.417 L 29.833 6.833 28.167 6.833 L 26.500 6.833 26.500 4.528 C 26.500 1.789,26.369 1.977,28.242 2.036 C 29.652 2.080,29.753 2.107,29.802 2.450 M378.321 2.411 C 379.402 2.969,378.963 5.102,377.607 5.879 C 377.283 6.065,377.326 6.091,378.083 6.167 C 378.839 6.242,378.917 6.289,378.917 6.667 C 378.917 7.070,378.875 7.085,377.669 7.133 C 375.415 7.223,375.310 7.103,376.515 5.820 C 378.326 3.891,378.487 2.615,376.848 3.187 C 375.829 3.542,375.430 2.928,376.375 2.458 C 377.062 2.116,377.721 2.100,378.321 2.411 M382.680 2.596 C 383.726 3.542,383.435 6.430,382.240 6.974 C 380.463 7.784,379.169 5.881,379.844 3.450 C 380.171 2.275,381.788 1.788,382.680 2.596 M386.702 2.669 C 387.276 3.378,386.981 4.538,385.949 5.625 L 385.435 6.167 386.228 6.167 C 386.996 6.167,387.020 6.182,386.969 6.625 C 386.918 7.074,386.892 7.084,385.669 7.133 C 383.520 7.219,383.325 7.069,384.292 6.075 C 386.366 3.939,386.616 2.460,384.771 3.230 C 384.219 3.461,383.833 3.352,383.833 2.964 C 383.833 2.208,386.136 1.970,386.702 2.669 M390.167 4.239 L 390.167 6.145 390.625 6.197 C 390.989 6.239,391.083 6.336,391.083 6.667 C 391.083 7.080,391.072 7.083,389.583 7.083 C 388.094 7.083,388.083 7.080,388.083 6.667 C 388.083 6.318,388.172 6.241,388.625 6.198 L 389.167 6.146 389.167 4.743 L 389.167 3.340 388.745 3.532 C 388.420 3.681,388.278 3.677,388.120 3.515 C 387.810 3.196,388.904 2.333,389.619 2.333 L 390.167 2.333 390.167 4.239 M48.167 3.083 C 48.167 3.437,48.244 3.500,48.678 3.500 C 49.389 3.500,49.334 4.221,48.617 4.304 C 47.942 4.381,47.985 6.008,48.666 6.167 C 49.238 6.301,49.296 6.765,48.758 6.900 C 47.658 7.176,47.167 6.637,47.167 5.156 C 47.167 4.536,47.105 4.333,46.917 4.333 C 46.761 4.333,46.667 4.176,46.667 3.917 C 46.667 3.657,46.761 3.500,46.917 3.500 C 47.054 3.500,47.167 3.402,47.167 3.283 C 47.167 2.974,47.516 2.667,47.867 2.667 C 48.076 2.667,48.167 2.793,48.167 3.083 M381.086 3.228 C 380.686 3.520,380.548 5.218,380.873 5.833 C 381.401 6.831,382.326 6.110,382.331 4.697 C 382.335 3.406,381.764 2.732,381.086 3.228 M14.076 3.604 C 14.396 3.726,14.833 4.517,14.833 4.974 C 14.833 5.380,14.525 5.500,13.486 5.500 C 12.886 5.500,12.667 5.564,12.667 5.739 C 12.667 6.059,13.223 6.217,13.858 6.078 C 14.214 6.000,14.420 6.035,14.518 6.191 C 15.077 7.072,12.693 7.260,12.007 6.388 C 10.839 4.903,12.309 2.926,14.076 3.604 M17.907 3.870 C 18.087 4.127,18.167 4.631,18.167 5.513 L 18.167 6.785 17.049 6.889 C 14.859 7.094,14.256 5.235,16.400 4.887 C 17.080 4.777,17.206 4.667,17.012 4.353 C 16.910 4.188,16.734 4.178,16.247 4.313 C 15.563 4.502,15.333 4.444,15.333 4.082 C 15.333 3.417,17.467 3.242,17.907 3.870 M23.625 3.703 C 23.763 3.817,23.833 4.372,23.833 5.354 L 23.833 6.833 23.333 6.833 L 22.833 6.833 22.833 5.593 C 22.833 4.276,22.711 4.042,22.170 4.331 C 21.882 4.486,21.833 4.678,21.833 5.673 C 21.833 6.782,21.816 6.833,21.439 6.833 C 21.066 6.833,21.039 6.765,20.963 5.580 C 20.873 4.176,20.834 4.091,20.346 4.246 C 20.037 4.344,20.000 4.487,20.000 5.595 L 20.000 6.833 19.500 6.833 L 19.000 6.833 19.000 5.181 L 19.000 3.530 21.208 3.531 C 22.467 3.532,23.506 3.606,23.625 3.703 M31.417 4.456 C 31.835 5.552,31.915 5.548,32.272 4.417 C 32.542 3.559,33.500 2.977,33.500 3.670 C 33.500 4.454,32.243 6.833,31.828 6.833 C 31.402 6.833,30.167 4.498,30.167 3.691 C 30.167 3.037,31.091 3.603,31.417 4.456 M36.267 3.628 C 36.576 3.834,36.833 4.452,36.833 4.989 L 36.833 5.500 35.833 5.500 C 35.061 5.500,34.833 5.556,34.833 5.747 C 34.833 6.030,35.357 6.189,36.083 6.126 C 36.824 6.063,36.787 6.679,36.038 6.894 C 34.189 7.424,32.897 5.255,34.253 3.898 C 34.655 3.496,35.833 3.338,36.267 3.628 M39.833 3.661 C 39.833 4.051,39.595 4.333,39.266 4.333 C 38.673 4.333,38.500 4.662,38.500 5.783 L 38.500 6.833 38.000 6.833 L 37.500 6.833 37.500 5.178 L 37.500 3.523 38.667 3.520 C 39.308 3.518,39.833 3.581,39.833 3.661 M42.829 3.949 C 43.544 4.859,43.259 5.408,42.042 5.466 C 41.469 5.494,41.000 5.578,41.000 5.654 C 41.000 5.974,41.528 6.188,42.193 6.137 C 43.197 6.061,43.314 6.559,42.359 6.845 C 40.982 7.258,40.083 6.639,40.083 5.278 C 40.083 3.608,41.878 2.740,42.829 3.949 M45.983 3.652 C 46.483 3.969,46.046 4.370,45.333 4.250 C 44.416 4.095,44.417 4.539,45.334 4.814 C 46.739 5.235,46.818 6.564,45.458 6.903 C 44.643 7.106,43.454 6.774,43.535 6.365 C 43.579 6.144,43.776 6.083,44.458 6.083 C 45.470 6.083,45.581 5.838,44.702 5.540 C 44.131 5.347,43.500 4.802,43.500 4.504 C 43.500 3.747,45.207 3.161,45.983 3.652 M12.833 4.417 C 12.655 4.631,12.711 4.667,13.224 4.667 C 13.688 4.667,13.801 4.610,13.727 4.417 C 13.674 4.279,13.498 4.167,13.336 4.167 C 13.174 4.167,12.947 4.279,12.833 4.417 M34.951 4.271 C 34.704 4.518,34.852 4.667,35.347 4.667 C 35.684 4.667,35.837 4.595,35.793 4.458 C 35.715 4.222,35.130 4.092,34.951 4.271 M41.285 4.271 C 41.037 4.518,41.185 4.667,41.681 4.667 C 42.017 4.667,42.171 4.595,42.126 4.458 C 42.048 4.222,41.464 4.092,41.285 4.271 M16.375 5.610 C 16.260 5.657,16.167 5.806,16.167 5.942 C 16.167 6.305,17.065 6.166,17.136 5.792 C 17.191 5.502,16.846 5.420,16.375 5.610 " stroke="none" fill="#b4bcdc" fill-rule="evenodd"></path></g></svg>