<svg id="svg" version="1.1" xmlns="http://www.w3.org/2000/svg" xmlns:xlink="http://www.w3.org/1999/xlink" width="400" height="50.909090909090914" viewBox="0, 0, 400,50.909090909090914"><g id="svgg"><path id="path0" d="M254.000 0.167 C 254.000 0.258,253.818 0.333,253.595 0.333 C 253.373 0.333,253.078 0.446,252.940 0.583 C 252.803 0.721,252.591 0.835,252.470 0.836 C 252.207 0.840,251.500 1.553,251.500 1.815 C 251.500 1.917,251.387 2.000,251.250 2.000 C 251.112 2.000,251.000 2.104,251.000 2.231 C 251.000 2.357,250.850 2.500,250.667 2.548 C 250.427 2.611,250.333 2.776,250.333 3.133 C 250.333 3.422,250.228 3.671,250.083 3.727 C 249.880 3.805,249.833 4.200,249.833 5.833 C 249.833 7.467,249.880 7.862,250.083 7.940 C 250.221 7.992,250.333 8.147,250.333 8.283 C 250.333 8.420,250.483 8.570,250.667 8.618 C 250.850 8.666,251.000 8.809,251.000 8.936 C 251.000 9.063,251.112 9.167,251.250 9.167 C 251.387 9.167,251.500 9.274,251.500 9.405 C 251.500 9.537,251.643 9.690,251.818 9.745 C 251.993 9.801,252.178 9.956,252.229 10.090 C 252.281 10.224,252.518 10.333,252.757 10.333 C 252.995 10.333,253.303 10.446,253.440 10.583 C 253.766 10.909,255.165 10.912,255.593 10.589 C 255.811 10.423,256.338 10.342,257.214 10.339 C 258.209 10.335,258.533 10.275,258.606 10.083 C 258.662 9.938,258.911 9.833,259.200 9.833 C 259.558 9.833,259.722 9.739,259.785 9.500 C 259.835 9.310,260.012 9.167,260.199 9.167 C 260.631 9.167,261.500 8.284,261.500 7.846 C 261.500 7.656,261.604 7.500,261.732 7.500 C 261.984 7.500,262.167 7.151,262.167 6.671 C 262.167 6.505,262.279 6.326,262.417 6.273 C 262.777 6.135,262.781 3.367,262.421 3.229 C 262.286 3.177,262.128 2.879,262.069 2.567 C 262.009 2.245,261.863 2.000,261.731 2.000 C 261.604 2.000,261.500 1.929,261.500 1.842 C 261.500 1.622,260.749 0.833,260.540 0.833 C 260.446 0.833,260.326 0.721,260.273 0.583 C 260.217 0.437,259.967 0.333,259.672 0.333 C 259.394 0.333,259.167 0.258,259.167 0.167 C 259.167 0.063,258.194 0.000,256.583 0.000 C 254.972 0.000,254.000 0.063,254.000 0.167 M57.621 1.070 C 57.476 1.215,57.239 1.333,57.095 1.333 C 56.944 1.333,56.833 1.475,56.833 1.667 C 56.833 1.852,56.722 2.000,56.583 2.000 C 55.748 2.000,55.667 2.409,55.661 6.625 C 55.657 9.841,55.610 10.644,55.411 10.907 C 55.079 11.346,55.083 12.812,55.417 12.940 C 55.636 13.024,55.667 14.743,55.667 27.018 C 55.667 39.335,55.696 41.000,55.917 41.000 C 56.054 41.000,56.167 41.120,56.167 41.266 C 56.167 41.412,56.317 41.570,56.500 41.618 C 56.683 41.666,56.833 41.809,56.833 41.936 C 56.833 42.124,57.400 42.167,59.899 42.167 C 62.470 42.167,62.980 42.207,63.060 42.417 C 63.193 42.763,64.805 42.769,64.937 42.423 C 64.989 42.289,65.174 42.134,65.349 42.078 C 65.649 41.983,65.667 41.772,65.667 38.338 C 65.667 34.780,65.674 34.700,66.000 34.785 C 66.184 34.833,66.333 35.012,66.333 35.186 C 66.333 35.359,66.446 35.500,66.583 35.500 C 66.721 35.500,66.833 35.612,66.833 35.750 C 66.833 35.889,66.981 36.000,67.167 36.000 C 67.355 36.000,67.500 36.111,67.500 36.255 C 67.500 36.396,67.612 36.554,67.750 36.606 C 67.887 36.659,68.000 36.807,68.000 36.934 C 68.000 37.062,68.112 37.167,68.250 37.167 C 68.387 37.167,68.500 37.279,68.500 37.417 C 68.500 37.556,68.648 37.667,68.833 37.667 C 69.022 37.667,69.167 37.778,69.167 37.922 C 69.167 38.062,69.279 38.220,69.417 38.273 C 69.559 38.328,69.667 38.576,69.667 38.851 C 69.667 39.169,69.752 39.333,69.917 39.333 C 70.054 39.333,70.167 39.414,70.167 39.513 C 70.167 39.717,71.456 41.000,71.661 41.000 C 71.734 41.000,71.834 41.150,71.882 41.333 C 71.944 41.573,72.109 41.667,72.467 41.667 C 72.755 41.667,73.005 41.772,73.060 41.917 C 73.132 42.104,73.439 42.168,74.286 42.172 C 75.015 42.175,75.532 42.264,75.740 42.422 C 76.197 42.767,78.307 42.763,78.440 42.417 C 78.509 42.236,78.797 42.165,79.476 42.161 C 80.863 42.154,81.333 41.697,81.333 40.359 C 81.333 39.633,81.267 39.343,81.083 39.273 C 80.903 39.204,80.833 38.920,80.833 38.250 C 80.833 37.580,80.764 37.296,80.583 37.227 C 80.446 37.174,80.333 36.989,80.333 36.816 C 80.333 36.642,80.183 36.350,80.000 36.167 C 79.817 35.983,79.667 35.758,79.667 35.667 C 79.667 35.575,79.554 35.500,79.417 35.500 C 79.279 35.500,79.167 35.387,79.167 35.250 C 79.167 35.112,79.054 35.000,78.917 35.000 C 78.748 35.000,78.667 34.832,78.667 34.484 C 78.667 34.109,78.576 33.945,78.333 33.882 C 78.096 33.820,78.000 33.654,78.000 33.309 C 78.000 33.031,77.893 32.782,77.750 32.727 C 77.612 32.674,77.500 32.527,77.500 32.399 C 77.500 32.271,77.393 32.167,77.263 32.167 C 77.133 32.167,76.976 31.937,76.914 31.655 C 76.852 31.374,76.696 31.104,76.568 31.054 C 76.439 31.005,76.333 30.860,76.333 30.732 C 76.333 30.604,76.230 30.500,76.103 30.500 C 75.976 30.500,75.833 30.350,75.785 30.167 C 75.737 29.983,75.578 29.833,75.432 29.833 C 75.286 29.833,75.167 29.721,75.167 29.583 C 75.167 29.446,75.054 29.333,74.917 29.333 C 74.779 29.333,74.667 29.221,74.667 29.083 C 74.667 28.946,74.563 28.833,74.436 28.833 C 74.309 28.833,74.166 28.683,74.118 28.500 C 74.070 28.317,73.912 28.167,73.766 28.167 C 73.620 28.167,73.500 28.054,73.500 27.917 C 73.500 27.779,73.387 27.667,73.250 27.667 C 73.112 27.667,73.000 27.554,73.000 27.417 C 73.000 27.279,72.896 27.167,72.769 27.167 C 72.643 27.167,72.500 27.017,72.452 26.833 C 72.404 26.650,72.245 26.500,72.099 26.500 C 71.953 26.500,71.833 26.387,71.833 26.250 C 71.833 25.966,72.412 25.333,72.672 25.333 C 72.766 25.333,72.887 25.221,72.940 25.083 C 72.992 24.946,73.140 24.833,73.268 24.833 C 73.396 24.833,73.500 24.721,73.500 24.583 C 73.500 24.446,73.620 24.333,73.766 24.333 C 73.912 24.333,74.070 24.183,74.118 24.000 C 74.166 23.817,74.309 23.667,74.436 23.667 C 74.563 23.667,74.667 23.554,74.667 23.417 C 74.667 23.279,74.779 23.167,74.917 23.167 C 75.054 23.167,75.167 23.054,75.167 22.917 C 75.167 22.629,75.646 22.108,76.054 21.951 C 76.208 21.892,76.333 21.766,76.333 21.672 C 76.333 21.577,76.404 21.500,76.491 21.500 C 76.721 21.500,77.500 20.745,77.500 20.523 C 77.500 20.418,77.612 20.333,77.750 20.333 C 77.887 20.333,78.000 20.221,78.000 20.083 C 78.000 19.946,78.085 19.833,78.189 19.833 C 78.418 19.833,79.167 19.052,79.167 18.813 C 79.167 18.719,79.279 18.530,79.417 18.393 C 79.554 18.255,79.667 17.972,79.667 17.764 C 79.667 17.556,79.817 17.249,80.000 17.083 C 80.247 16.860,80.333 16.570,80.333 15.968 C 80.333 15.488,80.448 14.980,80.613 14.728 C 80.870 14.336,80.871 14.260,80.627 13.776 C 80.481 13.487,80.316 13.045,80.262 12.795 C 80.201 12.517,79.967 12.239,79.664 12.082 C 79.391 11.941,79.167 11.752,79.167 11.662 C 79.167 11.573,78.837 11.500,78.434 11.500 C 77.937 11.500,77.672 11.420,77.606 11.250 C 77.472 10.900,75.575 10.895,75.380 11.245 C 75.272 11.436,74.773 11.500,73.080 11.536 C 70.979 11.582,70.915 11.594,70.863 11.959 C 70.834 12.165,70.665 12.412,70.488 12.506 C 70.311 12.601,70.167 12.788,70.167 12.923 C 70.167 13.057,70.054 13.167,69.917 13.167 C 69.779 13.167,69.667 13.279,69.667 13.417 C 69.667 13.554,69.554 13.667,69.417 13.667 C 69.279 13.667,69.167 13.808,69.167 13.981 C 69.167 14.154,69.018 14.333,68.833 14.382 C 68.608 14.441,68.500 14.609,68.500 14.901 C 68.500 15.174,68.408 15.333,68.250 15.333 C 68.111 15.333,68.000 15.481,68.000 15.667 C 68.000 15.852,67.889 16.000,67.750 16.000 C 67.612 16.000,67.500 16.112,67.500 16.250 C 67.500 16.387,67.353 16.500,67.173 16.500 C 66.855 16.500,66.845 16.336,66.798 10.805 C 66.761 6.433,66.702 5.095,66.542 5.042 C 66.394 4.992,66.333 4.493,66.333 3.314 C 66.333 1.886,66.293 1.642,66.042 1.553 C 65.881 1.496,65.611 1.329,65.441 1.183 C 64.974 0.781,58.011 0.680,57.621 1.070 M136.579 1.062 C 136.398 1.188,136.006 1.344,135.708 1.409 C 135.407 1.474,135.167 1.631,135.167 1.763 C 135.167 1.893,135.062 2.000,134.934 2.000 C 134.531 2.000,134.500 2.411,134.500 7.847 C 134.500 12.727,134.379 14.160,134.087 12.750 C 134.039 12.521,133.961 12.146,133.913 11.917 C 133.839 11.558,133.736 11.500,133.177 11.500 C 132.810 11.500,132.495 11.410,132.451 11.292 C 132.390 11.125,132.331 11.125,132.154 11.292 C 131.839 11.589,130.423 11.559,130.167 11.250 C 130.047 11.106,129.684 11.000,129.310 11.000 C 128.700 11.000,128.667 10.975,128.765 10.582 C 128.831 10.322,128.769 10.010,128.602 9.755 C 128.438 9.505,128.333 8.991,128.333 8.440 C 128.333 7.832,128.259 7.507,128.107 7.449 C 127.982 7.401,127.832 7.055,127.772 6.681 C 127.712 6.306,127.597 6.000,127.517 6.000 C 127.438 6.000,127.333 5.850,127.285 5.667 C 127.237 5.483,127.078 5.333,126.932 5.333 C 126.786 5.333,126.667 5.221,126.667 5.083 C 126.667 4.873,126.289 4.833,124.270 4.833 C 122.344 4.833,121.833 4.882,121.667 5.083 C 121.525 5.254,121.147 5.333,120.480 5.333 C 119.720 5.333,119.500 5.389,119.500 5.583 C 119.500 5.721,119.385 5.833,119.245 5.833 C 119.104 5.833,118.941 5.965,118.882 6.125 C 118.823 6.285,118.676 6.477,118.554 6.550 C 118.388 6.650,118.333 7.256,118.333 9.008 C 118.333 11.718,118.206 12.000,116.984 12.000 C 116.442 12.000,116.284 12.068,116.215 12.333 C 116.167 12.517,116.022 12.667,115.892 12.667 C 115.762 12.667,115.607 12.798,115.546 12.958 C 115.485 13.119,115.337 13.349,115.218 13.470 C 114.904 13.788,114.907 18.427,115.221 18.617 C 115.342 18.690,115.490 18.881,115.549 19.042 C 115.608 19.202,115.771 19.333,115.911 19.333 C 116.052 19.333,116.167 19.446,116.167 19.583 C 116.167 19.721,116.271 19.833,116.399 19.833 C 116.527 19.833,116.674 19.946,116.727 20.083 C 116.793 20.255,117.061 20.333,117.578 20.333 L 118.333 20.333 118.333 28.672 C 118.333 35.930,118.366 37.023,118.583 37.106 C 118.724 37.160,118.833 37.408,118.833 37.673 C 118.833 37.998,118.937 38.177,119.167 38.250 C 119.381 38.318,119.500 38.502,119.500 38.766 C 119.500 38.992,119.612 39.220,119.750 39.273 C 119.888 39.326,120.001 39.455,120.003 39.559 C 120.007 39.800,120.735 40.500,120.982 40.500 C 121.083 40.500,121.167 40.612,121.167 40.750 C 121.167 40.923,121.340 41.000,121.731 41.000 C 122.154 41.000,122.316 41.083,122.382 41.333 C 122.451 41.599,122.609 41.667,123.163 41.667 C 123.558 41.667,123.965 41.774,124.107 41.917 C 124.467 42.277,133.129 42.292,133.267 41.933 C 133.316 41.805,133.501 41.662,133.678 41.615 C 133.855 41.569,134.000 41.420,134.000 41.283 C 134.000 41.147,134.112 40.992,134.250 40.940 C 134.398 40.883,134.505 40.620,134.513 40.297 C 134.520 39.996,134.569 39.862,134.621 40.000 C 134.673 40.137,134.817 40.310,134.941 40.383 C 135.065 40.457,135.167 40.625,135.167 40.758 C 135.167 40.891,135.279 41.000,135.417 41.000 C 135.554 41.000,135.667 41.105,135.667 41.233 C 135.667 42.072,143.968 42.745,144.450 41.946 C 144.523 41.824,144.715 41.677,144.875 41.618 C 145.274 41.471,145.313 39.333,144.917 39.333 C 144.733 39.333,144.667 39.141,144.667 38.604 C 144.667 38.159,144.764 37.793,144.917 37.667 C 145.103 37.512,145.167 37.100,145.167 36.058 C 145.167 34.966,145.111 34.635,144.917 34.560 C 144.603 34.440,144.603 33.715,144.917 33.167 C 145.248 32.588,145.251 30.176,144.922 29.740 C 144.583 29.292,144.583 26.874,144.922 26.426 C 145.110 26.178,145.167 25.567,145.167 23.801 C 145.167 21.867,145.207 21.500,145.417 21.500 C 145.554 21.500,145.667 21.387,145.667 21.250 C 145.667 21.077,145.841 21.000,146.236 21.000 C 146.971 21.000,147.333 20.856,147.333 20.566 C 147.333 20.262,147.938 20.264,148.054 20.568 C 148.104 20.696,148.374 20.852,148.655 20.914 C 148.937 20.976,149.167 21.133,149.167 21.263 C 149.167 21.393,149.279 21.500,149.417 21.500 C 149.708 21.500,149.782 22.909,149.500 23.083 C 149.408 23.140,149.333 23.702,149.333 24.333 C 149.333 24.964,149.408 25.527,149.500 25.583 C 149.600 25.645,149.667 26.785,149.667 28.443 C 149.667 30.618,149.723 31.318,149.932 31.758 C 150.174 32.269,150.174 32.350,149.932 32.696 C 149.730 32.984,149.667 33.496,149.667 34.853 C 149.667 36.280,149.617 36.650,149.417 36.727 C 149.240 36.795,149.167 37.070,149.167 37.667 C 149.167 38.263,149.240 38.539,149.417 38.606 C 149.596 38.675,149.667 38.956,149.667 39.601 C 149.667 40.267,149.728 40.500,149.903 40.500 C 150.034 40.500,150.189 40.720,150.248 40.989 C 150.328 41.357,150.477 41.505,150.844 41.586 C 151.113 41.645,151.333 41.800,151.333 41.930 C 151.333 42.068,151.498 42.167,151.730 42.167 C 151.948 42.167,152.215 42.274,152.324 42.405 C 152.618 42.759,158.807 42.762,158.943 42.408 C 158.994 42.275,159.136 42.167,159.259 42.167 C 159.650 42.167,160.333 41.397,160.333 40.957 C 160.333 40.725,160.446 40.492,160.583 40.440 C 160.796 40.358,160.833 39.764,160.833 36.505 C 160.833 34.394,160.898 32.667,160.977 32.667 C 161.056 32.667,161.086 32.845,161.045 33.064 C 161.003 33.282,161.051 33.512,161.151 33.574 C 161.251 33.636,161.333 34.122,161.333 34.654 C 161.333 35.369,161.420 35.732,161.667 36.045 C 161.850 36.279,162.000 36.618,162.000 36.800 C 162.000 36.982,162.112 37.174,162.250 37.227 C 162.387 37.280,162.500 37.504,162.500 37.725 C 162.500 37.988,162.616 38.158,162.833 38.215 C 163.017 38.263,163.167 38.422,163.167 38.568 C 163.167 38.714,163.279 38.833,163.417 38.833 C 163.554 38.833,163.667 38.946,163.667 39.083 C 163.667 39.221,163.779 39.333,163.917 39.333 C 164.054 39.333,164.167 39.438,164.167 39.566 C 164.167 39.820,164.517 40.000,165.014 40.000 C 165.189 40.000,165.333 40.112,165.333 40.250 C 165.333 40.387,165.475 40.500,165.649 40.500 C 165.822 40.500,166.008 40.612,166.060 40.750 C 166.123 40.913,166.382 41.000,166.809 41.000 C 167.321 41.000,167.480 41.072,167.548 41.333 C 167.617 41.596,167.776 41.667,168.297 41.667 C 168.682 41.667,169.046 41.771,169.167 41.917 C 169.311 42.091,169.696 42.167,170.437 42.167 C 171.271 42.167,171.500 42.221,171.500 42.417 C 171.500 42.792,177.796 42.792,177.940 42.417 C 178.019 42.211,178.454 42.167,180.414 42.167 C 182.325 42.167,182.833 42.118,183.000 41.917 C 183.114 41.779,183.430 41.667,183.703 41.667 C 184.058 41.667,184.223 41.572,184.285 41.333 C 184.333 41.150,184.476 41.000,184.603 41.000 C 184.730 41.000,184.833 40.891,184.833 40.758 C 184.833 40.625,184.965 40.443,185.125 40.354 C 185.619 40.078,185.669 34.608,185.181 34.303 C 184.990 34.184,184.833 33.917,184.833 33.710 C 184.833 33.503,184.739 33.333,184.623 33.333 C 184.508 33.333,184.320 33.183,184.205 33.000 C 183.929 32.558,178.925 32.491,178.106 32.918 C 177.418 33.276,173.252 33.276,172.893 32.917 C 172.755 32.779,172.498 32.667,172.321 32.667 C 172.058 32.667,172.000 32.547,172.000 32.008 C 172.000 31.557,171.908 31.296,171.708 31.180 C 171.496 31.056,171.845 31.010,173.000 31.010 C 174.134 31.011,174.675 31.080,174.907 31.255 C 175.380 31.613,178.969 31.609,179.106 31.250 C 179.187 31.039,179.734 31.000,182.601 31.000 C 185.889 31.000,186.000 30.989,186.000 30.667 C 186.000 30.483,186.109 30.333,186.243 30.333 C 186.444 30.333,186.486 29.905,186.490 27.808 C 186.494 25.632,186.536 25.237,186.789 24.957 C 187.228 24.472,187.231 20.227,186.792 19.980 C 186.561 19.851,186.500 19.592,186.500 18.742 C 186.500 17.897,186.446 17.667,186.250 17.667 C 186.084 17.667,186.000 17.501,186.000 17.172 C 186.000 16.555,185.380 15.333,185.067 15.333 C 184.928 15.333,184.833 15.162,184.833 14.911 C 184.833 14.679,184.721 14.446,184.583 14.394 C 184.446 14.341,184.333 14.186,184.333 14.050 C 184.333 13.914,184.189 13.764,184.012 13.718 C 183.835 13.672,183.649 13.529,183.600 13.400 C 183.551 13.272,183.321 13.167,183.089 13.167 C 182.857 13.167,182.666 13.073,182.665 12.958 C 182.663 12.650,181.428 12.000,180.842 12.000 C 180.501 12.000,180.333 11.918,180.333 11.750 C 180.333 11.582,180.165 11.500,179.818 11.500 C 179.534 11.500,179.112 11.350,178.879 11.167 C 178.646 10.983,178.259 10.831,178.019 10.828 C 177.779 10.825,177.438 10.713,177.260 10.578 C 176.813 10.240,172.399 10.225,171.912 10.559 C 171.731 10.683,171.252 10.828,170.847 10.880 C 170.432 10.934,170.046 11.090,169.963 11.238 C 169.881 11.385,169.598 11.500,169.320 11.500 C 169.032 11.500,168.783 11.605,168.727 11.750 C 168.673 11.889,168.426 12.000,168.167 12.000 C 167.911 12.000,167.662 12.105,167.612 12.234 C 167.563 12.363,167.292 12.519,167.011 12.581 C 166.730 12.643,166.500 12.800,166.500 12.930 C 166.500 13.060,166.350 13.167,166.167 13.167 C 165.981 13.167,165.833 13.278,165.833 13.417 C 165.833 13.554,165.721 13.667,165.583 13.667 C 165.446 13.667,165.333 13.773,165.333 13.903 C 165.333 14.034,165.103 14.191,164.822 14.252 C 164.541 14.314,164.270 14.470,164.221 14.599 C 164.171 14.728,164.027 14.833,163.899 14.833 C 163.771 14.833,163.667 14.975,163.667 15.149 C 163.667 15.322,163.554 15.508,163.417 15.560 C 163.279 15.613,163.167 15.760,163.167 15.886 C 163.167 16.012,163.017 16.289,162.833 16.500 C 162.642 16.721,162.500 17.124,162.500 17.447 C 162.500 17.794,162.404 18.047,162.250 18.106 C 162.093 18.167,162.000 18.421,162.000 18.791 C 162.000 19.152,161.891 19.460,161.718 19.586 C 161.515 19.735,161.415 20.115,161.363 20.930 C 161.321 21.580,161.192 22.165,161.062 22.295 C 160.936 22.421,160.832 22.650,160.831 22.804 C 160.829 23.028,160.800 23.038,160.682 22.853 C 160.598 22.720,160.599 22.401,160.685 22.104 C 160.939 21.218,160.870 18.727,160.583 18.440 C 160.428 18.285,160.333 17.876,160.333 17.359 C 160.333 16.372,160.214 16.000,159.899 16.000 C 159.745 16.000,159.667 15.804,159.667 15.417 C 159.667 15.009,159.591 14.833,159.417 14.833 C 159.279 14.833,159.167 14.765,159.167 14.682 C 159.167 14.254,158.248 13.167,157.887 13.167 C 157.662 13.167,157.500 13.067,157.500 12.928 C 157.500 12.797,157.357 12.644,157.182 12.588 C 157.007 12.533,156.822 12.378,156.771 12.244 C 156.719 12.110,156.487 12.000,156.255 12.000 C 155.991 12.000,155.833 11.906,155.833 11.750 C 155.833 11.575,155.657 11.500,155.250 11.500 C 154.851 11.500,154.667 11.424,154.667 11.258 C 154.667 10.665,146.335 10.649,145.903 11.240 C 145.696 11.523,145.667 11.109,145.667 7.943 C 145.667 4.879,145.628 4.308,145.417 4.227 C 145.242 4.160,145.167 3.887,145.167 3.316 C 145.167 2.867,145.094 2.500,145.004 2.500 C 144.915 2.500,144.726 2.276,144.585 2.002 C 144.434 1.711,144.139 1.458,143.874 1.391 C 143.624 1.328,143.312 1.169,143.180 1.037 C 142.908 0.765,141.631 0.857,141.531 1.156 C 141.433 1.451,139.055 1.385,138.940 1.083 C 138.814 0.754,137.044 0.739,136.579 1.062 M11.764 1.480 C 10.801 1.547,10.253 1.657,10.208 1.792 C 10.155 1.950,9.227 2.000,6.319 2.000 C 3.035 2.000,2.500 2.035,2.500 2.250 C 2.500 2.387,2.387 2.500,2.250 2.500 C 2.111 2.500,2.000 2.648,2.000 2.833 C 2.000 3.017,1.889 3.167,1.753 3.167 C 1.191 3.167,1.147 11.040,1.708 11.354 C 1.869 11.443,2.000 11.625,2.000 11.758 C 2.000 11.902,2.161 12.000,2.396 12.000 C 2.614 12.000,2.886 12.112,3.000 12.250 C 3.172 12.457,3.779 12.500,6.520 12.500 L 9.833 12.500 9.833 17.135 C 9.833 20.952,9.877 21.827,10.078 22.093 C 10.286 22.368,10.324 23.735,10.328 31.148 C 10.333 39.862,10.334 39.882,10.708 40.639 C 11.217 41.670,11.706 42.167,12.210 42.167 C 12.441 42.167,12.674 42.279,12.727 42.417 C 12.808 42.628,13.387 42.667,16.512 42.667 L 20.202 42.667 20.851 42.153 C 21.208 41.870,21.500 41.493,21.500 41.314 C 21.500 41.136,21.613 40.946,21.750 40.894 C 22.087 40.764,22.087 39.444,21.750 39.107 C 21.613 38.970,21.500 38.748,21.500 38.616 C 21.500 38.483,21.387 38.281,21.250 38.167 C 20.937 37.907,20.939 37.512,21.255 37.093 C 21.465 36.815,21.500 35.016,21.500 24.385 L 21.500 12.000 24.321 12.000 C 26.607 12.000,27.190 11.953,27.393 11.750 C 27.544 11.599,27.951 11.500,28.420 11.500 C 29.058 11.500,29.214 11.440,29.285 11.167 C 29.351 10.916,29.512 10.833,29.936 10.833 L 30.500 10.833 30.500 7.086 L 30.500 3.338 29.917 3.094 C 29.596 2.960,29.333 2.772,29.333 2.675 C 29.333 2.579,29.202 2.498,29.042 2.495 C 28.881 2.492,28.604 2.379,28.426 2.245 C 28.200 2.074,27.672 2.000,26.668 2.000 C 25.804 2.000,25.157 1.923,25.041 1.807 C 24.798 1.565,22.187 1.580,21.942 1.825 C 21.668 2.099,21.034 2.031,20.854 1.708 C 20.676 1.391,15.082 1.251,11.764 1.480 M388.615 1.447 C 388.358 1.489,388.106 1.631,388.056 1.762 C 388.005 1.893,387.860 2.000,387.732 2.000 C 387.604 2.000,387.500 2.112,387.500 2.250 C 387.500 2.387,387.350 2.650,387.167 2.833 C 386.690 3.310,386.639 22.649,387.113 23.325 C 387.379 23.705,387.436 24.246,387.485 26.875 C 387.496 27.461,387.565 27.667,387.750 27.667 C 387.948 27.667,388.000 27.906,388.000 28.821 C 388.000 30.017,388.164 30.371,388.816 30.578 C 389.312 30.735,389.361 31.434,388.891 31.648 C 388.676 31.746,388.500 31.903,388.500 31.996 C 388.500 32.090,388.425 32.167,388.333 32.167 C 388.116 32.167,387.587 32.699,387.451 33.054 C 387.392 33.208,387.229 33.333,387.089 33.333 C 386.927 33.333,386.833 33.487,386.833 33.755 C 386.833 33.987,386.721 34.220,386.583 34.273 C 386.393 34.346,386.333 34.659,386.333 35.591 C 386.333 36.264,386.258 36.860,386.167 36.917 C 386.075 36.973,386.000 37.198,386.000 37.417 C 386.000 37.635,386.075 37.860,386.167 37.917 C 386.258 37.973,386.333 38.393,386.333 38.848 C 386.333 39.431,386.407 39.706,386.583 39.773 C 386.721 39.826,386.833 39.980,386.833 40.117 C 386.833 40.253,386.983 40.404,387.167 40.452 C 387.350 40.500,387.500 40.643,387.500 40.769 C 387.500 40.896,387.575 41.000,387.667 41.000 C 387.758 41.000,387.983 41.150,388.167 41.333 C 388.350 41.517,388.631 41.669,388.792 41.672 C 388.952 41.675,389.229 41.787,389.407 41.922 C 389.585 42.057,389.857 42.167,390.011 42.167 C 390.166 42.167,390.386 42.279,390.500 42.417 C 390.806 42.786,395.465 42.786,395.606 42.417 C 395.659 42.279,395.871 42.167,396.078 42.167 C 396.575 42.167,398.000 40.835,398.000 40.372 C 398.000 40.176,398.124 39.947,398.276 39.862 C 398.465 39.756,398.577 39.410,398.630 38.767 C 398.673 38.250,398.774 37.787,398.854 37.737 C 399.043 37.620,399.044 36.380,398.855 36.264 C 398.776 36.215,398.671 35.821,398.622 35.389 C 398.573 34.948,398.417 34.518,398.267 34.408 C 398.120 34.301,398.000 34.125,398.000 34.018 C 398.000 33.732,396.888 32.667,396.589 32.667 C 396.448 32.667,396.333 32.560,396.333 32.429 C 396.333 32.298,396.202 32.157,396.042 32.115 C 395.764 32.042,395.764 32.038,396.042 32.019 C 396.202 32.009,396.333 31.887,396.333 31.750 C 396.333 31.612,396.483 31.331,396.667 31.125 C 396.850 30.919,397.113 30.619,397.250 30.458 C 397.394 30.291,397.503 29.830,397.506 29.375 C 397.509 28.940,397.619 28.396,397.750 28.167 C 398.117 27.524,398.117 3.868,397.750 3.727 C 397.613 3.674,397.500 3.443,397.500 3.214 C 397.500 2.218,396.977 2.006,394.513 2.003 C 392.841 2.001,392.210 1.941,392.013 1.768 C 391.737 1.524,389.455 1.309,388.615 1.447 M258.245 1.998 C 260.241 2.907,260.545 5.988,258.779 7.402 C 257.293 8.591,253.841 7.990,253.092 6.412 C 251.640 3.351,254.965 0.504,258.245 1.998 M63.346 3.654 L 63.833 4.141 63.833 13.894 C 63.833 19.376,63.898 23.687,63.981 23.738 C 64.124 23.827,64.459 23.500,66.359 21.417 C 68.398 19.180,68.665 18.877,69.438 17.917 C 69.880 17.367,70.381 16.767,70.549 16.583 C 70.718 16.400,71.268 15.631,71.772 14.875 L 72.688 13.500 74.919 13.500 C 78.012 13.500,78.422 13.742,77.984 15.309 C 77.491 17.075,73.220 22.025,69.821 24.772 C 68.415 25.907,68.415 25.905,69.714 26.958 C 72.747 29.419,76.708 34.299,78.525 37.814 C 79.720 40.127,79.772 40.081,76.115 39.968 C 73.585 39.890,73.164 39.773,72.747 39.037 C 71.522 36.874,69.472 34.203,67.148 31.739 C 66.104 30.632,64.991 29.419,64.674 29.042 C 63.832 28.040,63.833 28.033,63.833 34.060 C 63.833 40.607,64.082 40.000,61.404 40.000 C 58.693 40.000,58.353 39.922,58.065 39.231 C 57.747 38.470,57.717 3.683,58.033 3.367 C 58.170 3.230,58.970 3.167,60.546 3.167 L 62.859 3.167 63.346 3.654 M142.358 3.640 L 142.888 4.114 142.849 9.921 C 142.816 14.716,142.847 15.699,143.029 15.560 C 143.151 15.468,143.587 15.127,144.000 14.801 C 147.630 11.936,155.106 12.746,156.553 16.162 C 156.651 16.394,156.815 16.696,156.917 16.833 C 157.909 18.168,158.215 22.041,158.086 31.629 C 158.032 35.637,157.991 39.043,157.994 39.196 C 158.012 40.069,153.968 40.437,152.720 39.676 L 152.190 39.352 152.134 30.385 C 152.071 20.346,152.058 20.224,150.880 19.081 C 149.413 17.656,146.044 17.994,143.542 19.819 L 142.833 20.335 142.833 29.906 C 142.833 41.198,143.126 40.004,140.363 39.991 C 138.176 39.980,137.356 39.776,137.048 39.167 C 136.749 38.574,136.735 3.665,137.033 3.367 C 137.509 2.891,141.764 3.109,142.358 3.640 M27.332 4.555 C 28.236 4.790,28.285 4.939,28.314 7.536 C 28.339 9.825,28.701 9.667,23.448 9.667 L 19.208 9.667 19.104 10.187 C 19.047 10.474,19.000 17.180,19.000 25.091 C 19.000 33.001,18.954 39.591,18.899 39.736 C 18.784 40.035,15.561 40.110,14.192 39.845 C 12.806 39.578,12.927 40.949,12.833 24.452 L 12.750 9.750 8.629 9.667 C 3.460 9.562,3.777 9.747,3.690 6.798 C 3.636 4.997,3.663 4.748,3.930 4.553 C 4.340 4.254,26.181 4.256,27.332 4.555 M395.079 4.895 C 395.371 5.260,395.484 5.672,395.562 6.645 C 395.685 8.185,395.556 26.869,395.419 27.385 C 395.365 27.586,395.196 28.144,395.043 28.625 L 394.764 29.500 393.007 29.496 C 390.400 29.491,390.237 29.277,389.991 25.516 C 389.903 24.178,389.757 22.068,389.666 20.828 C 389.355 16.597,389.448 4.539,389.792 4.441 C 389.952 4.394,391.122 4.370,392.391 4.387 L 394.699 4.417 395.079 4.895 M125.932 7.551 C 126.317 8.000,126.333 8.118,126.333 10.496 C 126.333 13.771,126.131 13.500,128.576 13.500 C 132.082 13.500,132.498 13.821,132.499 16.524 C 132.500 18.670,132.780 18.500,129.244 18.500 L 126.515 18.500 126.412 19.051 C 126.355 19.353,126.333 22.952,126.363 27.047 L 126.417 34.493 126.879 34.955 C 127.325 35.401,127.404 35.418,129.212 35.441 C 132.126 35.480,132.500 35.787,132.500 38.138 C 132.500 39.706,132.461 39.753,130.894 40.085 C 127.519 40.800,123.539 40.125,122.118 38.596 C 120.541 36.899,120.468 36.410,120.351 26.833 L 120.250 18.583 119.120 18.486 C 117.554 18.352,117.357 18.011,117.341 15.412 C 117.330 13.733,117.531 13.500,118.989 13.500 C 120.498 13.500,120.478 13.541,120.605 10.318 C 120.747 6.698,120.532 6.963,123.277 7.029 C 125.510 7.083,125.533 7.087,125.932 7.551 M39.132 10.559 C 38.987 10.704,38.319 10.815,37.259 10.870 C 35.999 10.936,35.564 11.020,35.412 11.228 C 35.272 11.420,34.955 11.500,34.341 11.500 C 33.861 11.500,33.269 11.608,33.026 11.739 C 32.782 11.871,32.377 12.022,32.125 12.076 C 31.813 12.142,31.667 12.278,31.667 12.502 C 31.667 12.683,31.517 12.924,31.333 13.039 C 31.115 13.175,31.000 13.427,31.000 13.772 C 31.000 14.086,30.899 14.336,30.750 14.394 C 30.547 14.472,30.500 14.867,30.500 16.500 C 30.500 18.133,30.547 18.528,30.750 18.606 C 30.887 18.659,31.000 18.800,31.000 18.918 C 31.000 19.581,32.047 20.333,32.971 20.333 C 33.634 20.333,33.936 20.410,34.087 20.616 C 34.395 21.038,37.322 21.045,37.787 20.625 C 38.056 20.381,38.409 20.337,39.930 20.356 C 40.931 20.369,41.587 20.411,41.387 20.449 C 41.188 20.488,40.935 20.628,40.825 20.760 C 40.677 20.938,40.219 21.000,39.058 21.000 C 37.818 21.000,37.469 21.052,37.394 21.250 C 37.326 21.425,37.053 21.500,36.477 21.500 C 35.901 21.500,35.628 21.575,35.560 21.750 C 35.508 21.887,35.285 22.000,35.067 22.000 C 34.848 22.000,34.576 22.150,34.461 22.333 C 34.335 22.536,34.073 22.667,33.793 22.667 C 33.496 22.667,33.333 22.755,33.333 22.917 C 33.333 23.054,33.221 23.167,33.083 23.167 C 32.946 23.167,32.833 23.274,32.833 23.405 C 32.833 23.537,32.683 23.692,32.500 23.750 C 32.317 23.808,32.167 23.963,32.167 24.095 C 32.167 24.226,32.054 24.333,31.917 24.333 C 31.779 24.333,31.667 24.446,31.667 24.583 C 31.667 24.721,31.547 24.833,31.401 24.833 C 31.255 24.833,31.096 24.983,31.048 25.167 C 31.000 25.350,30.857 25.500,30.731 25.500 C 30.604 25.500,30.500 25.613,30.500 25.750 C 30.500 25.887,30.387 26.000,30.250 26.000 C 30.095 26.000,30.000 26.157,30.000 26.415 C 30.000 26.650,29.855 26.921,29.667 27.039 C 29.431 27.186,29.333 27.427,29.333 27.862 C 29.333 28.200,29.221 28.589,29.083 28.726 C 28.724 29.085,28.720 33.453,29.078 33.926 C 29.213 34.104,29.326 34.587,29.330 35.000 C 29.340 35.995,29.488 36.500,29.769 36.500 C 29.922 36.500,30.000 36.698,30.000 37.083 C 30.000 37.491,30.075 37.667,30.250 37.667 C 30.404 37.667,30.500 37.823,30.500 38.075 C 30.500 38.499,31.148 39.333,31.477 39.333 C 31.582 39.333,31.668 39.427,31.670 39.542 C 31.673 39.787,32.388 40.500,32.631 40.500 C 32.723 40.500,32.841 40.612,32.894 40.750 C 32.946 40.887,33.171 41.000,33.392 41.000 C 33.654 41.000,33.825 41.116,33.882 41.333 C 33.944 41.573,34.109 41.667,34.467 41.667 C 34.755 41.667,35.005 41.772,35.060 41.917 C 35.115 42.060,35.364 42.167,35.644 42.167 C 35.923 42.167,36.172 42.273,36.227 42.417 C 36.371 42.793,43.833 42.793,43.833 42.417 C 43.833 42.242,44.009 42.167,44.417 42.167 C 44.824 42.167,45.000 42.091,45.000 41.917 C 45.000 41.600,45.485 41.603,45.907 41.922 C 46.389 42.286,51.966 42.281,52.106 41.917 C 52.159 41.779,52.344 41.667,52.518 41.667 C 52.722 41.667,52.833 41.549,52.833 41.333 C 52.833 41.148,52.944 41.000,53.083 41.000 C 53.599 41.000,54.000 40.366,54.005 39.542 C 54.008 39.106,54.121 38.604,54.255 38.426 C 54.590 37.984,54.575 36.892,54.231 36.699 C 54.016 36.579,53.999 36.480,54.148 36.202 C 54.379 35.771,54.395 32.724,54.167 32.583 C 53.887 32.410,53.958 29.909,54.250 29.667 C 54.463 29.489,54.500 28.609,54.500 23.641 C 54.500 18.623,54.466 17.810,54.250 17.727 C 54.107 17.672,54.000 17.424,54.000 17.149 C 54.000 16.884,53.850 16.517,53.667 16.333 C 53.483 16.150,53.333 15.850,53.333 15.667 C 53.333 15.481,53.222 15.333,53.083 15.333 C 52.946 15.333,52.833 15.221,52.833 15.083 C 52.833 14.946,52.721 14.833,52.583 14.833 C 52.446 14.833,52.333 14.730,52.333 14.603 C 52.333 14.476,52.183 14.333,52.000 14.285 C 51.817 14.237,51.667 14.078,51.667 13.932 C 51.667 13.786,51.554 13.667,51.417 13.667 C 51.279 13.667,51.167 13.554,51.167 13.417 C 51.167 13.279,51.062 13.167,50.934 13.167 C 50.807 13.167,50.659 13.054,50.606 12.917 C 50.554 12.779,50.404 12.667,50.275 12.667 C 50.145 12.667,50.000 12.517,49.952 12.333 C 49.894 12.113,49.724 12.000,49.450 12.000 C 49.222 12.000,48.992 11.887,48.940 11.750 C 48.887 11.612,48.643 11.500,48.399 11.500 C 48.154 11.500,47.859 11.371,47.743 11.212 C 47.584 10.994,47.219 10.909,46.235 10.859 C 45.431 10.819,44.849 10.706,44.706 10.564 C 44.378 10.235,39.460 10.231,39.132 10.559 M309.167 10.583 C 309.167 10.747,309.002 10.833,308.689 10.833 C 308.427 10.833,308.021 10.983,307.788 11.167 C 307.555 11.350,307.132 11.500,306.849 11.500 C 306.502 11.500,306.333 11.582,306.333 11.750 C 306.333 11.948,306.095 12.000,305.187 12.000 C 304.372 12.000,303.981 11.928,303.833 11.750 C 303.664 11.546,303.110 11.500,300.813 11.500 C 298.424 11.500,298.000 11.538,298.000 11.750 C 298.000 11.889,297.852 12.000,297.667 12.000 C 297.451 12.000,297.333 12.111,297.333 12.316 C 297.333 12.489,297.221 12.674,297.083 12.727 C 296.866 12.810,296.833 13.846,296.828 20.620 C 296.824 27.211,296.785 28.467,296.578 28.740 C 296.213 29.223,296.218 36.030,296.583 36.333 C 296.917 36.610,296.899 36.998,296.542 37.260 C 296.305 37.433,296.250 37.730,296.250 38.832 C 296.250 39.952,296.301 40.219,296.542 40.353 C 296.702 40.443,296.833 40.625,296.833 40.758 C 296.833 40.891,296.937 41.000,297.064 41.000 C 297.191 41.000,297.331 41.140,297.376 41.311 C 297.434 41.534,297.675 41.655,298.225 41.737 C 298.647 41.801,299.036 41.923,299.089 42.010 C 299.143 42.096,299.693 42.167,300.311 42.167 C 301.042 42.167,301.550 42.252,301.760 42.411 C 302.219 42.758,305.539 42.771,305.825 42.427 C 305.935 42.295,306.188 42.163,306.387 42.135 L 306.750 42.083 306.793 33.894 C 306.830 26.877,306.872 25.675,307.085 25.499 C 307.265 25.349,307.333 24.944,307.333 24.020 C 307.333 22.927,307.381 22.717,307.667 22.539 C 307.855 22.421,308.000 22.150,308.000 21.915 C 308.000 21.541,308.067 21.500,308.672 21.500 C 309.115 21.500,309.376 21.415,309.440 21.250 C 309.620 20.781,310.833 20.919,310.833 21.408 C 310.833 21.633,310.939 21.877,311.067 21.950 C 311.256 22.057,311.316 22.929,311.376 26.417 C 311.421 29.013,311.528 30.983,311.642 31.332 C 311.768 31.715,311.833 33.556,311.833 36.712 C 311.833 41.130,311.856 41.519,312.125 41.618 C 312.285 41.677,312.477 41.824,312.550 41.946 C 312.782 42.331,322.314 42.263,322.434 41.875 C 322.484 41.715,322.592 41.456,322.675 41.299 C 322.769 41.124,322.764 40.977,322.663 40.915 C 322.442 40.778,322.445 34.720,322.667 34.583 C 322.758 34.527,322.833 34.185,322.833 33.823 C 322.833 33.462,322.908 33.167,323.000 33.167 C 323.092 33.167,323.167 33.279,323.167 33.417 C 323.167 33.554,323.279 33.667,323.417 33.667 C 323.589 33.667,323.667 33.839,323.667 34.218 C 323.667 34.521,323.777 34.915,323.911 35.093 C 324.046 35.271,324.158 35.630,324.161 35.891 C 324.165 36.222,324.267 36.391,324.500 36.452 C 324.750 36.517,324.833 36.679,324.833 37.103 C 324.833 37.493,324.910 37.667,325.083 37.667 C 325.221 37.667,325.333 37.812,325.333 37.990 C 325.333 38.168,325.413 38.363,325.510 38.423 C 325.608 38.483,325.756 38.713,325.839 38.933 C 325.923 39.153,326.106 39.333,326.246 39.333 C 326.386 39.333,326.500 39.448,326.500 39.589 C 326.500 39.729,326.612 39.887,326.750 39.940 C 326.887 39.992,327.000 40.140,327.000 40.268 C 327.000 40.396,327.112 40.500,327.250 40.500 C 327.387 40.500,327.500 40.612,327.500 40.750 C 327.500 40.889,327.648 41.000,327.833 41.000 C 328.021 41.000,328.167 41.111,328.167 41.254 C 328.167 41.402,328.371 41.549,328.656 41.606 C 328.925 41.660,329.185 41.808,329.234 41.935 C 329.289 42.078,329.572 42.167,329.974 42.167 C 330.350 42.167,330.714 42.272,330.833 42.417 C 330.993 42.609,331.433 42.667,332.737 42.667 C 333.845 42.667,334.504 42.737,334.636 42.869 C 334.980 43.213,339.039 43.270,339.374 42.935 C 339.577 42.732,339.973 42.667,340.993 42.667 C 342.040 42.667,342.365 42.610,342.440 42.417 C 342.508 42.238,342.787 42.167,343.417 42.167 C 344.046 42.167,344.325 42.095,344.394 41.917 C 344.446 41.779,344.641 41.667,344.827 41.667 C 345.012 41.667,345.258 41.517,345.372 41.333 C 345.487 41.150,345.675 41.000,345.790 41.000 C 345.906 41.000,346.000 40.887,346.000 40.750 C 346.000 40.612,346.113 40.500,346.250 40.500 C 346.387 40.500,346.500 40.387,346.500 40.250 C 346.500 40.112,346.620 40.000,346.766 40.000 C 346.912 40.000,347.070 39.850,347.118 39.667 C 347.166 39.483,347.309 39.333,347.436 39.333 C 347.563 39.333,347.667 39.183,347.667 39.000 C 347.667 38.817,347.771 38.667,347.899 38.667 C 348.026 38.667,348.180 38.470,348.240 38.230 C 348.300 37.990,348.459 37.684,348.592 37.551 C 348.725 37.418,348.833 37.127,348.833 36.905 C 348.833 36.656,348.930 36.500,349.083 36.500 C 349.252 36.500,349.333 36.331,349.333 35.977 C 349.333 35.689,349.453 35.366,349.600 35.259 C 349.796 35.115,349.890 34.671,349.955 33.574 C 350.003 32.754,350.113 31.995,350.198 31.888 C 350.283 31.781,350.397 30.756,350.451 29.611 C 350.529 27.958,350.596 27.547,350.775 27.616 C 350.913 27.669,351.001 27.968,351.002 28.393 C 351.005 29.325,351.158 29.833,351.436 29.833 C 351.608 29.833,351.667 30.103,351.667 30.899 C 351.667 31.692,351.731 31.989,351.917 32.060 C 352.087 32.126,352.167 32.392,352.167 32.894 C 352.167 33.395,352.247 33.662,352.417 33.727 C 352.554 33.780,352.668 33.994,352.669 34.203 C 352.673 34.844,352.861 35.333,353.103 35.333 C 353.269 35.333,353.333 35.569,353.333 36.172 C 353.333 36.764,353.407 37.039,353.583 37.106 C 353.726 37.161,353.833 37.410,353.833 37.684 C 353.833 37.990,353.920 38.167,354.070 38.167 C 354.200 38.167,354.357 38.397,354.419 38.678 C 354.481 38.959,354.637 39.230,354.766 39.279 C 354.895 39.329,355.000 39.476,355.000 39.606 C 355.000 39.737,355.113 39.887,355.250 39.940 C 355.387 39.992,355.500 40.131,355.500 40.248 C 355.500 40.480,356.871 41.667,357.139 41.667 C 357.231 41.667,357.337 41.760,357.375 41.875 C 357.426 42.030,358.277 42.096,360.681 42.135 L 363.919 42.186 364.459 41.703 C 364.905 41.305,365.000 41.099,365.000 40.527 C 365.000 40.050,365.071 39.833,365.229 39.833 C 365.474 39.833,365.667 39.136,365.667 38.247 C 365.667 37.917,365.765 37.665,365.917 37.606 C 366.101 37.536,366.167 37.244,366.167 36.493 C 366.167 35.811,366.249 35.394,366.417 35.226 C 366.563 35.080,366.667 34.673,366.667 34.248 C 366.667 33.847,366.746 33.470,366.844 33.410 C 366.941 33.350,367.091 33.115,367.178 32.887 C 367.436 32.208,367.743 32.532,367.838 33.584 C 367.887 34.134,368.014 34.588,368.129 34.626 C 368.242 34.664,368.334 34.932,368.336 35.222 C 368.339 36.001,368.508 36.500,368.769 36.500 C 368.935 36.500,369.000 36.735,369.000 37.333 C 369.000 37.963,369.061 38.167,369.250 38.167 C 369.425 38.167,369.500 38.343,369.500 38.750 C 369.500 39.157,369.575 39.333,369.750 39.333 C 369.914 39.333,370.000 39.497,370.000 39.808 C 370.000 40.070,370.149 40.416,370.333 40.583 C 370.517 40.749,370.667 40.983,370.667 41.103 C 370.667 41.413,371.214 41.667,371.885 41.667 C 372.201 41.667,372.553 41.779,372.667 41.917 C 372.972 42.285,378.358 42.285,378.726 41.917 C 378.864 41.779,379.094 41.667,379.238 41.667 C 379.389 41.667,379.500 41.525,379.500 41.333 C 379.500 41.111,379.611 41.000,379.833 41.000 C 380.017 41.000,380.167 40.896,380.167 40.768 C 380.167 40.640,380.279 40.492,380.417 40.440 C 380.563 40.384,380.667 40.134,380.667 39.839 C 380.667 39.513,380.751 39.333,380.903 39.333 C 381.034 39.333,381.193 39.095,381.257 38.801 C 381.321 38.508,381.477 38.166,381.604 38.039 C 381.754 37.889,381.833 37.416,381.833 36.673 C 381.833 35.816,381.895 35.512,382.083 35.440 C 382.221 35.387,382.333 35.143,382.333 34.899 C 382.333 34.654,382.453 34.366,382.600 34.258 C 382.754 34.146,382.905 33.715,382.957 33.240 C 383.007 32.787,383.149 32.269,383.274 32.088 C 383.398 31.907,383.500 31.410,383.500 30.983 C 383.500 30.497,383.593 30.130,383.750 30.000 C 383.887 29.886,384.000 29.532,384.000 29.214 C 384.000 28.888,384.145 28.451,384.333 28.212 C 384.560 27.924,384.667 27.536,384.667 26.998 C 384.667 26.499,384.759 26.131,384.917 26.000 C 385.090 25.856,385.167 25.473,385.167 24.747 C 385.167 23.972,385.231 23.678,385.417 23.606 C 385.606 23.534,385.667 23.227,385.667 22.339 C 385.667 21.694,385.733 21.167,385.813 21.167 C 386.435 21.167,386.572 13.208,385.958 12.760 C 385.798 12.642,385.667 12.424,385.667 12.273 C 385.667 12.123,385.554 12.000,385.417 12.000 C 385.279 12.000,385.167 11.887,385.167 11.750 C 385.167 11.612,385.041 11.500,384.888 11.500 C 384.735 11.500,384.465 11.369,384.288 11.208 C 383.670 10.649,376.833 10.694,376.833 11.258 C 376.833 11.391,376.750 11.500,376.648 11.500 C 376.082 11.500,375.672 12.250,375.670 13.292 C 375.667 14.105,375.612 14.333,375.417 14.333 C 375.212 14.333,375.167 14.624,375.167 15.945 C 375.167 17.231,375.109 17.621,374.882 17.871 C 374.695 18.078,374.574 18.563,374.527 19.293 C 374.466 20.251,374.000 21.414,374.000 20.607 C 374.000 20.470,373.899 20.256,373.776 20.133 C 373.652 20.009,373.499 19.629,373.435 19.287 C 373.364 18.909,373.224 18.667,373.076 18.667 C 372.880 18.667,372.833 18.349,372.833 17.012 C 372.833 15.763,372.772 15.296,372.583 15.107 C 372.446 14.970,372.333 14.739,372.333 14.595 C 372.333 14.444,372.192 14.333,372.000 14.333 C 371.817 14.333,371.667 14.229,371.667 14.101 C 371.667 13.710,371.262 13.667,367.570 13.667 C 364.111 13.667,364.000 13.677,364.000 14.000 C 364.000 14.183,363.917 14.333,363.815 14.333 C 363.275 14.333,362.839 15.086,362.836 16.024 C 362.834 16.699,362.764 16.991,362.586 17.059 C 362.450 17.111,362.291 17.455,362.232 17.824 C 362.173 18.192,362.022 18.579,361.896 18.684 C 361.770 18.789,361.667 19.082,361.667 19.336 C 361.667 19.593,361.556 19.840,361.417 19.894 C 361.245 19.959,361.167 20.227,361.167 20.745 C 361.167 21.295,361.101 21.500,360.924 21.500 C 360.779 21.500,360.638 21.734,360.572 22.083 C 360.510 22.417,360.364 22.667,360.231 22.667 C 360.042 22.667,360.000 22.077,360.000 19.405 C 360.000 16.728,359.955 16.098,359.750 15.893 C 359.613 15.755,359.500 15.427,359.500 15.163 C 359.500 14.624,359.187 13.833,358.973 13.833 C 358.896 13.833,358.833 13.571,358.833 13.250 C 358.833 12.843,358.758 12.667,358.583 12.667 C 358.444 12.667,358.333 12.519,358.333 12.333 C 358.333 12.092,358.222 12.000,357.929 12.000 C 357.706 12.000,357.411 11.887,357.274 11.750 C 357.068 11.544,356.415 11.500,353.541 11.500 C 349.483 11.500,349.277 11.575,349.335 13.025 C 349.436 15.538,349.329 17.321,349.083 17.227 C 348.946 17.174,348.833 16.989,348.833 16.816 C 348.833 16.642,348.696 16.363,348.529 16.196 C 348.362 16.028,348.176 15.766,348.117 15.612 C 348.059 15.459,347.933 15.333,347.839 15.333 C 347.744 15.333,347.667 15.221,347.667 15.083 C 347.667 14.946,347.554 14.833,347.417 14.833 C 347.279 14.833,347.167 14.721,347.167 14.583 C 347.167 14.444,347.019 14.333,346.833 14.333 C 346.611 14.333,346.500 14.222,346.500 14.000 C 346.500 13.815,346.389 13.667,346.250 13.667 C 346.113 13.667,346.000 13.554,346.000 13.417 C 346.000 13.279,345.896 13.167,345.768 13.167 C 345.640 13.167,345.492 13.054,345.440 12.917 C 345.387 12.779,345.238 12.667,345.108 12.667 C 344.978 12.667,344.833 12.517,344.785 12.333 C 344.726 12.107,344.558 12.000,344.260 12.000 C 344.020 12.000,343.780 11.887,343.727 11.750 C 343.674 11.612,343.441 11.500,343.209 11.500 C 342.977 11.500,342.695 11.374,342.582 11.221 C 342.439 11.025,342.060 10.921,341.314 10.874 C 340.729 10.837,340.014 10.701,339.725 10.570 C 338.989 10.238,334.791 10.233,334.516 10.564 C 334.408 10.695,333.889 10.825,333.311 10.867 C 332.589 10.919,332.251 11.021,332.140 11.220 C 332.034 11.409,331.768 11.500,331.320 11.500 C 330.884 11.500,330.623 11.586,330.560 11.750 C 330.501 11.904,330.248 12.000,329.899 12.000 C 329.507 12.000,329.333 12.077,329.333 12.250 C 329.333 12.414,329.170 12.500,328.859 12.500 C 328.597 12.500,328.250 12.649,328.083 12.833 C 327.917 13.017,327.606 13.167,327.391 13.167 C 327.155 13.167,327.000 13.266,327.000 13.417 C 327.000 13.554,326.887 13.667,326.750 13.667 C 326.611 13.667,326.500 13.815,326.500 14.000 C 326.500 14.222,326.389 14.333,326.167 14.333 C 325.981 14.333,325.833 14.444,325.833 14.583 C 325.833 14.721,325.721 14.833,325.583 14.833 C 325.409 14.833,325.333 15.009,325.333 15.417 C 325.333 15.824,325.258 16.000,325.083 16.000 C 324.946 16.000,324.833 16.112,324.833 16.250 C 324.833 16.387,324.729 16.500,324.601 16.500 C 324.346 16.500,324.167 16.850,324.167 17.347 C 324.167 17.523,324.054 17.667,323.917 17.667 C 323.744 17.667,323.667 17.841,323.667 18.232 C 323.667 18.562,323.570 18.835,323.434 18.887 C 323.300 18.939,323.150 19.351,323.080 19.863 C 322.883 21.305,322.500 21.661,322.500 20.402 C 322.500 19.776,322.408 19.275,322.255 19.074 C 322.114 18.887,322.008 18.379,322.005 17.875 C 322.001 17.227,321.913 16.913,321.667 16.667 C 321.446 16.446,321.333 16.111,321.333 15.675 C 321.333 15.313,321.240 14.957,321.125 14.883 C 321.010 14.810,320.731 14.394,320.503 13.958 C 320.276 13.523,319.995 13.167,319.878 13.167 C 319.762 13.167,319.667 13.054,319.667 12.917 C 319.667 12.779,319.563 12.667,319.436 12.667 C 319.309 12.667,319.166 12.517,319.118 12.333 C 319.070 12.150,318.920 12.000,318.783 12.000 C 318.647 12.000,318.492 11.887,318.440 11.750 C 318.387 11.612,318.154 11.500,317.922 11.500 C 317.664 11.500,317.500 11.406,317.500 11.258 C 317.500 11.113,317.268 10.972,316.928 10.908 C 316.614 10.849,316.316 10.695,316.267 10.567 C 316.128 10.206,309.167 10.222,309.167 10.583 M91.833 10.789 C 90.254 10.846,89.833 10.944,89.833 11.253 C 89.833 11.438,89.625 11.500,89.000 11.500 C 88.370 11.500,88.167 11.561,88.167 11.750 C 88.167 11.945,87.944 12.000,87.161 12.000 C 86.422 12.000,86.131 12.066,86.060 12.250 C 86.008 12.387,85.871 12.500,85.758 12.500 C 85.645 12.500,85.416 12.650,85.250 12.833 C 85.084 13.017,84.851 13.167,84.733 13.167 C 84.459 13.167,83.667 13.893,83.667 14.144 C 83.667 14.248,83.554 14.333,83.417 14.333 C 83.279 14.333,83.167 14.446,83.167 14.583 C 83.167 14.721,83.062 14.833,82.934 14.833 C 82.680 14.833,82.500 15.184,82.500 15.680 C 82.500 15.856,82.387 16.000,82.250 16.000 C 82.112 16.000,82.000 16.104,82.000 16.232 C 82.000 16.360,81.889 16.507,81.753 16.559 C 81.617 16.611,81.458 16.955,81.399 17.324 C 81.340 17.692,81.189 18.079,81.063 18.184 C 80.892 18.325,80.833 18.872,80.833 20.320 C 80.833 21.655,80.768 22.332,80.625 22.475 C 80.277 22.823,80.228 33.538,80.573 33.825 C 80.724 33.950,80.833 34.303,80.833 34.667 C 80.833 35.020,80.942 35.383,81.083 35.500 C 81.221 35.614,81.333 35.837,81.333 35.995 C 81.333 36.152,81.483 36.417,81.667 36.583 C 81.850 36.749,82.000 36.996,82.000 37.132 C 82.000 37.398,82.749 38.167,83.009 38.167 C 83.096 38.167,83.167 38.317,83.167 38.500 C 83.167 38.685,83.278 38.833,83.417 38.833 C 83.554 38.833,83.667 38.946,83.667 39.083 C 83.667 39.221,83.779 39.333,83.917 39.333 C 84.054 39.333,84.167 39.441,84.167 39.572 C 84.167 39.703,84.310 39.856,84.485 39.912 C 84.659 39.967,84.845 40.122,84.896 40.256 C 84.947 40.390,85.144 40.500,85.333 40.500 C 85.522 40.500,85.720 40.612,85.773 40.750 C 85.826 40.887,86.011 41.000,86.184 41.000 C 86.358 41.000,86.500 41.104,86.500 41.232 C 86.500 41.484,86.849 41.667,87.329 41.667 C 87.495 41.667,87.674 41.779,87.727 41.917 C 87.792 42.087,88.058 42.167,88.558 42.167 C 89.008 42.167,89.373 42.264,89.500 42.417 C 89.652 42.600,90.054 42.667,91.000 42.667 C 91.946 42.667,92.348 42.734,92.500 42.917 C 92.641 43.086,93.018 43.167,93.669 43.167 C 94.370 43.167,94.657 43.099,94.727 42.917 C 94.805 42.713,95.209 42.667,96.917 42.667 C 98.624 42.667,99.028 42.621,99.106 42.417 C 99.179 42.228,99.484 42.167,100.351 42.167 C 101.261 42.167,101.500 42.115,101.500 41.917 C 101.500 41.734,101.691 41.666,102.208 41.664 C 103.309 41.661,103.636 41.519,103.751 40.997 C 103.807 40.739,103.962 40.486,104.094 40.436 C 104.257 40.373,104.333 40.083,104.333 39.523 C 104.333 38.947,104.408 38.674,104.583 38.606 C 104.772 38.534,104.833 38.228,104.833 37.356 C 104.833 36.484,104.772 36.179,104.583 36.106 C 104.443 36.053,104.333 35.805,104.333 35.542 C 104.333 34.944,103.908 34.333,103.491 34.333 C 103.312 34.333,103.167 34.221,103.167 34.083 C 103.167 33.909,102.991 33.833,102.583 33.833 C 102.176 33.833,102.000 33.758,102.000 33.583 C 102.000 33.288,102.040 33.290,96.655 33.267 C 93.150 33.252,92.695 33.219,92.435 32.958 C 92.274 32.798,91.998 32.667,91.821 32.667 C 91.645 32.667,91.500 32.554,91.500 32.417 C 91.500 32.279,91.350 32.017,91.167 31.833 C 90.983 31.650,90.833 31.297,90.833 31.050 C 90.833 30.700,90.878 30.644,91.033 30.800 C 91.364 31.131,103.599 31.083,103.727 30.750 C 103.793 30.578,104.061 30.500,104.583 30.500 C 105.157 30.500,105.369 30.428,105.447 30.208 C 105.504 30.048,105.657 29.792,105.787 29.640 C 105.993 29.401,105.989 29.296,105.762 28.857 C 105.544 28.436,105.500 27.648,105.500 24.201 C 105.500 20.263,105.483 20.036,105.167 19.750 C 104.959 19.562,104.833 19.237,104.833 18.886 C 104.833 18.539,104.737 18.286,104.583 18.227 C 104.413 18.162,104.333 17.895,104.333 17.394 C 104.333 16.892,104.253 16.626,104.083 16.560 C 103.946 16.508,103.833 16.322,103.833 16.149 C 103.833 15.975,103.683 15.683,103.500 15.500 C 103.317 15.317,103.167 15.092,103.167 15.000 C 103.167 14.908,103.054 14.833,102.917 14.833 C 102.777 14.833,102.667 14.685,102.667 14.498 C 102.667 14.314,102.517 14.035,102.333 13.878 C 102.150 13.721,102.000 13.497,102.000 13.380 C 102.000 13.254,101.795 13.167,101.500 13.167 C 101.167 13.167,101.000 13.083,101.000 12.917 C 101.000 12.779,100.936 12.667,100.859 12.667 C 100.781 12.667,100.545 12.517,100.333 12.333 C 100.122 12.150,99.808 12.000,99.636 12.000 C 99.464 12.000,99.280 11.887,99.227 11.750 C 99.158 11.572,98.880 11.500,98.253 11.500 C 97.682 11.500,97.303 11.414,97.170 11.254 C 96.856 10.876,94.683 10.686,91.833 10.789 M207.625 10.944 C 207.465 10.988,207.333 11.131,207.333 11.262 C 207.333 11.452,207.009 11.500,205.745 11.500 C 204.486 11.500,204.136 11.552,204.060 11.750 C 204.001 11.904,203.748 12.000,203.399 12.000 C 203.027 12.000,202.833 12.079,202.833 12.231 C 202.833 12.364,202.584 12.510,202.250 12.572 C 201.929 12.633,201.665 12.772,201.663 12.883 C 201.661 12.993,201.286 13.254,200.830 13.462 C 200.373 13.670,200.000 13.951,200.000 14.087 C 200.000 14.222,199.887 14.333,199.750 14.333 C 199.612 14.333,199.500 14.446,199.500 14.583 C 199.500 14.721,199.385 14.833,199.245 14.833 C 199.104 14.833,198.941 14.965,198.882 15.125 C 198.823 15.285,198.707 15.462,198.625 15.518 C 198.542 15.573,198.433 15.929,198.382 16.309 C 198.325 16.737,198.203 17.000,198.061 17.000 C 197.912 17.000,197.833 17.201,197.833 17.583 C 197.833 17.971,197.755 18.167,197.601 18.167 C 197.261 18.167,197.167 18.548,197.167 19.916 C 197.167 20.746,197.100 21.161,196.958 21.208 C 196.612 21.324,196.565 33.167,196.911 33.167 C 197.107 33.167,197.167 33.362,197.167 34.000 C 197.167 34.722,197.211 34.833,197.500 34.833 C 197.799 34.833,197.833 34.944,197.833 35.899 C 197.833 36.692,197.897 36.989,198.083 37.060 C 198.229 37.116,198.333 37.366,198.333 37.661 C 198.333 37.981,198.418 38.167,198.565 38.167 C 198.697 38.167,198.843 38.416,198.906 38.750 C 198.971 39.099,199.112 39.333,199.258 39.333 C 199.391 39.333,199.500 39.404,199.500 39.491 C 199.500 39.837,200.306 40.500,200.727 40.500 C 201.007 40.500,201.167 40.591,201.167 40.750 C 201.167 40.918,201.335 41.000,201.682 41.000 C 202.058 41.000,202.222 41.091,202.285 41.333 C 202.346 41.565,202.512 41.667,202.832 41.667 C 203.085 41.667,203.386 41.779,203.500 41.917 C 203.625 42.067,203.990 42.167,204.417 42.167 C 204.844 42.167,205.208 42.266,205.333 42.417 C 205.503 42.621,206.057 42.667,208.354 42.667 L 211.167 42.667 211.167 44.499 C 211.167 46.150,211.200 46.351,211.500 46.539 C 211.787 46.718,211.833 46.927,211.833 48.040 C 211.833 49.079,211.883 49.333,212.083 49.333 C 212.222 49.333,212.333 49.481,212.333 49.667 C 212.333 49.871,212.446 50.002,212.625 50.005 C 212.785 50.008,213.062 50.121,213.240 50.255 C 213.451 50.415,213.959 50.500,214.699 50.500 C 215.344 50.500,215.833 50.572,215.833 50.667 C 215.833 50.771,216.806 50.833,218.417 50.833 C 220.028 50.833,221.000 50.771,221.000 50.667 C 221.000 50.575,221.188 50.500,221.417 50.500 C 221.680 50.500,221.833 50.406,221.833 50.245 C 221.833 50.104,221.946 49.946,222.083 49.894 C 222.221 49.841,222.333 49.693,222.333 49.566 C 222.333 49.438,222.440 49.333,222.570 49.333 C 222.701 49.333,222.859 49.095,222.924 48.801 C 222.988 48.508,223.152 48.157,223.288 48.021 C 223.586 47.724,223.509 45.809,223.195 45.704 C 223.067 45.661,223.000 45.163,223.000 44.244 C 223.000 42.819,222.749 41.209,222.482 40.925 C 222.281 40.711,222.293 39.774,222.499 39.568 C 222.764 39.303,222.995 35.714,222.997 31.812 C 223.000 28.814,223.042 28.173,223.250 28.000 C 223.470 27.818,223.500 28.019,223.500 29.663 C 223.500 30.927,223.577 31.703,223.738 32.058 C 223.869 32.347,224.003 33.135,224.036 33.810 C 224.081 34.726,224.169 35.089,224.381 35.245 C 224.587 35.395,224.667 35.694,224.667 36.310 C 224.667 36.960,224.727 37.167,224.917 37.167 C 225.083 37.167,225.167 37.333,225.167 37.667 C 225.167 38.000,225.250 38.167,225.417 38.167 C 225.554 38.167,225.667 38.261,225.667 38.376 C 225.667 38.491,225.929 38.827,226.250 39.121 C 226.571 39.415,226.833 39.734,226.833 39.828 C 226.833 39.923,226.948 40.000,227.089 40.000 C 227.229 40.000,227.387 40.112,227.440 40.250 C 227.492 40.387,227.640 40.500,227.768 40.500 C 227.896 40.500,228.000 40.612,228.000 40.750 C 228.000 40.887,228.094 41.000,228.210 41.000 C 228.325 41.000,228.513 41.150,228.628 41.333 C 228.742 41.517,229.015 41.667,229.234 41.667 C 229.452 41.667,229.674 41.779,229.727 41.917 C 229.793 42.088,230.061 42.167,230.578 42.167 C 231.138 42.167,231.333 42.231,231.333 42.417 C 231.333 42.586,231.503 42.667,231.857 42.667 C 232.163 42.667,232.468 42.788,232.593 42.958 C 232.997 43.512,238.000 43.467,238.000 42.909 C 238.000 42.729,238.215 42.667,238.833 42.667 C 239.463 42.667,239.667 42.606,239.667 42.417 C 239.667 42.242,239.843 42.167,240.250 42.167 C 240.657 42.167,240.833 42.242,240.833 42.417 C 240.833 42.621,241.119 42.667,242.403 42.667 C 243.309 42.667,243.996 42.738,244.028 42.835 C 244.136 43.158,248.308 43.260,248.430 42.942 C 248.500 42.761,248.729 42.667,249.101 42.667 C 249.493 42.667,249.667 42.590,249.667 42.417 C 249.667 42.278,249.815 42.167,250.000 42.167 C 250.216 42.167,250.333 42.056,250.333 41.851 C 250.333 41.678,250.446 41.492,250.583 41.440 C 250.766 41.369,250.837 41.064,250.848 40.297 C 250.862 39.359,250.880 39.306,251.020 39.792 C 251.106 40.090,251.249 40.333,251.338 40.333 C 251.427 40.333,251.500 40.527,251.500 40.763 C 251.500 41.765,252.277 42.167,254.217 42.167 C 255.562 42.167,256.006 42.224,256.167 42.417 C 256.321 42.602,256.733 42.667,257.770 42.667 C 258.900 42.667,259.167 42.619,259.167 42.417 C 259.167 42.228,259.370 42.167,260.000 42.167 C 260.872 42.167,261.386 41.853,261.549 41.223 C 261.614 40.969,261.631 40.964,261.647 41.195 C 261.659 41.362,261.868 41.518,262.167 41.583 C 262.442 41.644,262.667 41.800,262.667 41.930 C 262.667 42.089,262.857 42.167,263.250 42.167 C 263.657 42.167,263.833 42.242,263.833 42.417 C 263.833 42.792,277.508 42.791,278.227 42.416 C 278.605 42.219,279.413 42.167,282.102 42.167 C 284.884 42.167,285.500 42.125,285.500 41.936 C 285.500 41.809,285.650 41.666,285.833 41.618 C 286.425 41.464,286.326 33.333,285.732 33.333 C 285.604 33.333,285.500 33.229,285.500 33.101 C 285.500 32.776,285.124 32.667,284.007 32.667 C 283.351 32.667,282.974 32.586,282.833 32.417 C 282.664 32.213,282.113 32.167,279.842 32.167 L 277.058 32.167 277.135 31.625 C 277.177 31.327,277.308 31.027,277.426 30.957 C 277.544 30.888,277.689 30.613,277.747 30.346 C 277.806 30.079,277.962 29.820,278.094 29.769 C 278.225 29.719,278.333 29.495,278.333 29.273 C 278.333 29.051,278.446 28.826,278.583 28.773 C 278.721 28.720,278.833 28.562,278.833 28.422 C 278.833 28.282,278.929 28.167,279.047 28.167 C 279.164 28.167,279.355 27.960,279.470 27.708 C 279.896 26.777,280.084 26.500,280.290 26.500 C 280.419 26.500,280.500 26.275,280.500 25.917 C 280.500 25.444,280.563 25.333,280.833 25.333 C 281.017 25.333,281.167 25.229,281.167 25.101 C 281.167 24.973,281.279 24.826,281.417 24.773 C 281.554 24.720,281.667 24.534,281.667 24.359 C 281.667 24.184,281.779 23.947,281.917 23.833 C 282.054 23.719,282.167 23.523,282.167 23.396 C 282.167 23.270,282.252 23.167,282.356 23.167 C 282.611 23.167,283.333 22.372,283.333 22.093 C 283.333 21.970,283.446 21.826,283.583 21.773 C 283.721 21.720,283.833 21.525,283.833 21.339 C 283.833 21.140,283.943 21.000,284.099 21.000 C 284.245 21.000,284.402 20.856,284.448 20.681 C 284.494 20.505,284.720 20.314,284.950 20.257 C 285.208 20.192,285.439 19.963,285.554 19.659 C 285.656 19.388,285.836 19.167,285.953 19.167 C 286.263 19.167,286.259 14.284,285.949 13.970 C 285.829 13.849,285.682 13.619,285.621 13.458 C 285.560 13.298,285.396 13.167,285.255 13.167 C 285.115 13.167,284.999 13.073,284.999 12.958 C 284.997 12.726,283.819 12.000,283.443 12.000 C 283.311 12.000,283.159 11.888,283.106 11.750 C 282.961 11.371,264.418 11.371,264.273 11.750 C 264.220 11.887,263.980 12.000,263.740 12.000 C 263.442 12.000,263.274 12.107,263.215 12.333 C 263.167 12.517,263.024 12.667,262.897 12.667 C 262.752 12.667,262.667 12.853,262.667 13.172 C 262.667 13.467,262.563 13.717,262.417 13.773 C 262.209 13.853,262.167 14.308,262.167 16.440 C 262.167 18.571,262.209 19.027,262.417 19.106 C 262.554 19.159,262.667 19.367,262.667 19.568 C 262.667 20.020,262.963 20.333,263.390 20.333 C 263.568 20.333,263.809 20.465,263.926 20.625 C 264.116 20.885,264.549 20.922,267.923 20.970 C 271.329 21.018,271.672 21.048,271.354 21.271 C 271.159 21.407,271.000 21.619,271.000 21.742 C 271.000 21.864,270.887 22.008,270.750 22.060 C 270.612 22.113,270.500 22.271,270.500 22.411 C 270.500 22.552,270.387 22.667,270.250 22.667 C 270.112 22.667,270.000 22.779,270.000 22.917 C 270.000 23.054,269.885 23.167,269.745 23.167 C 269.604 23.167,269.440 23.298,269.379 23.458 C 269.318 23.619,269.171 23.849,269.051 23.970 C 268.931 24.091,268.833 24.335,268.833 24.512 C 268.833 24.689,268.721 24.833,268.583 24.833 C 268.428 24.833,268.333 24.991,268.333 25.249 C 268.333 25.483,268.188 25.754,268.000 25.872 C 267.817 25.987,267.667 26.177,267.667 26.295 C 267.667 26.414,267.554 26.554,267.417 26.606 C 267.274 26.661,267.167 26.910,267.167 27.184 C 267.167 27.502,267.081 27.667,266.917 27.667 C 266.779 27.667,266.667 27.777,266.667 27.911 C 266.667 28.045,266.517 28.235,266.333 28.333 C 266.150 28.431,266.000 28.661,266.000 28.844 C 266.000 29.027,265.887 29.220,265.750 29.273 C 265.612 29.326,265.500 29.473,265.500 29.601 C 265.500 29.729,265.393 29.833,265.261 29.833 C 265.130 29.833,264.977 29.976,264.922 30.151 C 264.866 30.326,264.711 30.511,264.577 30.563 C 264.443 30.614,264.333 30.811,264.333 31.000 C 264.333 31.189,264.221 31.387,264.083 31.440 C 263.946 31.492,263.833 31.678,263.833 31.851 C 263.833 32.025,263.719 32.167,263.579 32.167 C 263.429 32.167,263.283 32.376,263.222 32.681 C 263.166 32.964,263.017 33.234,262.893 33.282 C 262.769 33.330,262.667 33.586,262.667 33.851 C 262.667 34.169,262.581 34.333,262.417 34.333 C 262.279 34.333,262.167 34.475,262.167 34.647 C 262.167 34.821,262.018 35.000,261.833 35.048 C 261.585 35.113,261.500 35.053,261.500 34.812 C 261.500 34.635,261.387 34.446,261.250 34.394 C 260.921 34.267,260.925 33.030,261.255 32.593 C 261.440 32.349,261.500 31.763,261.500 30.213 C 261.500 28.538,261.546 28.138,261.750 28.060 C 261.960 27.980,262.000 27.462,262.000 24.827 C 262.000 22.261,261.955 21.645,261.750 21.440 C 261.544 21.234,261.500 20.579,261.500 17.690 C 261.500 14.802,261.456 14.147,261.250 13.940 C 261.112 13.803,261.000 13.460,261.000 13.179 C 261.000 12.845,260.917 12.667,260.761 12.667 C 260.630 12.667,260.475 12.517,260.417 12.333 C 260.358 12.150,260.211 12.000,260.090 12.000 C 259.968 12.000,259.826 11.887,259.773 11.750 C 259.635 11.391,255.881 11.386,255.407 11.745 C 255.182 11.915,254.646 11.991,253.654 11.995 C 252.021 12.001,251.500 12.313,251.500 13.285 C 251.500 13.587,251.397 13.837,251.250 13.894 C 250.880 14.036,250.875 24.437,251.245 24.926 C 251.591 25.384,251.600 28.209,251.256 28.495 C 251.089 28.633,250.995 29.123,250.957 30.057 C 250.926 30.805,250.886 29.258,250.867 26.620 C 250.838 22.531,250.796 21.809,250.583 21.727 C 250.373 21.646,250.333 21.122,250.333 18.431 C 250.333 15.875,250.284 15.165,250.089 14.907 C 249.926 14.692,249.842 14.170,249.839 13.359 C 249.834 12.278,249.795 12.125,249.500 12.048 C 249.317 12.000,249.167 11.857,249.167 11.731 C 249.167 11.604,249.044 11.500,248.893 11.500 C 248.743 11.500,248.524 11.369,248.406 11.208 C 248.114 10.811,241.770 10.855,241.325 11.257 C 241.178 11.391,240.894 11.500,240.695 11.500 C 240.496 11.500,240.333 11.604,240.333 11.731 C 240.333 11.857,240.183 12.000,240.000 12.048 C 239.817 12.096,239.667 12.260,239.667 12.413 C 239.667 12.566,239.554 12.803,239.417 12.940 C 239.201 13.156,239.167 14.347,239.167 21.595 C 239.167 28.955,239.136 30.000,238.917 30.000 C 238.729 30.000,238.667 30.201,238.667 30.808 C 238.667 31.403,238.579 31.694,238.333 31.917 C 238.150 32.083,238.000 32.319,238.000 32.442 C 238.000 32.597,237.767 32.667,237.250 32.667 C 236.403 32.667,235.835 32.250,235.831 31.625 C 235.827 30.989,235.639 30.500,235.397 30.500 C 235.225 30.500,235.167 30.231,235.167 29.437 C 235.167 28.696,235.091 28.311,234.917 28.167 C 234.701 27.988,234.667 26.906,234.667 20.313 C 234.667 13.627,234.635 12.667,234.417 12.667 C 234.279 12.667,234.167 12.547,234.167 12.401 C 234.167 12.255,234.017 12.096,233.833 12.048 C 233.650 12.000,233.500 11.857,233.500 11.731 C 233.500 11.604,233.415 11.500,233.310 11.500 C 233.206 11.500,233.024 11.369,232.907 11.208 C 232.729 10.965,232.425 10.917,231.083 10.917 C 229.742 10.917,229.437 10.965,229.260 11.208 C 229.079 11.456,228.767 11.500,227.210 11.500 C 225.781 11.500,225.328 11.555,225.167 11.750 C 225.053 11.887,224.792 12.000,224.588 12.000 C 224.367 12.000,224.152 12.148,224.053 12.368 L 223.889 12.736 223.574 12.368 C 223.390 12.152,223.068 12.000,222.796 12.000 C 222.496 12.000,222.333 11.912,222.333 11.750 C 222.333 11.581,222.164 11.500,221.810 11.500 C 221.504 11.500,221.198 11.379,221.074 11.208 C 220.866 10.925,208.568 10.683,207.625 10.944 M44.793 13.254 C 45.686 13.393,46.567 13.573,46.750 13.652 C 49.634 14.909,50.822 16.080,51.698 18.529 C 52.101 19.653,52.476 39.263,52.105 39.792 C 51.934 40.035,49.349 40.069,48.177 39.843 C 47.304 39.674,47.074 39.411,46.924 38.409 C 46.792 37.526,46.736 37.514,45.898 38.187 C 43.758 39.904,42.713 40.250,39.667 40.250 C 34.167 40.250,31.333 37.421,31.333 31.931 C 31.333 27.579,33.175 25.028,37.167 23.849 C 38.984 23.312,39.301 23.279,42.833 23.264 L 46.250 23.250 46.299 22.115 C 46.455 18.543,43.336 17.276,36.821 18.263 C 33.551 18.759,33.043 18.505,32.887 16.297 C 32.772 14.669,33.131 14.000,34.119 14.000 C 34.375 14.000,34.848 13.915,35.168 13.810 C 37.242 13.135,42.199 12.848,44.793 13.254 M96.320 13.266 C 97.107 13.413,97.825 13.591,97.917 13.663 C 98.008 13.734,98.267 13.849,98.491 13.918 C 99.787 14.316,101.423 15.923,102.243 17.603 C 102.796 18.736,102.934 19.274,103.352 21.917 C 103.546 23.146,103.449 26.028,103.169 27.333 C 103.080 27.746,102.967 28.290,102.917 28.542 L 102.827 29.000 95.788 29.003 C 87.735 29.005,88.246 28.904,88.392 30.480 C 88.802 34.892,91.554 36.170,98.870 35.348 C 102.174 34.976,102.545 35.211,102.465 37.629 L 102.417 39.083 101.833 39.365 C 100.181 40.161,95.423 40.637,92.083 40.339 C 87.329 39.915,84.673 37.899,83.373 33.729 C 81.935 29.114,82.360 20.685,84.175 17.833 C 84.263 17.696,84.404 17.423,84.490 17.226 C 85.833 14.137,91.255 12.322,96.320 13.266 M176.917 13.252 C 180.498 13.929,182.838 16.198,183.652 19.782 C 184.242 22.377,184.195 27.097,183.566 28.409 L 183.250 29.068 176.227 29.019 C 168.417 28.965,168.910 28.888,168.978 30.160 C 169.227 34.784,172.070 36.180,179.537 35.346 C 182.787 34.983,183.167 35.233,183.167 37.740 C 183.167 38.978,183.161 38.994,182.637 39.265 C 180.306 40.471,172.871 40.812,169.917 39.849 C 168.227 39.298,166.028 37.878,165.693 37.122 C 165.662 37.052,165.532 36.889,165.405 36.762 C 163.000 34.357,162.382 23.956,164.341 18.846 C 166.071 14.333,171.010 12.136,176.917 13.252 M313.878 13.242 C 317.063 13.810,318.733 15.524,319.652 19.167 C 320.000 20.546,320.008 20.837,319.963 30.333 L 319.917 40.083 317.500 40.022 C 313.733 39.928,314.102 41.011,314.000 29.750 C 313.906 19.404,313.953 19.759,312.565 18.833 C 311.028 17.809,307.217 18.475,305.718 20.031 C 304.901 20.879,304.836 21.696,304.835 31.175 C 304.834 37.504,304.784 39.650,304.633 39.800 C 304.138 40.295,299.440 39.947,298.969 39.379 C 298.757 39.123,298.732 13.973,298.944 13.625 C 299.096 13.374,302.299 13.489,303.003 13.771 C 303.616 14.016,304.167 14.668,304.167 15.148 C 304.167 15.238,304.243 15.513,304.337 15.760 L 304.507 16.208 305.382 15.381 C 307.381 13.491,310.652 12.667,313.878 13.242 M338.776 13.232 C 340.312 13.462,341.703 13.883,342.167 14.259 C 342.304 14.370,342.569 14.507,342.755 14.563 C 343.141 14.680,344.919 16.426,345.257 17.021 C 347.023 20.121,347.725 23.958,347.364 28.529 C 347.038 32.671,346.666 34.062,345.226 36.540 C 344.449 37.878,342.387 39.347,340.448 39.945 C 337.817 40.756,332.046 40.445,330.667 39.417 C 330.529 39.315,330.211 39.143,329.959 39.036 C 327.397 37.944,325.319 33.485,325.088 28.583 C 324.548 17.130,329.294 11.808,338.776 13.232 M218.417 13.650 C 218.967 13.749,219.849 13.874,220.378 13.927 C 221.717 14.063,222.034 14.653,221.965 16.880 L 221.917 18.417 221.132 18.507 C 220.077 18.628,220.107 18.556,220.183 20.873 C 220.220 21.997,220.250 28.654,220.250 35.667 L 220.250 48.417 217.906 48.463 C 215.692 48.506,215.531 48.487,214.989 48.123 L 214.417 47.737 214.333 43.216 C 214.239 38.096,214.293 38.314,213.287 38.992 C 210.124 41.127,204.143 40.458,201.708 37.697 C 198.203 33.722,198.038 21.194,201.433 16.743 C 202.593 15.222,205.085 13.869,207.417 13.493 C 208.572 13.307,217.194 13.430,218.417 13.650 M231.259 13.765 C 232.265 14.243,232.216 13.788,232.301 23.463 C 232.390 33.669,232.388 33.656,233.636 34.613 C 235.333 35.913,239.584 35.251,241.099 33.451 L 241.500 32.974 241.500 23.499 C 241.500 14.876,241.525 13.999,241.778 13.746 C 242.169 13.355,245.988 13.452,246.769 13.873 C 247.516 14.275,247.500 13.975,247.500 27.342 C 247.500 41.594,247.780 40.069,245.179 39.963 C 242.787 39.866,242.167 39.500,242.167 38.187 C 242.167 37.369,241.821 37.392,240.880 38.274 C 239.592 39.481,237.950 40.128,235.667 40.331 C 230.972 40.748,228.264 39.248,226.869 35.460 L 226.423 34.250 226.367 24.148 C 226.316 14.962,226.335 14.022,226.584 13.773 C 226.972 13.385,230.445 13.379,231.259 13.765 M258.576 13.833 C 259.502 14.303,259.506 14.372,259.459 27.749 L 259.417 39.917 257.500 39.968 C 255.154 40.030,254.323 39.920,253.858 39.487 L 253.500 39.154 253.500 26.438 C 253.500 19.444,253.555 13.667,253.623 13.599 C 253.856 13.366,258.047 13.565,258.576 13.833 M282.442 13.765 C 283.565 14.091,283.667 14.310,283.667 16.405 C 283.667 18.048,283.674 18.029,282.565 19.333 C 279.830 22.549,277.693 25.325,275.000 29.162 C 274.221 30.272,273.096 31.823,272.500 32.610 C 271.298 34.197,270.922 34.811,271.066 34.954 C 271.118 35.007,273.469 35.037,276.289 35.022 C 283.888 34.979,283.713 34.918,283.807 37.641 C 283.896 40.263,284.927 40.000,274.562 40.000 C 263.338 40.000,264.136 40.197,263.943 37.380 L 263.838 35.843 265.174 33.880 C 265.909 32.800,266.888 31.392,267.350 30.750 C 267.813 30.108,268.316 29.396,268.469 29.167 C 270.257 26.490,274.206 21.441,275.848 19.732 C 276.386 19.173,276.778 18.666,276.718 18.607 C 276.659 18.548,274.130 18.499,271.097 18.498 C 265.020 18.495,265.056 18.499,264.586 17.864 C 264.117 17.231,263.987 14.203,264.411 13.780 C 264.823 13.367,281.028 13.353,282.442 13.765 M356.050 13.678 C 356.850 13.900,357.282 14.576,357.420 15.822 C 357.947 20.591,358.519 24.063,359.496 28.417 C 359.661 29.150,359.888 30.200,360.002 30.750 C 360.307 32.229,360.505 33.000,360.578 33.000 C 360.659 33.000,361.133 31.418,361.452 30.083 C 361.967 27.933,362.161 27.143,362.904 24.167 C 363.327 22.471,363.781 20.708,363.912 20.250 C 364.331 18.779,364.833 16.583,364.833 16.221 C 364.833 15.724,365.103 15.666,367.389 15.673 C 370.039 15.680,370.422 15.957,370.958 18.250 C 371.442 20.324,372.035 22.727,372.417 24.167 C 372.550 24.671,372.925 26.208,373.250 27.583 C 373.574 28.958,373.951 30.448,374.086 30.894 C 374.222 31.340,374.334 31.865,374.336 32.061 C 374.347 33.615,374.994 32.558,375.399 30.324 C 375.540 29.550,375.837 28.092,376.060 27.083 C 376.777 23.834,377.448 20.034,377.673 17.945 C 378.169 13.340,378.069 13.500,380.439 13.500 C 383.569 13.500,384.002 13.880,383.671 16.333 C 383.565 17.112,383.408 18.313,383.320 19.000 C 383.233 19.688,383.046 20.813,382.905 21.500 C 382.764 22.188,382.542 23.275,382.411 23.917 C 381.875 26.533,381.562 27.842,380.997 29.833 C 380.802 30.521,380.584 31.346,380.514 31.667 C 380.376 32.293,379.932 33.834,379.577 34.917 C 379.457 35.283,379.308 35.832,379.247 36.136 C 379.186 36.440,379.030 36.890,378.902 37.136 C 378.774 37.382,378.668 37.667,378.668 37.769 C 378.658 39.453,377.650 40.053,374.958 39.976 C 372.047 39.892,372.025 39.871,371.119 36.167 C 370.063 31.851,369.813 30.870,369.589 30.167 C 369.457 29.754,369.298 29.079,369.235 28.667 C 369.172 28.254,369.051 27.780,368.965 27.614 C 368.880 27.447,368.749 26.960,368.674 26.531 C 368.550 25.812,368.085 23.897,367.904 23.352 C 367.737 22.854,367.198 23.682,367.013 24.721 C 366.912 25.287,366.690 26.275,366.520 26.917 C 366.350 27.558,365.929 29.133,365.585 30.417 C 365.242 31.700,364.904 33.012,364.835 33.333 C 364.766 33.654,364.581 34.404,364.423 35.000 C 364.018 36.533,363.741 37.621,363.512 38.581 C 363.189 39.933,363.067 40.000,360.933 39.999 C 358.172 39.998,357.467 39.677,356.997 38.208 C 356.916 37.956,356.654 37.225,356.415 36.583 C 356.176 35.942,355.880 35.079,355.756 34.667 C 355.168 32.706,355.004 32.151,354.623 30.833 C 353.952 28.519,353.088 25.160,352.929 24.250 C 352.881 23.975,352.688 23.037,352.501 22.167 C 352.166 20.606,351.845 18.553,351.468 15.552 C 351.207 13.483,351.191 13.500,353.562 13.501 C 354.582 13.501,355.702 13.581,356.050 13.678 M92.000 17.812 C 89.820 18.292,88.642 19.968,88.401 22.933 C 88.309 24.074,88.332 24.397,88.517 24.514 C 88.780 24.681,96.509 24.723,97.313 24.563 L 97.833 24.458 97.833 22.997 C 97.833 18.887,95.706 16.996,92.000 17.812 M172.833 17.818 C 170.563 18.169,169.356 19.803,169.004 23.000 C 168.808 24.779,168.496 24.667,173.645 24.664 C 178.969 24.661,178.569 24.829,178.456 22.643 C 178.258 18.803,176.459 17.259,172.833 17.818 M334.081 18.216 C 331.880 19.266,331.054 22.016,331.216 27.750 C 331.389 33.868,332.527 35.667,336.224 35.667 C 340.282 35.667,341.250 33.965,341.250 26.833 C 341.250 21.803,340.949 20.353,339.610 18.938 C 338.567 17.835,335.671 17.457,334.081 18.216 M209.955 18.170 C 206.157 18.770,205.001 20.829,205.001 27.000 C 205.001 31.238,205.687 33.722,207.140 34.743 C 208.546 35.730,212.068 35.412,213.875 34.135 L 214.333 33.811 214.331 26.197 C 214.329 22.009,214.265 18.484,214.189 18.363 C 214.010 18.082,211.298 17.958,209.955 18.170 M134.528 28.708 C 134.481 34.000,134.435 35.000,134.236 35.000 C 134.083 35.000,134.000 34.818,134.000 34.484 C 134.000 34.109,133.909 33.945,133.667 33.882 C 133.483 33.834,133.333 33.700,133.333 33.585 C 133.333 33.249,132.405 33.153,130.299 33.272 L 128.333 33.383 128.333 27.926 C 128.333 22.722,128.349 22.450,128.667 22.045 C 128.850 21.812,129.000 21.482,129.000 21.311 C 129.000 21.044,129.135 21.000,129.958 20.998 C 131.329 20.996,132.167 20.830,132.167 20.562 C 132.167 20.420,132.353 20.333,132.658 20.333 C 133.284 20.333,134.000 19.686,134.000 19.120 C 134.000 18.886,134.094 18.663,134.208 18.624 C 134.509 18.523,134.594 21.202,134.528 28.708 M337.000 20.083 C 337.114 20.221,337.273 20.333,337.354 20.333 C 337.557 20.333,338.167 20.962,338.167 21.172 C 338.167 21.266,338.275 21.385,338.406 21.436 C 338.538 21.486,338.698 21.764,338.762 22.053 C 338.825 22.342,338.989 22.660,339.125 22.760 C 339.531 23.056,339.531 29.609,339.125 29.906 C 338.965 30.024,338.833 30.240,338.833 30.387 C 338.833 30.534,338.694 30.788,338.523 30.952 C 338.353 31.116,338.164 31.456,338.104 31.708 C 338.043 31.960,337.920 32.167,337.830 32.167 C 337.740 32.167,337.667 32.279,337.667 32.417 C 337.667 32.554,337.581 32.667,337.477 32.667 C 337.372 32.667,337.203 32.773,337.102 32.904 C 337.000 33.034,336.579 33.157,336.167 33.176 C 335.036 33.229,334.833 33.190,334.833 32.917 C 334.833 32.779,334.729 32.667,334.601 32.667 C 334.473 32.667,334.326 32.554,334.273 32.417 C 334.220 32.279,334.062 32.167,333.922 32.167 C 333.778 32.167,333.667 32.022,333.667 31.833 C 333.667 31.648,333.556 31.500,333.417 31.500 C 333.069 31.500,333.068 29.393,333.416 28.727 C 333.607 28.360,333.665 27.609,333.666 25.458 C 333.666 23.127,333.707 22.667,333.909 22.667 C 334.053 22.667,334.195 22.435,334.259 22.095 C 334.318 21.780,334.471 21.483,334.600 21.433 C 334.729 21.384,334.833 21.118,334.833 20.839 C 334.833 20.521,334.918 20.333,335.063 20.333 C 335.189 20.333,335.386 20.221,335.500 20.083 C 335.614 19.946,335.952 19.833,336.250 19.833 C 336.548 19.833,336.886 19.946,337.000 20.083 M93.500 20.667 C 93.735 20.901,94.056 21.000,94.583 21.000 C 95.306 21.000,95.333 21.019,95.333 21.500 L 95.333 22.000 93.417 22.000 L 91.500 22.000 91.500 21.515 C 91.500 21.077,91.567 21.018,92.178 20.915 C 92.551 20.852,92.897 20.695,92.946 20.567 C 93.063 20.263,93.104 20.270,93.500 20.667 M173.767 20.568 C 173.817 20.698,174.041 20.849,174.266 20.906 C 174.676 21.009,175.333 21.555,175.333 21.793 C 175.333 21.863,175.483 22.013,175.667 22.128 C 176.331 22.543,176.006 22.667,174.250 22.667 C 172.806 22.667,172.500 22.623,172.500 22.417 C 172.500 22.279,172.352 22.167,172.172 22.167 C 171.929 22.167,171.873 22.091,171.954 21.879 C 172.081 21.548,172.813 20.833,173.024 20.833 C 173.103 20.833,173.167 20.721,173.167 20.583 C 173.167 20.267,173.647 20.255,173.767 20.568 M223.779 25.442 C 223.559 25.862,223.546 25.834,223.459 24.758 C 223.410 24.141,223.286 23.553,223.185 23.451 C 222.781 23.047,222.958 21.073,223.417 20.864 C 223.646 20.759,223.850 20.578,223.870 20.462 C 223.890 20.345,223.930 21.319,223.958 22.626 C 223.996 24.405,223.951 25.113,223.779 25.442 M211.625 20.925 C 211.767 20.969,211.833 21.380,211.833 22.213 C 211.833 23.031,211.914 23.544,212.078 23.760 C 212.435 24.232,212.451 31.419,212.095 31.556 C 211.964 31.606,211.833 31.857,211.804 32.113 C 211.758 32.514,211.658 32.594,211.090 32.686 C 210.727 32.744,210.402 32.876,210.368 32.979 C 210.331 33.090,209.901 33.167,209.319 33.167 L 208.333 33.167 208.333 32.595 C 208.333 32.281,208.221 31.911,208.083 31.774 C 207.875 31.566,207.833 30.867,207.833 27.613 C 207.833 24.291,207.871 23.688,208.083 23.606 C 208.255 23.541,208.333 23.273,208.333 22.755 C 208.333 22.340,208.405 22.000,208.493 22.000 C 208.581 22.000,208.960 21.708,209.335 21.350 C 210.016 20.703,210.572 20.600,211.625 20.925 M39.500 27.997 C 37.566 28.414,36.917 29.382,36.917 31.848 C 36.917 33.593,36.930 33.652,37.428 34.277 C 39.055 36.318,43.417 36.022,45.875 33.703 L 46.333 33.271 46.333 30.725 C 46.333 28.378,46.308 28.165,46.011 28.006 C 45.642 27.809,40.407 27.802,39.500 27.997 M44.000 31.000 C 44.000 32.056,43.968 32.167,43.667 32.167 C 43.481 32.167,43.333 32.278,43.333 32.417 C 43.333 32.602,43.138 32.667,42.578 32.667 C 42.061 32.667,41.793 32.745,41.727 32.917 C 41.656 33.102,41.361 33.167,40.585 33.167 C 39.361 33.167,39.281 33.049,39.444 31.487 L 39.543 30.545 40.796 30.450 C 41.606 30.389,42.142 30.263,42.310 30.094 C 42.466 29.939,42.860 29.833,43.286 29.833 L 44.000 29.833 44.000 31.000 M394.778 33.469 C 396.973 34.598,396.900 38.834,394.667 39.856 C 393.233 40.512,390.773 40.267,389.780 39.369 C 388.416 38.135,388.515 34.653,389.941 33.719 C 391.181 32.907,393.456 32.789,394.778 33.469 " stroke="none" fill="#f6f9f6" fill-rule="evenodd"></path><path id="path1" d="M254.388 2.049 C 252.940 2.814,252.341 4.830,253.092 6.412 C 254.238 8.827,258.883 8.511,259.723 5.961 C 260.738 2.880,257.419 0.447,254.388 2.049 M58.033 3.367 C 57.717 3.683,57.747 38.470,58.065 39.231 C 58.353 39.922,58.693 40.000,61.404 40.000 C 64.082 40.000,63.833 40.607,63.833 34.060 C 63.833 28.033,63.832 28.040,64.674 29.042 C 64.991 29.419,66.104 30.632,67.148 31.739 C 69.472 34.203,71.522 36.874,72.747 39.037 C 73.164 39.773,73.585 39.890,76.115 39.968 C 79.772 40.081,79.720 40.127,78.525 37.814 C 76.708 34.299,72.747 29.419,69.714 26.958 C 68.415 25.905,68.415 25.907,69.821 24.772 C 73.220 22.025,77.491 17.075,77.984 15.309 C 78.422 13.742,78.012 13.500,74.919 13.500 L 72.688 13.500 71.772 14.875 C 71.268 15.631,70.718 16.400,70.549 16.583 C 70.381 16.767,69.880 17.367,69.438 17.917 C 68.665 18.877,68.398 19.180,66.359 21.417 C 64.459 23.500,64.124 23.827,63.981 23.738 C 63.898 23.687,63.833 19.376,63.833 13.894 L 63.833 4.141 63.346 3.654 L 62.859 3.167 60.546 3.167 C 58.970 3.167,58.170 3.230,58.033 3.367 M137.033 3.367 C 136.735 3.665,136.749 38.574,137.048 39.167 C 137.356 39.776,138.176 39.980,140.363 39.991 C 143.126 40.004,142.833 41.198,142.833 29.906 L 142.833 20.335 143.542 19.819 C 146.044 17.994,149.413 17.656,150.880 19.081 C 152.058 20.224,152.071 20.346,152.134 30.385 L 152.190 39.352 152.720 39.676 C 153.968 40.437,158.012 40.069,157.994 39.196 C 157.991 39.043,158.032 35.637,158.086 31.629 C 158.215 22.041,157.909 18.168,156.917 16.833 C 156.815 16.696,156.651 16.394,156.553 16.162 C 155.106 12.746,147.630 11.936,144.000 14.801 C 143.587 15.127,143.151 15.468,143.029 15.560 C 142.847 15.699,142.816 14.716,142.849 9.921 L 142.888 4.114 142.358 3.640 C 141.764 3.109,137.509 2.891,137.033 3.367 M3.930 4.553 C 3.663 4.748,3.636 4.997,3.690 6.798 C 3.777 9.747,3.460 9.562,8.629 9.667 L 12.750 9.750 12.833 24.452 C 12.927 40.949,12.806 39.578,14.192 39.845 C 15.561 40.110,18.784 40.035,18.899 39.736 C 18.954 39.591,19.000 33.001,19.000 25.091 C 19.000 17.180,19.047 10.474,19.104 10.187 L 19.208 9.667 23.448 9.667 C 28.701 9.667,28.339 9.825,28.314 7.536 C 28.285 4.939,28.236 4.790,27.332 4.555 C 26.181 4.256,4.340 4.254,3.930 4.553 M389.792 4.441 C 389.448 4.539,389.355 16.597,389.666 20.828 C 389.757 22.068,389.903 24.178,389.991 25.516 C 390.237 29.277,390.400 29.491,393.007 29.496 L 394.764 29.500 395.043 28.625 C 395.196 28.144,395.365 27.586,395.419 27.385 C 395.556 26.869,395.685 8.185,395.562 6.645 C 395.484 5.672,395.371 5.260,395.079 4.895 L 394.699 4.417 392.391 4.387 C 391.122 4.370,389.952 4.394,389.792 4.441 M120.869 7.279 C 120.783 7.446,120.664 8.814,120.605 10.318 C 120.478 13.541,120.498 13.500,118.989 13.500 C 117.531 13.500,117.330 13.733,117.341 15.412 C 117.357 18.011,117.554 18.352,119.120 18.486 L 120.250 18.583 120.351 26.833 C 120.468 36.410,120.541 36.899,122.118 38.596 C 123.539 40.125,127.519 40.800,130.894 40.085 C 132.461 39.753,132.500 39.706,132.500 38.138 C 132.500 35.787,132.126 35.480,129.212 35.441 C 127.404 35.418,127.325 35.401,126.879 34.955 L 126.417 34.493 126.363 27.047 C 126.333 22.952,126.355 19.353,126.412 19.051 L 126.515 18.500 129.244 18.500 C 132.780 18.500,132.500 18.670,132.499 16.524 C 132.498 13.821,132.082 13.500,128.576 13.500 C 126.131 13.500,126.333 13.771,126.333 10.496 C 126.333 7.065,126.367 7.104,123.277 7.029 C 121.233 6.980,121.011 7.003,120.869 7.279 M37.833 13.330 C 36.688 13.490,35.488 13.706,35.168 13.810 C 34.848 13.915,34.375 14.000,34.119 14.000 C 33.131 14.000,32.772 14.669,32.887 16.297 C 33.043 18.505,33.551 18.759,36.821 18.263 C 43.336 17.276,46.455 18.543,46.299 22.115 L 46.250 23.250 42.833 23.264 C 39.301 23.279,38.984 23.312,37.167 23.849 C 31.702 25.463,29.606 31.379,32.546 36.894 C 34.699 40.934,41.637 41.606,45.898 38.187 C 46.736 37.514,46.792 37.526,46.924 38.409 C 47.074 39.411,47.304 39.674,48.177 39.843 C 49.349 40.069,51.934 40.035,52.105 39.792 C 52.476 39.263,52.101 19.653,51.698 18.529 C 50.822 16.080,49.634 14.909,46.750 13.652 C 45.296 13.019,41.144 12.869,37.833 13.330 M90.250 13.314 C 87.845 13.820,85.186 15.626,84.490 17.226 C 84.404 17.423,84.263 17.696,84.175 17.833 C 82.360 20.685,81.935 29.114,83.373 33.729 C 84.673 37.899,87.329 39.915,92.083 40.339 C 95.423 40.637,100.181 40.161,101.833 39.365 L 102.417 39.083 102.465 37.629 C 102.545 35.211,102.174 34.976,98.870 35.348 C 91.554 36.170,88.802 34.892,88.392 30.480 C 88.246 28.904,87.735 29.005,95.788 29.003 L 102.827 29.000 102.917 28.542 C 102.967 28.290,103.080 27.746,103.169 27.333 C 103.801 24.389,103.376 19.925,102.243 17.603 C 101.423 15.923,99.787 14.316,98.491 13.918 C 98.267 13.849,98.008 13.734,97.917 13.663 C 97.138 13.056,92.483 12.844,90.250 13.314 M170.917 13.314 C 167.798 13.970,165.454 15.941,164.341 18.846 C 162.382 23.956,163.000 34.357,165.405 36.762 C 165.532 36.889,165.662 37.052,165.693 37.122 C 166.912 39.880,174.916 41.322,180.845 39.852 C 183.067 39.301,183.167 39.211,183.167 37.740 C 183.167 35.233,182.787 34.983,179.537 35.346 C 172.070 36.180,169.227 34.784,168.978 30.160 C 168.910 28.888,168.417 28.965,176.227 29.019 L 183.250 29.068 183.566 28.409 C 184.547 26.362,184.097 19.769,182.812 17.366 C 180.926 13.838,176.154 12.212,170.917 13.314 M309.897 13.250 C 308.179 13.519,306.526 14.299,305.382 15.381 L 304.507 16.208 304.337 15.760 C 304.243 15.513,304.167 15.238,304.167 15.148 C 304.167 14.668,303.616 14.016,303.003 13.771 C 302.299 13.489,299.096 13.374,298.944 13.625 C 298.732 13.973,298.757 39.123,298.969 39.379 C 299.440 39.947,304.138 40.295,304.633 39.800 C 304.784 39.650,304.834 37.504,304.835 31.175 C 304.836 21.696,304.901 20.879,305.718 20.031 C 307.217 18.475,311.028 17.809,312.565 18.833 C 313.953 19.759,313.906 19.404,314.000 29.750 C 314.102 41.011,313.733 39.928,317.500 40.022 L 319.917 40.083 319.963 30.333 C 320.015 19.445,319.992 19.182,318.780 16.693 C 317.380 13.817,314.185 12.579,309.897 13.250 M333.923 13.185 C 329.181 13.876,326.473 16.650,325.561 21.750 C 324.485 27.764,325.142 33.191,327.346 36.500 C 328.040 37.543,329.281 38.747,329.959 39.036 C 330.211 39.143,330.529 39.315,330.667 39.417 C 332.046 40.445,337.817 40.756,340.448 39.945 C 342.387 39.347,344.449 37.878,345.226 36.540 C 346.666 34.062,347.038 32.671,347.364 28.529 C 347.725 23.958,347.023 20.121,345.257 17.021 C 344.919 16.426,343.141 14.680,342.755 14.563 C 342.569 14.507,342.304 14.370,342.167 14.259 C 341.015 13.328,336.753 12.773,333.923 13.185 M207.417 13.493 C 205.085 13.869,202.593 15.222,201.433 16.743 C 198.038 21.194,198.203 33.722,201.708 37.697 C 204.143 40.458,210.124 41.127,213.287 38.992 C 214.293 38.314,214.239 38.096,214.333 43.216 L 214.417 47.737 214.989 48.123 C 215.531 48.487,215.692 48.506,217.906 48.463 L 220.250 48.417 220.250 35.667 C 220.250 28.654,220.220 21.997,220.183 20.873 C 220.107 18.556,220.077 18.628,221.132 18.507 L 221.917 18.417 221.965 16.880 C 222.034 14.653,221.717 14.063,220.378 13.927 C 219.849 13.874,218.967 13.749,218.417 13.650 C 217.194 13.430,208.572 13.307,207.417 13.493 M226.584 13.773 C 226.335 14.022,226.316 14.962,226.367 24.148 L 226.423 34.250 226.869 35.460 C 228.264 39.248,230.972 40.748,235.667 40.331 C 237.950 40.128,239.592 39.481,240.880 38.274 C 241.821 37.392,242.167 37.369,242.167 38.187 C 242.167 39.500,242.787 39.866,245.179 39.963 C 247.780 40.069,247.500 41.594,247.500 27.342 C 247.500 13.975,247.516 14.275,246.769 13.873 C 245.988 13.452,242.169 13.355,241.778 13.746 C 241.525 13.999,241.500 14.876,241.500 23.499 L 241.500 32.974 241.099 33.451 C 239.584 35.251,235.333 35.913,233.636 34.613 C 232.388 33.656,232.390 33.669,232.301 23.463 C 232.216 13.788,232.265 14.243,231.259 13.765 C 230.445 13.379,226.972 13.385,226.584 13.773 M253.623 13.599 C 253.555 13.667,253.500 19.444,253.500 26.438 L 253.500 39.154 253.858 39.487 C 254.323 39.920,255.154 40.030,257.500 39.968 L 259.417 39.917 259.459 27.749 C 259.506 14.372,259.502 14.303,258.576 13.833 C 258.047 13.565,253.856 13.366,253.623 13.599 M264.411 13.780 C 263.987 14.203,264.117 17.231,264.586 17.864 C 265.056 18.499,265.020 18.495,271.097 18.498 C 274.130 18.499,276.659 18.548,276.718 18.607 C 276.778 18.666,276.386 19.173,275.848 19.732 C 274.206 21.441,270.257 26.490,268.469 29.167 C 268.316 29.396,267.813 30.108,267.350 30.750 C 266.888 31.392,265.909 32.800,265.174 33.880 L 263.838 35.843 263.943 37.380 C 264.136 40.197,263.338 40.000,274.562 40.000 C 284.927 40.000,283.896 40.263,283.807 37.641 C 283.713 34.918,283.888 34.979,276.289 35.022 C 273.469 35.037,271.118 35.007,271.066 34.954 C 270.922 34.811,271.298 34.197,272.500 32.610 C 273.096 31.823,274.221 30.272,275.000 29.162 C 277.693 25.325,279.830 22.549,282.565 19.333 C 283.674 18.029,283.667 18.048,283.667 16.405 C 283.667 13.356,284.188 13.500,273.111 13.500 C 265.451 13.500,264.665 13.525,264.411 13.780 M351.491 13.761 C 351.317 13.970,351.313 14.321,351.468 15.552 C 351.845 18.553,352.166 20.606,352.501 22.167 C 352.688 23.037,352.881 23.975,352.929 24.250 C 353.088 25.160,353.952 28.519,354.623 30.833 C 355.004 32.151,355.168 32.706,355.756 34.667 C 355.880 35.079,356.176 35.942,356.415 36.583 C 356.654 37.225,356.916 37.956,356.997 38.208 C 357.467 39.677,358.172 39.998,360.933 39.999 C 363.067 40.000,363.189 39.933,363.512 38.581 C 363.741 37.621,364.018 36.533,364.423 35.000 C 364.581 34.404,364.766 33.654,364.835 33.333 C 364.904 33.012,365.242 31.700,365.585 30.417 C 365.929 29.133,366.350 27.558,366.520 26.917 C 366.690 26.275,366.912 25.287,367.013 24.721 C 367.198 23.682,367.737 22.854,367.904 23.352 C 368.085 23.897,368.550 25.812,368.674 26.531 C 368.749 26.960,368.880 27.447,368.965 27.614 C 369.051 27.780,369.172 28.254,369.235 28.667 C 369.298 29.079,369.457 29.754,369.589 30.167 C 369.813 30.870,370.063 31.851,371.119 36.167 C 372.025 39.871,372.047 39.892,374.958 39.976 C 377.650 40.053,378.658 39.453,378.668 37.769 C 378.668 37.667,378.774 37.382,378.902 37.136 C 379.030 36.890,379.186 36.440,379.247 36.136 C 379.308 35.832,379.457 35.283,379.577 34.917 C 379.932 33.834,380.376 32.293,380.514 31.667 C 380.584 31.346,380.802 30.521,380.997 29.833 C 381.562 27.842,381.875 26.533,382.411 23.917 C 382.542 23.275,382.764 22.188,382.905 21.500 C 383.046 20.813,383.233 19.688,383.320 19.000 C 383.408 18.313,383.565 17.112,383.671 16.333 C 384.002 13.880,383.569 13.500,380.439 13.500 C 378.069 13.500,378.169 13.340,377.673 17.945 C 377.448 20.034,376.777 23.834,376.060 27.083 C 375.837 28.092,375.540 29.550,375.399 30.324 C 374.994 32.558,374.347 33.615,374.336 32.061 C 374.334 31.865,374.222 31.340,374.086 30.894 C 373.951 30.448,373.574 28.958,373.250 27.583 C 372.925 26.208,372.550 24.671,372.417 24.167 C 372.035 22.727,371.442 20.324,370.958 18.250 C 370.422 15.957,370.039 15.680,367.389 15.673 C 365.103 15.666,364.833 15.724,364.833 16.221 C 364.833 16.583,364.331 18.779,363.912 20.250 C 363.781 20.708,363.327 22.471,362.904 24.167 C 362.161 27.143,361.967 27.933,361.452 30.083 C 361.133 31.418,360.659 33.000,360.578 33.000 C 360.505 33.000,360.307 32.229,360.002 30.750 C 359.888 30.200,359.661 29.150,359.496 28.417 C 358.519 24.063,357.947 20.591,357.420 15.822 C 357.203 13.861,356.606 13.502,353.562 13.501 C 352.082 13.500,351.664 13.553,351.491 13.761 M95.941 18.182 C 97.186 18.951,97.833 20.598,97.833 22.997 L 97.833 24.458 97.313 24.563 C 96.509 24.723,88.780 24.681,88.517 24.514 C 87.796 24.057,88.791 20.026,89.903 18.898 C 91.099 17.686,94.488 17.283,95.941 18.182 M176.417 18.251 C 177.839 19.070,178.326 20.118,178.456 22.643 C 178.527 24.006,178.497 24.400,178.314 24.515 C 177.930 24.759,169.239 24.706,169.037 24.458 C 168.453 23.744,169.457 20.109,170.567 18.922 C 171.727 17.681,174.810 17.327,176.417 18.251 M338.667 18.254 C 340.716 19.318,341.250 21.091,341.250 26.833 C 341.250 33.965,340.282 35.667,336.224 35.667 C 332.527 35.667,331.389 33.868,331.216 27.750 C 331.054 22.016,331.880 19.266,334.081 18.216 C 335.128 17.716,337.671 17.737,338.667 18.254 M214.189 18.363 C 214.265 18.484,214.329 22.009,214.331 26.197 L 214.333 33.811 213.875 34.135 C 212.068 35.412,208.546 35.730,207.140 34.743 C 204.243 32.706,204.174 21.708,207.043 19.252 C 208.297 18.179,213.650 17.513,214.189 18.363 M46.011 28.006 C 46.308 28.165,46.333 28.378,46.333 30.725 L 46.333 33.271 45.875 33.703 C 43.417 36.022,39.055 36.318,37.428 34.277 C 36.256 32.807,36.830 29.216,38.366 28.411 C 39.408 27.866,45.177 27.560,46.011 28.006 M390.960 33.227 C 388.074 34.303,387.940 38.734,390.756 39.936 C 392.419 40.645,395.013 40.112,395.833 38.893 C 396.440 37.991,396.457 35.207,395.861 34.371 C 395.045 33.227,392.533 32.641,390.960 33.227 " stroke="none" fill="#64ac64" fill-rule="evenodd"></path></g></svg>