<svg id="svg" version="1.1" xmlns="http://www.w3.org/2000/svg" xmlns:xlink="http://www.w3.org/1999/xlink" width="400" height="156.0655737704918" viewBox="0, 0, 400,156.0655737704918"><g id="svgg"><path id="path0" d="M17.833 0.333 C 17.833 0.645,17.960 0.708,18.583 0.708 C 20.430 0.708,20.667 0.666,20.667 0.333 C 20.667 0.026,20.556 0.000,19.250 0.000 C 17.944 0.000,17.833 0.026,17.833 0.333 M384.000 0.333 C 384.000 0.580,384.120 0.673,384.458 0.692 C 384.880 0.715,386.082 0.707,386.375 0.679 C 386.444 0.672,386.500 0.517,386.500 0.333 C 386.500 0.030,386.389 0.000,385.250 0.000 C 384.111 0.000,384.000 0.030,384.000 0.333 M14.500 0.852 C 14.296 0.998,14.312 1.013,14.583 0.932 C 14.875 0.845,14.884 0.858,14.652 1.041 C 14.506 1.156,14.419 1.344,14.458 1.458 C 14.497 1.575,14.394 1.666,14.222 1.664 C 14.046 1.663,13.990 1.610,14.089 1.539 C 14.184 1.472,14.259 1.310,14.256 1.181 C 14.248 0.853,13.833 0.744,13.833 1.069 C 13.833 1.215,13.754 1.333,13.657 1.333 C 13.560 1.333,13.534 1.240,13.600 1.125 C 13.670 1.004,13.657 0.975,13.568 1.056 C 13.485 1.132,13.417 1.282,13.417 1.389 C 13.417 1.496,13.329 1.583,13.222 1.583 C 13.115 1.583,12.965 1.652,12.889 1.735 C 12.808 1.823,12.837 1.837,12.958 1.767 C 13.087 1.693,13.167 1.746,13.167 1.907 C 13.167 2.247,13.323 2.236,13.620 1.875 C 13.847 1.600,13.855 1.601,13.760 1.899 C 13.684 2.135,13.712 2.174,13.871 2.055 C 13.988 1.968,14.196 1.903,14.333 1.912 C 14.471 1.921,14.640 1.850,14.708 1.756 C 14.789 1.644,14.891 1.671,14.997 1.833 C 15.133 2.040,15.162 2.024,15.164 1.742 C 15.166 1.554,15.250 1.317,15.352 1.215 C 15.773 0.794,15.024 0.475,14.500 0.852 M388.417 0.970 C 388.833 1.334,388.912 1.667,388.583 1.667 C 388.446 1.667,388.333 1.742,388.333 1.833 C 388.333 1.925,388.711 2.000,389.172 2.000 L 390.010 2.000 389.972 1.423 C 389.950 1.105,389.905 0.873,389.870 0.907 C 389.836 0.942,389.596 0.909,389.338 0.835 C 389.041 0.749,388.799 0.767,388.684 0.883 C 388.550 1.017,388.500 1.012,388.500 0.867 C 388.500 0.757,388.406 0.669,388.292 0.672 C 388.170 0.675,388.222 0.799,388.417 0.970 M10.833 2.417 C 10.421 2.638,10.151 2.822,10.234 2.826 C 10.317 2.830,10.219 2.977,10.017 3.152 C 9.647 3.473,9.800 3.810,10.203 3.561 C 10.314 3.492,10.670 3.393,10.993 3.340 C 11.372 3.279,11.600 3.141,11.636 2.951 C 11.668 2.787,11.605 2.678,11.492 2.704 C 11.382 2.729,11.254 2.646,11.208 2.518 C 11.156 2.377,11.196 2.332,11.312 2.403 C 11.415 2.467,11.501 2.421,11.503 2.302 C 11.504 2.143,11.549 2.152,11.667 2.333 C 11.805 2.547,11.829 2.541,11.831 2.292 C 11.834 1.919,11.742 1.930,10.833 2.417 M391.032 2.110 C 391.216 2.160,391.332 2.395,391.366 2.780 C 391.415 3.356,391.438 3.373,392.167 3.416 C 393.290 3.481,393.868 3.670,393.765 3.937 C 393.717 4.063,393.753 4.167,393.846 4.167 C 393.939 4.167,393.993 4.298,393.966 4.458 C 393.930 4.669,394.021 4.744,394.292 4.730 C 394.498 4.719,394.667 4.767,394.667 4.836 C 394.667 4.905,394.826 5.003,395.022 5.054 C 395.256 5.115,395.343 5.234,395.279 5.402 C 395.221 5.551,395.316 5.752,395.506 5.885 C 395.685 6.011,395.775 6.175,395.707 6.250 C 395.639 6.325,395.672 6.336,395.780 6.274 C 395.888 6.212,396.024 6.237,396.082 6.331 C 396.248 6.599,396.667 6.527,396.667 6.230 C 396.667 6.008,396.621 5.997,396.417 6.167 C 396.214 6.335,396.167 6.328,396.167 6.133 C 396.167 6.000,395.979 5.715,395.750 5.500 C 395.521 5.285,395.333 5.014,395.333 4.897 C 395.333 4.781,395.247 4.633,395.141 4.567 C 395.014 4.489,394.994 4.522,395.083 4.667 C 395.176 4.816,395.153 4.845,395.011 4.757 C 394.897 4.687,394.841 4.488,394.887 4.315 C 394.932 4.142,394.889 3.951,394.792 3.891 C 394.688 3.827,394.664 3.861,394.734 3.974 C 394.934 4.298,394.676 4.189,394.203 3.750 C 393.953 3.518,393.553 3.333,393.301 3.333 C 392.914 3.333,392.832 3.247,392.737 2.740 C 392.660 2.331,392.555 2.174,392.396 2.235 C 392.270 2.283,392.167 2.269,392.166 2.203 C 392.166 2.137,391.848 2.072,391.458 2.057 C 391.069 2.043,390.877 2.067,391.032 2.110 M9.083 3.500 C 8.900 3.579,8.825 3.650,8.917 3.658 C 9.009 3.665,8.998 3.726,8.892 3.794 C 8.375 4.124,8.577 4.532,9.291 4.599 C 10.060 4.672,10.237 4.207,9.614 3.752 C 9.462 3.641,9.387 3.502,9.447 3.442 C 9.583 3.306,9.506 3.318,9.083 3.500 M6.578 5.240 C 6.332 5.529,6.294 5.878,6.524 5.735 C 6.662 5.650,6.689 5.702,6.610 5.908 C 6.524 6.133,6.560 6.179,6.762 6.102 C 6.908 6.046,7.087 6.000,7.161 6.000 C 7.234 6.000,7.334 5.848,7.383 5.663 C 7.431 5.477,7.496 5.271,7.527 5.205 C 7.620 5.003,6.752 5.036,6.578 5.240 M6.076 6.178 C 6.016 6.276,5.856 6.314,5.721 6.262 C 5.325 6.110,4.790 6.484,4.885 6.848 C 4.931 7.023,4.901 7.167,4.818 7.167 C 4.735 7.167,4.667 7.279,4.667 7.417 C 4.667 7.763,4.808 7.730,5.194 7.292 C 5.376 7.085,5.481 7.005,5.427 7.113 C 5.274 7.417,5.582 7.515,5.918 7.270 C 6.238 7.036,6.113 6.585,5.780 6.772 C 5.672 6.833,5.752 6.718,5.958 6.518 C 6.319 6.168,6.416 6.000,6.260 6.000 C 6.219 6.000,6.137 6.080,6.076 6.178 M396.687 7.699 C 396.435 8.382,396.714 9.087,397.223 9.051 C 397.471 9.034,397.638 9.078,397.594 9.149 C 397.551 9.220,397.631 9.278,397.774 9.278 C 397.983 9.278,398.013 9.149,397.929 8.622 C 397.768 7.616,396.944 7.004,396.687 7.699 M4.260 8.089 C 4.082 8.223,4.007 8.338,4.093 8.344 C 4.179 8.350,4.064 8.429,3.837 8.519 C 3.303 8.732,3.644 8.970,4.337 8.868 C 4.756 8.807,4.833 8.721,4.833 8.314 C 4.833 7.775,4.729 7.734,4.260 8.089 M23.468 8.233 C 23.037 8.349,22.587 8.523,22.468 8.620 C 22.348 8.717,21.650 8.958,20.917 9.156 C 20.183 9.354,19.320 9.652,18.998 9.818 C 18.676 9.984,17.981 10.245,17.454 10.399 C 16.927 10.552,15.953 10.957,15.290 11.299 C 14.626 11.640,13.858 12.017,13.583 12.136 C 10.962 13.267,6.667 16.775,6.667 17.785 C 6.667 17.873,6.380 18.352,6.029 18.848 C 5.678 19.344,5.259 20.087,5.098 20.500 C 4.937 20.912,4.702 21.365,4.576 21.506 C 4.450 21.646,4.150 22.209,3.909 22.756 C 3.668 23.303,3.365 23.868,3.235 24.013 C 3.106 24.158,2.807 24.758,2.571 25.347 C 2.103 26.514,1.813 26.840,1.349 26.719 C 1.164 26.671,0.988 26.759,0.898 26.945 C 0.699 27.354,0.620 131.659,0.819 131.349 C 1.380 130.470,2.237 131.147,2.729 132.857 C 2.877 133.374,3.224 134.225,3.499 134.749 C 3.775 135.272,4.000 135.815,4.000 135.954 C 4.000 136.094,4.226 136.630,4.501 137.146 C 4.777 137.661,5.151 138.421,5.333 138.833 C 6.928 142.456,10.815 145.868,14.460 146.845 C 15.153 147.031,16.058 147.336,16.470 147.524 C 16.883 147.712,17.677 147.932,18.235 148.013 C 19.788 148.238,377.987 148.211,379.604 147.987 C 380.317 147.887,381.193 147.657,381.551 147.474 C 381.909 147.291,382.813 147.026,383.559 146.886 C 384.305 146.745,385.345 146.413,385.870 146.148 C 386.395 145.883,386.957 145.666,387.120 145.665 C 387.434 145.663,388.674 145.078,389.692 144.452 C 390.310 144.072,391.793 142.689,392.808 141.545 C 393.472 140.798,394.410 139.225,394.845 138.129 C 395.018 137.696,395.385 137.029,395.663 136.646 C 395.940 136.263,396.167 135.824,396.167 135.670 C 396.167 135.516,396.349 135.029,396.572 134.589 C 396.795 134.148,397.068 133.404,397.178 132.936 C 397.575 131.248,398.174 130.516,399.011 130.698 C 399.218 130.743,399.255 123.182,399.291 73.785 L 399.332 16.821 398.670 16.901 C 398.306 16.945,397.970 16.920,397.924 16.845 C 397.878 16.771,397.604 16.662,397.315 16.605 C 396.853 16.512,396.474 16.242,395.083 15.010 C 394.900 14.847,394.445 14.559,394.072 14.369 C 393.699 14.180,393.301 13.912,393.187 13.774 C 393.073 13.637,392.590 13.323,392.115 13.077 C 391.639 12.832,391.100 12.498,390.917 12.335 C 390.733 12.172,390.321 11.907,390.000 11.745 C 389.679 11.583,389.192 11.281,388.917 11.074 C 388.642 10.867,388.079 10.609,387.667 10.500 C 387.254 10.392,386.542 10.092,386.083 9.833 C 385.577 9.548,384.857 9.316,384.250 9.244 C 383.619 9.168,382.856 8.917,382.183 8.562 L 381.116 8.000 202.683 8.011 C 59.453 8.020,24.096 8.064,23.468 8.233 M2.684 10.319 C 2.533 10.523,2.514 10.526,2.602 10.333 C 2.685 10.150,2.664 10.131,2.522 10.261 C 2.285 10.478,1.959 11.545,2.170 11.415 C 2.392 11.278,3.179 11.513,3.072 11.684 C 3.022 11.766,3.060 11.833,3.157 11.833 C 3.259 11.833,3.333 11.459,3.333 10.944 C 3.333 10.015,3.087 9.777,2.684 10.319 M398.208 11.453 C 397.868 11.575,397.919 14.933,398.264 15.066 C 398.640 15.210,398.668 15.196,398.560 14.917 C 398.334 14.326,398.708 14.732,398.984 15.375 C 399.255 16.009,399.287 16.035,399.289 15.625 C 399.291 15.373,399.226 15.167,399.146 15.167 C 399.066 15.167,399.000 15.087,399.000 14.990 C 399.000 14.893,399.066 14.855,399.148 14.905 C 399.229 14.955,399.280 14.493,399.260 13.873 C 399.201 11.987,399.210 12.021,398.792 12.120 C 398.429 12.205,398.427 12.200,398.738 11.959 C 399.096 11.683,398.679 11.284,398.208 11.453 M1.423 13.690 C 1.180 13.978,1.020 14.313,1.067 14.435 C 1.114 14.556,1.075 14.703,0.981 14.762 C 0.887 14.820,0.852 14.976,0.903 15.109 C 0.954 15.242,0.938 15.314,0.866 15.270 C 0.794 15.226,0.718 15.640,0.696 16.191 C 0.670 16.854,0.716 17.156,0.831 17.085 C 0.927 17.025,0.962 16.907,0.910 16.822 C 0.857 16.736,0.931 16.667,1.073 16.667 C 1.216 16.667,1.339 16.535,1.345 16.375 C 1.355 16.126,1.378 16.132,1.500 16.417 C 1.628 16.714,1.644 16.718,1.655 16.448 C 1.661 16.283,1.730 16.186,1.807 16.233 C 1.884 16.281,1.960 16.079,1.977 15.785 C 1.994 15.491,2.028 14.891,2.054 14.453 C 2.089 13.854,2.047 13.677,1.884 13.740 C 1.612 13.844,1.602 13.631,1.867 13.367 C 1.977 13.257,2.021 13.167,1.965 13.167 C 1.909 13.167,1.665 13.402,1.423 13.690 M255.709 36.431 C 255.961 36.490,256.428 36.774,256.746 37.061 C 257.064 37.348,257.556 37.764,257.838 37.984 C 258.486 38.490,258.760 39.029,258.904 40.083 C 258.967 40.542,259.137 41.175,259.282 41.490 C 259.617 42.218,259.618 43.111,259.285 43.844 C 259.142 44.159,258.976 44.754,258.917 45.167 C 258.732 46.462,258.502 46.959,257.866 47.435 C 257.527 47.689,257.092 48.063,256.898 48.265 C 256.187 49.009,250.762 49.377,248.290 48.848 C 246.805 48.530,245.098 46.809,244.929 45.460 C 244.416 41.354,245.237 37.501,246.625 37.500 C 246.740 37.500,246.833 37.439,246.833 37.365 C 246.833 36.410,252.904 35.772,255.709 36.431 M123.051 40.892 C 123.663 41.193,124.489 41.425,125.301 41.524 C 127.116 41.746,127.251 41.785,127.796 42.244 C 128.064 42.470,128.651 42.747,129.100 42.860 C 129.549 42.972,130.142 43.265,130.417 43.511 C 130.692 43.757,131.140 44.010,131.412 44.075 C 131.685 44.139,132.172 44.470,132.495 44.811 C 132.819 45.151,133.293 45.562,133.549 45.724 C 133.805 45.885,134.083 46.196,134.166 46.415 C 134.249 46.634,134.478 46.899,134.674 47.004 C 134.871 47.109,135.217 47.601,135.444 48.096 C 135.671 48.592,136.006 49.102,136.189 49.230 C 136.532 49.470,137.000 50.751,137.000 51.448 C 137.000 51.666,137.115 51.888,137.256 51.942 C 138.668 52.484,138.701 66.101,137.293 66.941 C 137.162 67.019,136.967 67.533,136.860 68.083 C 136.706 68.871,136.540 69.201,136.082 69.635 C 135.762 69.939,135.500 70.303,135.500 70.444 C 135.500 70.584,135.292 70.898,135.039 71.141 C 134.785 71.384,134.444 71.793,134.280 72.049 C 134.116 72.305,133.791 72.588,133.558 72.676 C 133.324 72.765,133.009 72.991,132.857 73.179 C 132.705 73.367,132.281 73.655,131.915 73.820 L 131.250 74.120 132.000 74.324 C 132.412 74.437,132.943 74.711,133.179 74.934 C 133.415 75.157,133.940 75.506,134.345 75.711 C 134.767 75.924,135.178 76.284,135.305 76.551 C 135.427 76.808,135.712 77.089,135.937 77.174 C 136.163 77.260,136.475 77.565,136.632 77.851 C 136.789 78.138,137.156 78.632,137.449 78.950 C 137.812 79.343,138.043 79.819,138.172 80.441 C 138.276 80.944,138.470 81.396,138.604 81.447 C 139.058 81.622,139.337 82.491,139.516 84.287 C 139.614 85.275,139.811 86.341,139.953 86.657 C 140.575 88.033,140.576 92.301,139.956 93.670 C 139.811 93.989,139.644 94.850,139.583 95.583 C 139.426 97.490,139.238 98.203,138.794 98.587 C 138.550 98.798,138.326 99.271,138.195 99.853 C 138.038 100.559,137.848 100.907,137.410 101.294 C 137.093 101.575,136.833 101.918,136.833 102.057 C 136.833 102.196,136.627 102.467,136.375 102.661 C 136.123 102.854,135.798 103.216,135.654 103.465 C 135.509 103.713,135.214 104.006,134.997 104.114 C 134.781 104.223,134.506 104.498,134.387 104.726 C 134.268 104.953,133.920 105.222,133.614 105.323 C 133.308 105.424,132.903 105.716,132.714 105.971 C 132.394 106.404,131.423 106.833,130.764 106.833 C 130.610 106.833,130.319 107.024,130.117 107.257 C 129.814 107.608,129.479 107.725,128.192 107.931 C 127.239 108.084,126.462 108.307,126.192 108.506 C 125.255 109.196,124.379 109.237,110.583 109.244 C 96.757 109.250,96.823 109.254,96.591 108.525 C 96.538 108.356,96.306 108.132,96.077 108.027 C 95.319 107.682,95.333 108.323,95.333 75.134 C 95.333 43.712,95.338 43.282,95.663 42.757 C 96.163 41.947,96.629 41.828,100.243 41.581 C 102.915 41.399,103.739 41.284,104.363 41.007 C 105.565 40.475,107.493 40.364,115.083 40.391 L 122.083 40.417 123.051 40.892 M108.373 51.664 L 107.997 51.824 108.040 60.370 L 108.083 68.917 114.441 68.917 C 120.279 68.917,120.825 68.893,121.123 68.623 C 121.302 68.461,121.966 68.155,122.599 67.942 C 123.712 67.568,123.767 67.523,124.265 66.587 C 124.548 66.054,124.908 65.524,125.065 65.409 C 125.959 64.756,125.739 56.035,124.798 54.801 C 124.475 54.378,124.165 53.848,124.108 53.623 C 124.034 53.329,123.789 53.131,123.235 52.920 C 122.812 52.758,122.198 52.391,121.871 52.105 L 121.278 51.583 115.014 51.544 C 111.311 51.521,108.596 51.570,108.373 51.664 M174.583 57.648 C 174.858 57.762,175.233 57.991,175.417 58.156 C 175.611 58.332,176.146 58.501,176.702 58.562 C 177.849 58.690,178.414 58.928,178.736 59.419 C 178.869 59.622,179.194 59.831,179.460 59.884 C 180.416 60.075,183.865 63.301,184.143 64.263 C 184.224 64.545,184.480 64.965,184.711 65.196 C 184.982 65.466,185.205 65.967,185.337 66.600 C 185.469 67.226,185.686 67.716,185.935 67.948 C 186.403 68.383,186.594 69.194,186.744 71.391 C 186.826 72.594,186.953 73.218,187.220 73.725 C 187.778 74.788,187.778 82.182,187.219 83.333 C 186.967 83.854,186.820 84.567,186.740 85.667 C 186.606 87.490,186.373 88.064,185.621 88.421 C 185.325 88.561,184.896 88.785,184.667 88.919 C 184.312 89.126,182.404 89.162,171.795 89.164 L 159.340 89.167 159.231 89.598 C 159.043 90.351,159.323 92.548,159.654 92.917 C 159.820 93.100,160.118 93.883,160.318 94.657 C 160.629 95.862,160.777 96.153,161.341 96.673 C 161.703 97.008,162.000 97.355,162.000 97.444 C 162.000 97.533,162.431 97.740,162.958 97.903 C 163.485 98.067,164.117 98.388,164.361 98.618 C 165.072 99.286,166.763 99.391,174.500 99.247 C 184.644 99.060,184.650 99.060,185.176 100.218 C 185.350 100.602,185.494 101.146,185.496 101.426 C 185.498 101.707,185.610 102.082,185.745 102.260 C 186.090 102.717,186.094 105.733,185.749 106.394 C 185.612 106.657,185.500 106.964,185.500 107.077 C 185.500 107.428,184.950 107.800,184.125 108.007 C 183.690 108.117,183.333 108.256,183.333 108.317 C 183.333 108.695,182.143 109.049,180.183 109.254 C 178.706 109.409,177.852 109.583,177.397 109.820 C 175.580 110.767,164.238 110.772,162.957 109.827 C 162.639 109.593,162.045 109.436,161.040 109.322 C 159.049 109.095,158.861 109.043,158.414 108.596 C 158.199 108.381,157.626 108.110,157.140 107.994 C 156.606 107.866,156.076 107.601,155.802 107.327 C 155.552 107.077,155.175 106.830,154.965 106.777 C 154.755 106.724,154.246 106.371,153.833 105.993 C 153.421 105.615,152.928 105.181,152.739 105.028 C 152.549 104.875,152.116 104.354,151.776 103.871 C 151.437 103.387,151.008 102.841,150.824 102.657 C 150.640 102.473,150.444 102.095,150.388 101.817 C 150.333 101.538,150.111 101.195,149.895 101.054 C 149.511 100.802,149.276 100.197,149.086 98.975 C 149.034 98.641,148.876 98.271,148.735 98.154 C 148.214 97.722,147.982 96.944,147.806 95.037 C 147.671 93.575,147.551 92.999,147.326 92.750 C 146.255 91.559,146.256 76.492,147.327 75.129 C 147.531 74.869,147.660 74.306,147.738 73.333 C 147.912 71.160,148.133 70.245,148.598 69.781 C 148.882 69.497,149.067 69.046,149.192 68.336 C 149.323 67.592,149.503 67.172,149.832 66.834 C 150.084 66.577,150.338 66.113,150.396 65.803 C 150.454 65.493,150.733 64.986,151.015 64.677 C 151.297 64.368,151.707 63.832,151.925 63.487 C 152.143 63.142,152.474 62.811,152.662 62.751 C 152.850 62.692,153.117 62.425,153.255 62.158 C 153.393 61.891,153.723 61.560,153.988 61.423 C 154.253 61.286,154.611 60.995,154.783 60.776 C 155.143 60.319,156.007 59.833,156.460 59.833 C 156.631 59.833,156.932 59.615,157.129 59.348 C 157.504 58.841,158.561 58.500,159.758 58.500 C 160.075 58.500,160.333 58.427,160.333 58.338 C 160.333 58.077,161.334 57.633,162.244 57.490 C 163.631 57.273,174.000 57.405,174.583 57.648 M297.833 57.694 C 298.154 57.834,298.520 58.072,298.645 58.224 C 298.771 58.376,299.109 58.500,299.395 58.501 C 300.250 58.502,301.082 58.805,301.512 59.270 C 301.735 59.510,302.226 59.841,302.603 60.005 C 303.067 60.206,303.323 60.437,303.394 60.718 C 303.459 60.980,303.681 61.197,303.992 61.306 C 304.317 61.419,304.569 61.676,304.729 62.059 C 304.863 62.378,305.119 62.719,305.299 62.815 C 305.646 63.000,306.167 64.115,306.167 64.670 C 306.167 64.852,306.277 65.000,306.413 65.000 C 306.827 65.000,307.149 65.700,307.333 67.000 C 307.444 67.784,307.624 68.362,307.822 68.577 C 308.577 69.396,308.570 69.220,308.628 89.000 C 308.658 99.313,308.638 107.993,308.584 108.290 C 308.415 109.218,308.228 109.250,302.993 109.250 C 297.871 109.250,297.523 109.195,297.251 108.338 C 297.192 108.152,297.048 108.000,296.931 108.000 C 296.051 108.000,296.090 108.762,296.000 90.163 L 295.917 73.027 295.535 72.621 C 295.326 72.398,295.020 71.740,294.856 71.159 C 294.601 70.253,294.489 70.080,294.071 69.944 C 293.803 69.857,293.310 69.541,292.977 69.243 C 291.881 68.264,285.763 68.243,284.935 69.216 C 284.568 69.647,283.726 70.000,283.063 70.000 C 282.804 70.000,282.592 70.160,282.426 70.482 C 282.289 70.747,281.948 71.044,281.667 71.141 C 281.387 71.239,280.899 71.593,280.584 71.928 L 280.010 72.536 279.963 90.476 C 279.938 100.344,279.856 108.538,279.782 108.686 C 279.305 109.643,269.506 109.634,268.843 108.675 C 268.700 108.468,268.283 108.009,267.917 107.655 L 267.250 107.012 267.205 83.382 C 267.157 57.995,267.123 58.997,268.041 58.677 C 268.670 58.458,275.645 58.445,276.583 58.662 C 277.656 58.910,278.452 59.888,278.593 61.133 L 278.706 62.133 279.292 61.888 C 279.982 61.600,280.727 61.088,281.337 60.482 C 281.578 60.243,282.037 59.999,282.358 59.939 C 282.725 59.870,283.072 59.651,283.297 59.347 C 283.680 58.829,284.733 58.500,286.008 58.500 C 286.370 58.500,286.667 58.427,286.667 58.337 C 286.667 58.016,287.585 57.581,288.492 57.474 C 290.332 57.255,297.198 57.417,297.833 57.694 M226.539 57.873 C 227.065 58.010,227.590 58.197,227.706 58.288 C 227.822 58.380,229.308 58.505,231.010 58.566 C 234.324 58.684,235.039 58.804,235.748 59.361 C 235.997 59.557,236.474 59.809,236.809 59.922 C 237.260 60.073,237.524 60.319,237.833 60.879 C 238.063 61.293,238.397 61.838,238.576 62.090 C 239.114 62.844,239.184 67.395,238.668 68.047 C 238.162 68.686,236.823 69.333,236.006 69.333 C 235.484 69.333,235.329 69.399,235.313 69.625 C 235.302 69.785,235.278 79.517,235.258 91.250 C 235.222 113.617,235.214 113.848,234.456 114.946 C 234.214 115.296,233.963 115.915,233.899 116.320 C 233.822 116.799,233.596 117.264,233.248 117.653 C 232.955 117.981,232.643 118.475,232.554 118.750 C 232.466 119.025,232.171 119.398,231.899 119.578 C 231.627 119.759,231.295 120.133,231.161 120.411 C 231.027 120.688,230.740 121.001,230.524 121.107 C 230.308 121.212,230.045 121.472,229.939 121.685 C 229.833 121.898,229.500 122.143,229.199 122.229 C 228.898 122.315,228.507 122.589,228.330 122.838 C 227.984 123.324,227.454 123.580,226.450 123.747 C 226.101 123.804,225.776 123.956,225.727 124.083 C 225.539 124.572,224.799 124.838,223.131 125.017 C 221.902 125.148,221.322 125.285,221.083 125.502 C 219.971 126.510,209.155 126.510,207.167 125.502 C 206.766 125.299,205.872 125.152,204.309 125.033 C 202.100 124.865,201.205 124.628,200.883 124.125 C 200.810 124.010,200.412 123.804,200.000 123.667 C 199.450 123.483,199.183 123.278,199.000 122.896 C 198.862 122.610,198.550 122.261,198.306 122.120 C 197.487 121.650,197.353 115.806,198.136 114.708 C 198.635 114.009,199.997 113.939,201.386 114.542 C 202.707 115.115,218.235 115.134,218.861 114.562 C 219.360 114.108,219.953 113.802,220.583 113.673 C 220.946 113.599,221.162 113.405,221.370 112.965 C 221.528 112.632,221.805 112.312,221.985 112.255 C 222.484 112.096,222.683 110.762,222.630 107.923 C 222.579 105.194,222.487 104.977,221.738 105.818 C 221.267 106.346,220.745 106.566,219.507 106.759 C 219.099 106.822,218.562 107.024,218.315 107.207 C 217.082 108.118,208.100 108.120,206.848 107.209 C 206.611 107.036,205.862 106.797,205.183 106.678 C 204.165 106.499,203.854 106.365,203.401 105.912 C 203.100 105.611,202.619 105.313,202.333 105.250 C 202.008 105.179,201.741 104.980,201.624 104.723 C 201.521 104.497,201.185 104.206,200.878 104.078 C 200.523 103.929,200.259 103.670,200.152 103.362 C 200.059 103.097,199.796 102.794,199.566 102.689 C 199.337 102.585,199.075 102.286,198.984 102.026 C 198.893 101.765,198.609 101.397,198.352 101.207 C 198.043 100.978,197.812 100.588,197.671 100.056 C 197.554 99.613,197.336 99.136,197.187 98.998 C 196.635 98.483,196.513 98.210,196.332 97.077 C 196.222 96.384,196.021 95.783,195.835 95.584 C 195.279 94.991,195.149 94.311,195.002 91.254 C 194.915 89.457,194.748 87.848,194.587 87.250 C 194.200 85.820,194.201 80.977,194.588 79.583 C 194.764 78.952,194.913 77.507,194.993 75.660 C 195.119 72.752,195.465 71.167,195.975 71.167 C 196.063 71.167,196.186 70.773,196.248 70.292 C 196.440 68.795,196.640 68.237,197.067 68.009 C 197.331 67.868,197.509 67.585,197.583 67.194 C 197.739 66.360,198.076 65.765,198.575 65.438 C 198.809 65.284,199.000 65.045,199.000 64.905 C 199.000 64.765,199.338 64.309,199.750 63.890 C 200.162 63.472,200.500 63.070,200.500 62.998 C 200.500 62.925,200.720 62.789,200.989 62.695 C 201.258 62.602,201.595 62.300,201.736 62.026 C 201.901 61.709,202.212 61.456,202.595 61.330 C 202.925 61.221,203.433 60.924,203.723 60.671 C 204.013 60.418,204.700 60.082,205.250 59.925 C 205.800 59.767,206.400 59.499,206.583 59.330 C 207.120 58.834,207.717 58.684,209.621 58.568 C 210.941 58.487,211.556 58.374,211.943 58.142 C 213.052 57.475,224.218 57.269,226.539 57.873 M256.410 58.645 C 256.727 58.713,257.036 58.960,257.272 59.334 C 257.475 59.654,257.799 60.077,257.993 60.273 C 258.661 60.948,258.667 61.159,258.667 85.009 C 258.667 111.071,258.774 108.777,257.537 109.123 C 256.935 109.291,248.757 109.287,247.959 109.118 C 247.037 108.922,246.207 107.997,246.082 107.024 C 246.028 106.598,245.893 106.100,245.783 105.917 C 245.631 105.663,245.572 100.111,245.538 82.662 L 245.492 59.740 246.060 59.120 L 246.628 58.500 251.272 58.520 C 253.827 58.531,256.139 58.587,256.410 58.645 M166.342 67.448 C 165.716 67.497,165.369 67.613,165.225 67.819 C 165.109 67.984,164.563 68.245,164.012 68.400 C 163.220 68.622,162.858 68.842,162.296 69.443 C 161.904 69.862,161.336 70.457,161.033 70.766 C 160.625 71.183,160.447 71.552,160.339 72.205 C 160.160 73.287,159.944 73.867,159.618 74.138 C 159.322 74.384,159.067 77.253,159.248 78.319 L 159.363 79.000 167.257 79.000 L 175.152 79.000 175.262 78.413 C 175.546 76.898,175.263 72.207,174.861 71.779 C 174.651 71.556,174.370 71.010,174.237 70.566 C 173.921 69.518,173.156 68.744,172.096 68.400 C 171.631 68.248,171.100 67.991,170.917 67.827 C 170.557 67.504,168.154 67.305,166.342 67.448 M213.643 68.649 C 212.918 68.728,212.597 68.858,212.237 69.218 C 211.980 69.475,211.447 69.771,211.053 69.877 C 210.471 70.032,210.304 70.167,210.164 70.593 C 210.068 70.881,209.805 71.202,209.579 71.305 C 209.352 71.408,209.167 71.593,209.167 71.716 C 209.167 72.269,208.619 73.697,208.231 74.159 C 207.195 75.390,207.200 91.756,208.236 92.585 C 208.522 92.814,208.748 93.275,208.949 94.043 C 209.112 94.661,209.336 95.167,209.449 95.167 C 209.738 95.167,210.333 95.842,210.333 96.170 C 210.333 96.444,211.658 96.774,214.417 97.187 C 215.864 97.403,220.948 96.594,221.097 96.123 C 221.152 95.950,221.528 95.667,221.933 95.493 L 222.669 95.178 222.626 81.880 L 222.583 68.583 218.583 68.565 C 216.383 68.555,214.160 68.592,213.643 68.649 M108.105 80.208 C 107.973 80.700,107.970 97.560,108.101 97.903 C 108.336 98.516,122.555 98.133,123.333 97.494 C 123.562 97.305,124.105 96.990,124.539 96.793 C 125.132 96.525,125.372 96.305,125.501 95.912 C 125.596 95.624,125.903 95.155,126.183 94.869 C 127.372 93.652,127.331 84.626,126.131 83.367 C 125.807 83.028,125.496 82.553,125.440 82.313 C 125.367 82.002,125.200 81.848,124.863 81.781 C 124.602 81.729,124.069 81.419,123.678 81.093 C 123.288 80.767,122.919 80.500,122.859 80.499 C 122.799 80.498,121.025 80.349,118.917 80.167 C 113.259 79.678,108.242 79.697,108.105 80.208 " stroke="none" fill="#bbcbf4" fill-rule="evenodd"></path><path id="path1" d="M12.976 1.066 C 12.670 1.335,12.580 1.525,12.682 1.685 C 12.798 1.870,12.829 1.857,12.831 1.625 C 12.832 1.465,12.924 1.352,13.034 1.375 C 13.145 1.398,13.242 1.304,13.250 1.167 C 13.258 1.029,13.355 0.935,13.466 0.958 C 13.576 0.981,13.667 0.925,13.667 0.833 C 13.667 0.573,13.454 0.644,12.976 1.066 M390.076 1.208 C 390.139 1.415,390.198 1.662,390.207 1.758 C 390.232 2.044,390.958 2.017,391.070 1.726 C 391.216 1.343,390.853 0.971,390.456 1.097 C 390.237 1.167,390.163 1.140,390.239 1.018 C 390.302 0.916,390.265 0.833,390.157 0.833 C 390.031 0.833,390.002 0.967,390.076 1.208 M10.032 2.344 C 9.795 2.723,9.922 2.769,10.263 2.427 C 10.395 2.296,10.442 2.150,10.368 2.105 C 10.294 2.059,10.143 2.167,10.032 2.344 M392.937 2.301 C 392.829 2.475,392.900 2.956,393.057 3.113 C 393.261 3.316,394.042 3.370,393.920 3.172 C 393.860 3.074,393.722 3.048,393.613 3.113 C 393.505 3.178,393.529 3.089,393.667 2.917 C 393.804 2.744,393.828 2.656,393.720 2.721 C 393.612 2.786,393.475 2.761,393.417 2.667 C 393.358 2.572,393.222 2.548,393.113 2.613 C 393.001 2.680,393.015 2.609,393.145 2.449 C 393.281 2.282,393.302 2.167,393.197 2.167 C 393.099 2.167,392.982 2.227,392.937 2.301 M6.264 4.941 C 6.122 5.310,6.241 5.396,6.484 5.102 C 6.603 4.960,6.619 4.824,6.526 4.766 C 6.439 4.712,6.321 4.791,6.264 4.941 M395.878 4.897 C 395.899 5.069,396.104 5.322,396.333 5.459 L 396.750 5.708 396.395 5.395 C 396.200 5.224,395.995 4.971,395.940 4.833 C 395.870 4.659,395.851 4.679,395.878 4.897 M398.216 10.299 C 398.106 10.370,398.027 10.588,398.042 10.785 C 398.057 10.982,398.123 11.110,398.190 11.069 C 398.256 11.028,398.354 11.066,398.408 11.153 C 398.524 11.341,399.167 11.322,399.167 11.131 C 399.167 11.059,399.087 11.000,398.990 11.000 C 398.893 11.000,398.862 10.922,398.921 10.826 C 399.140 10.471,398.591 10.061,398.216 10.299 M1.341 13.074 C 1.225 13.214,1.062 13.289,0.981 13.238 C 0.900 13.188,0.833 13.186,0.833 13.234 C 0.833 13.282,0.975 13.398,1.149 13.491 C 1.521 13.690,1.894 13.368,1.684 13.028 C 1.582 12.864,1.507 12.874,1.341 13.074 M249.506 37.023 C 249.189 37.117,248.739 37.330,248.506 37.495 C 248.274 37.660,247.807 37.911,247.468 38.052 C 247.068 38.219,246.731 38.531,246.503 38.946 C 246.311 39.296,245.988 39.846,245.785 40.167 C 245.284 40.960,245.240 44.075,245.717 45.000 C 246.742 46.989,246.758 47.006,248.298 47.775 L 249.583 48.417 252.000 48.417 L 254.417 48.417 255.703 47.696 C 258.048 46.383,258.760 44.659,258.340 41.311 C 258.172 39.971,258.109 39.820,257.375 39.004 C 257.169 38.774,257.000 38.540,257.000 38.484 C 257.000 38.427,256.606 38.172,256.125 37.917 C 255.644 37.661,255.025 37.332,254.750 37.185 C 254.150 36.863,250.427 36.748,249.506 37.023 M110.083 41.590 C 108.708 41.709,106.246 41.888,104.612 41.987 C 102.537 42.113,101.153 42.289,100.028 42.570 C 99.142 42.791,97.967 43.061,97.417 43.171 C 96.867 43.280,96.323 43.446,96.208 43.538 C 95.911 43.779,95.921 105.662,96.218 106.433 C 96.652 107.560,97.636 108.161,99.361 108.355 C 102.838 108.746,120.215 108.450,123.333 107.947 C 127.566 107.265,128.007 107.169,128.826 106.754 C 129.245 106.541,129.896 106.284,130.272 106.183 C 130.648 106.082,131.246 105.767,131.603 105.483 C 131.959 105.200,132.474 104.851,132.748 104.709 C 133.433 104.353,135.000 102.981,135.000 102.737 C 135.000 102.628,135.187 102.416,135.415 102.267 C 135.643 102.117,135.973 101.715,136.148 101.373 C 136.323 101.030,136.699 100.459,136.983 100.103 C 137.267 99.746,137.579 99.146,137.676 98.769 C 137.773 98.392,138.120 97.412,138.447 96.592 L 139.042 95.100 139.128 91.507 C 139.224 87.475,139.018 85.041,138.480 83.846 C 138.291 83.427,137.953 82.528,137.728 81.849 C 137.504 81.171,137.136 80.396,136.910 80.128 C 136.685 79.860,136.500 79.534,136.500 79.402 C 136.500 78.955,133.992 76.518,132.935 75.939 C 129.535 74.076,129.545 74.088,130.846 73.349 C 131.689 72.870,132.967 71.976,133.294 71.636 C 134.326 70.563,134.692 70.104,135.010 69.480 C 135.213 69.083,135.549 68.493,135.756 68.170 C 137.217 65.897,138.113 58.983,137.355 55.833 C 136.542 52.456,136.126 51.115,135.671 50.397 C 135.404 49.975,135.138 49.417,135.081 49.156 C 134.921 48.429,131.595 45.155,130.413 44.561 C 129.889 44.299,129.188 43.941,128.855 43.768 C 128.522 43.595,127.912 43.356,127.500 43.239 C 127.087 43.121,126.275 42.826,125.694 42.583 C 124.655 42.149,123.991 42.047,118.667 41.504 C 116.572 41.290,113.165 41.324,110.083 41.590 M119.432 50.517 C 120.157 50.709,121.165 50.959,121.673 51.072 C 122.181 51.185,122.707 51.346,122.842 51.430 C 123.531 51.859,124.833 52.881,124.833 52.993 C 124.833 53.063,125.053 53.397,125.322 53.736 C 125.621 54.112,125.913 54.783,126.075 55.467 C 126.220 56.081,126.450 56.993,126.586 57.495 C 127.198 59.750,126.434 65.553,125.372 66.720 C 125.191 66.920,124.958 67.246,124.856 67.445 C 124.334 68.458,122.478 69.332,120.301 69.589 C 116.800 70.001,108.172 69.933,107.606 69.488 L 107.167 69.142 107.167 60.336 L 107.167 51.530 107.679 51.098 C 107.961 50.861,108.243 50.663,108.304 50.657 C 108.366 50.652,109.129 50.548,110.000 50.425 C 112.687 50.046,117.850 50.097,119.432 50.517 M164.417 58.344 C 163.958 58.430,162.696 58.660,161.612 58.854 C 160.194 59.108,159.353 59.358,158.612 59.749 C 158.046 60.047,157.396 60.346,157.167 60.413 C 155.546 60.889,152.137 64.429,150.985 66.833 C 150.699 67.429,150.366 68.029,150.245 68.167 C 150.123 68.304,149.864 69.033,149.669 69.787 C 149.473 70.541,149.102 71.741,148.843 72.454 C 147.479 76.208,147.438 91.394,148.781 95.250 C 149.004 95.892,149.337 96.942,149.521 97.583 C 149.862 98.773,151.233 101.751,151.521 101.930 C 151.609 101.984,151.854 102.304,152.068 102.642 C 152.715 103.668,155.024 105.855,155.863 106.238 C 156.168 106.377,156.613 106.650,156.853 106.845 C 157.094 107.040,157.769 107.337,158.353 107.506 C 158.938 107.675,159.892 108.010,160.472 108.252 C 163.400 109.470,177.099 109.505,180.287 108.302 C 180.816 108.102,182.000 107.744,182.917 107.505 L 184.583 107.071 184.802 106.411 C 184.952 105.959,185.005 105.050,184.969 103.544 L 184.917 101.337 184.221 100.643 C 183.154 99.576,181.504 99.490,177.083 100.270 C 172.483 101.082,164.521 100.359,162.837 98.976 C 162.518 98.714,162.164 98.500,162.049 98.500 C 161.720 98.500,160.000 96.750,160.000 96.415 C 160.000 96.248,159.767 95.750,159.483 95.306 C 159.093 94.699,158.911 94.141,158.743 93.042 C 158.621 92.240,158.429 91.056,158.317 90.413 C 157.832 87.646,156.831 87.833,172.094 87.833 L 184.700 87.833 185.157 87.344 C 186.621 85.777,186.863 73.824,185.508 70.000 C 185.232 69.221,185.005 68.374,185.003 68.118 C 185.000 67.598,184.492 66.506,184.104 66.184 C 183.965 66.068,183.761 65.698,183.652 65.362 C 183.165 63.858,180.387 61.346,177.750 60.024 C 174.876 58.584,167.843 57.697,164.417 58.344 M290.417 58.441 C 286.736 58.853,283.832 59.844,282.112 61.275 C 281.853 61.490,281.537 61.667,281.409 61.667 C 281.281 61.667,281.011 61.891,280.808 62.165 C 280.605 62.440,280.045 62.959,279.563 63.320 C 278.494 64.119,278.416 64.060,278.045 62.176 C 277.731 60.580,276.668 59.453,275.283 59.247 C 273.973 59.052,268.911 59.227,268.608 59.479 C 268.268 59.762,268.179 105.008,268.516 106.250 C 269.019 108.099,269.788 108.371,274.775 108.465 L 278.800 108.540 279.025 108.145 C 279.209 107.823,279.265 104.452,279.333 89.833 C 279.379 79.979,279.481 71.786,279.559 71.627 C 279.759 71.218,281.745 69.686,282.463 69.386 C 282.793 69.249,283.293 68.960,283.575 68.745 C 283.869 68.521,284.516 68.280,285.086 68.181 C 285.635 68.087,286.721 67.890,287.500 67.744 C 288.995 67.464,289.971 67.502,291.733 67.912 C 292.292 68.042,292.944 68.188,293.181 68.237 C 293.884 68.382,294.868 69.288,295.611 70.472 C 296.700 72.211,296.710 72.386,296.820 90.710 L 296.917 106.669 297.667 107.339 C 298.079 107.707,298.604 108.095,298.833 108.200 C 299.440 108.478,305.539 108.585,306.730 108.338 L 307.675 108.141 307.623 90.279 L 307.571 72.417 307.124 69.969 C 306.769 68.031,306.553 67.291,306.088 66.414 C 305.765 65.804,305.500 65.190,305.500 65.048 C 305.500 64.296,302.622 61.066,301.348 60.389 C 300.936 60.170,300.483 59.885,300.341 59.757 C 299.382 58.889,293.446 58.102,290.417 58.441 M215.167 58.766 C 214.754 58.802,213.456 58.907,212.281 58.998 C 210.709 59.121,209.874 59.272,209.115 59.571 C 208.547 59.794,207.746 60.060,207.333 60.163 C 206.267 60.428,205.657 60.674,205.085 61.071 C 204.812 61.261,204.293 61.550,203.932 61.713 C 202.789 62.230,200.272 64.560,199.577 65.745 C 199.350 66.133,199.016 66.585,198.835 66.748 C 198.655 66.912,198.350 67.466,198.157 67.981 C 197.965 68.496,197.669 69.142,197.499 69.417 C 197.182 69.931,197.111 70.177,196.058 74.417 L 195.436 76.917 195.453 83.417 C 195.468 89.508,195.492 90.006,195.831 91.333 C 196.030 92.112,196.362 93.537,196.569 94.500 C 197.040 96.683,197.137 96.987,197.523 97.481 C 197.694 97.700,197.943 98.246,198.076 98.694 C 198.209 99.142,198.574 99.825,198.888 100.212 C 199.202 100.600,199.576 101.142,199.719 101.417 C 199.863 101.692,200.401 102.292,200.916 102.750 C 201.431 103.208,202.084 103.789,202.367 104.041 C 202.650 104.292,203.302 104.695,203.816 104.935 C 204.329 105.176,204.862 105.469,205.000 105.588 C 205.702 106.193,211.288 107.103,213.333 106.945 C 216.505 106.699,219.375 106.061,220.500 105.350 C 221.882 104.477,222.630 104.138,223.231 104.113 L 223.917 104.083 223.966 106.250 C 224.084 111.468,222.252 114.928,219.111 115.417 C 218.729 115.476,217.592 115.683,216.583 115.877 C 214.207 116.335,209.593 116.359,206.500 115.932 C 202.802 115.420,200.043 115.297,199.377 115.613 L 198.804 115.885 198.861 118.414 C 198.946 122.279,199.279 122.679,203.417 123.895 C 208.234 125.311,220.884 125.290,223.881 123.861 C 224.451 123.590,225.299 123.246,225.766 123.096 C 226.233 122.946,226.870 122.634,227.182 122.402 C 227.495 122.170,227.975 121.873,228.250 121.741 C 228.778 121.487,230.045 120.272,231.137 118.973 C 232.138 117.782,233.319 115.486,233.588 114.208 C 233.718 113.589,233.980 112.643,234.171 112.106 C 234.888 110.079,235.090 84.214,234.477 72.853 L 234.267 68.956 234.726 68.562 C 235.082 68.255,235.380 68.167,236.056 68.167 C 237.672 68.167,237.727 68.057,237.627 65.016 C 237.526 61.923,237.230 61.028,236.171 60.605 C 234.644 59.994,229.914 59.144,227.167 58.987 C 224.052 58.810,216.301 58.667,215.167 58.766 M246.867 59.367 C 246.610 59.624,246.573 106.514,246.830 106.993 C 246.919 107.160,247.425 107.546,247.955 107.849 L 248.917 108.401 252.456 108.469 C 254.403 108.507,256.189 108.489,256.426 108.429 C 257.381 108.190,257.343 109.251,257.295 84.124 L 257.250 61.083 256.849 60.439 C 256.125 59.274,255.671 59.175,251.075 59.170 C 248.175 59.168,247.011 59.222,246.867 59.367 M171.447 67.015 C 171.949 67.114,172.567 67.389,172.920 67.670 C 173.255 67.936,173.666 68.197,173.833 68.250 C 175.819 68.880,177.558 78.842,175.833 79.711 C 174.906 80.178,159.044 80.076,158.517 79.599 C 158.124 79.243,158.047 78.113,158.335 76.917 C 158.424 76.550,158.577 75.537,158.676 74.667 C 158.814 73.455,158.990 72.803,159.428 71.888 C 159.743 71.231,160.000 70.612,160.000 70.513 C 160.000 70.296,162.015 68.167,162.221 68.167 C 162.301 68.167,162.798 67.900,163.326 67.574 C 164.730 66.708,168.558 66.444,171.447 67.015 M222.446 67.428 C 222.775 67.479,223.168 67.731,223.487 68.094 L 224.000 68.678 224.000 81.891 L 224.000 95.103 223.070 95.906 C 222.559 96.347,221.752 96.856,221.278 97.036 C 220.804 97.216,220.088 97.513,219.685 97.696 C 217.772 98.567,213.286 98.562,211.433 97.687 C 210.828 97.401,210.269 97.167,210.192 97.167 C 209.956 97.167,208.632 95.624,208.408 95.088 C 208.292 94.810,208.037 94.380,207.842 94.132 C 207.508 93.708,207.061 91.974,206.390 88.500 C 206.041 86.695,206.169 78.323,206.566 77.000 C 206.717 76.496,206.986 75.380,207.163 74.521 C 207.340 73.662,207.592 72.837,207.723 72.688 C 207.855 72.539,208.151 72.042,208.382 71.583 C 209.199 69.961,211.271 68.167,212.328 68.167 C 212.571 68.167,213.366 68.005,214.094 67.806 C 215.973 67.295,220.317 67.098,222.446 67.428 M118.626 78.821 C 120.089 78.926,120.948 79.098,122.527 79.603 L 124.552 80.250 125.818 81.513 C 127.714 83.405,128.251 85.136,128.247 89.333 C 128.245 91.663,128.192 92.351,127.982 92.750 C 127.837 93.025,127.587 93.737,127.425 94.333 C 126.977 95.987,124.814 98.333,123.738 98.333 C 123.631 98.333,122.765 98.569,121.813 98.857 L 120.083 99.381 114.227 99.456 C 109.931 99.512,108.273 99.480,108.005 99.336 C 107.184 98.897,107.167 98.678,107.167 88.748 L 107.167 79.485 107.576 79.076 L 107.985 78.667 112.367 78.676 C 114.778 78.682,117.594 78.747,118.626 78.821 M398.906 137.983 C 398.957 138.065,398.881 138.177,398.738 138.231 C 398.587 138.289,398.529 138.418,398.599 138.540 C 398.666 138.656,398.659 138.694,398.584 138.626 C 398.509 138.558,398.347 138.586,398.224 138.689 C 397.934 138.929,397.906 140.744,398.195 140.566 C 398.330 140.482,398.354 140.540,398.271 140.755 C 398.156 141.056,398.162 141.056,398.493 140.756 C 398.680 140.587,398.834 140.516,398.836 140.599 C 398.837 140.682,398.911 140.637,399.000 140.500 C 399.204 140.184,399.216 139.486,399.017 139.542 C 398.934 139.565,398.864 139.508,398.861 139.417 C 398.858 139.325,398.963 139.272,399.094 139.299 C 399.388 139.359,399.414 139.060,399.125 138.944 C 398.958 138.876,398.958 138.857,399.125 138.846 C 399.443 138.826,399.393 137.833,399.073 137.833 C 398.931 137.833,398.855 137.900,398.906 137.983 M397.700 144.033 C 397.590 144.143,397.500 144.368,397.500 144.533 C 397.500 144.698,397.421 144.833,397.323 144.833 C 397.226 144.833,397.189 144.765,397.240 144.682 C 397.292 144.599,397.197 144.567,397.031 144.610 C 396.622 144.717,396.508 146.167,396.909 146.167 C 397.051 146.167,397.167 146.100,397.167 146.019 C 397.167 145.937,397.298 145.881,397.458 145.894 C 397.641 145.908,397.741 145.808,397.727 145.627 C 397.715 145.467,397.771 145.378,397.852 145.428 C 397.933 145.479,398.000 145.365,398.000 145.177 C 398.000 144.988,397.906 144.832,397.792 144.831 C 397.632 144.829,397.630 144.799,397.784 144.701 C 397.929 144.609,398.045 143.833,397.915 143.833 C 397.907 143.833,397.810 143.923,397.700 144.033 M0.764 146.750 C 0.805 147.575,0.845 148.418,0.853 148.624 C 0.862 148.830,0.917 148.969,0.976 148.933 C 1.035 148.897,1.228 149.066,1.405 149.309 L 1.727 149.750 1.364 149.433 C 1.164 149.258,1.000 149.199,1.000 149.302 C 1.000 149.545,1.626 149.878,1.837 149.748 C 1.927 149.692,2.000 149.726,2.000 149.823 C 2.000 149.921,2.083 150.000,2.184 150.000 C 2.286 150.000,2.326 149.887,2.273 149.750 C 2.220 149.612,2.250 149.500,2.339 149.500 C 2.427 149.500,2.500 149.608,2.500 149.740 C 2.500 149.872,2.575 150.027,2.667 150.084 C 2.806 150.169,2.801 149.707,2.660 149.333 C 2.642 149.287,2.642 149.119,2.658 148.958 C 2.674 148.798,2.608 148.657,2.510 148.646 C 2.413 148.634,2.262 148.616,2.175 148.604 C 2.088 148.593,1.919 148.479,1.800 148.351 C 1.640 148.179,1.638 148.149,1.792 148.235 C 1.906 148.300,2.006 148.292,2.013 148.218 C 2.020 148.144,2.051 147.952,2.081 147.792 C 2.112 147.632,2.072 147.461,1.992 147.412 C 1.913 147.363,1.890 147.213,1.942 147.078 C 2.071 146.741,1.855 146.195,1.695 146.454 C 1.616 146.582,1.490 146.596,1.329 146.494 C 1.127 146.366,1.125 146.338,1.317 146.336 C 1.481 146.334,1.451 146.246,1.218 146.042 C 1.035 145.881,0.842 145.637,0.788 145.500 C 0.735 145.362,0.724 145.925,0.764 146.750 M396.267 147.361 C 396.338 147.476,395.880 147.573,395.483 147.528 C 395.428 147.522,395.391 147.718,395.400 147.965 C 395.425 148.635,395.921 148.638,396.328 147.970 C 396.731 147.310,396.742 147.222,396.424 147.222 C 396.291 147.222,396.220 147.285,396.267 147.361 M395.167 148.667 C 395.167 148.758,394.942 148.833,394.667 148.833 C 394.212 148.833,394.078 148.980,394.154 149.396 C 394.169 149.476,394.061 149.674,393.915 149.836 C 393.768 149.997,393.637 150.283,393.623 150.470 C 393.609 150.657,393.526 150.766,393.440 150.713 C 393.348 150.656,393.338 150.706,393.417 150.833 C 393.496 150.961,393.486 151.011,393.393 150.953 C 393.306 150.899,393.125 150.924,392.992 151.008 C 392.802 151.129,392.828 151.162,393.115 151.164 C 393.316 151.166,393.540 151.073,393.613 150.958 C 393.742 150.755,393.770 150.668,393.813 150.340 C 393.824 150.252,394.133 150.099,394.500 150.000 C 394.867 149.901,395.177 149.767,395.190 149.702 C 395.263 149.340,395.294 148.500,395.236 148.500 C 395.198 148.500,395.167 148.575,395.167 148.667 M392.833 150.500 C 392.833 150.878,393.006 150.927,393.300 150.633 C 393.594 150.340,393.544 150.167,393.167 150.167 C 392.944 150.167,392.833 150.278,392.833 150.500 M3.353 150.875 C 3.336 151.271,3.396 151.332,3.792 151.322 C 4.236 151.311,4.239 151.305,3.883 151.133 C 3.681 151.036,3.484 150.835,3.444 150.686 C 3.404 150.538,3.363 150.623,3.353 150.875 M4.333 150.993 C 4.333 151.207,4.810 151.746,4.910 151.645 C 4.944 151.611,4.828 151.406,4.652 151.190 C 4.477 150.973,4.333 150.885,4.333 150.993 M4.705 152.250 C 4.741 152.692,5.235 152.842,5.390 152.458 C 5.457 152.292,5.476 152.292,5.487 152.458 C 5.494 152.573,5.612 152.667,5.750 152.667 C 5.960 152.667,6.030 152.883,5.994 153.423 C 5.975 153.707,6.559 153.997,7.113 153.981 C 7.463 153.970,7.634 153.930,7.492 153.892 C 7.305 153.841,7.253 153.664,7.302 153.244 C 7.369 152.672,7.364 152.667,6.717 152.667 C 6.358 152.667,5.918 152.557,5.740 152.422 C 5.352 152.128,4.931 152.087,5.099 152.359 C 5.175 152.481,5.145 152.506,5.018 152.428 C 4.864 152.333,4.863 152.249,5.012 152.068 C 5.167 151.883,5.151 151.833,4.939 151.833 C 4.754 151.833,4.681 151.964,4.705 152.250 M388.988 152.708 C 388.981 152.731,388.942 152.938,388.901 153.167 C 388.860 153.396,388.702 153.677,388.548 153.792 C 388.297 153.980,388.305 154.000,388.635 154.000 C 388.836 154.000,389.000 153.924,389.000 153.832 C 389.000 153.732,389.133 153.747,389.329 153.869 C 389.594 154.035,389.700 154.031,389.871 153.846 C 390.045 153.659,390.038 153.639,389.833 153.738 C 389.680 153.811,389.697 153.765,389.875 153.619 C 390.214 153.341,390.260 153.001,389.958 152.997 C 389.819 152.996,389.833 152.941,390.000 152.833 C 390.186 152.713,390.090 152.671,389.625 152.669 C 389.281 152.668,388.994 152.685,388.988 152.708 M8.593 154.550 C 8.622 154.843,8.650 155.140,8.656 155.208 C 8.662 155.277,8.892 155.333,9.167 155.333 C 9.745 155.333,9.851 154.944,9.346 154.674 C 9.170 154.579,8.917 154.393,8.783 154.259 C 8.570 154.046,8.547 154.082,8.593 154.550 M385.576 154.292 C 385.506 154.452,385.466 154.733,385.488 154.917 L 385.527 155.250 385.273 154.917 C 385.023 154.588,385.020 154.588,385.045 154.958 C 385.062 155.198,385.179 155.333,385.369 155.333 C 385.663 155.333,385.731 155.181,385.678 154.640 C 385.663 154.487,385.728 154.315,385.823 154.256 C 385.930 154.190,385.954 154.258,385.886 154.435 C 385.808 154.640,385.837 154.684,385.988 154.591 C 386.154 154.488,386.160 154.534,386.017 154.802 C 385.739 155.320,385.790 155.368,386.292 155.057 C 387.355 154.399,387.409 154.000,386.434 154.000 C 385.897 154.000,385.669 154.077,385.576 154.292 M379.500 155.667 C 379.500 155.852,379.611 156.000,379.750 156.000 C 379.889 156.000,380.000 155.852,380.000 155.667 C 380.000 155.481,379.889 155.333,379.750 155.333 C 379.611 155.333,379.500 155.481,379.500 155.667 " stroke="none" fill="#657cc4" fill-rule="evenodd"></path><path id="path2" d="M386.500 0.333 C 386.500 0.517,386.575 0.667,386.667 0.667 C 386.758 0.667,386.833 0.517,386.833 0.333 C 386.833 0.150,386.758 0.000,386.667 0.000 C 386.575 0.000,386.500 0.150,386.500 0.333 M390.000 1.611 C 390.000 1.795,390.111 1.944,390.247 1.944 C 390.446 1.944,390.455 1.893,390.295 1.681 C 390.184 1.535,390.073 1.385,390.047 1.347 C 390.021 1.309,390.000 1.428,390.000 1.611 M392.667 2.667 C 392.667 2.758,392.739 2.833,392.828 2.833 C 392.917 2.833,392.948 2.942,392.897 3.074 C 392.834 3.240,392.912 3.307,393.148 3.289 C 393.492 3.263,393.492 3.263,393.134 2.881 C 392.734 2.456,392.667 2.425,392.667 2.667 M394.201 3.733 C 394.757 4.268,394.753 4.268,394.795 3.708 C 394.819 3.397,394.784 3.322,394.686 3.476 C 394.571 3.657,394.464 3.661,394.146 3.500 C 393.774 3.311,393.777 3.325,394.201 3.733 M394.905 4.167 C 394.905 4.350,394.994 4.500,395.103 4.500 C 395.220 4.500,395.266 4.362,395.215 4.167 C 395.167 3.983,395.078 3.833,395.016 3.833 C 394.955 3.833,394.905 3.983,394.905 4.167 M7.054 4.783 C 6.652 4.861,6.159 5.333,6.480 5.333 C 6.582 5.333,6.667 5.254,6.667 5.157 C 6.667 5.060,6.731 5.020,6.809 5.068 C 6.887 5.116,7.093 5.048,7.267 4.917 C 7.441 4.785,7.546 4.685,7.500 4.695 C 7.454 4.704,7.253 4.744,7.054 4.783 M395.552 4.917 C 395.443 5.035,395.405 5.183,395.468 5.246 C 395.532 5.309,395.583 5.430,395.583 5.514 C 395.583 5.598,395.658 5.673,395.750 5.681 C 395.842 5.689,396.014 5.775,396.132 5.874 C 396.284 6.000,396.399 6.001,396.525 5.875 C 396.651 5.749,396.597 5.641,396.342 5.505 C 396.143 5.398,395.929 5.174,395.866 5.007 C 395.772 4.761,395.712 4.744,395.552 4.917 M6.083 5.668 C 6.026 5.760,6.099 5.882,6.247 5.938 C 6.566 6.061,6.744 5.926,6.590 5.678 C 6.452 5.454,6.218 5.449,6.083 5.668 M4.152 7.550 C 4.367 7.824,4.351 7.843,3.972 7.774 C 3.610 7.709,3.556 7.759,3.556 8.160 C 3.556 8.524,3.619 8.604,3.859 8.542 C 4.026 8.498,4.127 8.403,4.082 8.332 C 4.038 8.260,4.122 8.155,4.270 8.099 C 4.464 8.024,4.510 8.068,4.437 8.257 C 4.382 8.400,4.402 8.477,4.481 8.428 C 4.560 8.379,4.625 8.147,4.625 7.913 C 4.625 7.678,4.585 7.526,4.536 7.575 C 4.487 7.624,4.328 7.571,4.182 7.457 C 3.946 7.273,3.942 7.283,4.152 7.550 M398.045 11.183 C 398.030 11.381,398.101 11.492,398.218 11.450 C 398.327 11.411,398.548 11.446,398.708 11.528 C 398.895 11.624,399.000 11.616,399.000 11.506 C 399.000 11.411,398.912 11.333,398.805 11.333 C 398.697 11.333,398.488 11.223,398.340 11.089 C 398.100 10.872,398.067 10.882,398.045 11.183 M248.906 36.317 C 247.962 36.435,246.833 37.006,246.833 37.365 C 246.833 37.439,246.740 37.500,246.625 37.500 C 245.237 37.501,244.416 41.354,244.929 45.460 C 245.098 46.809,246.805 48.530,248.290 48.848 C 250.762 49.377,256.187 49.009,256.898 48.265 C 257.092 48.063,257.527 47.689,257.866 47.435 C 258.502 46.959,258.732 46.462,258.917 45.167 C 258.976 44.754,259.142 44.159,259.285 43.844 C 259.618 43.111,259.617 42.218,259.282 41.490 C 259.137 41.175,258.967 40.542,258.904 40.083 C 258.760 39.029,258.486 38.490,257.838 37.984 C 257.556 37.764,257.064 37.348,256.746 37.061 C 256.428 36.774,255.961 36.490,255.709 36.431 C 254.983 36.260,250.021 36.177,248.906 36.317 M254.750 37.185 C 255.025 37.332,255.644 37.661,256.125 37.917 C 256.606 38.172,257.000 38.427,257.000 38.484 C 257.000 38.540,257.169 38.774,257.375 39.004 C 258.109 39.820,258.172 39.971,258.340 41.311 C 258.760 44.659,258.048 46.383,255.703 47.696 L 254.417 48.417 252.000 48.417 L 249.583 48.417 248.298 47.775 C 246.758 47.006,246.742 46.989,245.717 45.000 C 245.240 44.075,245.284 40.960,245.785 40.167 C 245.988 39.846,246.311 39.296,246.503 38.946 C 246.731 38.531,247.068 38.219,247.468 38.052 C 247.807 37.911,248.274 37.660,248.506 37.495 C 249.490 36.796,253.640 36.590,254.750 37.185 M106.613 40.514 C 105.793 40.596,104.798 40.814,104.363 41.007 C 103.739 41.284,102.915 41.399,100.243 41.581 C 96.629 41.828,96.163 41.947,95.663 42.757 C 95.338 43.282,95.333 43.712,95.333 75.134 C 95.333 108.323,95.319 107.682,96.077 108.027 C 96.306 108.132,96.538 108.356,96.591 108.525 C 96.823 109.254,96.757 109.250,110.583 109.244 C 124.379 109.237,125.255 109.196,126.192 108.506 C 126.462 108.307,127.239 108.084,128.192 107.931 C 129.479 107.725,129.814 107.608,130.117 107.257 C 130.319 107.024,130.610 106.833,130.764 106.833 C 131.423 106.833,132.394 106.404,132.714 105.971 C 132.903 105.716,133.308 105.424,133.614 105.323 C 133.920 105.222,134.268 104.953,134.387 104.726 C 134.506 104.498,134.781 104.223,134.997 104.114 C 135.214 104.006,135.509 103.713,135.654 103.465 C 135.798 103.216,136.123 102.854,136.375 102.661 C 136.627 102.467,136.833 102.196,136.833 102.057 C 136.833 101.918,137.093 101.575,137.410 101.294 C 137.848 100.907,138.038 100.559,138.195 99.853 C 138.326 99.271,138.550 98.798,138.794 98.587 C 139.238 98.203,139.426 97.490,139.583 95.583 C 139.644 94.850,139.811 93.989,139.956 93.670 C 140.576 92.301,140.575 88.033,139.953 86.657 C 139.811 86.341,139.614 85.275,139.516 84.287 C 139.337 82.491,139.058 81.622,138.604 81.447 C 138.470 81.396,138.276 80.944,138.172 80.441 C 138.043 79.819,137.812 79.343,137.449 78.950 C 137.156 78.632,136.789 78.138,136.632 77.851 C 136.475 77.565,136.163 77.260,135.937 77.174 C 135.712 77.089,135.427 76.808,135.305 76.551 C 135.178 76.284,134.767 75.924,134.345 75.711 C 133.940 75.506,133.415 75.157,133.179 74.934 C 132.943 74.711,132.412 74.437,132.000 74.324 L 131.250 74.120 131.915 73.820 C 132.281 73.655,132.705 73.367,132.857 73.179 C 133.009 72.991,133.324 72.765,133.558 72.676 C 133.791 72.588,134.116 72.305,134.280 72.049 C 134.444 71.793,134.785 71.384,135.039 71.141 C 135.292 70.898,135.500 70.584,135.500 70.444 C 135.500 70.303,135.762 69.939,136.082 69.635 C 136.540 69.201,136.706 68.871,136.860 68.083 C 136.967 67.533,137.162 67.019,137.293 66.941 C 138.701 66.101,138.668 52.484,137.256 51.942 C 137.115 51.888,137.000 51.666,137.000 51.448 C 137.000 50.751,136.532 49.470,136.189 49.230 C 136.006 49.102,135.671 48.592,135.444 48.096 C 135.217 47.601,134.871 47.109,134.674 47.004 C 134.478 46.899,134.249 46.634,134.166 46.415 C 134.083 46.196,133.805 45.885,133.549 45.724 C 133.293 45.562,132.819 45.151,132.495 44.811 C 132.172 44.470,131.685 44.139,131.412 44.075 C 131.140 44.010,130.692 43.757,130.417 43.511 C 130.142 43.265,129.549 42.972,129.100 42.860 C 128.651 42.747,128.064 42.470,127.796 42.244 C 127.251 41.785,127.116 41.746,125.301 41.524 C 124.489 41.425,123.663 41.193,123.051 40.892 L 122.083 40.417 115.083 40.391 C 111.233 40.377,107.422 40.432,106.613 40.514 M118.667 41.504 C 123.991 42.047,124.655 42.149,125.694 42.583 C 126.275 42.826,127.087 43.121,127.500 43.239 C 127.912 43.356,128.522 43.595,128.855 43.768 C 129.188 43.941,129.889 44.299,130.413 44.561 C 131.595 45.155,134.921 48.429,135.081 49.156 C 135.138 49.417,135.404 49.975,135.671 50.397 C 136.126 51.115,136.542 52.456,137.355 55.833 C 138.113 58.983,137.217 65.897,135.756 68.170 C 135.549 68.493,135.213 69.083,135.010 69.480 C 134.692 70.104,134.326 70.563,133.294 71.636 C 132.967 71.976,131.689 72.870,130.846 73.349 C 129.545 74.088,129.535 74.076,132.935 75.939 C 133.992 76.518,136.500 78.955,136.500 79.402 C 136.500 79.534,136.685 79.860,136.910 80.128 C 137.136 80.396,137.504 81.171,137.728 81.849 C 137.953 82.528,138.291 83.427,138.480 83.846 C 139.018 85.041,139.224 87.475,139.128 91.507 L 139.042 95.100 138.447 96.592 C 138.120 97.412,137.773 98.392,137.676 98.769 C 137.579 99.146,137.267 99.746,136.983 100.103 C 136.699 100.459,136.323 101.030,136.148 101.373 C 135.973 101.715,135.643 102.117,135.415 102.267 C 135.187 102.416,135.000 102.628,135.000 102.737 C 135.000 102.981,133.433 104.353,132.748 104.709 C 132.474 104.851,131.959 105.200,131.603 105.483 C 131.246 105.767,130.648 106.082,130.272 106.183 C 129.896 106.284,129.245 106.541,128.826 106.754 C 128.007 107.169,127.566 107.265,123.333 107.947 C 120.215 108.450,102.838 108.746,99.361 108.355 C 97.636 108.161,96.652 107.560,96.218 106.433 C 95.921 105.662,95.911 43.779,96.208 43.538 C 96.323 43.446,96.867 43.280,97.417 43.171 C 97.967 43.061,99.142 42.791,100.028 42.570 C 101.153 42.289,102.537 42.113,104.612 41.987 C 106.246 41.888,108.708 41.709,110.083 41.590 C 113.165 41.324,116.572 41.290,118.667 41.504 M110.000 50.425 C 109.129 50.548,108.366 50.652,108.304 50.657 C 108.243 50.663,107.961 50.861,107.679 51.098 L 107.167 51.530 107.167 60.336 L 107.167 69.142 107.606 69.488 C 108.172 69.933,116.800 70.001,120.301 69.589 C 122.478 69.332,124.334 68.458,124.856 67.445 C 124.958 67.246,125.191 66.920,125.372 66.720 C 126.434 65.553,127.198 59.750,126.586 57.495 C 126.450 56.993,126.220 56.081,126.075 55.467 C 125.913 54.783,125.621 54.112,125.322 53.736 C 125.053 53.397,124.833 53.063,124.833 52.993 C 124.833 52.881,123.531 51.859,122.842 51.430 C 122.707 51.346,122.181 51.185,121.673 51.072 C 121.165 50.959,120.157 50.709,119.432 50.517 C 117.850 50.097,112.687 50.046,110.000 50.425 M121.871 52.105 C 122.198 52.391,122.812 52.758,123.235 52.920 C 123.789 53.131,124.034 53.329,124.108 53.623 C 124.165 53.848,124.475 54.378,124.798 54.801 C 125.739 56.035,125.959 64.756,125.065 65.409 C 124.908 65.524,124.548 66.054,124.265 66.587 C 123.767 67.523,123.712 67.568,122.599 67.942 C 121.966 68.155,121.302 68.461,121.123 68.623 C 120.825 68.893,120.279 68.917,114.441 68.917 L 108.083 68.917 108.040 60.370 L 107.997 51.824 108.373 51.664 C 108.596 51.570,111.311 51.521,115.014 51.544 L 121.278 51.583 121.871 52.105 M162.244 57.490 C 161.334 57.633,160.333 58.077,160.333 58.338 C 160.333 58.427,160.075 58.500,159.758 58.500 C 158.561 58.500,157.504 58.841,157.129 59.348 C 156.932 59.615,156.631 59.833,156.460 59.833 C 156.007 59.833,155.143 60.319,154.783 60.776 C 154.611 60.995,154.253 61.286,153.988 61.423 C 153.723 61.560,153.393 61.891,153.255 62.158 C 153.117 62.425,152.850 62.692,152.662 62.751 C 152.474 62.811,152.143 63.142,151.925 63.487 C 151.707 63.832,151.297 64.368,151.015 64.677 C 150.733 64.986,150.454 65.493,150.396 65.803 C 150.338 66.113,150.084 66.577,149.832 66.834 C 149.503 67.172,149.323 67.592,149.192 68.336 C 149.067 69.046,148.882 69.497,148.598 69.781 C 148.133 70.245,147.912 71.160,147.738 73.333 C 147.660 74.306,147.531 74.869,147.327 75.129 C 146.256 76.492,146.255 91.559,147.326 92.750 C 147.551 92.999,147.671 93.575,147.806 95.037 C 147.982 96.944,148.214 97.722,148.735 98.154 C 148.876 98.271,149.034 98.641,149.086 98.975 C 149.276 100.197,149.511 100.802,149.895 101.054 C 150.111 101.195,150.333 101.538,150.388 101.817 C 150.444 102.095,150.640 102.473,150.824 102.657 C 151.008 102.841,151.437 103.387,151.776 103.871 C 152.116 104.354,152.549 104.875,152.739 105.028 C 152.928 105.181,153.421 105.615,153.833 105.993 C 154.246 106.371,154.755 106.724,154.965 106.777 C 155.175 106.830,155.552 107.077,155.802 107.327 C 156.076 107.601,156.606 107.866,157.140 107.994 C 157.626 108.110,158.199 108.381,158.414 108.596 C 158.861 109.043,159.049 109.095,161.040 109.322 C 162.045 109.436,162.639 109.593,162.957 109.827 C 164.238 110.772,175.580 110.767,177.397 109.820 C 177.852 109.583,178.706 109.409,180.183 109.254 C 182.143 109.049,183.333 108.695,183.333 108.317 C 183.333 108.256,183.690 108.117,184.125 108.007 C 184.950 107.800,185.500 107.428,185.500 107.077 C 185.500 106.964,185.612 106.657,185.749 106.394 C 186.094 105.733,186.090 102.717,185.745 102.260 C 185.610 102.082,185.498 101.707,185.496 101.426 C 185.494 101.146,185.350 100.602,185.176 100.218 C 184.650 99.060,184.644 99.060,174.500 99.247 C 166.763 99.391,165.072 99.286,164.361 98.618 C 164.117 98.388,163.485 98.067,162.958 97.903 C 162.431 97.740,162.000 97.533,162.000 97.444 C 162.000 97.355,161.703 97.008,161.341 96.673 C 160.777 96.153,160.629 95.862,160.318 94.657 C 160.118 93.883,159.820 93.100,159.654 92.917 C 159.323 92.548,159.043 90.351,159.231 89.598 L 159.340 89.167 171.795 89.164 C 182.404 89.162,184.312 89.126,184.667 88.919 C 184.896 88.785,185.325 88.561,185.621 88.421 C 186.373 88.064,186.606 87.490,186.740 85.667 C 186.820 84.567,186.967 83.854,187.219 83.333 C 187.778 82.182,187.778 74.788,187.220 73.725 C 186.953 73.218,186.826 72.594,186.744 71.391 C 186.594 69.194,186.403 68.383,185.935 67.948 C 185.686 67.716,185.469 67.226,185.337 66.600 C 185.205 65.967,184.982 65.466,184.711 65.196 C 184.480 64.965,184.224 64.545,184.143 64.263 C 183.865 63.301,180.416 60.075,179.460 59.884 C 179.194 59.831,178.869 59.622,178.736 59.419 C 178.414 58.928,177.849 58.690,176.702 58.562 C 176.146 58.501,175.611 58.332,175.417 58.156 C 174.676 57.488,174.257 57.441,168.583 57.399 C 165.558 57.377,162.705 57.418,162.244 57.490 M288.492 57.474 C 287.585 57.581,286.667 58.016,286.667 58.337 C 286.667 58.427,286.370 58.500,286.008 58.500 C 284.733 58.500,283.680 58.829,283.297 59.347 C 283.072 59.651,282.725 59.870,282.358 59.939 C 282.037 59.999,281.578 60.243,281.337 60.482 C 280.727 61.088,279.982 61.600,279.292 61.888 L 278.706 62.133 278.593 61.133 C 278.452 59.888,277.656 58.910,276.583 58.662 C 275.645 58.445,268.670 58.458,268.041 58.677 C 267.123 58.997,267.157 57.995,267.205 83.382 L 267.250 107.012 267.917 107.655 C 268.283 108.009,268.700 108.468,268.843 108.675 C 269.506 109.634,279.305 109.643,279.782 108.686 C 279.856 108.538,279.938 100.344,279.963 90.476 L 280.010 72.536 280.584 71.928 C 280.899 71.593,281.387 71.239,281.667 71.141 C 281.948 71.044,282.289 70.747,282.426 70.482 C 282.592 70.160,282.804 70.000,283.063 70.000 C 283.726 70.000,284.568 69.647,284.935 69.216 C 285.763 68.243,291.881 68.264,292.977 69.243 C 293.310 69.541,293.803 69.857,294.071 69.944 C 294.489 70.080,294.601 70.253,294.856 71.159 C 295.020 71.740,295.326 72.398,295.535 72.621 L 295.917 73.027 296.000 90.163 C 296.090 108.762,296.051 108.000,296.931 108.000 C 297.048 108.000,297.192 108.152,297.251 108.338 C 297.523 109.195,297.871 109.250,302.993 109.250 C 308.228 109.250,308.415 109.218,308.584 108.290 C 308.638 107.993,308.658 99.313,308.628 89.000 C 308.570 69.220,308.577 69.396,307.822 68.577 C 307.624 68.362,307.444 67.784,307.333 67.000 C 307.149 65.700,306.827 65.000,306.413 65.000 C 306.277 65.000,306.167 64.852,306.167 64.670 C 306.167 64.115,305.646 63.000,305.299 62.815 C 305.119 62.719,304.863 62.378,304.729 62.059 C 304.569 61.676,304.317 61.419,303.992 61.306 C 303.681 61.197,303.459 60.980,303.394 60.718 C 303.323 60.437,303.067 60.206,302.603 60.005 C 302.226 59.841,301.735 59.510,301.512 59.270 C 301.082 58.805,300.250 58.502,299.395 58.501 C 299.109 58.500,298.771 58.376,298.645 58.224 C 298.033 57.485,292.092 57.046,288.492 57.474 M213.443 57.675 C 212.907 57.758,212.232 57.968,211.943 58.142 C 211.556 58.374,210.941 58.487,209.621 58.568 C 207.717 58.684,207.120 58.834,206.583 59.330 C 206.400 59.499,205.800 59.767,205.250 59.925 C 204.700 60.082,204.013 60.418,203.723 60.671 C 203.433 60.924,202.925 61.221,202.595 61.330 C 202.212 61.456,201.901 61.709,201.736 62.026 C 201.595 62.300,201.258 62.602,200.989 62.695 C 200.720 62.789,200.500 62.925,200.500 62.998 C 200.500 63.070,200.162 63.472,199.750 63.890 C 199.338 64.309,199.000 64.765,199.000 64.905 C 199.000 65.045,198.809 65.284,198.575 65.438 C 198.076 65.765,197.739 66.360,197.583 67.194 C 197.509 67.585,197.331 67.868,197.067 68.009 C 196.640 68.237,196.440 68.795,196.248 70.292 C 196.186 70.773,196.063 71.167,195.975 71.167 C 195.465 71.167,195.119 72.752,194.993 75.660 C 194.913 77.507,194.764 78.952,194.588 79.583 C 194.201 80.977,194.200 85.820,194.587 87.250 C 194.748 87.848,194.915 89.457,195.002 91.254 C 195.149 94.311,195.279 94.991,195.835 95.584 C 196.021 95.783,196.222 96.384,196.332 97.077 C 196.513 98.210,196.635 98.483,197.187 98.998 C 197.336 99.136,197.554 99.613,197.671 100.056 C 197.812 100.588,198.043 100.978,198.352 101.207 C 198.609 101.397,198.893 101.765,198.984 102.026 C 199.075 102.286,199.337 102.585,199.566 102.689 C 199.796 102.794,200.059 103.097,200.152 103.362 C 200.259 103.670,200.523 103.929,200.878 104.078 C 201.185 104.206,201.521 104.497,201.624 104.723 C 201.741 104.980,202.008 105.179,202.333 105.250 C 202.619 105.313,203.100 105.611,203.401 105.912 C 203.854 106.365,204.165 106.499,205.183 106.678 C 205.862 106.797,206.611 107.036,206.848 107.209 C 208.100 108.120,217.082 108.118,218.315 107.207 C 218.562 107.024,219.099 106.822,219.507 106.759 C 220.745 106.566,221.267 106.346,221.738 105.818 C 222.487 104.977,222.579 105.194,222.630 107.923 C 222.683 110.762,222.484 112.096,221.985 112.255 C 221.805 112.312,221.528 112.632,221.370 112.965 C 221.162 113.405,220.946 113.599,220.583 113.673 C 219.953 113.802,219.360 114.108,218.861 114.562 C 218.235 115.134,202.707 115.115,201.386 114.542 C 199.997 113.939,198.635 114.009,198.136 114.708 C 197.353 115.806,197.487 121.650,198.306 122.120 C 198.550 122.261,198.862 122.610,199.000 122.896 C 199.183 123.278,199.450 123.483,200.000 123.667 C 200.412 123.804,200.810 124.010,200.883 124.125 C 201.205 124.628,202.100 124.865,204.309 125.033 C 205.872 125.152,206.766 125.299,207.167 125.502 C 209.155 126.510,219.971 126.510,221.083 125.502 C 221.322 125.285,221.902 125.148,223.131 125.017 C 224.799 124.838,225.539 124.572,225.727 124.083 C 225.776 123.956,226.101 123.804,226.450 123.747 C 227.454 123.580,227.984 123.324,228.330 122.838 C 228.507 122.589,228.898 122.315,229.199 122.229 C 229.500 122.143,229.833 121.898,229.939 121.685 C 230.045 121.472,230.308 121.212,230.524 121.107 C 230.740 121.001,231.027 120.688,231.161 120.411 C 231.295 120.133,231.627 119.759,231.899 119.578 C 232.171 119.398,232.466 119.025,232.554 118.750 C 232.643 118.475,232.955 117.981,233.248 117.653 C 233.596 117.264,233.822 116.799,233.899 116.320 C 233.963 115.915,234.214 115.296,234.456 114.946 C 235.214 113.848,235.222 113.617,235.258 91.250 C 235.278 79.517,235.302 69.785,235.313 69.625 C 235.329 69.399,235.484 69.333,236.006 69.333 C 236.823 69.333,238.162 68.686,238.668 68.047 C 239.184 67.395,239.114 62.844,238.576 62.090 C 238.397 61.838,238.063 61.293,237.833 60.879 C 237.524 60.319,237.260 60.073,236.809 59.922 C 236.474 59.809,235.997 59.557,235.748 59.361 C 235.039 58.804,234.324 58.684,231.010 58.566 C 229.308 58.505,227.822 58.380,227.706 58.288 C 226.921 57.667,216.417 57.215,213.443 57.675 M173.750 58.738 C 178.074 59.573,182.802 62.736,183.652 65.362 C 183.761 65.698,183.965 66.068,184.104 66.184 C 184.492 66.506,185.000 67.598,185.003 68.118 C 185.005 68.374,185.232 69.221,185.508 70.000 C 186.863 73.824,186.621 85.777,185.157 87.344 L 184.700 87.833 172.094 87.833 C 156.831 87.833,157.832 87.646,158.317 90.413 C 158.429 91.056,158.621 92.240,158.743 93.042 C 158.911 94.141,159.093 94.699,159.483 95.306 C 159.767 95.750,160.000 96.248,160.000 96.415 C 160.000 96.750,161.720 98.500,162.049 98.500 C 162.164 98.500,162.518 98.714,162.837 98.976 C 164.521 100.359,172.483 101.082,177.083 100.270 C 181.504 99.490,183.154 99.576,184.221 100.643 L 184.917 101.337 184.969 103.544 C 185.005 105.050,184.952 105.959,184.802 106.411 L 184.583 107.071 182.917 107.505 C 182.000 107.744,180.816 108.102,180.287 108.302 C 177.099 109.505,163.400 109.470,160.472 108.252 C 159.892 108.010,158.938 107.675,158.353 107.506 C 157.769 107.337,157.094 107.040,156.853 106.845 C 156.613 106.650,156.168 106.377,155.863 106.238 C 155.024 105.855,152.715 103.668,152.068 102.642 C 151.854 102.304,151.609 101.984,151.521 101.930 C 151.233 101.751,149.862 98.773,149.521 97.583 C 149.337 96.942,149.004 95.892,148.781 95.250 C 147.438 91.394,147.479 76.208,148.843 72.454 C 149.102 71.741,149.473 70.541,149.669 69.787 C 149.864 69.033,150.123 68.304,150.245 68.167 C 150.366 68.029,150.699 67.429,150.985 66.833 C 152.137 64.429,155.546 60.889,157.167 60.413 C 157.396 60.346,158.046 60.047,158.612 59.749 C 159.353 59.358,160.194 59.108,161.612 58.854 C 162.696 58.660,163.958 58.430,164.417 58.344 C 166.087 58.029,171.192 58.244,173.750 58.738 M297.430 58.818 C 299.279 59.187,299.951 59.404,300.341 59.757 C 300.483 59.885,300.936 60.170,301.348 60.389 C 302.622 61.066,305.500 64.296,305.500 65.048 C 305.500 65.190,305.765 65.804,306.088 66.414 C 306.553 67.291,306.769 68.031,307.124 69.969 L 307.571 72.417 307.623 90.279 L 307.675 108.141 306.730 108.338 C 305.539 108.585,299.440 108.478,298.833 108.200 C 298.604 108.095,298.079 107.707,297.667 107.339 L 296.917 106.669 296.820 90.710 C 296.710 72.386,296.700 72.211,295.611 70.472 C 294.868 69.288,293.884 68.382,293.181 68.237 C 292.944 68.188,292.292 68.042,291.733 67.912 C 289.971 67.502,288.995 67.464,287.500 67.744 C 286.721 67.890,285.635 68.087,285.086 68.181 C 284.516 68.280,283.869 68.521,283.575 68.745 C 283.293 68.960,282.793 69.249,282.463 69.386 C 281.745 69.686,279.759 71.218,279.559 71.627 C 279.481 71.786,279.379 79.979,279.333 89.833 C 279.265 104.452,279.209 107.823,279.025 108.145 L 278.800 108.540 274.775 108.465 C 269.788 108.371,269.019 108.099,268.516 106.250 C 268.179 105.008,268.268 59.762,268.608 59.479 C 268.911 59.227,273.973 59.052,275.283 59.247 C 276.668 59.453,277.731 60.580,278.045 62.176 C 278.416 64.060,278.494 64.119,279.563 63.320 C 280.045 62.959,280.605 62.440,280.808 62.165 C 281.011 61.891,281.281 61.667,281.409 61.667 C 281.537 61.667,281.853 61.490,282.112 61.275 C 283.832 59.844,286.736 58.853,290.417 58.441 C 291.870 58.278,295.784 58.489,297.430 58.818 M246.060 59.120 L 245.492 59.740 245.538 82.662 C 245.572 100.111,245.631 105.663,245.783 105.917 C 245.893 106.100,246.028 106.598,246.082 107.024 C 246.207 107.997,247.037 108.922,247.959 109.118 C 248.757 109.287,256.935 109.291,257.537 109.123 C 258.774 108.777,258.667 111.071,258.667 85.009 C 258.667 61.159,258.661 60.948,257.993 60.273 C 257.799 60.077,257.475 59.654,257.272 59.334 C 256.780 58.555,256.690 58.543,251.272 58.520 L 246.628 58.500 246.060 59.120 M227.167 58.987 C 229.914 59.144,234.644 59.994,236.171 60.605 C 237.230 61.028,237.526 61.923,237.627 65.016 C 237.727 68.057,237.672 68.167,236.056 68.167 C 235.380 68.167,235.082 68.255,234.726 68.562 L 234.267 68.956 234.477 72.853 C 235.090 84.214,234.888 110.079,234.171 112.106 C 233.980 112.643,233.718 113.589,233.588 114.208 C 233.319 115.486,232.138 117.782,231.137 118.973 C 230.045 120.272,228.778 121.487,228.250 121.741 C 227.975 121.873,227.495 122.170,227.182 122.402 C 226.870 122.634,226.233 122.946,225.766 123.096 C 225.299 123.246,224.451 123.590,223.881 123.861 C 220.884 125.290,208.234 125.311,203.417 123.895 C 199.279 122.679,198.946 122.279,198.861 118.414 L 198.804 115.885 199.377 115.613 C 200.043 115.297,202.802 115.420,206.500 115.932 C 209.593 116.359,214.207 116.335,216.583 115.877 C 217.592 115.683,218.729 115.476,219.111 115.417 C 222.252 114.928,224.084 111.468,223.966 106.250 L 223.917 104.083 223.231 104.113 C 222.630 104.138,221.882 104.477,220.500 105.350 C 219.375 106.061,216.505 106.699,213.333 106.945 C 211.288 107.103,205.702 106.193,205.000 105.588 C 204.862 105.469,204.329 105.176,203.816 104.935 C 203.302 104.695,202.650 104.292,202.367 104.041 C 202.084 103.789,201.431 103.208,200.916 102.750 C 200.401 102.292,199.863 101.692,199.719 101.417 C 199.576 101.142,199.202 100.600,198.888 100.212 C 198.574 99.825,198.209 99.142,198.076 98.694 C 197.943 98.246,197.694 97.700,197.523 97.481 C 197.137 96.987,197.040 96.683,196.569 94.500 C 196.362 93.537,196.030 92.112,195.831 91.333 C 195.492 90.006,195.468 89.508,195.453 83.417 L 195.436 76.917 196.058 74.417 C 197.111 70.177,197.182 69.931,197.499 69.417 C 197.669 69.142,197.965 68.496,198.157 67.981 C 198.350 67.466,198.655 66.912,198.835 66.748 C 199.016 66.585,199.350 66.133,199.577 65.745 C 200.272 64.560,202.789 62.230,203.932 61.713 C 204.293 61.550,204.812 61.261,205.085 61.071 C 205.657 60.674,206.267 60.428,207.333 60.163 C 207.746 60.060,208.547 59.794,209.115 59.571 C 209.874 59.272,210.709 59.121,212.281 58.998 C 213.456 58.907,214.754 58.802,215.167 58.766 C 216.301 58.667,224.052 58.810,227.167 58.987 M255.766 59.484 C 256.187 59.675,256.602 60.041,256.849 60.439 L 257.250 61.083 257.295 84.124 C 257.343 109.251,257.381 108.190,256.426 108.429 C 256.189 108.489,254.403 108.507,252.456 108.469 L 248.917 108.401 247.955 107.849 C 247.425 107.546,246.919 107.160,246.830 106.993 C 246.573 106.514,246.610 59.624,246.867 59.367 C 247.234 59.000,254.922 59.101,255.766 59.484 M165.685 66.837 C 164.517 66.958,164.127 67.080,163.326 67.574 C 162.798 67.900,162.301 68.167,162.221 68.167 C 162.015 68.167,160.000 70.296,160.000 70.513 C 160.000 70.612,159.743 71.231,159.428 71.888 C 158.990 72.803,158.814 73.455,158.676 74.667 C 158.577 75.537,158.424 76.550,158.335 76.917 C 158.047 78.113,158.124 79.243,158.517 79.599 C 159.044 80.076,174.906 80.178,175.833 79.711 C 176.858 79.195,176.868 77.145,175.871 72.250 C 175.542 70.631,174.424 68.437,173.833 68.250 C 173.666 68.197,173.255 67.936,172.920 67.670 C 171.938 66.889,168.741 66.521,165.685 66.837 M216.833 67.348 C 216.054 67.402,214.821 67.608,214.094 67.806 C 213.366 68.005,212.571 68.167,212.328 68.167 C 211.271 68.167,209.199 69.961,208.382 71.583 C 208.151 72.042,207.855 72.539,207.723 72.688 C 207.592 72.837,207.340 73.662,207.163 74.521 C 206.986 75.380,206.717 76.496,206.566 77.000 C 206.169 78.323,206.041 86.695,206.390 88.500 C 207.061 91.974,207.508 93.708,207.842 94.132 C 208.037 94.380,208.292 94.810,208.408 95.088 C 208.632 95.624,209.956 97.167,210.192 97.167 C 210.269 97.167,210.828 97.401,211.433 97.687 C 213.286 98.562,217.772 98.567,219.685 97.696 C 220.088 97.513,220.804 97.216,221.278 97.036 C 221.752 96.856,222.559 96.347,223.070 95.906 L 224.000 95.103 224.000 81.891 L 224.000 68.678 223.487 68.094 C 223.168 67.731,222.775 67.479,222.446 67.428 C 221.556 67.290,218.332 67.244,216.833 67.348 M170.917 67.827 C 171.100 67.991,171.631 68.248,172.096 68.400 C 173.156 68.744,173.921 69.518,174.237 70.566 C 174.370 71.010,174.651 71.556,174.861 71.779 C 175.263 72.207,175.546 76.898,175.262 78.413 L 175.152 79.000 167.257 79.000 L 159.363 79.000 159.248 78.319 C 159.067 77.253,159.322 74.384,159.618 74.138 C 159.944 73.867,160.160 73.287,160.339 72.205 C 160.447 71.552,160.625 71.183,161.033 70.766 C 161.336 70.457,161.904 69.862,162.296 69.443 C 162.858 68.842,163.220 68.622,164.012 68.400 C 164.563 68.245,165.109 67.984,165.225 67.819 C 165.623 67.250,170.280 67.257,170.917 67.827 M222.626 81.880 L 222.669 95.178 221.933 95.493 C 221.528 95.667,221.152 95.950,221.097 96.123 C 220.948 96.594,215.864 97.403,214.417 97.187 C 211.658 96.774,210.333 96.444,210.333 96.170 C 210.333 95.842,209.738 95.167,209.449 95.167 C 209.336 95.167,209.112 94.661,208.949 94.043 C 208.748 93.275,208.522 92.814,208.236 92.585 C 207.200 91.756,207.195 75.390,208.231 74.159 C 208.619 73.697,209.167 72.269,209.167 71.716 C 209.167 71.593,209.352 71.408,209.579 71.305 C 209.805 71.202,210.068 70.881,210.164 70.593 C 210.304 70.167,210.471 70.032,211.053 69.877 C 211.447 69.771,211.980 69.475,212.237 69.218 C 212.846 68.608,213.501 68.541,218.583 68.565 L 222.583 68.583 222.626 81.880 M107.576 79.076 L 107.167 79.485 107.167 88.748 C 107.167 98.678,107.184 98.897,108.005 99.336 C 108.273 99.480,109.931 99.512,114.227 99.456 L 120.083 99.381 121.813 98.857 C 122.765 98.569,123.631 98.333,123.738 98.333 C 124.814 98.333,126.977 95.987,127.425 94.333 C 127.587 93.737,127.837 93.025,127.982 92.750 C 128.192 92.351,128.245 91.663,128.247 89.333 C 128.251 85.136,127.714 83.405,125.818 81.513 L 124.552 80.250 122.527 79.603 C 120.070 78.818,118.669 78.690,112.367 78.676 L 107.985 78.667 107.576 79.076 M118.917 80.167 C 121.025 80.349,122.799 80.498,122.859 80.499 C 122.919 80.500,123.288 80.767,123.678 81.093 C 124.069 81.419,124.602 81.729,124.863 81.781 C 125.200 81.848,125.367 82.002,125.440 82.313 C 125.496 82.553,125.807 83.028,126.131 83.367 C 127.331 84.626,127.372 93.652,126.183 94.869 C 125.903 95.155,125.596 95.624,125.501 95.912 C 125.372 96.305,125.132 96.525,124.539 96.793 C 124.105 96.990,123.562 97.305,123.333 97.494 C 122.555 98.133,108.336 98.516,108.101 97.903 C 107.970 97.560,107.973 80.700,108.105 80.208 C 108.242 79.697,113.259 79.678,118.917 80.167 M398.204 130.779 C 397.905 130.899,397.415 131.929,397.178 132.936 C 397.068 133.404,396.795 134.148,396.572 134.589 C 396.349 135.029,396.167 135.516,396.167 135.670 C 396.167 135.824,395.940 136.263,395.663 136.646 C 395.385 137.029,395.018 137.696,394.845 138.129 C 393.681 141.058,391.150 143.789,388.250 145.245 C 387.792 145.475,387.283 145.664,387.120 145.665 C 386.957 145.666,386.395 145.883,385.870 146.148 C 385.345 146.413,384.305 146.745,383.559 146.886 C 382.813 147.026,381.909 147.291,381.551 147.474 C 381.193 147.657,380.317 147.887,379.604 147.987 C 377.987 148.211,19.788 148.238,18.235 148.013 C 17.677 147.932,16.883 147.712,16.470 147.524 C 16.058 147.336,15.153 147.031,14.460 146.845 C 11.136 145.954,9.058 144.325,6.259 140.417 C 5.931 139.958,5.514 139.246,5.333 138.833 C 5.151 138.421,4.777 137.661,4.501 137.146 C 4.226 136.630,4.000 136.094,4.000 135.954 C 4.000 135.815,3.775 135.272,3.499 134.749 C 3.224 134.225,2.877 133.374,2.729 132.857 C 2.237 131.147,1.381 130.471,0.818 131.349 C 0.577 131.724,0.638 144.680,0.882 144.982 C 1.044 145.182,1.039 145.204,0.857 145.094 C 0.504 144.882,0.809 145.687,1.216 146.042 C 1.450 146.245,1.480 146.334,1.317 146.336 C 1.125 146.338,1.127 146.366,1.329 146.494 C 1.490 146.596,1.616 146.582,1.695 146.454 C 1.855 146.195,2.071 146.741,1.942 147.078 C 1.890 147.213,1.913 147.363,1.992 147.412 C 2.072 147.461,2.112 147.632,2.081 147.792 C 2.051 147.952,2.020 148.144,2.013 148.218 C 2.006 148.292,1.906 148.300,1.792 148.235 C 1.638 148.149,1.640 148.179,1.800 148.351 C 1.919 148.479,2.088 148.593,2.175 148.604 C 2.262 148.616,2.417 148.634,2.519 148.646 C 2.622 148.657,2.666 148.817,2.618 149.000 C 2.570 149.183,2.600 149.376,2.685 149.428 C 2.770 149.480,2.788 149.606,2.725 149.707 C 2.652 149.825,2.711 149.852,2.889 149.784 C 3.042 149.725,3.167 149.754,3.167 149.848 C 3.167 149.943,3.233 149.979,3.315 149.928 C 3.396 149.878,3.459 149.930,3.455 150.043 C 3.431 150.701,3.543 150.966,3.917 151.136 C 4.266 151.295,4.333 151.283,4.333 151.061 C 4.333 150.864,4.414 150.897,4.652 151.189 C 4.879 151.470,4.915 151.617,4.777 151.705 C 4.654 151.783,4.697 151.829,4.895 151.831 C 5.145 151.833,5.168 151.880,5.012 152.068 C 4.863 152.249,4.864 152.333,5.018 152.428 C 5.145 152.506,5.175 152.481,5.099 152.359 C 4.931 152.087,5.352 152.128,5.740 152.422 C 5.918 152.557,6.358 152.667,6.717 152.667 C 7.363 152.667,7.369 152.673,7.303 153.240 C 7.232 153.845,7.424 153.992,8.292 153.998 C 8.498 153.999,8.667 154.059,8.667 154.131 C 8.667 154.203,8.892 154.394,9.167 154.557 C 9.442 154.719,9.667 154.960,9.667 155.093 C 9.667 155.225,9.723 155.324,9.792 155.314 C 10.577 155.190,11.333 155.363,11.333 155.667 C 11.333 156.124,11.793 156.089,11.882 155.625 L 11.955 155.250 11.977 155.625 L 12.000 156.000 195.583 156.000 L 379.167 156.000 379.183 155.625 C 379.199 155.265,379.205 155.267,379.333 155.667 C 379.461 156.066,379.467 156.068,379.483 155.708 C 379.504 155.241,380.000 155.201,380.000 155.667 C 380.000 155.911,380.111 156.000,380.417 156.000 C 380.722 156.000,380.833 155.911,380.833 155.667 C 380.833 155.354,380.944 155.333,382.633 155.333 C 383.843 155.333,384.507 155.265,384.658 155.125 C 384.839 154.957,384.857 154.961,384.751 155.147 C 384.662 155.304,384.694 155.351,384.852 155.296 C 384.979 155.252,385.063 155.073,385.037 154.899 C 384.993 154.599,385.004 154.600,385.266 154.917 C 385.539 155.246,385.541 155.246,385.453 154.875 C 385.404 154.669,385.433 154.458,385.516 154.407 C 385.648 154.325,385.743 154.680,385.686 155.042 C 385.648 155.286,385.824 155.161,386.011 154.813 C 386.160 154.534,386.155 154.487,385.988 154.591 C 385.837 154.684,385.808 154.640,385.886 154.435 C 385.952 154.265,385.929 154.191,385.831 154.251 C 385.741 154.307,385.667 154.274,385.667 154.177 C 385.667 154.067,386.163 154.000,386.968 154.000 C 388.392 154.000,388.792 153.826,388.888 153.167 C 388.943 152.786,389.029 152.746,389.891 152.700 C 390.409 152.673,390.833 152.574,390.833 152.482 C 390.833 152.389,390.917 152.365,391.019 152.428 C 391.250 152.571,391.494 152.204,391.497 151.708 C 391.499 151.418,391.596 151.333,391.925 151.333 C 392.159 151.333,392.571 151.219,392.842 151.079 C 393.112 150.939,393.333 150.879,393.333 150.946 C 393.333 151.012,393.425 150.975,393.537 150.863 C 393.649 150.751,393.743 150.492,393.745 150.288 C 393.748 150.084,393.833 149.932,393.935 149.951 C 394.037 149.969,394.122 149.819,394.123 149.617 C 394.130 148.824,394.152 148.795,394.714 148.861 C 395.117 148.908,395.266 148.857,395.279 148.671 C 395.344 147.705,395.409 147.566,395.820 147.532 C 396.487 147.477,396.647 147.173,396.683 145.888 C 396.711 144.881,396.765 144.680,397.025 144.612 C 397.195 144.567,397.292 144.599,397.240 144.682 C 397.189 144.765,397.221 144.833,397.312 144.833 C 397.403 144.833,397.503 144.665,397.534 144.458 C 397.566 144.252,397.668 144.097,397.763 144.114 C 397.873 144.134,397.951 143.209,397.980 141.532 C 398.024 139.029,398.152 138.368,398.545 138.611 C 398.646 138.673,398.668 138.637,398.599 138.525 C 398.532 138.416,398.593 138.287,398.738 138.231 C 398.881 138.177,398.957 138.065,398.906 137.983 C 398.855 137.900,398.917 137.833,399.043 137.833 C 399.230 137.833,399.281 137.169,399.315 134.286 L 399.357 130.739 398.887 130.716 C 398.628 130.704,398.321 130.732,398.204 130.779 M393.500 150.333 C 393.500 150.643,393.418 150.742,393.125 150.787 C 392.930 150.817,392.833 150.721,392.833 150.499 C 392.833 150.278,392.945 150.167,393.167 150.167 C 393.350 150.167,393.500 150.242,393.500 150.333 " stroke="none" fill="#a4bcec" fill-rule="evenodd"></path><path id="path3" d="M17.183 0.292 C 17.173 0.522,17.054 0.675,16.875 0.688 C 16.715 0.700,16.321 0.725,16.000 0.744 C 15.101 0.797,15.042 0.816,14.940 1.083 C 14.817 1.404,14.909 1.400,15.238 1.071 C 15.382 0.927,15.500 0.885,15.500 0.978 C 15.500 1.071,15.425 1.193,15.333 1.250 C 15.242 1.307,15.166 1.517,15.164 1.718 C 15.162 2.016,15.131 2.037,14.997 1.833 C 14.891 1.671,14.789 1.644,14.708 1.756 C 14.640 1.850,14.471 1.921,14.333 1.912 C 14.196 1.903,13.988 1.968,13.871 2.055 C 13.712 2.174,13.684 2.135,13.760 1.899 C 13.858 1.590,13.855 1.590,13.602 1.900 C 13.340 2.221,13.019 2.116,12.628 1.583 C 12.558 1.488,12.504 1.537,12.503 1.696 C 12.501 1.850,12.631 2.013,12.792 2.059 C 12.952 2.105,12.802 2.102,12.458 2.053 C 11.928 1.977,11.833 2.010,11.831 2.273 C 11.829 2.534,11.803 2.544,11.667 2.333 C 11.549 2.152,11.504 2.143,11.503 2.302 C 11.501 2.421,11.415 2.467,11.312 2.403 C 11.196 2.332,11.156 2.377,11.208 2.518 C 11.254 2.646,11.382 2.729,11.492 2.704 C 11.605 2.678,11.668 2.787,11.636 2.951 C 11.600 3.141,11.372 3.279,10.993 3.340 C 10.670 3.393,10.314 3.492,10.203 3.561 C 10.091 3.630,9.906 3.628,9.792 3.556 C 9.419 3.324,9.037 3.320,9.350 3.552 C 9.496 3.661,9.621 3.813,9.628 3.889 C 9.634 3.965,9.695 4.078,9.763 4.139 C 9.831 4.200,9.825 4.137,9.750 4.000 C 9.675 3.862,9.677 3.808,9.755 3.879 C 10.221 4.303,9.994 4.666,9.303 4.603 C 8.624 4.542,8.147 3.833,8.784 3.833 C 8.969 3.833,8.973 3.790,8.803 3.608 C 8.627 3.419,8.557 3.419,8.368 3.608 C 8.244 3.732,8.069 3.833,7.979 3.833 C 7.890 3.833,7.742 4.045,7.652 4.304 C 7.522 4.678,7.396 4.767,7.036 4.742 C 6.771 4.724,6.722 4.743,6.917 4.788 C 7.661 4.961,7.728 5.946,7.000 6.024 C 6.862 6.039,6.672 6.059,6.576 6.070 C 6.481 6.081,6.218 6.268,5.993 6.486 C 5.768 6.704,5.672 6.833,5.780 6.772 C 6.113 6.585,6.238 7.036,5.918 7.270 C 5.581 7.516,5.270 7.415,5.436 7.113 C 5.495 7.005,5.363 7.100,5.143 7.325 C 4.847 7.625,4.758 7.872,4.803 8.262 C 4.870 8.831,4.192 9.131,3.595 8.796 C 3.384 8.679,3.349 8.744,3.398 9.163 C 3.438 9.506,3.368 9.726,3.187 9.832 C 3.024 9.927,2.999 9.992,3.125 9.995 C 3.388 10.001,3.420 11.833,3.157 11.833 C 3.060 11.833,3.022 11.766,3.072 11.684 C 3.182 11.508,2.389 11.279,2.159 11.421 C 1.926 11.565,1.965 12.458,2.208 12.556 C 2.323 12.603,2.175 12.646,1.879 12.654 C 1.500 12.663,1.261 12.788,1.072 13.078 C 0.617 13.771,0.883 13.976,1.472 13.387 C 1.879 12.980,2.000 12.925,2.000 13.146 C 2.000 13.304,1.906 13.528,1.792 13.643 C 1.625 13.811,1.635 13.834,1.842 13.755 C 2.057 13.673,2.093 13.791,2.054 14.453 C 2.028 14.891,1.994 15.491,1.977 15.785 C 1.960 16.079,1.884 16.281,1.807 16.233 C 1.730 16.186,1.661 16.283,1.655 16.448 C 1.644 16.718,1.628 16.714,1.500 16.417 C 1.378 16.132,1.355 16.126,1.345 16.375 C 1.339 16.535,1.216 16.667,1.073 16.667 C 0.931 16.667,0.857 16.736,0.910 16.822 C 0.962 16.907,0.936 17.020,0.850 17.073 C 0.759 17.129,0.699 19.553,0.706 22.959 C 0.712 26.144,0.744 28.450,0.778 28.083 C 0.889 26.866,0.988 26.625,1.333 26.715 C 1.813 26.840,2.099 26.524,2.571 25.347 C 2.807 24.758,3.106 24.158,3.235 24.013 C 3.365 23.868,3.668 23.303,3.909 22.756 C 4.150 22.209,4.450 21.646,4.576 21.506 C 4.702 21.365,4.937 20.912,5.098 20.500 C 5.259 20.087,5.678 19.344,6.029 18.848 C 6.380 18.352,6.667 17.873,6.667 17.785 C 6.667 16.775,10.962 13.267,13.583 12.136 C 13.858 12.017,14.626 11.640,15.290 11.299 C 15.953 10.957,16.928 10.555,17.456 10.405 C 17.984 10.255,18.582 10.028,18.783 9.901 C 18.985 9.774,19.810 9.479,20.616 9.246 C 21.423 9.012,22.421 8.655,22.833 8.452 L 23.583 8.083 202.333 8.040 L 381.083 7.996 382.167 8.559 C 382.841 8.910,383.627 9.168,384.250 9.243 C 384.855 9.315,385.579 9.548,386.083 9.833 C 386.542 10.092,387.254 10.392,387.667 10.500 C 388.079 10.609,388.642 10.867,388.917 11.074 C 389.192 11.281,389.679 11.583,390.000 11.745 C 390.321 11.907,390.733 12.172,390.917 12.335 C 391.100 12.498,391.639 12.832,392.115 13.077 C 392.590 13.323,393.073 13.637,393.187 13.774 C 393.301 13.912,393.699 14.180,394.072 14.369 C 394.445 14.559,394.900 14.847,395.083 15.010 C 396.440 16.211,396.823 16.490,397.257 16.594 C 397.528 16.659,397.825 16.768,397.917 16.835 C 398.008 16.903,398.271 16.936,398.500 16.910 C 398.729 16.883,399.012 16.855,399.129 16.847 C 399.271 16.838,399.326 16.617,399.296 16.183 C 399.271 15.825,399.194 15.567,399.125 15.609 C 399.056 15.652,399.000 15.584,399.000 15.458 C 399.000 15.333,398.881 15.085,398.736 14.907 C 398.490 14.604,398.479 14.603,398.572 14.894 C 398.646 15.128,398.606 15.179,398.405 15.102 C 398.259 15.046,398.108 15.000,398.070 15.000 C 398.031 15.000,398.000 13.950,398.000 12.667 C 398.000 11.383,398.042 10.333,398.094 10.333 C 398.146 10.333,398.334 10.411,398.511 10.506 C 398.688 10.601,398.833 10.640,398.833 10.593 C 398.833 10.547,398.615 10.396,398.348 10.258 C 398.000 10.078,397.886 9.917,397.946 9.689 C 398.044 9.315,397.747 9.083,397.170 9.083 C 396.842 9.083,396.737 8.980,396.664 8.583 C 396.515 7.779,396.660 7.293,397.022 7.387 C 397.193 7.432,397.333 7.401,397.333 7.318 C 397.333 7.235,397.193 7.167,397.020 7.167 C 396.640 7.167,396.157 6.673,396.521 6.656 C 396.647 6.650,396.563 6.564,396.333 6.463 C 396.104 6.363,395.855 6.295,395.779 6.311 C 395.704 6.328,395.689 6.265,395.747 6.171 C 395.806 6.077,395.736 6.000,395.593 6.000 C 395.340 6.000,395.262 5.815,395.324 5.362 C 395.340 5.240,395.199 5.100,395.010 5.051 C 394.821 5.002,394.667 4.905,394.667 4.836 C 394.667 4.767,394.498 4.719,394.292 4.730 C 394.021 4.744,393.930 4.669,393.966 4.458 C 393.993 4.298,393.939 4.167,393.846 4.167 C 393.753 4.167,393.717 4.063,393.765 3.937 C 393.868 3.670,393.290 3.481,392.167 3.416 C 391.439 3.374,391.415 3.355,391.366 2.787 C 391.306 2.091,391.097 2.006,389.458 2.002 C 388.821 2.001,388.333 1.928,388.333 1.833 C 388.333 1.742,388.446 1.667,388.583 1.667 C 388.721 1.667,388.815 1.575,388.792 1.462 C 388.721 1.117,388.053 0.667,387.610 0.667 C 387.307 0.667,387.170 0.562,387.118 0.292 C 387.050 -0.061,387.044 -0.058,387.023 0.333 C 387.001 0.737,386.964 0.749,385.875 0.728 C 383.965 0.690,384.001 0.699,383.983 0.292 C 383.967 -0.068,383.961 -0.066,383.833 0.333 C 383.705 0.733,383.699 0.735,383.683 0.375 L 383.667 0.000 202.333 0.000 L 21.000 0.000 20.983 0.375 C 20.967 0.735,20.961 0.733,20.833 0.333 C 20.705 -0.066,20.699 -0.068,20.683 0.292 C 20.668 0.630,20.578 0.669,19.750 0.688 C 17.865 0.730,17.833 0.724,17.833 0.333 C 17.833 -0.128,17.504 -0.089,17.483 0.375 C 17.467 0.735,17.461 0.733,17.333 0.333 C 17.205 -0.066,17.199 -0.068,17.183 0.292 M14.234 1.074 C 14.275 1.298,14.220 1.517,14.112 1.561 C 14.005 1.604,14.054 1.646,14.222 1.654 C 14.397 1.661,14.498 1.577,14.458 1.458 C 14.419 1.344,14.506 1.156,14.652 1.041 C 14.885 0.858,14.878 0.846,14.598 0.945 C 14.377 1.022,14.316 0.996,14.399 0.862 C 14.465 0.754,14.439 0.667,14.340 0.667 C 14.240 0.667,14.193 0.848,14.234 1.074 M12.734 1.025 C 12.528 1.360,12.936 1.513,13.215 1.206 C 13.470 0.924,13.466 0.902,13.164 0.879 C 12.986 0.866,12.792 0.931,12.734 1.025 M390.369 1.177 C 390.526 1.268,390.770 1.508,390.911 1.709 C 391.051 1.910,391.167 1.997,391.167 1.902 C 391.167 1.654,390.523 0.999,390.285 1.005 C 390.174 1.008,390.212 1.085,390.369 1.177 M10.498 2.248 C 10.707 2.499,11.000 2.446,11.000 2.157 C 11.000 2.071,10.841 2.000,10.646 2.000 C 10.352 2.000,10.327 2.042,10.498 2.248 M393.067 2.526 C 392.998 2.637,393.021 2.673,393.122 2.611 C 393.338 2.477,393.709 2.897,393.540 3.084 C 393.472 3.159,393.511 3.166,393.625 3.100 C 393.778 3.012,393.788 2.893,393.661 2.657 C 393.466 2.291,393.243 2.242,393.067 2.526 M9.833 2.990 C 9.833 3.168,9.901 3.356,9.984 3.407 C 10.068 3.458,10.093 3.339,10.042 3.141 C 9.971 2.873,10.003 2.816,10.166 2.916 C 10.311 3.006,10.345 2.987,10.266 2.859 C 10.080 2.558,9.833 2.633,9.833 2.990 M5.922 5.992 C 5.860 6.091,5.722 6.122,5.613 6.062 C 5.481 5.987,5.485 6.024,5.625 6.176 C 5.785 6.348,5.879 6.355,6.031 6.203 C 6.139 6.094,6.184 5.962,6.131 5.908 C 6.077 5.855,5.983 5.892,5.922 5.992 M4.714 6.285 C 4.665 6.411,4.672 6.561,4.729 6.618 C 4.787 6.675,4.833 6.635,4.833 6.528 C 4.833 6.421,4.946 6.333,5.083 6.333 C 5.221 6.333,5.333 6.271,5.333 6.194 C 5.333 5.963,4.808 6.039,4.714 6.285 M3.413 7.679 C 3.352 7.869,3.347 8.069,3.401 8.124 C 3.456 8.178,3.500 8.097,3.500 7.944 C 3.500 7.792,3.575 7.667,3.667 7.667 C 3.758 7.667,3.833 7.592,3.833 7.500 C 3.833 7.196,3.524 7.328,3.413 7.679 M1.503 13.246 C 1.387 13.386,1.215 13.500,1.120 13.500 C 1.026 13.500,1.085 13.350,1.251 13.166 C 1.596 12.785,1.825 12.858,1.503 13.246 M398.111 140.611 C 397.942 140.781,397.979 141.500,398.157 141.500 C 398.335 141.500,398.833 140.840,398.833 140.604 C 398.833 140.518,398.680 140.587,398.493 140.756 C 398.194 141.027,398.166 141.030,398.261 140.782 C 398.372 140.491,398.306 140.416,398.111 140.611 M2.654 150.223 C 3.139 150.756,3.333 150.784,3.333 150.323 C 3.333 150.088,3.241 149.994,3.042 150.027 C 2.881 150.053,2.637 150.009,2.500 149.927 C 2.362 149.846,2.432 149.979,2.654 150.223 M391.500 151.692 C 391.500 152.041,391.510 152.043,391.833 151.750 C 392.017 151.584,392.167 151.422,392.167 151.391 C 392.167 151.359,392.017 151.333,391.833 151.333 C 391.603 151.333,391.500 151.444,391.500 151.692 M10.500 155.667 C 10.500 155.889,10.611 156.000,10.833 156.000 C 11.056 156.000,11.167 155.889,11.167 155.667 C 11.167 155.444,11.056 155.333,10.833 155.333 C 10.611 155.333,10.500 155.444,10.500 155.667 M380.833 155.667 C 380.833 155.911,380.944 156.000,381.250 156.000 C 381.556 156.000,381.667 155.911,381.667 155.667 C 381.667 155.422,381.556 155.333,381.250 155.333 C 380.944 155.333,380.833 155.422,380.833 155.667 " stroke="none" fill="#e3ebfb" fill-rule="evenodd"></path></g></svg>