<svg id="svg" version="1.1" xmlns="http://www.w3.org/2000/svg" xmlns:xlink="http://www.w3.org/1999/xlink" width="400" height="156.0655737704918" viewBox="0, 0, 400,156.0655737704918"><g id="svgg"><path id="path0" d="M16.517 0.292 C 16.501 0.650,16.436 0.667,15.083 0.667 C 14.304 0.667,13.667 0.731,13.667 0.811 C 13.667 1.138,12.779 1.848,12.641 1.631 C 12.541 1.473,12.504 1.494,12.503 1.708 C 12.501 1.936,12.357 2.000,11.847 2.000 C 11.481 2.000,11.158 2.091,11.110 2.208 C 11.043 2.375,11.024 2.375,11.013 2.208 C 11.006 2.094,10.846 2.000,10.657 2.000 C 10.467 2.000,10.360 2.076,10.418 2.169 C 10.476 2.263,10.604 2.288,10.704 2.227 C 10.812 2.160,10.837 2.193,10.766 2.308 C 10.681 2.445,10.554 2.451,10.327 2.330 C 10.069 2.192,10.026 2.208,10.105 2.413 C 10.158 2.552,10.119 2.667,10.018 2.667 C 9.916 2.667,9.833 2.817,9.833 3.000 C 9.833 3.301,9.494 3.438,8.958 3.353 C 8.890 3.342,8.833 3.408,8.833 3.500 C 8.833 3.592,8.777 3.652,8.708 3.634 C 8.386 3.548,7.799 3.902,7.661 4.264 C 7.544 4.574,7.385 4.667,6.976 4.667 C 6.684 4.667,6.494 4.716,6.554 4.776 C 6.714 4.936,6.326 5.348,6.130 5.227 C 6.028 5.164,6.008 5.262,6.077 5.480 C 6.200 5.869,5.952 6.036,5.184 6.078 C 4.748 6.102,4.730 6.140,4.684 7.136 C 4.671 7.431,4.595 7.500,4.363 7.426 C 4.150 7.358,3.991 7.455,3.835 7.748 C 3.711 7.978,3.575 8.131,3.532 8.087 C 3.488 8.044,3.549 7.892,3.667 7.750 C 3.784 7.608,3.833 7.444,3.774 7.385 C 3.556 7.167,3.443 7.528,3.387 8.617 C 3.329 9.723,3.140 10.079,2.696 9.915 C 2.404 9.808,2.037 10.189,2.042 10.594 C 2.062 12.298,1.996 12.667,1.676 12.667 C 1.498 12.667,1.235 12.833,1.093 13.037 C 0.803 13.451,0.743 13.909,1.000 13.750 C 1.092 13.693,1.167 13.726,1.167 13.823 C 1.167 13.921,1.055 14.000,0.918 14.000 C 0.595 14.000,0.529 130.729,0.852 130.928 C 0.955 130.992,1.265 131.063,1.540 131.087 C 2.134 131.137,2.248 131.293,2.580 132.500 C 2.719 133.004,3.020 133.792,3.249 134.250 C 3.478 134.708,3.825 135.533,4.021 136.083 C 4.216 136.633,4.473 137.196,4.592 137.333 C 4.711 137.471,4.969 138.016,5.167 138.544 C 5.364 139.073,5.696 139.710,5.905 139.961 C 6.113 140.212,6.378 140.596,6.494 140.816 C 6.734 141.272,7.205 141.813,9.083 143.793 C 10.564 145.354,12.263 146.315,14.562 146.893 C 15.192 147.051,15.982 147.321,16.317 147.492 C 16.653 147.663,17.370 147.885,17.911 147.985 C 19.232 148.229,378.269 148.242,379.773 147.998 C 380.335 147.907,381.198 147.652,381.690 147.431 C 382.181 147.211,383.146 146.939,383.833 146.828 C 384.521 146.717,385.383 146.456,385.750 146.247 C 386.117 146.038,386.867 145.741,387.417 145.586 C 387.967 145.431,388.642 145.134,388.917 144.927 C 389.192 144.719,389.664 144.422,389.967 144.266 C 390.455 144.014,391.378 143.151,392.831 141.583 C 393.086 141.308,393.417 140.842,393.566 140.546 C 393.715 140.251,394.019 139.741,394.242 139.413 C 394.464 139.085,394.737 138.539,394.847 138.200 C 394.958 137.861,395.218 137.379,395.426 137.130 C 395.633 136.881,395.933 136.281,396.091 135.797 C 396.249 135.313,396.550 134.617,396.760 134.250 C 396.969 133.883,397.219 133.154,397.314 132.629 C 397.569 131.225,398.254 130.392,398.850 130.761 C 398.953 130.824,399.103 130.773,399.183 130.646 C 399.384 130.329,399.379 13.073,399.177 12.371 C 399.081 12.033,399.081 11.863,399.177 11.923 C 399.263 11.976,399.333 11.940,399.333 11.843 C 399.333 11.746,399.235 11.667,399.115 11.667 C 398.995 11.667,398.740 11.521,398.549 11.343 C 398.358 11.166,398.173 11.049,398.137 11.085 C 398.101 11.121,398.056 10.967,398.038 10.742 C 397.999 10.281,398.041 10.262,398.553 10.509 C 398.899 10.677,398.901 10.673,398.601 10.432 C 398.428 10.293,398.228 10.157,398.157 10.131 C 398.086 10.105,398.007 9.558,397.982 8.917 C 397.935 7.759,397.765 7.253,397.481 7.428 C 397.400 7.479,397.333 7.440,397.333 7.343 C 397.333 7.246,397.183 7.167,397.000 7.167 C 396.692 7.167,396.543 6.705,396.655 6.101 C 396.699 5.867,395.800 5.000,395.510 4.997 C 395.297 4.995,395.292 4.969,395.480 4.849 C 395.661 4.734,395.635 4.679,395.355 4.590 C 394.977 4.470,394.884 4.233,395.176 4.136 C 395.390 4.064,395.200 3.500,394.962 3.500 C 394.860 3.500,394.871 3.595,394.989 3.737 C 395.151 3.932,395.123 3.957,394.833 3.882 C 394.623 3.827,394.516 3.698,394.569 3.561 C 394.632 3.395,394.488 3.328,394.036 3.314 C 393.028 3.283,392.949 3.262,392.862 3.000 C 392.788 2.778,392.815 2.778,393.098 3.000 C 393.386 3.226,393.397 3.224,393.210 2.985 C 393.096 2.839,393.052 2.671,393.111 2.611 C 393.274 2.449,393.680 2.844,393.556 3.045 C 393.493 3.146,393.529 3.168,393.641 3.099 C 393.779 3.014,393.785 2.887,393.661 2.657 C 393.472 2.302,393.244 2.241,393.083 2.500 C 393.027 2.592,392.901 2.667,392.803 2.667 C 392.691 2.667,392.702 2.574,392.833 2.417 C 393.001 2.215,392.996 2.164,392.812 2.153 C 391.772 2.090,391.244 1.966,391.129 1.760 C 390.921 1.388,390.497 1.000,390.299 1.000 C 390.201 1.000,390.319 1.155,390.561 1.345 C 391.109 1.777,391.122 2.006,390.595 1.963 C 390.373 1.944,390.224 1.875,390.265 1.809 C 390.305 1.744,390.263 1.643,390.169 1.585 C 390.076 1.527,390.000 1.307,390.000 1.096 C 390.000 0.789,389.908 0.711,389.542 0.707 C 387.158 0.684,387.167 0.685,387.150 0.292 C 387.134 -0.068,387.128 -0.066,387.000 0.333 L 386.867 0.750 386.833 0.333 L 386.800 -0.083 386.667 0.333 C 386.539 0.733,386.533 0.735,386.517 0.375 L 386.500 0.000 201.667 0.000 L 16.833 0.000 16.817 0.375 C 16.801 0.735,16.795 0.733,16.667 0.333 C 16.539 -0.066,16.533 -0.068,16.517 0.292 M12.734 1.025 C 12.528 1.360,12.936 1.513,13.215 1.206 C 13.470 0.924,13.466 0.902,13.164 0.879 C 12.986 0.866,12.792 0.931,12.734 1.025 M1.645 13.443 C 1.552 13.555,1.365 13.605,1.231 13.553 C 1.022 13.473,1.028 13.412,1.272 13.142 C 1.595 12.785,1.952 13.073,1.645 13.443 M255.615 36.478 C 257.080 36.918,258.700 38.774,258.907 40.250 C 258.971 40.708,259.134 41.467,259.268 41.936 C 259.480 42.681,259.480 42.882,259.270 43.520 C 259.138 43.921,258.980 44.587,258.920 45.000 C 258.724 46.336,258.497 46.808,257.780 47.367 C 257.397 47.666,256.989 48.037,256.874 48.192 C 255.969 49.416,248.412 49.377,246.929 48.142 C 244.948 46.491,244.917 46.402,244.917 42.495 L 244.917 39.407 245.740 38.454 C 246.193 37.929,246.627 37.500,246.704 37.500 C 246.781 37.500,247.059 37.281,247.321 37.013 C 247.650 36.676,248.021 36.497,248.523 36.431 C 248.923 36.379,249.475 36.304,249.750 36.264 C 250.585 36.145,255.047 36.307,255.615 36.478 M121.080 40.508 C 122.001 40.613,122.790 40.805,123.131 41.006 C 123.436 41.186,124.225 41.413,124.885 41.510 C 125.544 41.608,126.325 41.723,126.620 41.767 C 126.915 41.811,127.368 42.024,127.626 42.242 C 127.885 42.459,128.513 42.758,129.023 42.906 C 129.533 43.055,130.125 43.361,130.338 43.588 C 130.551 43.815,130.827 44.000,130.952 44.000 C 131.384 44.000,132.538 44.694,132.619 45.002 C 132.663 45.172,132.955 45.432,133.266 45.580 C 133.578 45.728,133.940 46.051,134.072 46.299 C 134.204 46.547,134.522 46.945,134.781 47.184 C 135.039 47.422,135.355 47.909,135.484 48.265 C 135.612 48.622,135.917 49.102,136.162 49.332 C 136.478 49.629,136.671 50.063,136.831 50.833 C 136.954 51.429,137.162 51.981,137.293 52.059 C 138.587 52.831,138.629 65.807,137.341 66.709 C 137.169 66.829,136.975 67.225,136.909 67.589 C 136.719 68.635,136.338 69.459,135.917 69.734 C 135.704 69.874,135.478 70.219,135.417 70.500 C 135.355 70.781,135.120 71.132,134.894 71.280 C 134.668 71.428,134.373 71.762,134.238 72.022 C 134.104 72.282,133.806 72.542,133.576 72.600 C 133.346 72.658,133.080 72.850,132.986 73.027 C 132.891 73.204,132.424 73.521,131.948 73.731 L 131.083 74.113 132.031 74.391 C 132.556 74.546,133.113 74.837,133.281 75.045 C 133.447 75.251,133.889 75.556,134.263 75.723 C 134.637 75.889,135.073 76.245,135.231 76.513 C 135.390 76.782,135.722 77.107,135.968 77.236 C 136.215 77.365,136.567 77.754,136.750 78.101 C 136.933 78.449,137.278 78.946,137.515 79.208 C 137.752 79.469,138.030 80.047,138.133 80.492 C 138.236 80.938,138.507 81.503,138.735 81.749 C 139.187 82.237,139.419 83.171,139.586 85.167 C 139.644 85.854,139.810 86.679,139.957 87.000 C 140.371 87.908,140.451 91.465,140.086 92.750 C 139.929 93.300,139.700 94.560,139.576 95.549 C 139.305 97.719,139.236 97.966,138.752 98.500 C 138.544 98.729,138.282 99.310,138.171 99.791 C 138.032 100.387,137.817 100.791,137.494 101.063 C 137.234 101.282,136.909 101.730,136.771 102.058 C 136.606 102.453,136.377 102.691,136.094 102.762 C 135.859 102.821,135.667 102.988,135.667 103.132 C 135.667 103.444,135.025 104.167,134.748 104.167 C 134.641 104.167,134.466 104.358,134.360 104.592 C 134.253 104.826,133.895 105.131,133.563 105.269 C 133.232 105.407,132.782 105.734,132.563 105.994 C 132.291 106.317,131.888 106.531,131.291 106.670 C 130.801 106.783,130.252 107.044,130.042 107.262 C 129.836 107.476,129.386 107.695,129.042 107.749 C 127.151 108.043,126.391 108.218,126.167 108.410 C 125.396 109.070,125.092 109.083,110.893 109.083 L 97.202 109.083 96.310 108.190 L 95.417 107.298 95.374 75.368 L 95.331 43.438 95.771 42.803 C 96.344 41.976,96.747 41.876,100.623 41.594 C 102.909 41.428,104.036 41.270,104.813 41.008 C 106.599 40.405,117.308 40.075,121.080 40.508 M110.500 51.481 L 108.083 51.583 108.083 60.333 L 108.083 69.083 111.750 69.129 C 117.184 69.196,120.845 68.979,121.378 68.560 C 121.609 68.379,122.264 68.089,122.835 67.916 C 123.782 67.630,123.899 67.542,124.163 66.925 C 124.323 66.552,124.656 66.007,124.903 65.713 C 125.876 64.557,125.977 55.957,125.030 54.949 C 124.836 54.743,124.503 54.244,124.290 53.840 C 124.026 53.341,123.745 53.057,123.409 52.951 C 123.138 52.866,122.623 52.565,122.263 52.284 C 121.279 51.513,116.851 51.210,110.500 51.481 M174.250 57.666 C 174.617 57.776,175.067 57.999,175.250 58.163 C 175.443 58.336,176.004 58.512,176.583 58.581 C 177.709 58.716,178.410 59.021,178.657 59.482 C 178.749 59.654,179.070 59.841,179.370 59.897 C 179.671 59.954,180.254 60.305,180.667 60.677 C 181.079 61.049,181.623 61.463,181.875 61.597 C 182.127 61.732,182.333 61.921,182.333 62.018 C 182.333 62.115,182.713 62.575,183.176 63.042 C 183.641 63.509,184.062 64.103,184.115 64.366 C 184.167 64.629,184.390 64.985,184.609 65.157 C 184.883 65.372,185.102 65.841,185.308 66.654 C 185.473 67.305,185.731 67.930,185.880 68.044 C 186.317 68.375,186.488 69.059,186.677 71.219 C 186.774 72.336,186.963 73.488,187.096 73.779 C 187.786 75.291,187.843 80.899,187.190 83.000 C 187.005 83.596,186.773 84.864,186.674 85.819 C 186.471 87.788,186.464 87.800,185.239 88.492 L 184.338 89.000 171.839 89.000 L 159.340 89.000 159.230 89.437 C 159.030 90.236,159.308 92.644,159.657 93.134 C 159.833 93.381,160.142 94.208,160.344 94.972 C 160.640 96.095,160.788 96.396,161.118 96.546 C 161.342 96.648,161.628 96.930,161.754 97.174 C 161.915 97.485,162.280 97.724,162.994 97.984 C 163.550 98.187,164.143 98.501,164.311 98.681 C 164.929 99.344,168.514 99.484,179.083 99.257 C 184.803 99.134,185.500 99.399,185.500 101.692 C 185.500 102.034,185.575 102.360,185.667 102.417 C 185.893 102.556,185.879 105.578,185.649 106.322 C 185.264 107.570,185.130 107.717,184.166 107.960 C 183.662 108.087,183.100 108.325,182.917 108.487 C 182.423 108.926,182.112 109.005,179.884 109.254 C 178.766 109.380,177.640 109.592,177.381 109.725 C 175.547 110.674,165.102 110.754,163.266 109.834 C 162.891 109.646,162.021 109.418,161.333 109.327 C 159.212 109.048,159.024 108.999,158.547 108.599 C 158.292 108.386,157.645 108.085,157.108 107.930 C 156.572 107.775,155.972 107.475,155.775 107.264 C 155.578 107.052,155.235 106.823,155.013 106.753 C 154.338 106.541,151.723 103.994,151.567 103.397 C 151.516 103.203,151.256 102.882,150.987 102.684 C 150.719 102.486,150.500 102.183,150.500 102.011 C 150.500 101.839,150.248 101.397,149.941 101.029 C 149.537 100.546,149.325 100.067,149.177 99.305 C 149.064 98.725,148.833 98.100,148.663 97.917 C 148.182 97.396,148.026 96.818,147.819 94.796 C 147.713 93.762,147.531 92.804,147.413 92.667 C 146.422 91.505,146.347 77.487,147.321 75.426 C 147.511 75.024,147.717 74.019,147.829 72.948 C 148.032 70.998,148.188 70.432,148.663 69.917 C 148.833 69.733,149.065 69.104,149.179 68.517 C 149.318 67.805,149.536 67.280,149.839 66.934 C 150.087 66.649,150.341 66.186,150.402 65.905 C 150.463 65.623,150.725 65.161,150.984 64.877 C 151.243 64.594,151.616 64.101,151.814 63.782 C 152.011 63.463,152.428 63.007,152.741 62.768 C 153.055 62.529,153.357 62.187,153.414 62.009 C 153.471 61.830,153.659 61.639,153.833 61.583 C 154.007 61.528,154.502 61.151,154.931 60.745 C 155.408 60.294,155.935 59.965,156.284 59.899 C 156.598 59.840,157.060 59.573,157.311 59.304 C 157.688 58.900,157.980 58.784,158.996 58.634 C 159.758 58.520,160.438 58.306,160.789 58.068 C 161.308 57.715,161.662 57.627,163.333 57.434 C 164.648 57.282,173.601 57.472,174.250 57.666 M297.485 57.659 C 297.798 57.751,298.210 57.968,298.402 58.142 C 298.604 58.325,299.135 58.506,299.667 58.572 C 300.589 58.687,301.297 59.018,301.557 59.455 C 301.634 59.585,302.029 59.834,302.434 60.007 C 302.891 60.203,303.230 60.478,303.326 60.731 C 303.412 60.956,303.692 61.240,303.948 61.363 C 304.205 61.486,304.528 61.813,304.666 62.088 C 304.804 62.364,305.117 62.785,305.362 63.025 C 305.607 63.264,305.904 63.787,306.022 64.188 C 306.139 64.589,306.375 65.018,306.545 65.142 C 306.939 65.429,307.119 65.910,307.333 67.251 C 307.433 67.875,307.674 68.575,307.908 68.920 C 308.561 69.883,308.583 70.567,308.583 89.973 L 308.583 108.529 308.190 108.848 C 307.823 109.145,307.476 109.167,303.073 109.167 C 298.178 109.167,297.606 109.097,297.408 108.473 C 297.354 108.302,297.099 108.054,296.842 107.921 C 296.077 107.525,296.086 107.734,296.000 89.972 L 295.917 72.860 295.536 72.455 C 295.327 72.233,295.033 71.617,294.882 71.088 C 294.655 70.288,294.522 70.089,294.096 69.911 C 293.814 69.792,293.406 69.506,293.188 69.274 C 292.302 68.328,285.743 68.153,285.081 69.058 C 284.837 69.392,283.542 69.991,283.053 69.996 C 282.842 69.998,282.540 70.210,282.334 70.500 C 282.138 70.774,281.806 71.042,281.595 71.095 C 281.384 71.148,280.920 71.499,280.564 71.875 L 279.917 72.558 279.833 90.587 C 279.764 105.532,279.711 108.663,279.521 108.891 C 279.021 109.493,268.833 109.240,268.833 108.625 C 268.833 108.540,268.496 108.142,268.083 107.741 L 267.333 107.012 267.333 83.093 L 267.333 59.174 267.784 58.879 C 268.345 58.510,274.717 58.348,276.237 58.664 C 277.565 58.940,278.436 59.915,278.593 61.302 L 278.706 62.299 279.311 62.024 C 279.644 61.872,280.067 61.622,280.250 61.468 C 281.613 60.321,282.072 60.000,282.349 60.000 C 282.523 60.000,282.966 59.728,283.334 59.396 C 283.917 58.870,284.171 58.769,285.317 58.605 C 286.040 58.501,286.771 58.297,286.941 58.150 C 287.508 57.662,287.741 57.591,289.167 57.476 C 291.049 57.323,296.768 57.449,297.485 57.659 M224.160 57.680 C 225.210 57.778,226.373 57.975,226.743 58.117 C 227.170 58.281,228.393 58.427,230.083 58.516 C 234.232 58.734,234.749 58.808,235.438 59.275 C 235.776 59.504,236.395 59.819,236.814 59.975 C 237.459 60.214,237.616 60.364,237.831 60.946 C 237.971 61.324,238.235 61.798,238.417 62.000 C 238.813 62.437,239.021 67.337,238.672 67.990 C 238.390 68.517,236.964 69.167,236.089 69.167 C 235.491 69.167,235.328 69.228,235.305 69.458 C 235.290 69.619,235.269 79.237,235.259 90.833 C 235.240 112.921,235.214 113.736,234.513 114.685 C 234.322 114.943,234.059 115.564,233.929 116.064 C 233.693 116.970,233.241 117.833,233.003 117.833 C 232.934 117.833,232.725 118.201,232.538 118.650 C 232.330 119.151,232.062 119.511,231.847 119.579 C 231.653 119.641,231.345 119.984,231.162 120.343 C 230.969 120.722,230.671 121.035,230.450 121.090 C 230.242 121.142,229.999 121.350,229.911 121.551 C 229.822 121.752,229.432 122.060,229.044 122.236 C 228.656 122.411,228.298 122.682,228.249 122.837 C 228.147 123.159,227.208 123.597,226.308 123.743 C 225.973 123.798,225.658 123.949,225.608 124.079 C 225.440 124.516,224.536 124.828,222.906 125.010 C 221.760 125.137,221.156 125.288,220.835 125.525 C 219.608 126.432,209.707 126.416,207.521 125.503 C 207.013 125.291,205.995 125.120,204.537 125.001 C 202.228 124.814,201.639 124.674,201.083 124.183 C 200.900 124.021,200.397 123.759,199.966 123.600 C 199.501 123.429,199.140 123.179,199.079 122.986 C 199.022 122.807,198.744 122.444,198.460 122.179 C 197.357 121.148,197.344 115.688,198.442 114.470 C 198.813 114.059,200.259 114.114,201.145 114.572 C 202.719 115.386,218.172 115.279,219.161 114.447 C 219.433 114.218,220.034 113.905,220.495 113.752 C 221.095 113.552,221.333 113.386,221.333 113.168 C 221.333 113.000,221.567 112.667,221.852 112.427 C 222.537 111.850,222.652 111.266,222.678 108.219 C 222.706 105.008,222.671 104.938,221.525 105.896 C 221.018 106.320,220.570 106.512,219.717 106.672 C 219.094 106.790,218.395 107.025,218.164 107.195 C 216.952 108.090,208.218 108.094,207.009 107.200 C 206.774 107.026,206.207 106.828,205.749 106.761 C 204.728 106.611,203.529 106.104,203.400 105.767 C 203.347 105.629,203.029 105.428,202.694 105.320 C 202.025 105.106,201.502 104.718,201.496 104.433 C 201.494 104.332,201.251 104.138,200.955 104.000 C 200.660 103.862,200.340 103.590,200.245 103.395 C 200.150 103.199,199.839 102.843,199.554 102.603 C 199.269 102.364,198.992 101.993,198.939 101.779 C 198.885 101.565,198.657 101.307,198.432 101.204 C 198.134 101.068,197.943 100.755,197.728 100.050 C 197.567 99.518,197.269 98.933,197.066 98.750 C 196.674 98.395,196.429 97.715,196.257 96.502 C 196.198 96.090,196.011 95.603,195.841 95.419 C 195.333 94.868,195.166 93.911,195.004 90.633 C 194.920 88.918,194.756 87.193,194.642 86.800 C 194.374 85.881,194.374 81.008,194.641 80.060 C 194.749 79.681,194.909 77.956,194.998 76.227 C 195.168 72.916,195.305 72.126,195.823 71.468 C 195.997 71.246,196.226 70.592,196.330 70.016 C 196.587 68.600,196.752 68.215,197.157 68.086 C 197.346 68.027,197.500 67.889,197.501 67.780 C 197.504 67.169,197.936 66.212,198.446 65.686 C 198.767 65.356,199.129 64.848,199.250 64.559 C 199.371 64.269,199.624 63.983,199.814 63.923 C 200.003 63.863,200.254 63.612,200.371 63.365 C 200.488 63.118,200.820 62.813,201.109 62.685 C 201.398 62.558,201.713 62.282,201.808 62.072 C 201.905 61.860,202.339 61.533,202.783 61.336 C 203.223 61.141,203.771 60.805,204.000 60.588 C 204.229 60.372,204.867 60.067,205.417 59.912 C 205.967 59.756,206.573 59.486,206.765 59.310 C 207.252 58.866,207.931 58.702,209.799 58.580 C 210.801 58.515,211.718 58.351,212.208 58.149 C 213.700 57.537,219.991 57.290,224.160 57.680 M256.792 58.798 C 256.998 58.916,257.278 59.277,257.414 59.602 C 257.549 59.926,257.819 60.320,258.012 60.477 C 258.630 60.977,258.652 61.825,258.650 84.750 C 258.647 109.393,258.679 108.451,257.832 108.875 C 257.163 109.210,248.589 109.319,247.759 109.003 C 246.927 108.687,246.202 107.773,246.084 106.894 C 246.024 106.448,245.906 105.676,245.821 105.178 C 245.732 104.653,245.667 94.934,245.667 82.078 C 245.667 57.920,245.623 59.054,246.560 58.658 C 247.135 58.415,256.341 58.540,256.792 58.798 M166.083 67.446 C 165.717 67.489,165.279 67.650,165.112 67.804 C 164.944 67.958,164.351 68.233,163.794 68.417 C 162.276 68.917,160.578 70.822,160.249 72.395 C 160.123 72.995,159.859 73.704,159.662 73.970 C 159.269 74.502,159.009 77.190,159.235 78.393 L 159.348 79.000 167.251 79.000 L 175.153 79.000 175.353 78.332 C 175.687 77.218,175.316 72.097,174.866 71.616 C 174.678 71.415,174.364 70.820,174.168 70.295 C 173.771 69.230,173.347 68.822,172.199 68.399 C 171.769 68.241,171.255 67.967,171.057 67.791 C 170.683 67.458,167.717 67.252,166.083 67.446 M215.460 68.497 L 213.003 68.624 212.126 69.220 C 211.644 69.548,211.055 69.863,210.817 69.920 C 210.539 69.986,210.283 70.234,210.103 70.612 C 209.949 70.936,209.675 71.239,209.495 71.286 C 209.314 71.334,209.167 71.462,209.167 71.573 C 209.167 72.136,208.593 73.584,208.240 73.911 C 207.124 74.946,207.118 91.886,208.234 92.709 C 208.499 92.904,208.728 93.365,208.927 94.099 C 209.161 94.963,209.310 95.229,209.627 95.350 C 209.849 95.434,210.111 95.718,210.210 95.980 C 210.376 96.421,210.520 96.487,212.064 96.831 C 214.923 97.470,215.406 97.498,217.333 97.147 C 220.825 96.509,221.009 96.461,221.181 96.140 C 221.272 95.969,221.625 95.699,221.965 95.539 C 222.526 95.275,222.594 95.171,222.694 94.416 C 222.915 92.747,222.851 68.889,222.625 68.706 C 222.326 68.465,218.333 68.349,215.460 68.497 M108.111 80.020 C 107.975 80.527,107.966 97.551,108.101 97.903 C 108.349 98.548,122.364 98.173,123.413 97.494 C 123.690 97.314,124.239 97.012,124.634 96.822 C 125.080 96.607,125.414 96.308,125.519 96.030 C 125.611 95.784,125.905 95.357,126.172 95.080 C 127.429 93.777,127.356 84.470,126.078 83.162 C 125.760 82.836,125.500 82.439,125.500 82.279 C 125.500 82.095,125.238 81.876,124.789 81.684 C 124.398 81.516,123.973 81.252,123.845 81.097 C 123.716 80.942,123.477 80.744,123.314 80.656 C 122.737 80.348,116.383 79.803,112.317 79.714 L 108.217 79.624 108.111 80.020 M398.111 140.611 C 397.942 140.781,397.979 141.500,398.157 141.500 C 398.335 141.500,398.833 140.840,398.833 140.604 C 398.833 140.518,398.680 140.587,398.493 140.756 C 398.194 141.027,398.166 141.030,398.261 140.782 C 398.372 140.491,398.306 140.416,398.111 140.611 M2.706 150.254 C 3.032 150.600,3.213 150.687,3.342 150.558 C 3.470 150.430,3.437 150.294,3.226 150.084 C 3.029 149.886,2.910 149.853,2.866 149.985 C 2.817 150.133,2.734 150.131,2.525 149.975 C 2.374 149.863,2.455 149.988,2.706 150.254 M391.500 151.692 C 391.500 152.041,391.510 152.043,391.833 151.750 C 392.017 151.584,392.167 151.422,392.167 151.391 C 392.167 151.359,392.017 151.333,391.833 151.333 C 391.603 151.333,391.500 151.444,391.500 151.692 M10.500 155.667 C 10.500 155.889,10.611 156.000,10.833 156.000 C 11.056 156.000,11.167 155.889,11.167 155.667 C 11.167 155.444,11.056 155.333,10.833 155.333 C 10.611 155.333,10.500 155.444,10.500 155.667 M380.500 155.667 C 380.500 155.937,380.611 156.000,381.083 156.000 C 381.556 156.000,381.667 155.937,381.667 155.667 C 381.667 155.397,381.556 155.333,381.083 155.333 C 380.611 155.333,380.500 155.397,380.500 155.667 " stroke="none" fill="#abbbe3" fill-rule="evenodd"></path><path id="path1" d="M390.373 1.138 C 390.216 1.238,390.264 1.366,390.560 1.645 C 390.916 1.979,390.969 1.989,391.065 1.738 C 391.247 1.263,390.795 0.871,390.373 1.138 M392.965 2.257 C 392.915 2.307,393.096 2.570,393.366 2.841 C 393.864 3.339,394.197 3.522,393.855 3.110 C 393.753 2.987,393.706 2.837,393.751 2.776 C 393.796 2.716,393.784 2.704,393.724 2.749 C 393.562 2.869,393.155 2.487,393.262 2.314 C 393.360 2.155,393.114 2.108,392.965 2.257 M398.244 10.294 C 398.005 10.465,398.039 10.777,398.325 11.033 C 398.534 11.220,398.537 11.210,398.347 10.958 C 398.034 10.545,398.365 10.595,398.725 11.016 C 398.889 11.208,399.075 11.310,399.137 11.243 C 399.199 11.176,399.156 11.087,399.041 11.046 C 398.925 11.005,398.876 10.900,398.930 10.812 C 399.135 10.481,398.576 10.059,398.244 10.294 M249.894 37.159 C 249.607 37.227,249.141 37.447,248.860 37.648 C 248.578 37.848,248.063 38.109,247.716 38.228 C 247.236 38.391,246.983 38.627,246.667 39.204 C 246.438 39.623,246.100 40.176,245.917 40.434 C 245.200 41.441,245.408 44.363,246.269 45.386 C 246.488 45.646,246.667 45.992,246.667 46.154 C 246.667 46.528,247.052 46.864,248.000 47.318 C 248.412 47.516,248.975 47.806,249.250 47.964 C 249.655 48.196,250.178 48.250,252.002 48.250 L 254.255 48.250 255.073 47.708 C 255.522 47.410,256.024 47.167,256.187 47.167 C 256.351 47.167,256.619 46.971,256.784 46.733 C 256.949 46.494,257.285 46.075,257.531 45.802 C 258.368 44.875,258.443 40.586,257.639 39.702 C 257.412 39.453,257.101 39.047,256.947 38.798 C 256.770 38.512,256.424 38.281,256.001 38.167 C 255.635 38.068,255.203 37.851,255.042 37.685 C 254.433 37.055,251.561 36.761,249.894 37.159 M112.500 41.843 C 102.360 42.283,101.835 42.323,100.598 42.750 C 99.947 42.975,98.817 43.242,98.087 43.343 C 97.356 43.445,96.626 43.599,96.463 43.687 C 96.029 43.919,95.998 105.345,96.432 106.258 C 96.750 106.929,97.481 107.502,98.506 107.885 C 99.718 108.337,117.519 108.303,121.083 107.841 C 122.458 107.663,124.183 107.471,124.917 107.413 C 126.761 107.269,127.938 107.026,128.176 106.739 C 128.286 106.606,128.798 106.380,129.313 106.237 C 130.683 105.858,131.132 105.664,131.230 105.408 C 131.278 105.283,131.704 104.985,132.176 104.745 C 133.131 104.261,133.680 103.792,135.354 102.032 C 135.594 101.779,135.991 101.178,136.236 100.695 C 136.480 100.213,136.783 99.778,136.908 99.730 C 137.183 99.625,137.408 99.062,137.670 97.833 C 137.777 97.329,137.996 96.729,138.156 96.500 C 139.229 94.966,139.243 85.247,138.175 83.889 C 138.002 83.670,137.808 83.174,137.744 82.787 C 137.581 81.807,137.185 80.870,136.724 80.373 C 136.509 80.141,136.333 79.807,136.333 79.630 C 136.333 79.112,133.721 76.594,132.667 76.095 C 129.587 74.638,129.038 73.887,130.583 73.239 C 130.858 73.123,131.308 72.830,131.583 72.588 C 131.858 72.345,132.359 72.002,132.696 71.826 C 133.033 71.650,133.356 71.358,133.413 71.177 C 133.471 70.996,133.742 70.659,134.016 70.429 C 134.290 70.198,134.690 69.611,134.906 69.123 C 135.122 68.636,135.417 68.138,135.563 68.017 C 135.878 67.756,136.091 67.061,136.421 65.214 C 136.556 64.460,136.835 63.523,137.042 63.130 C 137.658 61.957,137.605 57.096,136.957 55.333 C 136.704 54.646,136.390 53.455,136.258 52.688 C 136.108 51.808,135.901 51.162,135.697 50.938 C 135.261 50.457,135.000 49.925,135.000 49.513 C 135.000 48.775,131.228 45.121,130.037 44.705 C 129.704 44.589,129.278 44.357,129.091 44.191 C 128.690 43.834,128.004 43.568,127.098 43.417 C 126.740 43.357,126.046 43.094,125.555 42.833 C 124.592 42.319,124.262 42.266,120.333 42.003 C 116.142 41.722,115.557 41.710,112.500 41.843 M120.167 50.357 C 120.671 50.599,121.483 50.850,121.973 50.916 C 122.574 50.997,123.033 51.180,123.389 51.483 C 123.679 51.730,124.127 52.064,124.384 52.225 C 124.641 52.387,124.896 52.646,124.950 52.801 C 125.004 52.956,125.257 53.308,125.513 53.583 C 125.824 53.919,126.063 54.455,126.237 55.212 C 126.380 55.832,126.629 56.542,126.790 56.788 C 127.276 57.530,127.224 63.023,126.723 63.833 C 126.524 64.154,126.281 64.861,126.181 65.404 C 125.997 66.411,125.628 67.167,125.321 67.167 C 125.226 67.167,125.072 67.389,124.977 67.660 C 124.883 67.931,124.663 68.198,124.490 68.253 C 124.316 68.308,123.873 68.605,123.504 68.913 C 122.718 69.570,122.709 69.572,119.250 69.921 C 117.325 70.115,115.362 70.175,112.189 70.136 L 107.795 70.083 107.231 69.431 L 106.667 68.778 106.667 60.387 L 106.667 51.995 107.042 51.422 C 107.917 50.084,109.161 49.849,115.167 49.889 C 119.211 49.916,119.259 49.921,120.167 50.357 M165.083 58.577 C 164.533 58.696,163.371 58.882,162.500 58.991 C 160.444 59.246,159.542 59.481,158.868 59.939 C 158.566 60.144,157.930 60.440,157.455 60.598 C 156.979 60.756,156.452 61.061,156.283 61.276 C 156.114 61.491,155.871 61.667,155.743 61.667 C 155.377 61.667,152.518 64.582,152.246 65.234 C 152.111 65.557,151.869 65.892,151.709 65.979 C 151.548 66.065,151.277 66.537,151.107 67.026 C 150.937 67.516,150.630 68.142,150.424 68.417 C 150.196 68.722,149.937 69.491,149.759 70.391 C 149.598 71.203,149.256 72.328,148.998 72.891 C 147.852 75.398,147.889 92.737,149.046 95.167 C 149.286 95.671,149.603 96.683,149.750 97.417 C 149.897 98.150,150.156 98.942,150.324 99.177 C 150.493 99.412,150.801 100.012,151.009 100.511 C 151.217 101.009,151.600 101.645,151.860 101.925 C 152.120 102.204,152.333 102.516,152.333 102.618 C 152.333 102.721,152.802 103.257,153.375 103.811 C 153.948 104.365,154.627 105.023,154.884 105.273 C 155.141 105.523,155.666 105.869,156.051 106.041 C 156.435 106.212,156.944 106.538,157.181 106.765 C 157.479 107.050,157.930 107.228,158.646 107.343 C 159.214 107.434,160.117 107.738,160.651 108.018 C 162.851 109.172,177.777 109.168,180.215 108.014 C 180.784 107.744,181.789 107.443,182.447 107.345 C 184.700 107.010,184.833 106.795,184.833 103.486 L 184.833 101.619 184.002 100.788 L 183.171 99.956 180.960 100.042 C 179.496 100.099,178.497 100.222,178.000 100.406 C 176.104 101.109,168.411 101.200,166.750 100.539 C 166.031 100.252,165.333 100.077,163.545 99.733 C 163.340 99.694,162.918 99.438,162.606 99.164 C 162.294 98.891,161.953 98.667,161.848 98.667 C 161.503 98.667,160.055 97.097,159.855 96.505 C 159.747 96.186,159.465 95.724,159.228 95.477 C 158.885 95.119,158.764 94.762,158.631 93.722 C 158.539 93.004,158.348 91.929,158.207 91.333 C 158.065 90.737,157.942 89.800,157.933 89.250 C 157.906 87.554,156.910 87.667,171.855 87.667 C 181.871 87.667,184.662 87.622,184.793 87.458 C 185.722 86.304,185.888 85.573,186.059 81.866 C 186.300 76.668,186.040 71.879,185.451 70.644 C 185.217 70.152,184.937 69.203,184.830 68.535 C 184.700 67.733,184.506 67.167,184.257 66.868 C 183.807 66.329,183.333 65.437,183.333 65.129 C 183.333 64.866,180.481 61.833,180.233 61.833 C 180.139 61.833,179.849 61.610,179.588 61.338 C 179.326 61.065,178.731 60.718,178.265 60.567 C 177.798 60.415,177.192 60.128,176.917 59.928 C 176.307 59.486,175.432 59.231,174.000 59.080 C 173.404 59.017,172.133 58.823,171.176 58.649 C 169.174 58.286,166.567 58.255,165.083 58.577 M289.833 58.845 C 286.983 59.151,285.283 59.510,285.074 59.849 C 285.016 59.942,284.557 60.200,284.054 60.423 C 283.550 60.645,282.920 61.011,282.653 61.236 C 282.387 61.460,281.999 61.695,281.793 61.757 C 281.586 61.820,281.102 62.181,280.718 62.560 C 280.334 62.940,279.745 63.499,279.409 63.804 L 278.799 64.359 278.418 64.001 C 278.133 63.733,277.985 63.309,277.830 62.310 C 277.635 61.056,277.586 60.952,277.019 60.573 C 276.688 60.351,276.205 60.000,275.947 59.793 C 275.400 59.355,269.721 59.114,269.003 59.498 L 268.657 59.684 268.703 82.967 C 268.756 109.172,268.631 106.942,270.083 107.665 C 270.889 108.066,271.049 108.082,274.845 108.136 L 278.773 108.192 278.970 107.535 C 279.116 107.048,279.167 102.371,279.167 89.450 C 279.167 79.221,279.230 71.855,279.320 71.618 C 279.525 71.080,281.595 69.376,282.207 69.241 C 282.473 69.183,282.930 68.929,283.221 68.678 C 283.614 68.338,284.062 68.170,284.963 68.025 C 285.629 67.917,286.492 67.705,286.879 67.553 C 287.848 67.174,290.325 67.070,290.944 67.382 C 291.204 67.513,291.979 67.755,292.667 67.920 C 294.028 68.246,294.942 68.868,295.571 69.898 C 295.761 70.210,296.046 70.644,296.204 70.863 C 296.869 71.786,296.999 75.055,297.000 90.857 C 297.000 104.801,297.017 105.668,297.304 106.310 C 297.996 107.854,298.987 108.167,303.199 108.167 L 306.470 108.167 306.902 107.654 L 307.333 107.141 307.333 91.000 C 307.333 72.161,307.109 68.121,305.995 66.917 C 305.826 66.733,305.593 66.208,305.478 65.750 C 305.095 64.221,302.622 61.333,300.979 60.495 C 300.464 60.232,300.003 59.914,299.954 59.788 C 299.823 59.446,298.075 59.131,293.333 58.598 C 293.012 58.561,291.438 58.673,289.833 58.845 M212.816 59.160 C 210.424 59.303,209.913 59.397,209.488 59.769 C 209.343 59.895,208.706 60.116,208.071 60.258 C 206.298 60.656,205.786 60.841,205.333 61.242 C 205.104 61.445,204.567 61.740,204.140 61.897 C 203.712 62.055,203.325 62.280,203.280 62.399 C 203.234 62.518,202.834 62.855,202.390 63.149 C 201.455 63.768,199.973 65.406,199.488 66.358 C 199.303 66.720,199.046 67.057,198.918 67.106 C 198.789 67.155,198.521 67.695,198.321 68.306 C 198.121 68.917,197.827 69.567,197.666 69.750 C 197.288 70.182,197.064 70.937,196.827 72.583 C 196.721 73.317,196.416 74.574,196.150 75.377 L 195.667 76.838 195.671 83.294 C 195.675 89.798,195.734 90.589,196.320 92.000 C 196.491 92.412,196.716 93.388,196.820 94.167 C 197.091 96.202,197.259 96.816,197.662 97.245 C 197.859 97.454,198.124 98.021,198.251 98.504 C 198.385 99.011,198.691 99.602,198.973 99.900 C 199.242 100.184,199.592 100.674,199.751 100.988 C 199.910 101.302,200.293 101.799,200.603 102.091 C 200.913 102.383,201.167 102.703,201.167 102.800 C 201.167 102.898,201.325 103.028,201.518 103.089 C 201.712 103.151,202.152 103.456,202.497 103.767 C 202.841 104.078,203.489 104.492,203.937 104.686 C 204.384 104.881,204.900 105.172,205.083 105.333 C 206.766 106.811,218.572 106.819,219.909 105.342 C 220.064 105.170,220.392 104.981,220.637 104.921 C 220.883 104.861,221.373 104.582,221.727 104.300 C 222.569 103.630,223.616 103.484,224.061 103.975 C 224.599 104.570,224.407 109.774,223.804 110.927 C 223.562 111.391,223.281 112.077,223.179 112.452 C 222.799 113.865,220.733 115.397,218.847 115.665 C 218.202 115.756,217.204 116.000,216.629 116.207 C 215.056 116.773,208.186 116.757,205.917 116.182 C 204.084 115.718,200.125 115.499,199.511 115.828 C 199.131 116.031,199.128 116.059,199.196 118.593 C 199.292 122.169,199.596 122.578,202.750 123.384 C 203.300 123.524,204.162 123.787,204.667 123.967 C 207.372 124.936,221.641 124.779,223.386 123.761 C 223.769 123.538,224.571 123.223,225.167 123.062 C 225.783 122.896,226.486 122.568,226.797 122.302 C 227.099 122.044,227.451 121.833,227.582 121.833 C 228.240 121.833,231.459 118.419,232.144 116.994 C 232.340 116.585,232.653 116.014,232.839 115.726 C 233.025 115.437,233.281 114.575,233.407 113.809 C 233.534 113.043,233.813 112.042,234.027 111.583 L 234.417 110.750 234.409 92.250 C 234.403 76.567,234.363 73.471,234.147 71.917 C 233.697 68.688,233.907 68.215,235.869 68.046 C 237.378 67.916,237.333 68.007,237.333 65.056 C 237.333 61.161,237.099 60.844,233.833 60.320 C 232.718 60.141,231.588 59.882,231.320 59.743 C 230.293 59.212,218.277 58.833,212.816 59.160 M246.944 59.444 C 246.772 59.617,246.811 106.253,246.985 106.709 C 247.368 107.719,248.854 108.078,252.880 108.134 L 256.509 108.185 256.755 107.598 C 256.967 107.091,257.000 103.889,257.000 84.073 C 257.000 58.403,257.112 60.638,255.777 59.773 L 255.100 59.333 251.078 59.333 C 248.866 59.333,247.006 59.383,246.944 59.444 M171.902 66.830 C 172.251 66.909,172.735 67.158,172.977 67.384 C 173.219 67.610,173.660 67.918,173.958 68.069 C 174.256 68.219,174.500 68.409,174.500 68.492 C 174.500 68.574,174.768 68.992,175.095 69.421 C 175.598 70.079,175.742 70.474,176.026 71.975 C 176.211 72.951,176.427 73.828,176.505 73.922 C 176.928 74.433,177.175 78.695,176.820 79.358 C 176.403 80.137,176.052 80.167,167.197 80.167 L 158.883 80.167 158.316 79.786 C 157.574 79.288,157.532 78.780,158.074 76.805 C 158.308 75.950,158.503 74.912,158.507 74.500 C 158.518 73.388,158.754 72.358,159.111 71.859 C 159.285 71.616,159.571 71.079,159.745 70.667 C 159.920 70.254,160.349 69.633,160.698 69.285 C 161.048 68.938,161.333 68.583,161.333 68.496 C 161.333 68.409,161.615 68.220,161.958 68.077 C 162.302 67.933,162.771 67.641,163.000 67.427 C 163.893 66.593,169.257 66.233,171.902 66.830 M223.301 67.304 C 224.383 67.916,224.332 67.195,224.333 81.839 L 224.333 95.096 223.350 96.054 C 222.516 96.865,222.193 97.060,221.240 97.324 C 220.620 97.496,220.050 97.749,219.974 97.887 C 219.520 98.698,212.333 98.754,211.285 97.955 C 210.957 97.705,210.580 97.500,210.446 97.500 C 210.059 97.500,208.565 96.062,208.329 95.463 C 208.210 95.162,207.927 94.714,207.700 94.466 C 207.388 94.126,207.212 93.616,206.982 92.383 C 206.814 91.485,206.566 90.558,206.431 90.323 C 205.606 88.893,205.606 77.774,206.431 76.344 C 206.566 76.109,206.814 75.183,206.981 74.286 C 207.189 73.175,207.395 72.538,207.631 72.286 C 207.822 72.083,208.123 71.577,208.301 71.161 C 208.598 70.467,209.999 68.991,210.908 68.415 C 211.096 68.295,211.831 68.080,212.542 67.936 C 213.253 67.792,214.026 67.548,214.260 67.394 C 215.060 66.870,222.404 66.797,223.301 67.304 M120.293 78.667 C 120.958 78.754,121.783 78.977,122.126 79.163 C 122.469 79.349,123.166 79.614,123.675 79.752 C 125.155 80.155,126.978 81.850,127.437 83.250 C 127.587 83.708,127.904 84.533,128.142 85.083 C 128.761 86.517,128.815 92.024,128.220 93.032 C 128.020 93.370,127.726 94.110,127.568 94.675 C 127.267 95.747,126.036 97.500,125.584 97.500 C 125.456 97.500,125.243 97.656,125.109 97.847 C 124.860 98.202,123.849 98.645,123.250 98.661 C 123.067 98.666,122.504 98.875,122.000 99.126 L 121.083 99.581 114.526 99.633 C 107.009 99.692,107.361 99.755,106.930 98.271 C 106.633 97.251,106.543 81.467,106.825 80.005 C 107.120 78.477,107.022 78.499,113.468 78.505 C 116.556 78.508,119.627 78.581,120.293 78.667 M398.980 139.208 C 398.969 139.323,398.965 139.461,398.971 139.514 C 398.977 139.568,398.761 139.599,398.491 139.583 C 398.052 139.557,398.000 139.606,398.000 140.045 C 398.000 140.416,398.062 140.512,398.254 140.438 C 398.468 140.356,398.477 140.400,398.313 140.712 C 398.124 141.072,398.128 141.075,398.448 140.791 C 398.629 140.631,398.824 140.546,398.880 140.603 C 399.029 140.751,399.221 139.883,399.107 139.584 C 399.054 139.446,399.083 139.333,399.172 139.333 C 399.261 139.333,399.333 139.258,399.333 139.167 C 399.333 138.923,399.004 138.962,398.980 139.208 M397.537 145.236 C 397.436 145.457,397.199 145.687,397.010 145.747 C 396.613 145.873,396.548 146.167,396.917 146.167 C 397.054 146.167,397.167 146.100,397.167 146.019 C 397.167 145.937,397.298 145.881,397.458 145.894 C 397.641 145.908,397.741 145.808,397.727 145.627 C 397.715 145.467,397.771 145.378,397.852 145.428 C 397.933 145.479,398.000 145.365,398.000 145.177 C 398.000 144.713,397.761 144.743,397.537 145.236 M0.705 146.167 C 0.705 146.487,0.740 146.619,0.782 146.458 C 0.823 146.298,0.823 146.035,0.782 145.875 C 0.740 145.715,0.705 145.846,0.705 146.167 M0.727 147.250 C 0.566 147.669,0.807 148.333,1.081 148.228 C 1.294 148.146,1.293 148.102,1.073 147.883 C 0.930 147.740,0.865 147.496,0.922 147.316 C 1.040 146.943,0.867 146.885,0.727 147.250 M396.148 147.575 C 395.697 148.050,395.339 148.154,395.688 147.708 C 395.892 147.448,395.887 147.440,395.641 147.632 C 395.489 147.751,395.384 147.976,395.407 148.132 C 395.476 148.607,396.043 148.454,396.386 147.867 C 396.790 147.175,396.668 147.026,396.148 147.575 M1.033 148.533 C 0.782 148.785,0.771 149.058,1.018 148.906 C 1.141 148.829,1.166 148.906,1.093 149.136 C 0.977 149.502,1.516 149.946,1.837 149.748 C 1.927 149.692,2.000 149.726,2.000 149.823 C 2.000 149.921,2.084 150.000,2.186 150.000 C 2.288 150.000,2.098 149.697,1.764 149.327 C 1.429 148.956,1.200 148.581,1.254 148.493 C 1.391 148.272,1.274 148.293,1.033 148.533 M394.719 149.142 C 393.964 149.863,393.897 150.173,394.534 149.990 C 395.185 149.803,395.224 149.759,395.266 149.162 C 395.308 148.559,395.328 148.559,394.719 149.142 M393.647 150.292 C 393.636 150.452,393.638 150.645,393.651 150.721 C 393.664 150.796,393.586 150.803,393.478 150.737 C 393.347 150.655,393.326 150.687,393.417 150.833 C 393.496 150.961,393.486 151.011,393.393 150.953 C 393.306 150.899,393.125 150.924,392.992 151.008 C 392.802 151.129,392.828 151.162,393.115 151.164 C 393.316 151.166,393.539 151.073,393.611 150.958 C 393.772 150.702,393.878 150.000,393.756 150.000 C 393.707 150.000,393.658 150.131,393.647 150.292 M392.987 150.236 C 392.898 150.333,392.893 150.833,392.981 150.833 C 393.128 150.833,393.500 150.471,393.500 150.328 C 393.500 150.247,393.051 150.167,392.987 150.236 M6.000 153.044 C 6.000 153.188,6.094 153.343,6.208 153.390 C 6.367 153.454,6.364 153.477,6.196 153.487 C 6.026 153.497,6.032 153.556,6.226 153.750 C 6.518 154.041,7.167 154.086,7.167 153.814 C 7.167 153.710,7.020 153.666,6.833 153.715 C 6.650 153.763,6.536 153.744,6.580 153.673 C 6.624 153.601,6.511 153.372,6.330 153.163 C 6.081 152.875,6.000 152.846,6.000 153.044 M389.767 153.265 C 389.711 153.411,389.703 153.591,389.750 153.666 C 389.796 153.741,389.665 153.762,389.459 153.712 C 389.161 153.640,389.124 153.665,389.280 153.833 C 389.504 154.073,390.076 153.925,389.917 153.668 C 389.860 153.576,389.893 153.500,389.990 153.500 C 390.087 153.500,390.167 153.387,390.167 153.250 C 390.167 152.919,389.896 152.929,389.767 153.265 M386.124 154.375 C 386.079 154.581,385.984 154.891,385.912 155.062 C 385.786 155.366,385.796 155.366,386.266 155.074 C 387.234 154.473,387.419 154.000,386.686 154.000 C 386.323 154.000,386.186 154.092,386.124 154.375 " stroke="none" fill="#3d55ac" fill-rule="evenodd"></path><path id="path2" d="M249.750 36.264 C 249.475 36.304,248.923 36.379,248.523 36.431 C 248.021 36.497,247.650 36.676,247.321 37.013 C 247.059 37.281,246.781 37.500,246.704 37.500 C 246.627 37.500,246.193 37.929,245.740 38.454 L 244.917 39.407 244.917 42.495 C 244.917 46.402,244.948 46.491,246.929 48.142 C 248.412 49.377,255.969 49.416,256.874 48.192 C 256.989 48.037,257.397 47.666,257.780 47.367 C 258.497 46.808,258.724 46.336,258.920 45.000 C 258.980 44.587,259.138 43.921,259.270 43.520 C 259.480 42.882,259.480 42.681,259.268 41.936 C 259.134 41.467,258.971 40.708,258.907 40.250 C 258.700 38.774,257.080 36.918,255.615 36.478 C 255.047 36.307,250.585 36.145,249.750 36.264 M255.167 36.890 C 257.362 37.958,258.376 39.109,258.673 40.872 C 259.646 46.642,256.605 49.401,250.052 48.692 C 244.387 48.078,242.910 40.310,247.883 37.285 C 249.243 36.458,253.773 36.212,255.167 36.890 M107.730 40.515 C 106.601 40.596,105.461 40.789,104.813 41.008 C 104.036 41.270,102.909 41.428,100.623 41.594 C 96.747 41.876,96.344 41.976,95.771 42.803 L 95.331 43.438 95.374 75.368 L 95.417 107.298 96.310 108.190 L 97.202 109.083 110.893 109.083 C 125.092 109.083,125.396 109.070,126.167 108.410 C 126.391 108.218,127.151 108.043,129.042 107.749 C 129.386 107.695,129.836 107.476,130.042 107.262 C 130.252 107.044,130.801 106.783,131.291 106.670 C 131.888 106.531,132.291 106.317,132.563 105.994 C 132.782 105.734,133.232 105.407,133.563 105.269 C 133.895 105.131,134.253 104.826,134.360 104.592 C 134.466 104.358,134.641 104.167,134.748 104.167 C 135.025 104.167,135.667 103.444,135.667 103.132 C 135.667 102.988,135.859 102.821,136.094 102.762 C 136.377 102.691,136.606 102.453,136.771 102.058 C 136.909 101.730,137.234 101.282,137.494 101.063 C 137.817 100.791,138.032 100.387,138.171 99.791 C 138.282 99.310,138.544 98.729,138.752 98.500 C 139.236 97.966,139.305 97.719,139.576 95.549 C 139.700 94.560,139.929 93.300,140.086 92.750 C 140.451 91.465,140.371 87.908,139.957 87.000 C 139.810 86.679,139.644 85.854,139.586 85.167 C 139.419 83.171,139.187 82.237,138.735 81.749 C 138.507 81.503,138.236 80.938,138.133 80.492 C 138.030 80.047,137.752 79.469,137.515 79.208 C 137.278 78.946,136.933 78.449,136.750 78.101 C 136.567 77.754,136.215 77.365,135.968 77.236 C 135.722 77.107,135.390 76.782,135.231 76.513 C 135.073 76.245,134.637 75.889,134.263 75.723 C 133.889 75.556,133.447 75.251,133.281 75.045 C 133.113 74.837,132.556 74.546,132.031 74.391 L 131.083 74.113 131.948 73.731 C 132.424 73.521,132.891 73.204,132.986 73.027 C 133.080 72.850,133.346 72.658,133.576 72.600 C 133.806 72.542,134.104 72.282,134.238 72.022 C 134.373 71.762,134.668 71.428,134.894 71.280 C 135.120 71.132,135.355 70.781,135.417 70.500 C 135.478 70.219,135.704 69.874,135.917 69.734 C 136.338 69.459,136.719 68.635,136.909 67.589 C 136.975 67.225,137.169 66.829,137.341 66.709 C 138.629 65.807,138.587 52.831,137.293 52.059 C 137.162 51.981,136.954 51.429,136.831 50.833 C 136.671 50.063,136.478 49.629,136.162 49.332 C 135.917 49.102,135.612 48.622,135.484 48.265 C 135.355 47.909,135.039 47.422,134.781 47.184 C 134.522 46.945,134.204 46.547,134.072 46.299 C 133.940 46.051,133.578 45.728,133.266 45.580 C 132.955 45.432,132.663 45.172,132.619 45.002 C 132.538 44.694,131.384 44.000,130.952 44.000 C 130.827 44.000,130.551 43.815,130.338 43.588 C 130.125 43.361,129.533 43.055,129.023 42.906 C 128.513 42.758,127.885 42.459,127.626 42.242 C 127.368 42.024,126.915 41.811,126.620 41.767 C 126.325 41.723,125.544 41.608,124.885 41.510 C 124.225 41.413,123.436 41.186,123.131 41.006 C 122.061 40.375,113.467 40.101,107.730 40.515 M119.750 40.992 C 123.767 41.641,125.867 42.082,126.667 42.447 C 127.171 42.677,127.929 42.970,128.351 43.098 C 128.773 43.227,129.384 43.512,129.708 43.733 C 130.033 43.953,130.445 44.180,130.623 44.236 C 131.739 44.590,134.666 47.528,135.368 48.999 C 135.566 49.412,135.778 49.788,135.840 49.833 C 136.056 49.992,136.459 50.920,136.745 51.914 C 136.903 52.463,137.140 53.120,137.271 53.374 C 138.209 55.187,138.169 63.612,137.215 65.417 C 137.118 65.600,136.885 66.295,136.698 66.961 C 136.502 67.657,136.069 68.603,135.679 69.188 C 135.305 69.747,135.000 70.271,135.000 70.351 C 135.000 70.798,132.159 73.197,130.956 73.767 L 130.328 74.064 131.456 74.687 C 132.076 75.030,132.958 75.504,133.417 75.741 C 134.367 76.232,136.310 78.131,136.751 79.000 C 136.914 79.321,137.182 79.756,137.347 79.968 C 137.511 80.179,137.774 80.742,137.930 81.218 C 138.087 81.694,138.391 82.424,138.606 82.840 C 139.961 85.455,139.897 95.473,138.511 97.737 C 138.338 98.019,138.111 98.575,138.005 98.971 C 137.799 99.748,136.673 101.550,135.793 102.510 C 135.494 102.836,135.117 103.249,134.954 103.427 C 133.913 104.566,131.645 106.155,130.575 106.495 C 130.213 106.610,129.752 106.807,129.550 106.933 C 129.128 107.198,127.097 107.761,126.000 107.916 C 125.587 107.975,124.912 108.129,124.500 108.260 C 123.014 108.729,120.428 108.828,109.583 108.830 C 97.331 108.832,97.770 108.871,96.580 107.663 L 95.750 106.821 95.707 75.254 L 95.664 43.688 96.040 43.278 C 96.654 42.609,99.446 42.032,103.833 41.668 C 104.979 41.573,106.817 41.384,107.917 41.248 C 109.017 41.113,110.217 40.976,110.583 40.945 C 111.979 40.828,118.954 40.864,119.750 40.992 M111.500 50.852 C 107.004 51.176,107.500 50.005,107.500 60.304 L 107.500 68.775 107.886 69.138 C 108.332 69.557,115.638 69.675,119.500 69.325 C 121.932 69.105,123.903 68.248,124.624 67.096 C 124.858 66.722,125.113 66.375,125.190 66.324 C 125.779 65.937,126.415 60.977,126.174 58.659 C 125.773 54.824,125.322 53.860,123.115 52.121 C 121.707 51.012,116.768 50.472,111.500 50.852 M120.847 51.647 C 121.301 51.721,121.874 51.979,122.263 52.284 C 122.623 52.565,123.138 52.866,123.409 52.951 C 123.745 53.057,124.026 53.341,124.290 53.840 C 124.503 54.244,124.836 54.743,125.030 54.949 C 125.977 55.957,125.876 64.557,124.903 65.713 C 124.656 66.007,124.323 66.552,124.163 66.925 C 123.899 67.542,123.782 67.630,122.835 67.916 C 122.264 68.089,121.609 68.379,121.378 68.560 C 120.845 68.979,117.184 69.196,111.750 69.129 L 108.083 69.083 108.083 60.333 L 108.083 51.583 110.500 51.481 C 113.302 51.361,119.731 51.465,120.847 51.647 M163.333 57.434 C 161.662 57.627,161.308 57.715,160.789 58.068 C 160.438 58.306,159.758 58.520,158.996 58.634 C 157.980 58.784,157.688 58.900,157.311 59.304 C 157.060 59.573,156.598 59.840,156.284 59.899 C 155.935 59.965,155.408 60.294,154.931 60.745 C 154.502 61.151,154.007 61.528,153.833 61.583 C 153.659 61.639,153.471 61.830,153.414 62.009 C 153.357 62.187,153.055 62.529,152.741 62.768 C 152.428 63.007,152.011 63.463,151.814 63.782 C 151.616 64.101,151.243 64.594,150.984 64.877 C 150.725 65.161,150.463 65.623,150.402 65.905 C 150.341 66.186,150.087 66.649,149.839 66.934 C 149.536 67.280,149.318 67.805,149.179 68.517 C 149.065 69.104,148.833 69.733,148.663 69.917 C 148.188 70.432,148.032 70.998,147.829 72.948 C 147.717 74.019,147.511 75.024,147.321 75.426 C 146.751 76.631,146.634 78.457,146.709 84.943 C 146.781 91.077,146.867 92.027,147.413 92.667 C 147.531 92.804,147.713 93.762,147.819 94.796 C 148.026 96.818,148.182 97.396,148.663 97.917 C 148.833 98.100,149.064 98.725,149.177 99.305 C 149.325 100.067,149.537 100.546,149.941 101.029 C 150.248 101.397,150.500 101.839,150.500 102.011 C 150.500 102.183,150.719 102.486,150.987 102.684 C 151.256 102.882,151.516 103.203,151.567 103.397 C 151.723 103.994,154.338 106.541,155.013 106.753 C 155.235 106.823,155.578 107.052,155.775 107.264 C 155.972 107.475,156.572 107.775,157.108 107.930 C 157.645 108.085,158.292 108.386,158.547 108.599 C 159.024 108.999,159.212 109.048,161.333 109.327 C 162.021 109.418,162.891 109.646,163.266 109.834 C 165.102 110.754,175.547 110.674,177.381 109.725 C 177.640 109.592,178.766 109.380,179.884 109.254 C 182.112 109.005,182.423 108.926,182.917 108.487 C 183.100 108.325,183.662 108.087,184.166 107.960 C 185.130 107.717,185.264 107.570,185.649 106.322 C 185.879 105.578,185.893 102.556,185.667 102.417 C 185.575 102.360,185.500 102.034,185.500 101.692 C 185.500 99.399,184.803 99.134,179.083 99.257 C 168.514 99.484,164.929 99.344,164.311 98.681 C 164.143 98.501,163.550 98.187,162.994 97.984 C 162.280 97.724,161.915 97.485,161.754 97.174 C 161.628 96.930,161.342 96.648,161.118 96.546 C 160.788 96.396,160.640 96.095,160.344 94.972 C 160.142 94.208,159.833 93.381,159.657 93.134 C 159.308 92.644,159.030 90.236,159.230 89.437 L 159.340 89.000 171.839 89.000 L 184.338 89.000 185.239 88.492 C 186.464 87.800,186.471 87.788,186.674 85.819 C 186.773 84.864,187.005 83.596,187.190 83.000 C 187.843 80.899,187.786 75.291,187.096 73.779 C 186.963 73.488,186.774 72.336,186.677 71.219 C 186.488 69.059,186.317 68.375,185.880 68.044 C 185.731 67.930,185.473 67.305,185.308 66.654 C 185.102 65.841,184.883 65.372,184.609 65.157 C 184.390 64.985,184.167 64.629,184.115 64.366 C 184.062 64.103,183.641 63.509,183.176 63.042 C 182.713 62.575,182.333 62.115,182.333 62.018 C 182.333 61.921,182.127 61.732,181.875 61.597 C 181.623 61.463,181.079 61.049,180.667 60.677 C 180.254 60.305,179.671 59.954,179.370 59.897 C 179.070 59.841,178.749 59.654,178.657 59.482 C 178.410 59.021,177.709 58.716,176.583 58.581 C 176.004 58.512,175.443 58.336,175.250 58.163 C 174.562 57.548,166.574 57.059,163.333 57.434 M289.167 57.476 C 287.741 57.591,287.508 57.662,286.941 58.150 C 286.771 58.297,286.040 58.501,285.317 58.605 C 284.171 58.769,283.917 58.870,283.334 59.396 C 282.966 59.728,282.523 60.000,282.349 60.000 C 282.072 60.000,281.613 60.321,280.250 61.468 C 280.067 61.622,279.644 61.872,279.311 62.024 L 278.706 62.299 278.593 61.302 C 278.436 59.915,277.565 58.940,276.237 58.664 C 274.717 58.348,268.345 58.510,267.784 58.879 L 267.333 59.174 267.333 83.093 L 267.333 107.012 268.083 107.741 C 268.496 108.142,268.833 108.540,268.833 108.625 C 268.833 109.240,279.021 109.493,279.521 108.891 C 279.711 108.663,279.764 105.532,279.833 90.587 L 279.917 72.558 280.564 71.875 C 280.920 71.499,281.384 71.148,281.595 71.095 C 281.806 71.042,282.138 70.774,282.334 70.500 C 282.540 70.210,282.842 69.998,283.053 69.996 C 283.542 69.991,284.837 69.392,285.081 69.058 C 285.743 68.153,292.302 68.328,293.188 69.274 C 293.406 69.506,293.814 69.792,294.096 69.911 C 294.522 70.089,294.655 70.288,294.882 71.088 C 295.033 71.617,295.327 72.233,295.536 72.455 L 295.917 72.860 296.000 89.972 C 296.086 107.734,296.077 107.525,296.842 107.921 C 297.099 108.054,297.354 108.302,297.408 108.473 C 297.606 109.097,298.178 109.167,303.073 109.167 C 307.476 109.167,307.823 109.145,308.190 108.848 L 308.583 108.529 308.583 89.973 C 308.583 70.567,308.561 69.883,307.908 68.920 C 307.674 68.575,307.433 67.875,307.333 67.251 C 307.119 65.910,306.939 65.429,306.545 65.142 C 306.375 65.018,306.139 64.589,306.022 64.188 C 305.904 63.787,305.607 63.264,305.362 63.025 C 305.117 62.785,304.804 62.364,304.666 62.088 C 304.528 61.813,304.205 61.486,303.948 61.363 C 303.692 61.240,303.412 60.956,303.326 60.731 C 303.230 60.478,302.891 60.203,302.434 60.007 C 302.029 59.834,301.634 59.585,301.557 59.455 C 301.297 59.018,300.589 58.687,299.667 58.572 C 299.135 58.506,298.604 58.325,298.402 58.142 C 297.700 57.505,292.995 57.166,289.167 57.476 M214.208 57.684 C 213.543 57.761,212.643 57.971,212.208 58.149 C 211.718 58.351,210.801 58.515,209.799 58.580 C 207.931 58.702,207.252 58.866,206.765 59.310 C 206.573 59.486,205.967 59.756,205.417 59.912 C 204.867 60.067,204.229 60.372,204.000 60.588 C 203.771 60.805,203.223 61.141,202.783 61.336 C 202.339 61.533,201.905 61.860,201.808 62.072 C 201.713 62.282,201.398 62.558,201.109 62.685 C 200.820 62.813,200.488 63.118,200.371 63.365 C 200.254 63.612,200.003 63.863,199.814 63.923 C 199.624 63.983,199.371 64.269,199.250 64.559 C 199.129 64.848,198.767 65.356,198.446 65.686 C 197.936 66.212,197.504 67.169,197.501 67.780 C 197.500 67.889,197.346 68.027,197.157 68.086 C 196.752 68.215,196.587 68.600,196.330 70.016 C 196.226 70.592,195.997 71.246,195.823 71.468 C 195.305 72.126,195.168 72.916,194.998 76.227 C 194.909 77.956,194.749 79.681,194.641 80.060 C 194.374 81.008,194.374 85.881,194.642 86.800 C 194.756 87.193,194.920 88.918,195.004 90.633 C 195.166 93.911,195.333 94.868,195.841 95.419 C 196.011 95.603,196.198 96.090,196.257 96.502 C 196.429 97.715,196.674 98.395,197.066 98.750 C 197.269 98.933,197.567 99.518,197.728 100.050 C 197.943 100.755,198.134 101.068,198.432 101.204 C 198.657 101.307,198.885 101.565,198.939 101.779 C 198.992 101.993,199.269 102.364,199.554 102.603 C 199.839 102.843,200.150 103.199,200.245 103.395 C 200.340 103.590,200.660 103.862,200.955 104.000 C 201.251 104.138,201.494 104.332,201.496 104.433 C 201.502 104.718,202.025 105.106,202.694 105.320 C 203.029 105.428,203.347 105.629,203.400 105.767 C 203.529 106.104,204.728 106.611,205.749 106.761 C 206.207 106.828,206.774 107.026,207.009 107.200 C 208.218 108.094,216.952 108.090,218.164 107.195 C 218.395 107.025,219.094 106.790,219.717 106.672 C 220.570 106.512,221.018 106.320,221.525 105.896 C 222.671 104.938,222.706 105.008,222.678 108.219 C 222.652 111.266,222.537 111.850,221.852 112.427 C 221.567 112.667,221.333 113.000,221.333 113.168 C 221.333 113.386,221.095 113.552,220.495 113.752 C 220.034 113.905,219.433 114.218,219.161 114.447 C 218.172 115.279,202.719 115.386,201.145 114.572 C 200.259 114.114,198.813 114.059,198.442 114.470 C 197.344 115.688,197.357 121.148,198.460 122.179 C 198.744 122.444,199.022 122.807,199.079 122.986 C 199.140 123.179,199.501 123.429,199.966 123.600 C 200.397 123.759,200.900 124.021,201.083 124.183 C 201.639 124.674,202.228 124.814,204.537 125.001 C 205.995 125.120,207.013 125.291,207.521 125.503 C 209.707 126.416,219.608 126.432,220.835 125.525 C 221.156 125.288,221.760 125.137,222.906 125.010 C 224.536 124.828,225.440 124.516,225.608 124.079 C 225.658 123.949,225.973 123.798,226.308 123.743 C 227.208 123.597,228.147 123.159,228.249 122.837 C 228.298 122.682,228.656 122.411,229.044 122.236 C 229.432 122.060,229.822 121.752,229.911 121.551 C 229.999 121.350,230.242 121.142,230.450 121.090 C 230.671 121.035,230.969 120.722,231.162 120.343 C 231.345 119.984,231.653 119.641,231.847 119.579 C 232.062 119.511,232.330 119.151,232.538 118.650 C 232.725 118.201,232.934 117.833,233.003 117.833 C 233.241 117.833,233.693 116.970,233.929 116.064 C 234.059 115.564,234.322 114.943,234.513 114.685 C 235.214 113.736,235.240 112.921,235.259 90.833 C 235.269 79.237,235.290 69.619,235.305 69.458 C 235.328 69.228,235.491 69.167,236.089 69.167 C 236.964 69.167,238.390 68.517,238.672 67.990 C 239.021 67.337,238.813 62.437,238.417 62.000 C 238.235 61.798,237.971 61.324,237.831 60.946 C 237.616 60.364,237.459 60.214,236.814 59.975 C 236.395 59.819,235.776 59.504,235.438 59.275 C 234.749 58.808,234.232 58.734,230.083 58.516 C 228.393 58.427,227.170 58.281,226.743 58.117 C 225.313 57.569,217.513 57.299,214.208 57.684 M171.083 57.836 C 172.000 57.925,173.125 58.106,173.583 58.239 C 174.042 58.372,174.979 58.606,175.667 58.760 C 176.354 58.913,177.254 59.234,177.667 59.473 C 178.079 59.712,178.773 60.075,179.208 60.279 C 179.644 60.484,180.000 60.728,180.000 60.821 C 180.000 60.915,180.206 61.099,180.458 61.229 C 180.876 61.446,181.706 62.220,183.106 63.698 C 183.393 64.002,183.753 64.549,183.905 64.914 C 184.058 65.280,184.330 65.736,184.511 65.928 C 184.691 66.120,184.993 66.832,185.181 67.510 C 185.369 68.188,185.581 68.819,185.654 68.913 C 187.356 71.121,187.129 86.455,185.374 87.794 L 184.776 88.250 172.026 88.295 C 163.694 88.324,159.206 88.398,159.072 88.509 C 158.401 89.066,158.835 92.727,159.856 95.116 C 160.712 97.120,161.611 97.991,163.949 99.082 C 165.699 99.898,173.204 100.225,177.917 99.690 C 184.521 98.940,185.502 99.606,185.302 104.705 C 185.221 106.768,185.076 107.203,184.381 107.460 C 181.756 108.431,179.827 108.928,177.802 109.155 C 176.857 109.260,175.275 109.456,174.286 109.590 C 172.190 109.874,167.397 109.909,165.833 109.653 C 165.237 109.556,163.787 109.334,162.610 109.160 C 161.184 108.950,160.156 108.698,159.527 108.406 C 159.008 108.165,158.238 107.863,157.816 107.735 C 157.394 107.607,156.773 107.315,156.437 107.086 C 156.100 106.857,155.620 106.564,155.370 106.433 C 154.690 106.077,152.070 103.495,151.761 102.875 C 151.613 102.577,151.425 102.333,151.344 102.333 C 151.082 102.333,149.711 99.600,149.333 98.324 C 149.131 97.642,148.900 97.003,148.820 96.905 C 148.559 96.583,148.177 94.796,147.826 92.250 C 147.636 90.875,147.413 89.263,147.329 88.667 C 147.143 87.337,147.144 80.426,147.331 79.167 C 147.405 78.662,147.622 77.087,147.811 75.667 C 148.167 72.998,148.294 72.456,149.156 69.917 C 149.729 68.230,151.110 65.333,151.341 65.333 C 151.425 65.333,151.638 65.052,151.814 64.708 C 152.078 64.196,154.268 61.962,155.560 60.888 C 156.278 60.291,159.069 59.007,160.200 58.753 C 160.869 58.603,161.835 58.364,162.347 58.222 C 164.163 57.718,168.074 57.546,171.083 57.836 M296.917 58.224 C 297.375 58.365,298.275 58.603,298.917 58.752 C 299.558 58.902,300.308 59.196,300.583 59.405 C 300.858 59.614,301.383 59.939,301.750 60.127 C 303.063 60.801,305.274 63.344,305.850 64.845 C 306.011 65.264,306.300 65.874,306.493 66.200 C 306.685 66.526,307.031 67.631,307.262 68.655 C 307.493 69.679,307.772 70.720,307.882 70.967 C 308.034 71.307,308.095 75.894,308.132 89.760 L 308.180 108.103 307.822 108.426 C 307.487 108.730,307.186 108.750,303.017 108.750 L 298.569 108.750 297.556 107.869 C 296.235 106.720,296.334 108.158,296.328 90.018 C 296.323 74.750,296.256 72.591,295.758 71.696 C 295.622 71.450,295.363 70.950,295.182 70.583 C 294.728 69.663,293.498 68.681,292.446 68.398 C 290.264 67.810,285.307 68.202,283.998 69.066 C 283.676 69.279,283.226 69.509,282.998 69.579 C 282.770 69.648,282.208 69.987,281.750 70.331 C 281.292 70.675,280.717 71.083,280.472 71.238 C 279.742 71.702,279.753 71.442,279.667 90.007 C 279.589 106.804,279.565 107.960,279.288 108.382 L 278.992 108.833 274.871 108.832 C 269.726 108.831,268.730 108.504,267.995 106.571 C 267.893 106.303,267.833 97.534,267.833 82.848 L 267.833 59.552 268.184 59.234 C 268.681 58.784,274.984 58.655,276.078 59.072 C 277.145 59.480,278.111 60.501,278.248 61.366 C 278.310 61.760,278.439 62.356,278.535 62.689 L 278.708 63.295 279.312 62.894 C 279.645 62.674,280.228 62.214,280.609 61.872 C 282.303 60.350,284.669 59.094,286.664 58.658 C 287.465 58.484,288.231 58.298,288.366 58.247 C 289.549 57.792,295.464 57.777,296.917 58.224 M223.055 58.327 C 223.896 58.415,225.858 58.569,227.417 58.669 C 234.159 59.103,236.805 59.860,237.608 61.583 C 238.004 62.433,238.212 67.425,237.872 67.933 C 237.635 68.289,237.012 68.500,236.198 68.500 C 234.833 68.500,234.945 66.555,234.930 90.384 L 234.917 111.750 234.479 113.000 C 234.239 113.688,233.877 114.775,233.675 115.417 C 233.474 116.058,233.186 116.719,233.037 116.884 C 232.887 117.050,232.574 117.552,232.341 118.000 C 231.764 119.108,229.506 121.543,228.634 121.998 C 228.244 122.201,227.718 122.541,227.466 122.753 C 227.215 122.965,226.725 123.227,226.379 123.336 C 226.033 123.445,225.275 123.761,224.695 124.037 C 222.696 124.991,215.322 125.877,212.333 125.522 C 211.554 125.430,209.460 125.198,207.679 125.007 C 203.282 124.535,200.355 123.723,199.583 122.759 C 198.678 121.627,198.499 121.323,198.343 120.647 C 198.073 119.477,198.121 116.238,198.417 115.666 C 198.765 114.994,199.331 114.925,202.545 115.160 C 208.666 115.608,209.517 115.655,211.774 115.660 C 215.789 115.671,219.505 115.162,220.155 114.511 C 220.345 114.322,220.603 114.167,220.729 114.167 C 220.966 114.167,222.271 112.904,222.551 112.404 C 222.957 111.678,223.198 110.214,223.285 107.955 C 223.418 104.457,222.911 104.077,220.490 105.867 C 219.118 106.881,212.336 107.702,209.500 107.197 C 207.750 106.885,205.414 106.313,205.000 106.094 C 203.307 105.200,202.500 104.703,201.958 104.222 C 201.614 103.917,201.271 103.667,201.197 103.667 C 201.045 103.667,199.649 102.027,198.714 100.750 C 198.379 100.292,197.963 99.546,197.790 99.093 C 197.618 98.640,197.333 98.066,197.156 97.819 C 196.980 97.571,196.678 96.704,196.487 95.892 C 196.295 95.081,196.002 94.004,195.835 93.500 C 194.724 90.138,194.774 75.977,195.908 73.050 C 196.043 72.702,196.303 71.817,196.487 71.083 C 196.790 69.874,198.329 66.438,198.627 66.305 C 198.695 66.275,199.021 65.837,199.353 65.333 C 200.248 63.973,202.562 61.833,203.611 61.394 C 203.905 61.272,204.426 60.981,204.768 60.749 C 205.110 60.516,205.809 60.206,206.320 60.059 C 206.832 59.912,207.473 59.678,207.746 59.539 C 208.527 59.140,209.913 58.864,212.167 58.656 C 213.313 58.551,214.662 58.407,215.167 58.336 C 216.509 58.147,221.287 58.142,223.055 58.327 M246.560 58.658 C 245.623 59.054,245.667 57.920,245.667 82.078 C 245.667 94.934,245.732 104.653,245.821 105.178 C 245.906 105.676,246.024 106.448,246.084 106.894 C 246.202 107.773,246.927 108.687,247.759 109.003 C 248.589 109.319,257.163 109.210,257.832 108.875 C 258.679 108.451,258.647 109.393,258.650 84.750 C 258.652 61.825,258.630 60.977,258.012 60.477 C 257.819 60.320,257.549 59.926,257.414 59.602 C 257.278 59.277,256.998 58.916,256.792 58.798 C 256.341 58.540,247.135 58.415,246.560 58.658 M256.243 59.167 C 257.076 59.589,257.620 60.709,257.822 62.417 C 258.016 64.061,258.079 105.733,257.890 107.310 C 257.709 108.816,257.588 108.850,252.583 108.796 L 248.417 108.750 247.622 108.199 C 246.106 107.146,246.256 109.787,246.204 83.244 L 246.158 59.723 246.515 59.268 L 246.873 58.814 251.311 58.865 C 254.849 58.906,255.850 58.967,256.243 59.167 M165.906 67.171 C 163.453 67.478,160.000 70.108,160.000 71.669 C 160.000 71.771,159.816 72.243,159.592 72.719 C 158.738 74.529,158.450 79.116,159.166 79.500 C 159.830 79.855,175.072 79.713,175.523 79.347 C 176.743 78.358,175.299 69.323,173.822 68.701 C 173.758 68.674,173.277 68.394,172.752 68.078 C 171.248 67.172,168.649 66.827,165.906 67.171 M171.057 67.791 C 171.255 67.967,171.769 68.241,172.199 68.399 C 173.347 68.822,173.771 69.230,174.168 70.295 C 174.364 70.820,174.678 71.415,174.866 71.616 C 175.316 72.097,175.687 77.218,175.353 78.332 L 175.153 79.000 167.251 79.000 L 159.348 79.000 159.235 78.393 C 159.009 77.190,159.269 74.502,159.662 73.970 C 159.859 73.704,160.123 72.995,160.249 72.395 C 160.578 70.822,162.276 68.917,163.794 68.417 C 164.351 68.233,164.944 67.958,165.112 67.804 C 165.736 67.232,170.417 67.221,171.057 67.791 M215.167 68.073 C 212.904 68.333,211.873 68.586,211.417 68.995 C 211.233 69.159,210.890 69.396,210.654 69.521 C 210.008 69.866,209.082 70.980,208.592 72.004 C 208.352 72.506,208.035 73.136,207.888 73.404 C 207.156 74.738,206.372 82.414,206.653 85.500 C 207.433 94.067,208.577 96.432,212.500 97.588 C 215.413 98.447,220.423 97.572,222.486 95.845 L 223.335 95.134 223.293 81.877 L 223.250 68.619 222.788 68.274 C 222.200 67.836,218.156 67.729,215.167 68.073 M222.625 68.706 C 222.851 68.889,222.915 92.747,222.694 94.416 C 222.594 95.171,222.526 95.275,221.965 95.539 C 221.625 95.699,221.272 95.969,221.181 96.140 C 221.009 96.461,220.825 96.509,217.333 97.147 C 215.406 97.498,214.923 97.470,212.064 96.831 C 210.520 96.487,210.376 96.421,210.210 95.980 C 210.111 95.718,209.849 95.434,209.627 95.350 C 209.310 95.229,209.161 94.963,208.927 94.099 C 208.728 93.365,208.499 92.904,208.234 92.709 C 207.118 91.886,207.124 74.946,208.240 73.911 C 208.593 73.584,209.167 72.136,209.167 71.573 C 209.167 71.462,209.314 71.334,209.495 71.286 C 209.675 71.239,209.949 70.936,210.103 70.612 C 210.283 70.234,210.539 69.986,210.817 69.920 C 211.055 69.863,211.644 69.548,212.126 69.220 L 213.003 68.624 215.460 68.497 C 218.333 68.349,222.326 68.465,222.625 68.706 M107.896 79.425 C 107.365 80.234,107.324 97.199,107.850 98.285 L 108.215 99.038 113.732 98.949 C 124.763 98.772,126.661 97.766,127.574 91.617 C 128.059 88.351,127.458 83.901,126.363 82.658 C 123.886 79.848,121.712 79.250,113.302 79.061 L 108.209 78.948 107.896 79.425 M119.717 80.151 C 123.049 80.501,123.421 80.586,123.845 81.097 C 123.973 81.252,124.398 81.516,124.789 81.684 C 125.238 81.876,125.500 82.095,125.500 82.279 C 125.500 82.439,125.760 82.836,126.078 83.162 C 127.356 84.470,127.429 93.777,126.172 95.080 C 125.905 95.357,125.611 95.784,125.519 96.030 C 125.414 96.308,125.080 96.607,124.634 96.822 C 124.239 97.012,123.690 97.314,123.413 97.494 C 122.364 98.173,108.349 98.548,108.101 97.903 C 107.966 97.551,107.975 80.527,108.111 80.020 L 108.217 79.624 112.317 79.714 C 114.610 79.764,117.871 79.957,119.717 80.151 M399.167 130.684 C 399.167 130.787,399.045 130.822,398.893 130.764 C 398.165 130.484,397.577 131.178,397.314 132.629 C 397.219 133.154,396.969 133.883,396.760 134.250 C 396.550 134.617,396.249 135.313,396.091 135.797 C 395.933 136.281,395.633 136.881,395.426 137.130 C 395.218 137.379,394.958 137.861,394.847 138.200 C 394.737 138.539,394.464 139.085,394.242 139.413 C 394.019 139.741,393.715 140.251,393.566 140.546 C 393.417 140.842,393.086 141.308,392.831 141.583 C 391.378 143.151,390.455 144.014,389.967 144.266 C 389.664 144.422,389.192 144.719,388.917 144.927 C 388.642 145.134,387.967 145.431,387.417 145.586 C 386.867 145.741,386.117 146.038,385.750 146.247 C 385.383 146.456,384.521 146.717,383.833 146.828 C 383.146 146.939,382.181 147.211,381.690 147.431 C 381.198 147.652,380.335 147.907,379.773 147.998 C 378.269 148.242,19.232 148.229,17.911 147.985 C 17.370 147.885,16.653 147.663,16.317 147.492 C 15.982 147.321,15.192 147.051,14.562 146.893 C 12.263 146.315,10.564 145.354,9.083 143.793 C 7.205 141.813,6.734 141.272,6.494 140.816 C 6.378 140.596,6.113 140.212,5.905 139.961 C 5.696 139.710,5.364 139.073,5.167 138.544 C 4.969 138.016,4.711 137.471,4.592 137.333 C 4.473 137.196,4.216 136.633,4.021 136.083 C 3.825 135.533,3.478 134.708,3.249 134.250 C 3.020 133.792,2.719 133.004,2.580 132.500 C 2.248 131.293,2.134 131.137,1.540 131.087 C 1.265 131.063,0.948 130.987,0.835 130.918 C 0.665 130.812,0.678 139.547,0.857 145.291 C 0.863 145.496,0.928 145.628,1.000 145.583 C 1.073 145.538,1.176 145.618,1.231 145.760 C 1.293 145.921,1.261 145.975,1.147 145.904 C 1.022 145.827,1.004 145.917,1.088 146.187 C 1.242 146.682,1.530 146.878,1.717 146.616 C 1.816 146.477,1.836 146.492,1.784 146.667 C 1.742 146.804,1.624 146.898,1.521 146.875 C 1.418 146.852,1.333 146.917,1.333 147.019 C 1.333 147.122,1.468 147.170,1.633 147.127 C 1.823 147.078,1.945 147.147,1.965 147.316 C 1.983 147.463,2.017 147.733,2.041 147.917 C 2.065 148.111,1.996 148.233,1.875 148.208 C 1.591 148.151,1.614 148.249,1.949 148.521 C 2.192 148.718,2.211 148.716,2.087 148.500 C 1.984 148.322,2.039 148.334,2.277 148.542 C 2.460 148.703,2.671 148.778,2.744 148.709 C 2.818 148.640,2.800 148.735,2.704 148.921 C 2.525 149.266,3.171 150.107,3.423 149.855 C 3.480 149.797,3.513 149.825,3.494 149.917 C 3.376 150.503,3.535 150.962,3.917 151.136 C 4.227 151.278,4.333 151.278,4.333 151.137 C 4.333 151.033,4.481 151.082,4.663 151.246 C 4.844 151.410,4.957 151.601,4.915 151.670 C 4.872 151.739,4.949 151.888,5.085 152.002 C 5.222 152.115,5.334 152.330,5.336 152.479 C 5.338 152.666,5.378 152.689,5.465 152.551 C 5.769 152.073,7.291 152.683,7.417 153.333 C 7.500 153.768,7.784 154.008,8.079 153.895 C 8.253 153.828,9.308 154.655,9.208 154.781 C 9.185 154.810,9.215 154.827,9.273 154.819 C 9.332 154.811,9.429 154.885,9.490 154.984 C 9.589 155.145,10.265 155.292,11.042 155.322 C 11.218 155.329,11.333 155.465,11.333 155.667 C 11.333 156.000,11.444 156.000,195.917 156.000 C 380.389 156.000,380.500 156.000,380.500 155.667 C 380.500 155.365,380.618 155.331,381.750 155.313 C 383.184 155.289,383.180 155.289,383.458 155.113 C 383.577 155.037,383.667 155.056,383.667 155.157 C 383.667 155.404,384.123 155.378,384.215 155.125 C 384.276 154.958,384.336 154.958,384.512 155.125 C 384.808 155.404,385.000 155.388,385.000 155.083 C 385.000 154.781,385.273 154.751,385.390 155.042 C 385.466 155.231,385.518 155.029,385.568 154.350 C 385.586 154.097,385.760 154.054,387.202 153.952 C 387.726 153.915,388.284 153.779,388.443 153.650 C 388.690 153.450,388.711 153.450,388.590 153.651 C 388.494 153.810,388.510 153.847,388.641 153.766 C 388.747 153.701,388.833 153.547,388.833 153.425 C 388.833 153.303,388.965 153.214,389.125 153.227 C 389.308 153.241,389.408 153.141,389.394 152.958 C 389.377 152.754,389.502 152.659,389.810 152.641 C 390.052 152.627,390.325 152.598,390.417 152.577 C 390.508 152.556,390.757 152.530,390.968 152.519 C 391.180 152.509,391.307 152.425,391.250 152.333 C 391.193 152.242,391.231 152.167,391.334 152.167 C 391.437 152.167,391.497 151.998,391.469 151.792 C 391.425 151.476,391.504 151.408,391.968 151.364 C 392.271 151.335,392.555 151.216,392.600 151.100 C 392.644 150.985,392.846 150.905,393.049 150.922 C 393.507 150.962,393.841 150.714,393.727 150.418 C 393.680 150.295,393.768 150.000,393.923 149.763 C 394.078 149.527,394.156 149.333,394.097 149.333 C 394.037 149.333,394.069 149.183,394.167 149.000 C 394.368 148.623,394.830 148.564,395.144 148.875 C 395.313 149.043,395.320 148.992,395.178 148.615 C 395.066 148.319,395.062 148.185,395.167 148.250 C 395.315 148.341,395.415 147.990,395.349 147.613 C 395.336 147.537,395.402 147.523,395.497 147.582 C 395.592 147.640,395.714 147.571,395.769 147.427 C 395.824 147.284,396.030 147.167,396.226 147.166 C 396.544 147.166,396.588 147.064,396.622 146.229 C 396.643 145.713,396.736 145.200,396.829 145.089 C 396.921 144.977,396.957 144.846,396.908 144.797 C 396.859 144.748,396.939 144.662,397.085 144.606 C 397.239 144.547,397.308 144.573,397.249 144.669 C 397.193 144.759,397.226 144.833,397.323 144.833 C 397.421 144.833,397.500 144.683,397.500 144.500 C 397.500 144.317,397.596 144.167,397.712 144.167 C 397.875 144.167,397.924 143.579,397.921 141.643 C 397.917 139.229,397.932 139.110,398.282 138.881 C 398.488 138.746,398.607 138.538,398.555 138.404 C 398.505 138.274,398.547 138.167,398.649 138.167 C 398.750 138.167,398.833 138.242,398.833 138.333 C 398.833 138.425,398.923 138.500,399.033 138.500 C 399.189 138.500,399.189 138.456,399.033 138.300 C 398.774 138.041,398.778 137.833,399.042 137.833 C 399.200 137.833,399.264 136.957,399.309 134.167 C 399.342 132.150,399.323 130.500,399.268 130.500 C 399.212 130.500,399.167 130.583,399.167 130.684 M393.278 150.129 C 393.631 150.354,393.593 150.703,393.208 150.768 C 392.903 150.820,392.833 150.754,392.833 150.416 C 392.833 149.986,392.943 149.916,393.278 150.129 " stroke="none" fill="#8ca4d4" fill-rule="evenodd"></path><path id="path3" d="M390.077 1.250 C 390.148 1.433,390.210 1.662,390.214 1.758 C 390.219 1.855,390.369 1.944,390.549 1.958 C 390.853 1.981,390.848 1.952,390.479 1.533 C 390.261 1.286,390.053 1.046,390.015 1.000 C 389.978 0.954,390.005 1.067,390.077 1.250 M392.901 2.757 C 392.944 3.056,393.114 3.223,393.419 3.268 C 393.604 3.295,393.624 3.231,393.502 3.005 C 393.299 2.624,392.854 2.441,392.901 2.757 M1.344 13.237 C 1.230 13.375,1.214 13.510,1.306 13.567 C 1.392 13.620,1.549 13.558,1.656 13.430 C 1.770 13.292,1.786 13.157,1.694 13.100 C 1.608 13.047,1.451 13.109,1.344 13.237 M249.366 36.669 C 244.484 37.691,243.266 45.372,247.584 47.898 C 251.179 50.001,257.596 48.516,258.498 45.372 C 259.620 41.462,258.452 38.488,255.167 36.890 C 254.491 36.561,250.590 36.412,249.366 36.669 M254.183 37.191 C 254.495 37.297,254.882 37.519,255.042 37.685 C 255.203 37.851,255.635 38.068,256.001 38.167 C 256.424 38.281,256.770 38.512,256.947 38.798 C 257.101 39.047,257.412 39.453,257.639 39.702 C 258.443 40.586,258.368 44.875,257.531 45.802 C 257.285 46.075,256.949 46.494,256.784 46.733 C 256.619 46.971,256.351 47.167,256.187 47.167 C 256.024 47.167,255.522 47.410,255.073 47.708 L 254.255 48.250 252.002 48.250 C 250.178 48.250,249.655 48.196,249.250 47.964 C 248.975 47.806,248.412 47.516,248.000 47.318 C 247.052 46.864,246.667 46.528,246.667 46.154 C 246.667 45.992,246.488 45.646,246.269 45.386 C 245.408 44.363,245.200 41.441,245.917 40.434 C 246.100 40.176,246.438 39.623,246.667 39.204 C 246.983 38.627,247.236 38.391,247.716 38.228 C 248.063 38.109,248.578 37.848,248.860 37.648 C 249.743 37.019,252.878 36.750,254.183 37.191 M110.583 40.945 C 110.217 40.976,109.017 41.113,107.917 41.248 C 106.817 41.384,104.979 41.573,103.833 41.668 C 99.446 42.032,96.654 42.609,96.040 43.278 L 95.664 43.688 95.707 75.254 L 95.750 106.821 96.580 107.663 C 97.770 108.871,97.331 108.832,109.583 108.830 C 120.428 108.828,123.014 108.729,124.500 108.260 C 124.912 108.129,125.587 107.975,126.000 107.916 C 127.097 107.761,129.128 107.198,129.550 106.933 C 129.752 106.807,130.213 106.610,130.575 106.495 C 131.645 106.155,133.913 104.566,134.954 103.427 C 135.117 103.249,135.494 102.836,135.793 102.510 C 136.673 101.550,137.799 99.748,138.005 98.971 C 138.111 98.575,138.338 98.019,138.511 97.737 C 139.897 95.473,139.961 85.455,138.606 82.840 C 138.391 82.424,138.087 81.694,137.930 81.218 C 137.774 80.742,137.511 80.179,137.347 79.968 C 137.182 79.756,136.914 79.321,136.751 79.000 C 136.310 78.131,134.367 76.232,133.417 75.741 C 132.958 75.504,132.076 75.030,131.456 74.687 L 130.328 74.064 130.956 73.767 C 132.159 73.197,135.000 70.798,135.000 70.351 C 135.000 70.271,135.305 69.747,135.679 69.188 C 136.069 68.603,136.502 67.657,136.698 66.961 C 136.885 66.295,137.118 65.600,137.215 65.417 C 138.169 63.612,138.209 55.187,137.271 53.374 C 137.140 53.120,136.903 52.463,136.745 51.914 C 136.459 50.920,136.056 49.992,135.840 49.833 C 135.778 49.788,135.566 49.412,135.368 48.999 C 134.666 47.528,131.739 44.590,130.623 44.236 C 130.445 44.180,130.033 43.953,129.708 43.733 C 129.384 43.512,128.773 43.227,128.351 43.098 C 127.929 42.970,127.171 42.677,126.667 42.447 C 125.867 42.082,123.767 41.641,119.750 40.992 C 118.954 40.864,111.979 40.828,110.583 40.945 M120.333 42.003 C 124.262 42.266,124.592 42.319,125.555 42.833 C 126.046 43.094,126.740 43.357,127.098 43.417 C 128.004 43.568,128.690 43.834,129.091 44.191 C 129.278 44.357,129.704 44.589,130.037 44.705 C 131.228 45.121,135.000 48.775,135.000 49.513 C 135.000 49.925,135.261 50.457,135.697 50.938 C 135.901 51.162,136.108 51.808,136.258 52.688 C 136.390 53.455,136.704 54.646,136.957 55.333 C 137.605 57.096,137.658 61.957,137.042 63.130 C 136.835 63.523,136.556 64.460,136.421 65.214 C 136.091 67.061,135.878 67.756,135.563 68.017 C 135.417 68.138,135.122 68.636,134.906 69.123 C 134.690 69.611,134.290 70.198,134.016 70.429 C 133.742 70.659,133.471 70.996,133.413 71.177 C 133.356 71.358,133.033 71.650,132.696 71.826 C 132.359 72.002,131.858 72.345,131.583 72.588 C 131.308 72.830,130.858 73.123,130.583 73.239 C 129.038 73.887,129.587 74.638,132.667 76.095 C 133.721 76.594,136.333 79.112,136.333 79.630 C 136.333 79.807,136.509 80.141,136.724 80.373 C 137.185 80.870,137.581 81.807,137.744 82.787 C 137.808 83.174,138.002 83.670,138.175 83.889 C 138.754 84.626,138.878 85.744,138.884 90.333 C 138.891 94.904,138.814 95.560,138.156 96.500 C 137.996 96.729,137.777 97.329,137.670 97.833 C 137.408 99.062,137.183 99.625,136.908 99.730 C 136.783 99.778,136.480 100.213,136.236 100.695 C 135.991 101.178,135.594 101.779,135.354 102.032 C 133.680 103.792,133.131 104.261,132.176 104.745 C 131.704 104.985,131.278 105.283,131.230 105.408 C 131.132 105.664,130.683 105.858,129.313 106.237 C 128.798 106.380,128.286 106.606,128.176 106.739 C 127.938 107.026,126.761 107.269,124.917 107.413 C 124.183 107.471,122.458 107.663,121.083 107.841 C 117.519 108.303,99.718 108.337,98.506 107.885 C 97.481 107.502,96.750 106.929,96.432 106.258 C 95.998 105.345,96.029 43.919,96.463 43.687 C 96.626 43.599,97.356 43.445,98.087 43.343 C 98.817 43.242,99.947 42.975,100.598 42.750 C 101.632 42.393,102.274 42.318,105.682 42.156 C 115.937 41.666,115.396 41.672,120.333 42.003 M109.862 50.011 C 108.437 50.185,107.566 50.621,107.042 51.422 L 106.667 51.995 106.667 60.387 L 106.667 68.778 107.231 69.431 L 107.795 70.083 112.189 70.136 C 115.362 70.175,117.325 70.115,119.250 69.921 C 122.709 69.572,122.718 69.570,123.504 68.913 C 123.873 68.605,124.316 68.308,124.490 68.253 C 124.663 68.198,124.883 67.931,124.977 67.660 C 125.072 67.389,125.226 67.167,125.321 67.167 C 125.628 67.167,125.997 66.411,126.181 65.404 C 126.281 64.861,126.524 64.154,126.723 63.833 C 127.224 63.023,127.276 57.530,126.790 56.788 C 126.629 56.542,126.380 55.832,126.237 55.212 C 126.063 54.455,125.824 53.919,125.513 53.583 C 125.257 53.308,125.004 52.956,124.950 52.801 C 124.896 52.646,124.641 52.387,124.384 52.225 C 124.127 52.064,123.679 51.730,123.389 51.483 C 123.033 51.180,122.574 50.997,121.973 50.916 C 121.483 50.850,120.671 50.599,120.167 50.357 C 119.159 49.873,112.753 49.658,109.862 50.011 M117.857 50.842 C 120.509 51.112,122.427 51.579,123.115 52.121 C 125.322 53.860,125.773 54.824,126.174 58.659 C 126.415 60.977,125.779 65.937,125.190 66.324 C 125.113 66.375,124.858 66.722,124.624 67.096 C 123.903 68.248,121.932 69.105,119.500 69.325 C 115.638 69.675,108.332 69.557,107.886 69.138 L 107.500 68.775 107.500 60.304 C 107.500 50.709,107.414 51.292,108.863 51.090 C 111.541 50.717,115.545 50.607,117.857 50.842 M164.597 57.839 C 163.871 57.908,162.859 58.080,162.347 58.222 C 161.835 58.364,160.869 58.603,160.200 58.753 C 159.069 59.007,156.278 60.291,155.560 60.888 C 154.268 61.962,152.078 64.196,151.814 64.708 C 151.638 65.052,151.425 65.333,151.341 65.333 C 151.110 65.333,149.729 68.230,149.156 69.917 C 148.294 72.456,148.167 72.998,147.811 75.667 C 147.622 77.087,147.405 78.662,147.331 79.167 C 147.144 80.426,147.143 87.337,147.329 88.667 C 147.413 89.263,147.636 90.875,147.826 92.250 C 148.177 94.796,148.559 96.583,148.820 96.905 C 148.900 97.003,149.131 97.642,149.333 98.324 C 149.711 99.600,151.082 102.333,151.344 102.333 C 151.425 102.333,151.613 102.577,151.761 102.875 C 152.070 103.495,154.690 106.077,155.370 106.433 C 155.620 106.564,156.100 106.857,156.437 107.086 C 156.773 107.315,157.394 107.607,157.816 107.735 C 158.238 107.863,159.008 108.165,159.527 108.406 C 160.156 108.698,161.184 108.950,162.610 109.160 C 163.787 109.334,165.237 109.556,165.833 109.653 C 167.397 109.909,172.190 109.874,174.286 109.590 C 175.275 109.456,176.857 109.260,177.802 109.155 C 179.827 108.928,181.756 108.431,184.381 107.460 C 185.076 107.203,185.221 106.768,185.302 104.705 C 185.502 99.606,184.521 98.940,177.917 99.690 C 173.204 100.225,165.699 99.898,163.949 99.082 C 161.611 97.991,160.712 97.120,159.856 95.116 C 158.835 92.727,158.401 89.066,159.072 88.509 C 159.206 88.398,163.694 88.324,172.026 88.295 L 184.776 88.250 185.374 87.794 C 187.129 86.455,187.356 71.121,185.654 68.913 C 185.581 68.819,185.369 68.188,185.181 67.510 C 184.993 66.832,184.691 66.120,184.511 65.928 C 184.330 65.736,184.058 65.280,183.905 64.914 C 183.753 64.549,183.393 64.002,183.106 63.698 C 181.706 62.220,180.876 61.446,180.458 61.229 C 180.206 61.099,180.000 60.915,180.000 60.821 C 180.000 60.728,179.644 60.484,179.208 60.279 C 178.773 60.075,178.079 59.712,177.667 59.473 C 177.254 59.234,176.354 58.913,175.667 58.760 C 174.979 58.606,174.042 58.372,173.583 58.239 C 171.844 57.735,167.656 57.548,164.597 57.839 M289.680 58.003 C 289.092 58.085,288.500 58.195,288.366 58.247 C 288.231 58.298,287.465 58.484,286.664 58.658 C 284.669 59.094,282.303 60.350,280.609 61.872 C 280.228 62.214,279.645 62.674,279.312 62.894 L 278.708 63.295 278.535 62.689 C 278.439 62.356,278.310 61.760,278.248 61.366 C 278.111 60.501,277.145 59.480,276.078 59.072 C 274.984 58.655,268.681 58.784,268.184 59.234 L 267.833 59.552 267.833 82.848 C 267.833 97.534,267.893 106.303,267.995 106.571 C 268.730 108.504,269.726 108.831,274.871 108.832 L 278.992 108.833 279.288 108.382 C 279.565 107.960,279.589 106.804,279.667 90.007 C 279.753 71.442,279.742 71.702,280.472 71.238 C 280.717 71.083,281.292 70.675,281.750 70.331 C 282.208 69.987,282.770 69.648,282.998 69.579 C 283.226 69.509,283.676 69.279,283.998 69.066 C 285.307 68.202,290.264 67.810,292.446 68.398 C 293.498 68.681,294.728 69.663,295.182 70.583 C 295.363 70.950,295.622 71.450,295.758 71.696 C 296.256 72.591,296.323 74.750,296.328 90.018 C 296.334 108.158,296.235 106.720,297.556 107.869 L 298.569 108.750 303.017 108.750 C 307.186 108.750,307.487 108.730,307.822 108.426 L 308.180 108.103 308.132 89.760 C 308.095 75.894,308.034 71.307,307.882 70.967 C 307.772 70.720,307.493 69.679,307.262 68.655 C 307.031 67.631,306.685 66.526,306.493 66.200 C 306.300 65.874,306.011 65.264,305.850 64.845 C 305.274 63.344,303.063 60.801,301.750 60.127 C 301.383 59.939,300.858 59.614,300.583 59.405 C 300.308 59.196,299.558 58.902,298.917 58.752 C 298.275 58.603,297.375 58.365,296.917 58.224 C 295.920 57.917,291.302 57.776,289.680 58.003 M215.167 58.336 C 214.662 58.407,213.313 58.551,212.167 58.656 C 209.913 58.864,208.527 59.140,207.746 59.539 C 207.473 59.678,206.832 59.912,206.320 60.059 C 205.809 60.206,205.110 60.516,204.768 60.749 C 204.426 60.981,203.905 61.272,203.611 61.394 C 202.562 61.833,200.248 63.973,199.353 65.333 C 199.021 65.837,198.695 66.275,198.627 66.305 C 198.329 66.438,196.790 69.874,196.487 71.083 C 196.303 71.817,196.043 72.702,195.908 73.050 C 194.774 75.977,194.724 90.138,195.835 93.500 C 196.002 94.004,196.295 95.081,196.487 95.892 C 196.678 96.704,196.980 97.571,197.156 97.819 C 197.333 98.066,197.618 98.640,197.790 99.093 C 197.963 99.546,198.379 100.292,198.714 100.750 C 199.649 102.027,201.045 103.667,201.197 103.667 C 201.271 103.667,201.614 103.917,201.958 104.222 C 202.500 104.703,203.307 105.200,205.000 106.094 C 205.414 106.313,207.750 106.885,209.500 107.197 C 212.336 107.702,219.118 106.881,220.490 105.867 C 222.911 104.077,223.418 104.457,223.285 107.955 C 223.198 110.214,222.957 111.678,222.551 112.404 C 222.271 112.904,220.966 114.167,220.729 114.167 C 220.603 114.167,220.345 114.322,220.155 114.511 C 219.505 115.162,215.789 115.671,211.774 115.660 C 209.517 115.655,208.666 115.608,202.545 115.160 C 199.331 114.925,198.765 114.994,198.417 115.666 C 198.121 116.238,198.073 119.477,198.343 120.647 C 198.499 121.323,198.678 121.627,199.583 122.759 C 200.355 123.723,203.282 124.535,207.679 125.007 C 209.460 125.198,211.554 125.430,212.333 125.522 C 215.322 125.877,222.696 124.991,224.695 124.037 C 225.275 123.761,226.033 123.445,226.379 123.336 C 226.725 123.227,227.215 122.965,227.466 122.753 C 227.718 122.541,228.244 122.201,228.634 121.998 C 229.506 121.543,231.764 119.108,232.341 118.000 C 232.574 117.552,232.887 117.050,233.037 116.884 C 233.186 116.719,233.474 116.058,233.675 115.417 C 233.877 114.775,234.239 113.688,234.479 113.000 L 234.917 111.750 234.930 90.384 C 234.945 66.555,234.833 68.500,236.198 68.500 C 237.012 68.500,237.635 68.289,237.872 67.933 C 238.212 67.425,238.004 62.433,237.608 61.583 C 236.805 59.860,234.159 59.103,227.417 58.669 C 225.858 58.569,223.896 58.415,223.055 58.327 C 221.287 58.142,216.509 58.147,215.167 58.336 M171.176 58.649 C 172.133 58.823,173.404 59.017,174.000 59.080 C 175.432 59.231,176.307 59.486,176.917 59.928 C 177.192 60.128,177.798 60.415,178.265 60.567 C 178.731 60.718,179.326 61.065,179.588 61.338 C 179.849 61.610,180.139 61.833,180.233 61.833 C 180.481 61.833,183.333 64.866,183.333 65.129 C 183.333 65.437,183.807 66.329,184.257 66.868 C 184.506 67.167,184.700 67.733,184.830 68.535 C 184.937 69.203,185.217 70.152,185.451 70.644 C 186.040 71.879,186.300 76.668,186.059 81.866 C 185.888 85.573,185.722 86.304,184.793 87.458 C 184.662 87.622,181.871 87.667,171.855 87.667 C 156.910 87.667,157.906 87.554,157.933 89.250 C 157.942 89.800,158.065 90.737,158.207 91.333 C 158.348 91.929,158.539 93.004,158.631 93.722 C 158.764 94.762,158.885 95.119,159.228 95.477 C 159.465 95.724,159.747 96.186,159.855 96.505 C 160.055 97.097,161.503 98.667,161.848 98.667 C 161.953 98.667,162.294 98.891,162.606 99.164 C 162.918 99.438,163.340 99.694,163.545 99.733 C 165.333 100.077,166.031 100.252,166.750 100.539 C 168.411 101.200,176.104 101.109,178.000 100.406 C 178.497 100.222,179.496 100.099,180.960 100.042 L 183.171 99.956 184.002 100.788 L 184.833 101.619 184.833 103.486 C 184.833 106.795,184.700 107.010,182.447 107.345 C 181.789 107.443,180.784 107.744,180.215 108.014 C 177.777 109.168,162.851 109.172,160.651 108.018 C 160.117 107.738,159.214 107.434,158.646 107.343 C 157.930 107.228,157.479 107.050,157.181 106.765 C 156.944 106.538,156.435 106.212,156.051 106.041 C 155.666 105.869,155.141 105.523,154.884 105.273 C 154.627 105.023,153.948 104.365,153.375 103.811 C 152.802 103.257,152.333 102.721,152.333 102.618 C 152.333 102.516,152.120 102.204,151.860 101.925 C 151.600 101.645,151.217 101.009,151.009 100.511 C 150.801 100.012,150.493 99.412,150.324 99.177 C 150.156 98.942,149.897 98.150,149.750 97.417 C 149.603 96.683,149.286 95.671,149.046 95.167 C 147.889 92.737,147.852 75.398,148.998 72.891 C 149.256 72.328,149.598 71.203,149.759 70.391 C 149.937 69.491,150.196 68.722,150.424 68.417 C 150.630 68.142,150.937 67.516,151.107 67.026 C 151.277 66.537,151.548 66.065,151.709 65.979 C 151.869 65.892,152.111 65.557,152.246 65.234 C 152.518 64.582,155.377 61.667,155.743 61.667 C 155.871 61.667,156.114 61.491,156.283 61.276 C 156.452 61.061,156.979 60.756,157.455 60.598 C 157.930 60.440,158.566 60.144,158.868 59.939 C 159.542 59.481,160.444 59.246,162.500 58.991 C 163.371 58.882,164.533 58.696,165.083 58.577 C 166.567 58.255,169.174 58.286,171.176 58.649 M296.000 58.919 C 298.684 59.249,299.845 59.504,299.954 59.788 C 300.003 59.914,300.464 60.232,300.979 60.495 C 302.622 61.333,305.095 64.221,305.478 65.750 C 305.593 66.208,305.826 66.733,305.995 66.917 C 307.109 68.121,307.333 72.161,307.333 91.000 L 307.333 107.141 306.902 107.654 L 306.470 108.167 303.199 108.167 C 298.987 108.167,297.996 107.854,297.304 106.310 C 297.017 105.668,297.000 104.801,297.000 90.857 C 296.999 75.055,296.869 71.786,296.204 70.863 C 296.046 70.644,295.761 70.210,295.571 69.898 C 294.942 68.868,294.028 68.246,292.667 67.920 C 291.979 67.755,291.204 67.513,290.944 67.382 C 290.325 67.070,287.848 67.174,286.879 67.553 C 286.492 67.705,285.629 67.917,284.963 68.025 C 284.062 68.170,283.614 68.338,283.221 68.678 C 282.930 68.929,282.473 69.183,282.207 69.241 C 281.595 69.376,279.525 71.080,279.320 71.618 C 279.230 71.855,279.167 79.221,279.167 89.450 C 279.167 102.371,279.116 107.048,278.970 107.535 L 278.773 108.192 274.845 108.136 C 271.049 108.082,270.889 108.066,270.083 107.665 C 268.631 106.942,268.756 109.172,268.703 82.967 L 268.657 59.684 269.003 59.498 C 269.721 59.114,275.400 59.355,275.947 59.793 C 276.205 60.000,276.688 60.351,277.019 60.573 C 277.586 60.952,277.635 61.056,277.830 62.310 C 277.985 63.309,278.133 63.733,278.418 64.001 L 278.799 64.359 279.409 63.804 C 279.745 63.499,280.334 62.940,280.718 62.560 C 281.102 62.181,281.586 61.820,281.793 61.757 C 281.999 61.695,282.387 61.460,282.653 61.236 C 282.920 61.011,283.550 60.645,284.054 60.423 C 284.557 60.200,285.016 59.942,285.074 59.849 C 285.363 59.381,291.727 58.417,293.333 58.598 C 293.654 58.634,294.854 58.778,296.000 58.919 M246.515 59.268 L 246.158 59.723 246.204 83.244 C 246.256 109.787,246.106 107.146,247.622 108.199 L 248.417 108.750 252.583 108.796 C 257.588 108.850,257.709 108.816,257.890 107.310 C 258.079 105.733,258.016 64.061,257.822 62.417 C 257.431 59.110,257.106 58.932,251.311 58.865 L 246.873 58.814 246.515 59.268 M229.208 59.332 C 230.102 59.420,231.052 59.605,231.320 59.743 C 231.588 59.882,232.718 60.141,233.833 60.320 C 237.099 60.844,237.333 61.161,237.333 65.056 C 237.333 68.007,237.378 67.916,235.869 68.046 C 233.907 68.215,233.697 68.688,234.147 71.917 C 234.363 73.471,234.403 76.567,234.409 92.250 L 234.417 110.750 234.027 111.583 C 233.813 112.042,233.534 113.043,233.407 113.809 C 233.281 114.575,233.025 115.437,232.839 115.726 C 232.653 116.014,232.340 116.585,232.144 116.994 C 231.459 118.419,228.240 121.833,227.582 121.833 C 227.451 121.833,227.099 122.044,226.797 122.302 C 226.486 122.568,225.783 122.896,225.167 123.062 C 224.571 123.223,223.769 123.538,223.386 123.761 C 221.641 124.779,207.372 124.936,204.667 123.967 C 204.162 123.787,203.300 123.524,202.750 123.384 C 199.596 122.578,199.292 122.169,199.196 118.593 C 199.128 116.059,199.131 116.031,199.511 115.828 C 200.125 115.499,204.084 115.718,205.917 116.182 C 208.186 116.757,215.056 116.773,216.629 116.207 C 217.204 116.000,218.202 115.756,218.847 115.665 C 220.733 115.397,222.799 113.865,223.179 112.452 C 223.281 112.077,223.562 111.391,223.804 110.927 C 224.407 109.774,224.599 104.570,224.061 103.975 C 223.616 103.484,222.569 103.630,221.727 104.300 C 221.373 104.582,220.883 104.861,220.637 104.921 C 220.392 104.981,220.064 105.170,219.909 105.342 C 218.572 106.819,206.766 106.811,205.083 105.333 C 204.900 105.172,204.384 104.881,203.937 104.686 C 203.489 104.492,202.841 104.078,202.497 103.767 C 202.152 103.456,201.712 103.151,201.518 103.089 C 201.325 103.028,201.167 102.898,201.167 102.800 C 201.167 102.703,200.913 102.383,200.603 102.091 C 200.293 101.799,199.910 101.302,199.751 100.988 C 199.592 100.674,199.242 100.184,198.973 99.900 C 198.691 99.602,198.385 99.011,198.251 98.504 C 198.124 98.021,197.859 97.454,197.662 97.245 C 197.259 96.816,197.091 96.202,196.820 94.167 C 196.716 93.388,196.491 92.412,196.320 92.000 C 195.734 90.589,195.675 89.798,195.671 83.294 L 195.667 76.838 196.150 75.377 C 196.416 74.574,196.721 73.317,196.827 72.583 C 197.064 70.937,197.288 70.182,197.666 69.750 C 197.827 69.567,198.121 68.917,198.321 68.306 C 198.521 67.695,198.789 67.155,198.918 67.106 C 199.046 67.057,199.303 66.720,199.488 66.358 C 199.973 65.406,201.455 63.768,202.390 63.149 C 202.834 62.855,203.234 62.518,203.280 62.399 C 203.325 62.280,203.712 62.055,204.140 61.897 C 204.567 61.740,205.104 61.445,205.333 61.242 C 205.786 60.841,206.298 60.656,208.071 60.258 C 208.706 60.116,209.343 59.895,209.488 59.769 C 209.913 59.397,210.424 59.303,212.816 59.160 C 215.591 58.994,226.974 59.114,229.208 59.332 M255.777 59.773 C 257.112 60.638,257.000 58.403,257.000 84.073 C 257.000 103.889,256.967 107.091,256.755 107.598 L 256.509 108.185 252.880 108.134 C 248.854 108.078,247.368 107.719,246.985 106.709 C 246.811 106.253,246.772 59.617,246.944 59.444 C 247.006 59.383,248.866 59.333,251.078 59.333 L 255.100 59.333 255.777 59.773 M165.495 66.656 C 163.910 66.822,163.518 66.943,163.000 67.427 C 162.771 67.641,162.302 67.933,161.958 68.077 C 161.615 68.220,161.333 68.409,161.333 68.496 C 161.333 68.583,161.048 68.938,160.698 69.285 C 160.349 69.633,159.920 70.254,159.745 70.667 C 159.571 71.079,159.285 71.616,159.111 71.859 C 158.754 72.358,158.518 73.388,158.507 74.500 C 158.503 74.912,158.308 75.950,158.074 76.805 C 157.532 78.780,157.574 79.288,158.316 79.786 L 158.883 80.167 167.197 80.167 C 176.052 80.167,176.403 80.137,176.820 79.358 C 177.175 78.695,176.928 74.433,176.505 73.922 C 176.427 73.828,176.211 72.951,176.026 71.975 C 175.742 70.474,175.598 70.079,175.095 69.421 C 174.768 68.992,174.500 68.574,174.500 68.492 C 174.500 68.409,174.256 68.219,173.958 68.069 C 173.660 67.918,173.219 67.610,172.977 67.384 C 172.248 66.703,168.520 66.341,165.495 66.656 M216.552 67.016 C 215.221 67.087,214.565 67.195,214.260 67.394 C 214.026 67.548,213.253 67.792,212.542 67.936 C 211.831 68.080,211.096 68.295,210.908 68.415 C 209.999 68.991,208.598 70.467,208.301 71.161 C 208.123 71.577,207.822 72.083,207.631 72.286 C 207.395 72.538,207.189 73.175,206.981 74.286 C 206.814 75.183,206.566 76.109,206.431 76.344 C 205.606 77.774,205.606 88.893,206.431 90.323 C 206.566 90.558,206.814 91.485,206.982 92.383 C 207.212 93.616,207.388 94.126,207.700 94.466 C 207.927 94.714,208.210 95.162,208.329 95.463 C 208.565 96.062,210.059 97.500,210.446 97.500 C 210.580 97.500,210.957 97.705,211.285 97.955 C 212.333 98.754,219.520 98.698,219.974 97.887 C 220.050 97.749,220.620 97.496,221.240 97.324 C 222.193 97.060,222.516 96.865,223.350 96.054 L 224.333 95.096 224.333 81.839 C 224.332 65.636,224.707 67.155,220.667 67.002 C 219.429 66.955,217.577 66.961,216.552 67.016 M171.191 67.345 C 171.525 67.432,172.228 67.762,172.752 68.078 C 173.277 68.394,173.758 68.674,173.822 68.701 C 175.299 69.323,176.743 78.358,175.523 79.347 C 175.072 79.713,159.830 79.855,159.166 79.500 C 158.450 79.116,158.738 74.529,159.592 72.719 C 159.816 72.243,160.000 71.771,160.000 71.669 C 160.000 70.108,163.453 67.478,165.906 67.171 C 167.234 67.004,170.272 67.104,171.191 67.345 M222.788 68.274 L 223.250 68.619 223.293 81.877 L 223.335 95.134 222.486 95.845 C 220.423 97.572,215.413 98.447,212.500 97.588 C 208.577 96.432,207.433 94.067,206.653 85.500 C 206.372 82.414,207.156 74.738,207.888 73.404 C 208.035 73.136,208.352 72.506,208.592 72.004 C 209.082 70.980,210.008 69.866,210.654 69.521 C 210.890 69.396,211.233 69.159,211.417 68.995 C 212.558 67.974,221.616 67.400,222.788 68.274 M107.410 78.880 C 106.728 79.467,106.682 80.107,106.674 89.058 C 106.668 96.150,106.705 97.498,106.930 98.271 C 107.361 99.755,107.009 99.692,114.526 99.633 L 121.083 99.581 122.000 99.126 C 122.504 98.875,123.067 98.666,123.250 98.661 C 123.849 98.645,124.860 98.202,125.109 97.847 C 125.243 97.656,125.456 97.500,125.584 97.500 C 126.036 97.500,127.267 95.747,127.568 94.675 C 127.726 94.110,128.020 93.370,128.220 93.032 C 128.815 92.024,128.761 86.517,128.142 85.083 C 127.904 84.533,127.587 83.708,127.437 83.250 C 126.978 81.850,125.155 80.155,123.675 79.752 C 123.166 79.614,122.469 79.349,122.126 79.163 C 120.670 78.374,108.275 78.136,107.410 78.880 M120.068 79.522 C 124.144 80.367,124.499 80.544,126.363 82.658 C 127.458 83.901,128.059 88.351,127.574 91.617 C 126.661 97.766,124.763 98.772,113.732 98.949 L 108.215 99.038 107.850 98.285 C 107.324 97.199,107.365 80.234,107.896 79.425 L 108.209 78.948 113.302 79.061 C 117.496 79.155,118.690 79.237,120.068 79.522 M399.209 137.083 C 399.211 137.450,399.245 137.580,399.285 137.373 C 399.324 137.166,399.323 136.866,399.281 136.706 C 399.239 136.547,399.207 136.717,399.209 137.083 M398.865 138.012 C 398.898 138.111,398.996 138.192,399.083 138.192 C 399.170 138.192,399.269 138.111,399.301 138.012 C 399.334 137.914,399.236 137.833,399.083 137.833 C 398.931 137.833,398.832 137.914,398.865 138.012 M398.534 138.397 C 398.561 138.523,398.407 138.770,398.191 138.945 C 397.844 139.227,397.829 139.289,398.056 139.477 C 398.271 139.655,398.395 139.611,398.823 139.202 C 399.393 138.657,399.451 138.500,399.083 138.500 C 398.946 138.500,398.833 138.425,398.833 138.333 C 398.833 138.242,398.755 138.167,398.659 138.167 C 398.564 138.167,398.507 138.270,398.534 138.397 M397.500 144.500 C 397.500 144.683,397.421 144.833,397.323 144.833 C 397.226 144.833,397.193 144.759,397.249 144.669 C 397.307 144.574,397.241 144.546,397.093 144.603 C 396.951 144.657,396.874 144.764,396.920 144.839 C 396.967 144.915,396.929 145.024,396.836 145.082 C 396.612 145.220,396.618 145.833,396.843 145.833 C 396.940 145.833,396.979 145.767,396.928 145.685 C 396.878 145.604,396.967 145.548,397.127 145.560 C 397.307 145.575,397.408 145.474,397.394 145.293 C 397.381 145.134,397.423 145.036,397.486 145.075 C 397.550 145.114,397.685 144.926,397.786 144.656 C 397.936 144.258,397.927 144.167,397.736 144.167 C 397.606 144.167,397.500 144.317,397.500 144.500 M0.684 144.917 C 0.671 145.619,0.785 145.891,1.119 145.956 C 1.236 145.979,1.281 145.891,1.227 145.749 C 1.174 145.613,1.052 145.551,0.954 145.612 C 0.845 145.679,0.815 145.620,0.878 145.458 C 0.933 145.313,0.915 144.982,0.837 144.722 C 0.703 144.275,0.695 144.285,0.684 144.917 M0.833 146.593 C 0.833 146.861,0.902 146.977,1.017 146.906 C 1.135 146.833,1.128 146.928,0.996 147.175 C 0.824 147.496,0.836 147.590,1.075 147.764 C 1.231 147.879,1.376 148.087,1.396 148.228 C 1.417 148.369,1.579 148.656,1.757 148.867 C 2.070 149.238,2.066 149.237,1.629 148.851 C 1.380 148.631,1.217 148.387,1.265 148.309 C 1.313 148.231,1.274 148.167,1.177 148.167 C 0.854 148.167,0.993 148.450,1.678 149.187 C 2.052 149.588,2.310 149.823,2.252 149.708 C 2.194 149.594,2.226 149.500,2.323 149.500 C 2.421 149.500,2.500 149.579,2.500 149.677 C 2.500 149.774,2.583 149.801,2.685 149.738 C 2.787 149.675,2.936 149.727,3.016 149.854 C 3.116 150.011,3.162 150.020,3.164 149.881 C 3.166 149.770,3.016 149.598,2.831 149.499 C 2.547 149.347,2.525 149.263,2.687 148.951 C 2.792 148.749,2.818 148.640,2.744 148.709 C 2.671 148.778,2.460 148.703,2.277 148.542 C 2.039 148.334,1.984 148.322,2.087 148.500 C 2.211 148.716,2.192 148.718,1.949 148.521 C 1.614 148.249,1.591 148.151,1.875 148.208 C 1.996 148.233,2.065 148.111,2.041 147.917 C 2.017 147.733,1.983 147.463,1.965 147.316 C 1.945 147.147,1.823 147.078,1.633 147.127 C 1.468 147.170,1.333 147.122,1.333 147.019 C 1.333 146.917,1.418 146.852,1.521 146.875 C 1.624 146.898,1.731 146.821,1.758 146.704 C 1.786 146.587,1.772 146.564,1.727 146.653 C 1.612 146.881,1.167 146.679,1.167 146.399 C 1.167 146.271,1.092 146.167,1.000 146.167 C 0.908 146.167,0.833 146.359,0.833 146.593 M395.833 147.362 C 395.833 147.469,395.703 147.713,395.544 147.904 C 395.385 148.094,395.516 148.025,395.835 147.750 C 396.154 147.475,396.447 147.231,396.485 147.208 C 396.524 147.185,396.393 147.167,396.194 147.167 C 395.996 147.167,395.833 147.255,395.833 147.362 M394.250 148.833 C 394.194 148.924,394.121 149.130,394.088 149.291 C 394.055 149.452,393.979 149.733,393.918 149.917 L 393.808 150.250 394.010 149.917 C 394.121 149.733,394.403 149.377,394.637 149.125 C 395.050 148.680,395.052 148.667,394.708 148.667 C 394.513 148.667,394.307 148.741,394.250 148.833 M392.879 150.325 C 392.897 150.569,392.956 150.606,393.116 150.473 C 393.234 150.375,393.289 150.229,393.238 150.148 C 393.075 149.883,392.853 149.992,392.879 150.325 M3.353 150.675 C 3.328 151.004,3.657 151.337,3.992 151.322 C 4.165 151.314,4.130 151.253,3.883 151.133 C 3.681 151.036,3.484 150.835,3.444 150.686 C 3.383 150.456,3.369 150.454,3.353 150.675 M4.333 151.141 C 4.333 151.247,4.400 151.333,4.481 151.333 C 4.563 151.333,4.679 151.596,4.739 151.917 C 4.805 152.266,4.946 152.500,5.091 152.500 C 5.404 152.500,5.401 152.264,5.085 152.002 C 4.949 151.888,4.872 151.739,4.915 151.670 C 4.957 151.601,4.844 151.410,4.663 151.246 C 4.475 151.076,4.333 151.031,4.333 151.141 M5.500 152.504 C 5.500 152.594,5.591 152.667,5.703 152.667 C 5.960 152.667,6.686 153.500,6.580 153.673 C 6.536 153.744,6.650 153.763,6.833 153.715 C 7.020 153.666,7.167 153.710,7.167 153.814 C 7.167 153.916,7.335 153.999,7.542 153.997 C 7.807 153.996,7.852 153.954,7.697 153.856 C 7.508 153.735,7.395 153.445,7.346 152.954 C 7.318 152.675,5.500 152.232,5.500 152.504 M389.394 152.958 C 389.408 153.141,389.308 153.241,389.125 153.227 C 388.965 153.214,388.833 153.303,388.833 153.425 C 388.833 153.547,388.747 153.701,388.641 153.766 C 388.518 153.842,388.494 153.811,388.575 153.680 C 388.667 153.531,388.604 153.536,388.344 153.696 L 387.987 153.917 388.346 153.972 C 388.544 154.003,388.786 153.947,388.886 153.847 C 388.985 153.748,389.194 153.667,389.350 153.667 C 389.516 153.667,389.707 153.458,389.808 153.167 C 389.961 152.729,389.944 152.667,389.677 152.667 C 389.487 152.667,389.379 152.778,389.394 152.958 M8.607 154.452 C 8.747 155.008,9.013 155.301,9.293 155.208 C 9.564 155.118,9.562 154.821,9.292 154.875 C 9.177 154.898,9.091 154.842,9.101 154.750 C 9.111 154.658,8.978 154.450,8.805 154.287 C 8.502 154.001,8.495 154.006,8.607 154.452 M385.655 154.069 C 385.587 154.148,385.512 155.333,385.574 155.333 C 385.679 155.333,386.167 154.402,386.167 154.203 C 386.167 154.093,385.732 153.980,385.655 154.069 M384.167 155.177 C 384.167 155.367,384.614 155.386,384.729 155.201 C 384.774 155.129,384.665 155.058,384.488 155.045 C 384.311 155.032,384.167 155.091,384.167 155.177 " stroke="none" fill="#7b8ec9" fill-rule="evenodd"></path></g></svg>