<svg id="svg" version="1.1" xmlns="http://www.w3.org/2000/svg" xmlns:xlink="http://www.w3.org/1999/xlink" width="400" height="417.51824817518246" viewBox="0, 0, 400,417.51824817518246"><g id="svgg"><path id="path0" d="M176.600 36.803 C 174.862 37.148,159.814 38.014,155.600 38.011 C 154.170 38.010,152.010 38.290,150.800 38.632 C 149.590 38.975,147.340 39.417,145.800 39.616 C 144.260 39.814,141.470 40.353,139.600 40.814 C 137.730 41.274,135.300 41.790,134.200 41.960 C 133.100 42.129,131.750 42.465,131.200 42.705 C 129.171 43.592,123.516 45.200,122.429 45.200 C 120.829 45.200,117.300 46.704,115.234 48.265 C 114.263 48.999,113.152 49.600,112.765 49.600 C 112.378 49.600,111.527 50.050,110.873 50.600 C 110.044 51.298,109.206 51.600,108.102 51.600 C 106.537 51.600,104.743 52.612,102.517 54.751 C 102.031 55.218,101.513 55.600,101.365 55.600 C 101.218 55.600,100.400 56.230,99.547 57.000 C 98.375 58.059,97.644 58.400,96.543 58.400 C 95.002 58.400,94.206 59.098,88.414 65.520 C 87.212 66.853,85.462 68.326,84.526 68.794 C 83.589 69.262,82.450 70.130,81.995 70.722 C 80.906 72.140,78.822 74.633,77.715 75.841 C 77.228 76.372,76.342 77.639,75.746 78.656 C 74.940 80.032,74.192 80.712,72.831 81.308 C 71.824 81.750,70.836 82.391,70.636 82.734 C 70.436 83.076,69.602 84.014,68.781 84.818 C 67.961 85.622,67.171 86.822,67.026 87.484 C 66.880 88.146,66.230 89.197,65.581 89.819 C 64.931 90.441,64.391 91.321,64.381 91.775 C 64.340 93.535,63.021 95.389,61.090 96.400 C 59.499 97.233,59.109 97.667,58.754 99.000 C 58.520 99.880,57.812 101.680,57.181 103.000 C 56.551 104.320,55.758 106.619,55.421 108.109 C 55.084 109.598,54.453 111.513,54.019 112.363 C 53.585 113.213,52.942 115.234,52.589 116.854 C 52.236 118.474,51.590 120.665,51.153 121.722 C 50.717 122.779,50.192 125.209,49.988 127.122 C 49.784 129.035,49.317 132.254,48.951 134.275 L 48.284 137.949 46.805 138.199 L 45.326 138.449 44.619 141.725 C 44.231 143.526,43.749 146.980,43.549 149.400 C 43.349 151.820,42.905 155.870,42.563 158.400 C 41.280 167.902,40.822 179.685,40.808 203.600 C 40.793 227.860,40.963 231.724,42.605 244.400 C 43.132 248.470,43.675 253.690,43.811 256.000 C 44.130 261.396,44.611 263.326,46.268 265.853 C 47.852 268.267,48.481 270.303,49.403 275.996 C 49.776 278.303,50.434 280.883,50.865 281.728 C 51.297 282.573,51.903 284.953,52.212 287.016 C 52.563 289.349,53.162 291.507,53.797 292.721 C 54.358 293.795,55.014 295.786,55.253 297.146 C 55.493 298.507,56.100 300.225,56.603 300.966 C 57.105 301.707,57.737 303.007,58.006 303.856 C 58.992 306.964,59.584 307.947,61.367 309.437 C 62.812 310.645,63.361 311.479,64.026 313.480 C 64.488 314.866,65.038 316.000,65.249 316.000 C 65.461 316.000,66.148 317.147,66.777 318.550 C 67.407 319.952,68.266 321.347,68.687 321.650 C 69.109 321.952,69.801 323.054,70.227 324.099 C 70.652 325.143,71.110 325.998,71.244 325.999 C 71.953 326.003,74.998 328.898,75.555 330.097 C 75.910 330.861,76.875 332.232,77.700 333.144 C 78.525 334.056,79.200 335.021,79.200 335.287 C 79.200 335.876,83.549 340.006,85.900 341.650 C 86.835 342.304,87.600 343.005,87.600 343.209 C 87.600 343.413,88.185 343.872,88.900 344.230 C 89.615 344.588,90.650 345.307,91.200 345.827 C 91.750 346.347,92.857 347.397,93.661 348.160 C 94.464 348.924,95.831 349.739,96.699 349.973 C 97.567 350.206,98.889 350.941,99.638 351.605 C 103.670 355.179,106.907 357.132,108.882 357.182 C 109.257 357.192,110.228 357.650,111.038 358.200 C 111.849 358.750,112.743 359.200,113.025 359.200 C 113.308 359.200,114.071 359.648,114.721 360.195 C 116.381 361.592,121.020 363.600,122.586 363.600 C 123.308 363.600,124.686 363.946,125.649 364.368 C 126.612 364.791,128.120 365.264,129.000 365.421 C 129.880 365.577,130.844 365.898,131.142 366.136 C 131.440 366.373,132.790 366.698,134.142 366.859 C 135.494 367.019,138.220 367.531,140.200 367.995 C 142.180 368.460,144.790 368.985,146.000 369.163 C 147.210 369.341,149.370 369.774,150.800 370.126 C 152.230 370.478,155.670 370.950,158.445 371.174 C 161.220 371.398,164.550 371.860,165.845 372.201 C 175.445 374.726,225.842 374.696,237.848 372.158 C 239.414 371.827,242.834 371.388,245.448 371.182 C 248.062 370.977,251.190 370.524,252.400 370.177 C 253.610 369.830,255.680 369.397,257.000 369.216 C 260.500 368.734,265.692 367.622,266.495 367.181 C 266.877 366.972,267.991 366.800,268.971 366.800 C 269.951 366.800,270.857 366.632,270.984 366.426 C 271.111 366.221,272.246 365.764,273.507 365.411 C 274.768 365.059,277.240 364.066,279.000 363.205 C 280.760 362.344,282.700 361.536,283.310 361.410 C 283.921 361.283,284.778 360.822,285.216 360.384 C 285.653 359.947,286.773 359.294,287.705 358.933 C 288.637 358.571,289.670 358.064,290.000 357.805 C 291.157 356.897,293.533 356.000,294.780 356.000 C 296.116 356.000,298.400 355.013,298.400 354.435 C 298.400 354.246,299.022 353.796,299.781 353.436 C 300.541 353.075,301.473 352.470,301.853 352.090 C 303.755 350.187,305.387 349.200,306.631 349.200 C 307.672 349.200,308.396 348.776,310.037 347.201 C 311.184 346.102,313.039 344.740,314.161 344.173 C 318.877 341.793,320.297 340.859,322.059 338.981 C 325.421 335.397,326.683 333.822,327.527 332.156 C 328.219 330.788,328.608 330.471,329.837 330.271 C 331.421 330.014,333.200 328.637,333.200 327.668 C 333.200 327.342,333.694 326.429,334.299 325.638 C 335.628 323.897,339.200 316.851,339.200 315.968 C 339.200 315.620,339.643 314.461,340.184 313.392 C 340.726 312.322,341.553 310.177,342.022 308.624 C 342.708 306.355,343.222 305.476,344.636 304.154 C 346.774 302.153,347.435 300.659,347.799 297.000 C 347.987 295.110,348.382 293.728,349.013 292.747 C 349.629 291.791,350.103 290.172,350.399 288.009 C 350.876 284.521,351.043 283.954,352.557 280.680 C 353.086 279.536,353.635 277.520,353.777 276.200 C 354.365 270.720,355.425 267.283,357.427 264.372 C 358.485 262.834,358.689 261.624,359.787 250.400 C 361.880 229.011,362.511 208.470,361.582 192.000 C 361.203 185.286,360.946 183.119,359.618 175.400 C 359.391 174.080,359.204 171.638,359.202 169.973 C 359.199 166.238,358.586 162.782,357.584 160.859 C 357.166 160.056,356.648 158.230,356.432 156.800 C 356.216 155.370,355.662 153.030,355.200 151.600 C 354.738 150.170,354.023 146.118,353.612 142.596 C 353.106 138.258,352.546 135.342,351.874 133.558 C 351.329 132.109,350.669 129.861,350.407 128.562 C 350.146 127.263,349.536 125.570,349.052 124.800 C 348.567 124.030,347.847 122.344,347.450 121.053 C 347.054 119.763,345.661 117.069,344.356 115.067 C 342.971 112.943,341.878 110.781,341.734 109.876 C 341.597 109.023,341.090 107.847,340.605 107.263 C 340.121 106.678,339.389 105.310,338.979 104.223 C 338.568 103.136,337.640 101.385,336.916 100.333 C 336.192 99.280,335.600 98.149,335.600 97.819 C 335.600 97.489,335.141 96.918,334.580 96.550 C 334.018 96.182,333.314 95.413,333.014 94.841 C 332.300 93.478,330.081 91.120,328.721 90.277 C 328.127 89.910,327.342 88.977,326.975 88.204 C 326.609 87.432,326.154 86.800,325.965 86.800 C 325.775 86.800,325.353 86.284,325.027 85.652 C 324.701 85.021,323.616 83.547,322.617 82.376 C 321.618 81.206,320.800 80.049,320.800 79.806 C 320.800 79.563,319.425 77.945,317.745 76.209 C 316.065 74.474,313.942 72.052,313.027 70.827 C 310.185 67.024,308.261 65.314,306.485 65.014 C 305.436 64.837,304.192 64.151,302.864 63.017 C 301.751 62.067,300.201 60.895,299.420 60.412 C 298.639 59.930,298.000 59.398,298.000 59.232 C 298.000 58.681,295.989 58.000,294.362 58.000 C 293.170 58.000,292.526 57.746,291.837 57.002 C 291.328 56.453,290.164 55.740,289.250 55.418 C 288.335 55.095,286.988 54.374,286.256 53.815 C 285.323 53.104,284.426 52.800,283.260 52.800 C 281.743 52.800,280.137 52.187,276.600 50.259 C 275.940 49.899,275.030 49.604,274.579 49.602 C 274.127 49.601,272.867 49.165,271.779 48.633 C 270.690 48.101,268.990 47.587,268.000 47.489 C 267.010 47.392,264.503 46.928,262.428 46.457 C 260.354 45.985,257.914 45.600,257.006 45.600 C 255.664 45.600,254.808 45.215,252.435 43.543 L 249.515 41.485 242.257 40.964 C 232.546 40.265,231.551 40.125,227.600 38.894 L 224.200 37.835 202.940 37.790 C 183.745 37.749,181.581 37.680,180.655 37.073 C 179.548 36.347,179.059 36.315,176.600 36.803 M222.967 38.821 C 224.631 39.052,226.848 39.620,227.893 40.083 C 229.457 40.774,231.012 40.979,236.654 41.235 C 246.569 41.686,248.979 42.232,251.676 44.638 C 252.488 45.362,253.748 46.042,254.476 46.149 C 255.204 46.256,257.960 46.636,260.600 46.995 C 263.682 47.413,265.758 47.901,266.400 48.358 C 266.950 48.749,268.480 49.183,269.800 49.321 C 272.447 49.599,275.868 50.627,276.800 51.424 C 277.917 52.379,281.620 53.600,283.401 53.600 C 284.738 53.600,285.273 53.788,285.583 54.368 C 285.809 54.790,286.670 55.359,287.497 55.631 C 288.324 55.904,289.875 56.728,290.945 57.463 C 292.424 58.480,293.310 58.800,294.644 58.800 C 296.099 58.800,296.651 59.038,297.882 60.200 C 298.699 60.970,299.509 61.600,299.682 61.600 C 300.138 61.600,303.174 64.404,303.620 65.238 C 304.035 66.014,300.870 68.732,297.619 70.390 C 296.729 70.845,296.000 71.390,296.000 71.603 C 296.000 71.815,295.384 72.247,294.631 72.561 C 293.879 72.876,292.664 73.706,291.931 74.407 C 291.199 75.108,290.138 75.920,289.574 76.213 C 288.503 76.767,286.988 78.762,285.734 81.267 C 285.330 82.074,284.389 83.642,283.643 84.751 C 282.180 86.926,282.519 86.782,275.955 88.013 C 274.720 88.245,273.100 88.892,272.355 89.452 C 271.610 90.011,270.590 90.631,270.090 90.829 C 269.589 91.026,269.071 91.470,268.939 91.814 C 268.807 92.158,267.610 93.466,266.278 94.720 C 264.947 95.974,263.520 97.360,263.108 97.800 C 262.696 98.240,261.887 99.082,261.309 99.671 C 259.718 101.293,259.768 104.173,261.419 106.054 C 263.913 108.897,264.322 109.939,264.607 114.200 C 265.406 126.145,267.285 129.941,272.181 129.506 C 276.595 129.114,284.243 122.840,286.013 118.160 C 286.254 117.522,286.996 116.148,287.662 115.107 C 288.329 114.067,289.124 112.382,289.431 111.365 C 289.737 110.347,290.366 108.902,290.829 108.153 C 291.499 107.070,291.673 106.130,291.684 103.547 C 291.702 99.563,292.553 98.318,295.900 97.385 C 297.055 97.063,298.945 96.534,300.100 96.208 C 302.776 95.454,307.228 95.793,308.576 96.853 C 310.758 98.569,310.337 111.199,308.011 113.849 C 307.241 114.726,306.764 115.807,306.584 117.083 C 306.436 118.137,305.930 119.630,305.460 120.400 C 304.746 121.570,304.599 122.458,304.570 125.800 C 304.532 130.068,304.075 138.614,303.779 140.600 C 303.659 141.399,302.789 142.603,301.177 144.200 C 297.944 147.403,298.041 147.301,297.485 148.109 C 295.817 150.534,279.704 149.752,270.451 146.797 C 268.389 146.139,266.532 145.600,266.325 145.600 C 266.118 145.600,264.986 145.160,263.809 144.621 C 262.632 144.083,260.618 143.338,259.335 142.967 C 258.051 142.595,256.584 141.966,256.075 141.568 C 255.566 141.171,254.486 140.633,253.675 140.373 C 252.864 140.114,251.650 139.491,250.979 138.990 C 248.976 137.497,246.901 137.060,243.970 137.514 C 242.557 137.733,240.120 137.819,238.557 137.706 C 233.428 137.335,228.504 139.986,228.965 142.869 C 229.145 143.998,228.995 144.834,228.402 145.996 C 227.841 147.095,227.475 148.966,227.207 152.091 C 226.995 154.571,226.547 157.484,226.211 158.564 C 224.249 164.872,231.114 169.212,236.526 165.084 C 237.252 164.530,238.691 163.679,239.723 163.194 C 240.756 162.709,241.600 162.169,241.600 161.994 C 241.600 161.819,242.402 161.206,243.382 160.632 C 244.361 160.058,245.396 159.276,245.682 158.894 C 247.483 156.482,250.826 155.004,254.795 154.865 C 259.814 154.689,260.306 155.105,258.621 158.102 C 257.642 159.844,257.459 160.666,257.317 163.964 C 257.124 168.443,256.489 171.124,255.494 171.657 C 255.104 171.866,253.983 172.838,253.003 173.818 C 252.023 174.798,250.972 175.600,250.668 175.600 C 250.363 175.600,248.742 176.950,247.065 178.600 C 245.388 180.250,243.905 181.600,243.770 181.600 C 243.634 181.600,243.006 181.968,242.374 182.418 C 241.742 182.868,240.069 183.478,238.656 183.774 C 237.243 184.070,235.818 184.466,235.488 184.656 C 234.458 185.248,231.200 188.397,231.200 188.801 C 231.200 189.012,230.463 190.764,229.562 192.693 C 226.295 199.689,225.932 202.525,228.096 204.135 C 229.332 205.054,230.525 205.093,239.626 204.512 L 245.052 204.165 247.826 202.439 C 251.003 200.462,252.778 198.914,255.442 195.800 C 256.438 194.635,259.363 190.360,260.227 188.808 C 260.602 188.133,261.646 187.295,265.590 184.501 C 266.407 183.922,267.306 183.818,270.740 183.902 C 276.704 184.049,276.972 184.231,277.115 188.240 C 277.225 191.317,277.295 191.535,278.573 192.773 C 280.048 194.203,280.039 194.968,278.504 198.540 C 277.754 200.287,278.131 200.768,280.600 201.219 C 283.839 201.810,289.477 197.702,291.881 193.000 C 293.151 190.516,295.755 187.961,297.584 187.404 C 298.526 187.118,299.056 186.667,299.244 185.992 C 299.464 185.201,299.528 185.345,299.560 186.700 C 299.594 188.124,299.868 188.674,301.254 190.100 C 302.164 191.035,303.256 192.607,303.680 193.593 C 304.996 196.653,307.749 198.942,309.732 198.625 C 311.486 198.345,312.400 197.792,312.400 197.013 C 312.400 196.744,312.782 196.181,313.248 195.762 C 313.715 195.343,314.616 193.930,315.251 192.622 C 315.887 191.314,316.748 189.874,317.165 189.422 C 317.582 188.970,318.203 187.921,318.545 187.092 C 320.010 183.534,322.123 181.753,325.519 181.215 C 327.214 180.947,329.889 180.215,331.464 179.590 C 335.726 177.898,337.955 179.116,341.800 185.237 C 342.366 186.137,344.309 188.821,346.300 191.451 C 349.358 195.490,348.603 197.932,344.119 198.504 C 343.194 198.622,341.934 199.075,341.319 199.509 C 340.703 199.944,338.644 200.772,336.743 201.350 C 334.841 201.927,333.186 202.660,333.064 202.977 C 332.850 203.534,332.127 203.783,327.805 204.785 C 326.708 205.039,325.538 205.486,325.205 205.777 C 324.872 206.067,324.150 206.440,323.600 206.605 C 321.422 207.258,320.400 208.354,320.400 210.037 C 320.400 211.971,320.762 212.147,326.532 213.019 C 328.769 213.358,331.500 213.895,332.600 214.213 C 333.700 214.532,335.766 215.080,337.191 215.431 C 340.498 216.245,341.106 216.579,342.748 218.479 C 343.489 219.337,344.731 220.345,345.508 220.719 C 346.921 221.401,347.979 222.932,350.123 227.400 C 350.651 228.500,351.565 229.876,352.153 230.457 C 355.209 233.476,355.896 235.727,354.394 237.800 C 354.235 238.020,353.897 238.830,353.644 239.600 C 353.262 240.763,351.946 242.330,348.435 245.800 C 348.212 246.020,346.718 247.565,345.115 249.234 C 339.324 255.263,336.744 255.126,335.752 248.739 C 335.603 247.783,334.968 246.030,334.341 244.844 C 333.713 243.658,333.200 242.290,333.200 241.803 C 333.200 239.282,330.053 234.858,327.402 233.654 C 324.948 232.539,317.529 232.877,313.200 234.301 C 308.425 235.872,304.143 236.307,290.400 236.614 C 279.158 236.866,278.413 236.773,277.439 235.000 C 276.733 233.713,276.639 233.696,268.644 233.398 C 260.070 233.078,254.807 233.521,252.475 234.761 C 251.664 235.192,249.941 235.924,248.648 236.387 C 247.354 236.849,245.648 237.762,244.857 238.414 C 244.065 239.066,243.202 239.600,242.937 239.600 C 242.673 239.600,242.219 239.829,241.929 240.108 C 241.638 240.387,240.590 241.202,239.600 241.920 C 237.361 243.541,234.133 247.275,233.133 249.399 C 232.719 250.279,232.122 251.450,231.808 252.000 C 228.019 258.621,226.586 270.779,229.139 274.634 C 229.842 275.694,230.619 277.239,230.867 278.067 C 231.115 278.894,231.742 279.969,232.259 280.455 C 232.777 280.942,233.201 281.713,233.202 282.170 C 233.210 285.209,236.671 289.916,240.200 291.688 C 241.080 292.130,242.340 292.894,243.000 293.386 C 243.660 293.878,245.190 294.521,246.400 294.815 C 247.610 295.109,249.395 295.801,250.367 296.352 C 253.419 298.084,265.390 298.960,272.566 297.977 C 277.998 297.233,282.642 300.180,283.395 304.849 C 283.550 305.812,284.102 307.590,284.621 308.800 C 285.140 310.010,285.836 312.896,286.168 315.213 C 286.499 317.531,287.227 320.640,287.785 322.123 C 289.149 325.745,289.108 327.650,287.617 329.974 C 286.966 330.989,286.182 332.895,285.875 334.211 C 285.568 335.526,284.886 337.412,284.359 338.401 C 283.421 340.160,283.402 340.396,283.491 349.000 C 283.607 360.314,283.559 360.465,279.266 362.037 C 278.532 362.305,277.722 362.729,277.466 362.978 C 276.769 363.654,271.281 365.299,269.028 365.506 C 267.943 365.605,266.821 365.922,266.534 366.209 C 265.839 366.903,262.997 367.483,258.600 367.827 C 256.515 367.990,254.411 368.401,253.600 368.805 C 251.640 369.780,248.430 370.399,245.280 370.408 C 243.806 370.412,241.430 370.600,240.000 370.825 C 238.570 371.049,235.870 371.390,234.000 371.581 C 232.130 371.773,229.160 372.237,227.400 372.612 C 223.085 373.531,179.098 373.710,175.800 372.821 C 173.371 372.166,172.847 371.766,173.960 371.413 C 174.422 371.266,174.802 371.023,174.804 370.873 C 174.807 370.723,176.247 369.086,178.004 367.237 C 179.762 365.387,181.200 363.728,181.200 363.550 C 181.200 363.372,181.723 362.636,182.362 361.913 C 184.609 359.373,191.817 350.725,193.314 348.774 C 194.147 347.688,194.990 346.800,195.187 346.800 C 195.385 346.800,195.674 346.395,195.830 345.900 C 195.987 345.405,196.451 344.763,196.863 344.474 C 197.839 343.786,198.963 341.546,200.368 337.485 C 201.568 334.015,202.023 332.943,203.118 331.000 C 204.036 329.369,203.950 326.256,202.913 323.584 C 202.447 322.383,201.948 320.868,201.805 320.217 C 201.297 317.919,197.886 312.368,196.606 311.755 C 195.943 311.438,194.950 310.916,194.400 310.595 C 193.850 310.274,192.989 310.009,192.486 310.006 C 191.983 310.003,191.216 309.595,190.783 309.100 C 190.349 308.605,189.561 307.712,189.031 307.116 C 188.502 306.520,187.570 305.907,186.961 305.755 C 186.352 305.602,185.272 305.082,184.561 304.599 C 183.702 304.017,182.363 303.638,180.572 303.470 C 178.866 303.311,177.163 302.846,175.936 302.205 C 174.870 301.647,173.106 301.000,172.017 300.766 C 170.928 300.533,169.370 299.812,168.555 299.165 C 167.741 298.517,166.507 297.637,165.814 297.209 C 164.733 296.540,164.453 296.006,163.852 293.454 C 163.231 290.822,162.316 289.200,161.451 289.200 C 161.294 289.200,160.203 288.473,159.026 287.585 C 157.360 286.327,156.326 285.879,154.351 285.561 C 152.736 285.301,151.170 284.726,150.039 283.976 C 149.062 283.329,148.066 282.800,147.825 282.800 C 147.585 282.800,146.680 282.420,145.814 281.956 C 144.554 281.281,142.641 280.964,136.220 280.370 C 124.077 279.245,119.811 278.314,115.709 275.893 C 114.428 275.137,113.382 275.005,106.565 274.739 C 102.331 274.574,97.277 274.161,95.333 273.821 C 93.390 273.481,91.253 273.202,90.584 273.201 C 89.915 273.201,88.295 272.908,86.984 272.550 C 85.673 272.193,83.390 271.681,81.910 271.412 C 80.298 271.119,78.612 270.501,77.701 269.870 C 76.864 269.290,75.555 268.692,74.790 268.541 C 74.026 268.390,72.558 267.689,71.529 266.984 C 70.499 266.278,69.179 265.581,68.595 265.435 C 68.011 265.288,66.808 264.710,65.921 264.150 C 65.035 263.591,63.542 262.804,62.604 262.402 C 61.169 261.787,60.802 261.384,60.281 259.856 L 59.663 258.041 61.131 257.571 C 63.678 256.757,64.400 255.784,64.400 253.171 C 64.400 251.434,64.672 250.365,65.526 248.740 C 66.146 247.562,66.969 245.339,67.356 243.799 C 67.742 242.260,68.391 240.460,68.796 239.800 C 69.201 239.140,69.831 237.430,70.196 236.000 C 70.561 234.570,71.296 232.648,71.830 231.729 C 72.363 230.810,72.800 229.802,72.800 229.491 C 72.800 227.921,74.178 227.504,78.845 227.664 L 83.327 227.817 84.364 229.155 C 84.934 229.891,87.020 232.472,89.000 234.890 C 90.980 237.308,92.831 239.762,93.114 240.343 C 93.396 240.924,93.846 241.832,94.114 242.359 C 95.286 244.672,99.626 244.615,102.400 242.250 C 104.447 240.505,104.840 239.214,105.218 233.000 C 105.565 227.292,105.925 225.385,106.949 223.822 C 107.266 223.338,107.752 222.145,108.030 221.171 C 108.307 220.197,108.937 218.950,109.430 218.400 C 109.923 217.850,110.621 216.682,110.982 215.805 C 111.343 214.928,111.973 213.848,112.382 213.405 C 112.791 212.962,113.506 211.863,113.971 210.962 C 114.436 210.062,115.262 208.905,115.808 208.393 C 116.354 207.880,116.800 207.238,116.800 206.966 C 116.800 206.029,126.441 196.745,128.359 195.834 C 132.626 193.809,137.600 189.824,137.600 188.431 C 137.600 188.176,138.500 187.407,139.600 186.724 C 140.700 186.040,141.600 185.348,141.600 185.187 C 141.600 185.026,142.590 184.425,143.800 183.852 C 145.010 183.279,146.000 182.631,146.000 182.412 C 146.000 182.193,146.887 181.564,147.972 181.014 C 149.056 180.465,150.058 179.829,150.199 179.602 C 150.339 179.375,151.207 178.807,152.127 178.340 C 153.047 177.874,154.391 176.977,155.114 176.346 C 155.837 175.716,156.667 175.200,156.960 175.200 C 158.617 175.200,163.320 169.112,163.752 166.408 C 164.110 164.168,162.917 161.879,160.902 160.939 C 159.317 160.199,156.194 157.747,154.485 155.900 C 153.926 155.295,153.229 154.800,152.937 154.800 C 152.646 154.800,152.182 154.440,151.907 154.000 C 151.633 153.561,150.479 152.561,149.342 151.778 C 148.206 150.996,146.798 149.631,146.212 148.746 C 144.490 146.144,143.884 146.032,133.400 146.371 C 123.723 146.684,123.313 146.763,120.302 148.880 C 118.937 149.840,117.226 152.704,116.749 154.830 C 116.550 155.712,115.964 157.107,115.446 157.928 C 114.927 158.749,114.379 159.983,114.229 160.669 C 113.368 164.590,108.526 162.709,102.857 156.251 C 102.496 155.839,101.970 155.299,101.689 155.051 C 101.407 154.803,99.787 153.311,98.089 151.736 C 96.390 150.162,94.685 148.587,94.300 148.236 C 93.856 147.833,93.600 147.015,93.600 146.000 C 93.600 144.943,93.343 144.163,92.842 143.700 C 92.425 143.315,90.072 141.113,87.612 138.808 C 85.152 136.502,82.717 134.432,82.200 134.208 C 81.684 133.983,80.341 132.931,79.216 131.870 L 77.170 129.940 78.399 128.470 C 79.075 127.661,79.809 126.775,80.030 126.500 C 80.258 126.216,81.332 125.999,82.516 125.998 C 87.581 125.992,88.855 125.509,91.916 122.429 C 93.463 120.873,94.920 119.600,95.154 119.600 C 95.388 119.600,95.850 119.077,96.180 118.438 C 97.539 115.811,104.831 113.568,107.511 114.954 C 108.592 115.513,109.846 115.854,115.028 116.996 C 115.483 117.097,116.483 117.769,117.249 118.490 C 118.016 119.210,118.981 119.992,119.395 120.227 C 119.909 120.519,120.219 121.277,120.373 122.627 C 120.963 127.763,129.966 127.821,131.000 122.695 C 131.144 121.983,131.733 120.037,132.309 118.372 L 133.357 115.343 132.475 114.106 C 131.991 113.425,131.480 112.035,131.340 111.016 C 130.962 108.258,127.880 105.168,122.800 102.455 C 121.590 101.809,120.164 100.812,119.630 100.240 C 119.097 99.668,118.360 99.200,117.992 99.200 C 117.625 99.200,116.981 98.821,116.562 98.357 C 116.143 97.893,114.965 97.090,113.944 96.572 C 112.924 96.055,111.844 95.399,111.544 95.116 C 111.245 94.832,110.364 94.126,109.588 93.547 C 107.746 92.173,106.840 89.338,106.650 84.354 C 106.489 80.149,105.898 78.303,103.530 74.620 C 102.688 73.312,102.000 72.011,102.000 71.730 C 102.000 71.449,101.567 70.935,101.038 70.588 C 100.509 70.242,99.970 69.536,99.841 69.021 C 99.574 67.957,95.203 64.000,94.295 64.000 C 91.808 64.000,93.610 59.837,96.293 59.385 C 98.624 58.991,98.997 58.848,99.905 58.003 C 101.047 56.938,104.767 53.932,105.989 53.085 C 106.533 52.708,107.686 52.400,108.551 52.400 C 109.597 52.400,110.548 52.077,111.388 51.437 C 112.082 50.907,113.357 50.178,114.220 49.817 C 115.083 49.457,116.157 48.816,116.606 48.394 C 118.583 46.537,124.086 45.716,125.279 47.100 C 126.830 48.899,127.909 52.603,128.805 59.200 C 129.061 61.087,129.603 63.147,130.022 63.830 C 130.438 64.506,130.982 66.010,131.231 67.172 C 131.481 68.334,131.980 69.586,132.342 69.956 C 132.704 70.325,133.531 71.402,134.180 72.350 C 135.555 74.358,137.900 76.400,138.832 76.400 C 139.189 76.400,140.274 76.821,141.242 77.337 C 142.211 77.852,143.723 78.504,144.602 78.785 C 145.481 79.067,146.825 79.675,147.589 80.136 C 148.353 80.597,150.063 81.348,151.389 81.805 L 153.800 82.635 154.056 84.714 C 154.197 85.858,154.421 87.077,154.554 87.424 C 155.225 89.173,156.508 96.733,156.824 100.800 C 157.690 111.931,158.377 116.633,159.517 119.219 C 159.948 120.199,160.549 121.805,160.851 122.790 C 162.506 128.181,169.833 127.540,172.738 121.749 C 173.193 120.841,173.838 119.994,174.170 119.867 C 174.503 119.739,175.037 119.008,175.357 118.242 C 176.258 116.084,179.084 112.479,181.959 109.817 C 185.674 106.378,189.600 102.285,189.600 101.849 C 189.600 101.490,190.652 99.983,193.637 96.068 C 195.456 93.682,195.832 92.946,196.158 91.141 C 196.303 90.338,196.785 89.219,197.229 88.654 C 197.674 88.088,198.309 86.315,198.642 84.713 C 198.974 83.111,199.706 80.270,200.269 78.400 C 201.678 73.721,202.109 59.936,201.003 54.937 C 199.843 49.697,197.728 43.429,196.425 41.375 L 195.193 39.432 196.096 38.930 C 197.249 38.290,218.530 38.204,222.967 38.821 M44.032 218.407 C 44.834 220.075,45.002 220.870,44.784 221.977 C 43.002 231.020,41.652 231.164,41.542 222.323 C 41.456 215.461,42.116 214.423,44.032 218.407 M52.022 272.626 C 52.715 273.461,54.286 274.239,56.000 274.594 C 56.770 274.754,57.850 275.300,58.400 275.807 C 58.950 276.315,60.125 276.922,61.011 277.157 C 61.896 277.391,63.246 278.044,64.011 278.609 C 64.775 279.173,66.390 279.917,67.600 280.263 C 68.810 280.608,70.176 281.235,70.636 281.655 C 71.102 282.081,73.317 282.871,75.636 283.439 C 79.711 284.437,85.600 286.885,85.600 287.581 C 85.600 287.907,87.133 288.980,91.503 291.712 C 92.481 292.324,93.573 293.116,93.928 293.471 C 94.283 293.826,95.211 294.406,95.990 294.759 C 96.769 295.111,98.035 295.875,98.803 296.456 C 99.571 297.037,100.830 297.640,101.600 297.795 C 105.606 298.605,107.007 303.530,103.249 303.591 C 101.973 303.612,96.808 306.915,95.159 308.765 C 91.266 313.133,90.296 315.461,91.211 318.235 C 91.915 320.366,102.073 330.400,103.527 330.400 C 103.968 330.400,104.387 331.757,104.395 333.214 C 104.401 334.427,105.836 335.383,108.246 335.781 C 109.923 336.057,112.290 337.902,113.660 340.000 C 114.019 340.550,115.330 341.810,116.572 342.800 C 122.220 347.301,124.712 350.487,126.897 356.000 C 129.397 362.308,129.571 363.455,128.081 363.782 C 126.879 364.046,125.059 363.543,124.615 362.825 C 124.471 362.591,123.688 362.398,122.876 362.396 C 120.764 362.389,117.600 361.342,116.415 360.257 C 115.857 359.746,114.770 359.093,114.000 358.806 C 113.230 358.519,111.936 357.770,111.123 357.142 C 110.089 356.342,109.188 356.000,108.116 356.000 C 106.920 356.000,106.163 355.651,104.649 354.400 C 103.584 353.520,102.590 352.800,102.439 352.800 C 102.288 352.800,101.399 352.086,100.463 351.214 C 99.528 350.341,98.134 349.454,97.366 349.242 C 96.085 348.888,94.637 347.859,92.000 345.430 C 91.450 344.923,90.550 344.285,90.000 344.011 C 89.060 343.544,88.466 343.035,85.340 340.017 C 84.646 339.348,83.904 338.800,83.690 338.800 C 83.139 338.800,79.200 334.388,79.200 333.770 C 79.200 333.488,78.762 332.913,78.226 332.492 C 77.690 332.070,76.835 330.856,76.326 329.792 C 75.718 328.523,74.781 327.430,73.600 326.612 C 72.528 325.870,71.472 324.689,70.988 323.693 C 70.541 322.773,69.626 321.430,68.954 320.710 C 68.282 319.989,67.513 318.625,67.244 317.679 C 66.975 316.732,66.489 315.855,66.163 315.730 C 65.372 315.427,64.400 313.488,64.400 312.216 C 64.400 311.505,63.563 310.289,61.657 308.234 C 59.431 305.833,58.862 304.948,58.637 303.538 C 58.477 302.542,57.946 301.369,57.391 300.790 C 56.671 300.039,56.317 299.036,56.012 296.883 C 55.757 295.090,55.155 293.150,54.429 291.790 C 53.729 290.479,53.156 288.668,53.006 287.297 C 52.640 283.941,51.971 281.085,51.389 280.400 C 50.149 278.940,49.518 273.442,50.480 272.480 C 51.113 271.847,51.398 271.874,52.022 272.626 M346.557 295.833 C 347.373 297.958,346.471 301.072,344.713 302.200 C 342.937 303.340,342.063 304.704,341.631 307.010 C 341.424 308.116,340.612 310.361,339.827 311.999 C 339.042 313.637,338.400 315.351,338.400 315.807 C 338.400 316.264,337.775 317.619,337.010 318.819 C 336.246 320.018,335.616 321.399,335.610 321.886 C 335.605 322.373,335.084 323.363,334.454 324.086 C 333.823 324.809,332.908 326.188,332.419 327.151 C 330.712 330.519,330.200 328.889,330.200 320.085 C 330.200 312.072,330.142 312.367,332.577 308.080 C 333.515 306.429,333.886 305.973,336.626 303.090 C 338.433 301.188,342.651 297.600,343.079 297.600 C 343.283 297.600,343.968 297.060,344.600 296.400 C 345.910 295.032,346.216 294.944,346.557 295.833 " stroke="none" fill="#7cbc74" fill-rule="evenodd"></path><path id="path1" d="M143.200 0.800 C 143.200 1.571,142.933 1.600,135.700 1.602 C 127.261 1.605,125.333 1.931,124.960 3.418 C 124.720 4.374,124.609 4.401,120.857 4.424 C 115.390 4.458,113.400 4.859,111.989 6.210 C 110.888 7.266,110.503 7.363,106.389 7.635 C 101.463 7.960,101.103 8.115,98.151 11.173 C 97.078 12.286,95.968 13.197,95.685 13.198 C 95.402 13.199,94.405 13.987,93.470 14.950 C 92.462 15.986,91.229 16.818,90.444 16.990 C 89.715 17.150,88.759 17.641,88.321 18.079 C 87.882 18.518,86.696 18.996,85.686 19.140 C 84.034 19.376,83.816 19.533,83.514 20.701 C 83.225 21.815,82.993 22.006,81.889 22.040 C 79.732 22.107,78.624 22.584,78.100 23.671 C 77.679 24.546,77.241 24.752,75.300 24.990 C 73.151 25.254,70.400 26.479,70.400 27.172 C 70.400 27.341,69.668 27.809,68.772 28.212 C 67.848 28.629,66.889 29.440,66.553 30.091 C 66.228 30.720,65.540 31.427,65.025 31.661 C 64.510 31.896,63.891 32.521,63.650 33.050 C 63.409 33.579,62.763 34.216,62.214 34.467 C 61.665 34.717,61.110 35.254,60.981 35.660 C 60.763 36.347,60.218 36.588,58.200 36.888 C 57.640 36.971,57.363 37.366,57.276 38.203 C 57.184 39.091,56.827 39.555,55.891 40.000 C 55.029 40.410,54.528 41.004,54.310 41.875 C 54.134 42.576,53.674 43.250,53.287 43.372 C 52.901 43.495,52.228 44.267,51.792 45.088 C 50.780 46.996,47.014 50.770,45.120 51.775 C 44.317 52.201,43.475 52.957,43.248 53.455 C 43.020 53.954,42.287 54.645,41.617 54.991 C 40.948 55.337,40.400 55.892,40.400 56.224 C 40.400 56.556,39.798 57.182,39.063 57.616 C 37.618 58.468,36.800 59.850,36.800 61.440 C 36.800 62.198,36.502 62.546,35.571 62.870 C 34.320 63.306,33.600 64.506,33.600 66.156 C 33.600 67.089,32.103 68.800,31.288 68.800 C 30.243 68.800,28.000 71.609,28.004 72.913 C 28.006 73.865,27.689 74.462,26.782 75.207 C 25.391 76.351,24.824 78.210,24.810 81.673 C 24.802 83.553,24.668 83.988,24.037 84.188 C 22.723 84.605,22.000 87.228,22.000 91.581 C 22.000 95.183,21.927 95.569,21.207 95.798 C 19.909 96.210,19.290 98.306,19.046 103.113 C 18.786 108.232,18.269 109.404,16.077 109.836 C 14.682 110.112,13.831 111.079,13.384 112.900 C 13.235 113.505,12.967 114.000,12.789 114.000 C 11.683 114.000,10.749 116.910,10.516 121.082 C 10.316 124.647,10.146 125.491,9.537 125.923 C 9.044 126.272,8.800 126.944,8.800 127.950 C 8.800 129.994,7.694 133.617,6.762 134.626 C 6.305 135.121,6.000 136.031,6.000 136.900 C 6.000 137.696,5.819 138.824,5.598 139.405 C 5.372 139.998,5.025 148.633,4.806 159.096 C 4.433 176.960,4.383 177.766,3.608 178.591 C 2.322 179.961,2.343 222.743,3.631 224.031 C 4.436 224.836,4.473 225.411,4.798 242.131 C 5.004 252.720,5.302 259.836,5.567 260.526 C 5.805 261.145,6.000 262.320,6.000 263.137 C 6.000 264.113,6.267 264.851,6.778 265.288 C 7.205 265.654,7.656 266.639,7.780 267.477 C 7.903 268.315,8.183 270.001,8.402 271.224 C 8.621 272.447,8.800 273.963,8.800 274.593 C 8.800 275.222,9.115 276.084,9.500 276.507 C 10.138 277.210,10.803 280.300,11.458 285.600 C 11.580 286.590,12.008 287.760,12.410 288.200 C 12.812 288.640,13.268 289.540,13.424 290.200 C 13.857 292.032,14.678 292.708,16.832 293.004 C 18.617 293.250,18.803 293.374,18.830 294.338 C 18.846 294.922,18.985 297.959,19.138 301.086 L 19.416 306.772 20.708 308.105 C 21.933 309.369,22.000 309.595,22.000 312.469 C 22.000 316.791,22.316 317.990,23.658 318.753 C 24.688 319.339,24.796 319.606,24.806 321.600 C 24.819 324.074,26.022 327.200,26.962 327.200 C 27.348 327.200,27.650 327.738,27.804 328.700 C 28.144 330.822,29.078 332.779,29.899 333.090 C 30.799 333.431,31.374 334.012,31.724 334.938 C 31.878 335.344,32.340 335.764,32.750 335.871 C 33.346 336.027,33.551 336.602,33.768 338.733 C 34.016 341.168,35.249 343.989,36.069 343.997 C 36.217 343.999,36.555 344.675,36.821 345.500 C 37.429 347.389,37.913 348.000,38.797 348.000 C 39.287 348.000,39.564 348.424,39.726 349.424 C 40.053 351.435,45.343 356.744,47.345 357.068 C 48.390 357.238,48.798 357.536,48.980 358.265 C 49.114 358.798,49.604 359.375,50.069 359.547 C 50.534 359.719,51.114 360.469,51.357 361.214 C 51.662 362.144,52.113 362.640,52.800 362.801 C 53.571 362.980,53.846 363.350,54.000 364.417 C 54.171 365.601,54.372 365.820,55.399 365.936 C 56.708 366.085,57.179 366.570,57.205 367.800 C 57.214 368.240,57.842 369.050,58.600 369.600 C 59.358 370.150,59.983 370.831,59.989 371.113 C 59.995 371.394,60.311 371.744,60.691 371.890 C 61.071 372.036,61.777 372.581,62.259 373.101 C 62.741 373.621,63.768 374.221,64.542 374.435 C 65.657 374.743,65.975 375.050,66.075 375.912 C 66.171 376.748,66.501 377.089,67.500 377.383 C 68.494 377.675,68.800 377.989,68.800 378.714 C 68.800 380.153,71.573 382.597,73.858 383.173 C 74.975 383.454,76.388 384.219,77.281 385.026 C 78.134 385.796,79.229 386.400,79.773 386.400 C 80.476 386.400,80.780 386.649,80.872 387.300 C 80.949 387.843,81.517 388.458,82.304 388.852 C 83.022 389.210,83.962 389.952,84.394 390.501 C 85.276 391.623,87.795 392.400,90.550 392.400 C 92.021 392.400,92.394 392.551,92.612 393.237 C 92.919 394.204,95.032 395.200,96.780 395.200 C 97.735 395.200,98.037 395.410,98.238 396.211 C 98.604 397.667,99.437 397.960,104.066 398.257 C 107.779 398.495,108.295 398.624,109.137 399.522 C 110.318 400.781,112.262 401.161,117.657 401.183 C 121.054 401.196,121.961 401.321,122.144 401.798 C 122.829 403.583,124.668 403.997,131.921 403.999 L 138.842 404.000 139.246 405.160 C 139.639 406.288,140.536 406.783,142.204 406.795 C 142.646 406.798,143.232 407.160,143.507 407.600 C 143.862 408.168,144.442 408.401,145.503 408.402 C 146.327 408.403,147.660 408.588,148.467 408.812 C 149.274 409.036,154.880 409.350,160.925 409.510 C 170.289 409.757,172.026 409.898,172.658 410.459 C 175.411 412.903,224.441 413.204,227.008 410.792 C 228.064 409.800,228.066 409.800,239.132 409.534 C 245.219 409.388,250.829 409.073,251.597 408.834 C 252.366 408.595,253.669 408.400,254.494 408.400 C 255.560 408.400,256.138 408.169,256.493 407.600 C 256.867 407.001,257.426 406.800,258.716 406.800 C 260.690 406.800,262.582 405.955,263.202 404.796 C 263.602 404.049,264.054 403.999,270.514 403.991 C 277.793 403.982,280.800 403.347,280.800 401.820 C 280.800 401.307,281.411 401.200,284.350 401.200 C 288.459 401.200,290.400 400.892,290.400 400.239 C 290.400 399.112,291.951 398.554,296.364 398.092 C 300.736 397.635,302.546 397.032,303.294 395.783 C 303.456 395.513,304.407 395.170,305.407 395.020 C 306.623 394.837,307.617 394.365,308.404 393.596 C 309.358 392.663,310.224 392.335,312.992 391.857 C 315.535 391.418,316.722 391.000,317.657 390.213 C 318.347 389.633,319.453 389.049,320.114 388.917 C 320.953 388.749,321.445 388.334,321.745 387.541 C 322.023 386.803,322.623 386.256,323.455 385.982 C 324.321 385.696,324.869 385.177,325.147 384.380 C 325.517 383.318,325.732 383.200,327.290 383.200 C 329.280 383.200,330.605 382.431,330.945 381.078 C 331.075 380.560,331.620 379.937,332.156 379.693 C 332.692 379.449,333.242 378.897,333.379 378.466 C 333.541 377.954,334.141 377.590,335.114 377.411 C 335.931 377.262,337.140 376.628,337.800 376.003 C 338.460 375.379,339.757 374.668,340.682 374.423 C 341.607 374.179,342.867 373.559,343.482 373.046 C 344.097 372.533,345.303 371.863,346.161 371.557 C 347.268 371.162,347.875 370.636,348.247 369.747 C 348.566 368.985,349.159 368.397,349.759 368.246 C 350.302 368.110,350.874 367.598,351.029 367.110 C 351.184 366.621,352.096 365.458,353.055 364.525 C 354.015 363.593,354.800 362.581,354.800 362.277 C 354.800 361.384,356.085 360.475,357.937 360.059 C 360.064 359.581,360.019 359.628,360.290 357.605 C 360.459 356.346,360.838 355.685,361.856 354.872 C 362.807 354.113,363.200 353.472,363.200 352.677 C 363.200 351.970,363.615 351.156,364.322 350.477 C 365.880 348.981,366.400 347.554,366.400 344.771 C 366.400 342.596,366.489 342.346,367.389 342.004 C 367.947 341.792,368.490 341.181,368.636 340.600 C 368.778 340.035,369.404 339.308,370.028 338.985 C 371.207 338.376,371.993 336.492,371.998 334.269 C 372.000 333.020,373.411 331.437,375.520 330.317 C 376.228 329.941,376.974 329.196,377.177 328.661 C 377.380 328.126,378.108 327.049,378.795 326.267 C 380.362 324.483,380.800 322.964,380.800 319.323 C 380.800 316.608,380.873 316.372,382.055 315.268 C 383.228 314.171,383.335 313.834,383.710 310.048 C 383.930 307.821,384.251 306.000,384.423 306.000 C 385.487 306.000,386.485 303.023,386.695 299.223 C 386.880 295.855,387.020 295.236,387.633 295.076 C 388.539 294.839,389.598 292.358,389.607 290.451 C 389.612 289.416,389.910 288.719,390.648 288.019 C 392.252 286.496,392.418 285.603,392.681 277.107 C 392.896 270.188,393.016 269.113,393.609 268.795 C 395.432 267.819,395.400 268.771,395.400 216.000 C 395.400 164.395,395.364 163.125,393.846 161.487 C 392.967 160.539,392.918 160.134,392.669 151.749 C 392.505 146.257,392.188 142.106,391.818 140.600 C 391.494 139.280,391.222 136.923,391.214 135.362 C 391.203 133.096,391.047 132.386,390.442 131.838 C 390.025 131.460,389.569 130.386,389.428 129.450 C 389.267 128.376,388.736 127.270,387.987 126.450 C 386.807 125.158,386.800 125.122,386.800 120.273 C 386.800 114.726,386.462 113.120,385.013 111.777 C 384.150 110.978,383.952 110.354,383.732 107.745 C 383.498 104.988,383.329 104.502,382.135 103.181 C 381.231 102.180,380.800 101.306,380.800 100.471 C 380.800 98.491,379.668 94.652,378.892 94.000 C 378.499 93.670,377.859 92.725,377.470 91.901 C 377.081 91.076,376.244 90.133,375.610 89.805 C 374.976 89.477,374.347 88.863,374.213 88.440 C 374.079 88.017,373.548 87.396,373.033 87.059 C 372.493 86.704,371.990 85.871,371.842 85.085 C 371.663 84.127,370.820 82.964,369.003 81.162 C 366.675 78.853,366.419 78.439,366.410 76.970 C 366.402 75.606,366.174 75.151,365.022 74.190 C 364.026 73.360,363.569 72.591,363.376 71.420 C 363.046 69.413,362.572 68.800,361.351 68.800 C 360.533 68.800,360.400 68.606,360.400 67.418 C 360.400 66.164,360.275 66.013,359.043 65.782 C 357.947 65.576,357.640 65.302,357.451 64.355 C 357.270 63.449,356.942 63.128,356.008 62.942 C 355.203 62.781,354.800 62.461,354.800 61.983 C 354.800 60.911,354.373 60.003,353.857 59.978 C 353.058 59.939,351.734 57.856,351.477 56.234 C 351.326 55.280,350.763 54.185,350.037 53.434 C 349.353 52.726,348.678 51.454,348.454 50.452 C 348.217 49.390,347.540 48.158,346.732 47.314 C 341.227 41.570,338.961 39.600,337.859 39.600 C 337.117 39.600,336.847 39.333,336.664 38.419 C 336.468 37.440,336.141 37.161,334.744 36.785 C 332.653 36.222,331.229 35.220,331.213 34.300 C 331.206 33.915,330.958 33.600,330.662 33.600 C 330.366 33.600,329.796 33.237,329.395 32.794 C 328.993 32.351,327.971 31.877,327.124 31.741 C 326.276 31.606,325.486 31.339,325.368 31.147 C 325.249 30.956,324.545 30.800,323.802 30.800 C 322.570 30.800,322.440 30.685,322.325 29.500 C 322.215 28.356,322.043 28.185,320.897 28.074 C 319.937 27.982,319.439 27.649,319.005 26.809 C 318.353 25.549,315.953 24.800,312.570 24.800 C 311.026 24.800,310.728 24.662,310.397 23.793 C 309.917 22.531,308.555 22.000,305.794 22.000 C 304.417 22.000,303.524 21.806,303.320 21.463 C 302.687 20.400,300.940 19.624,298.592 19.362 C 296.690 19.150,295.985 18.867,295.152 17.980 C 294.431 17.212,293.527 16.778,292.252 16.587 C 290.601 16.339,290.364 16.172,290.077 15.055 C 289.795 13.953,289.526 13.755,287.878 13.433 C 286.845 13.231,286.000 12.921,286.000 12.743 C 286.000 12.082,283.670 11.252,280.618 10.828 C 278.274 10.502,277.328 10.189,276.919 9.606 C 276.244 8.642,274.371 8.136,270.200 7.791 C 267.324 7.554,266.899 7.409,266.000 6.366 C 264.708 4.865,262.280 4.400,255.745 4.400 C 252.802 4.400,250.800 4.242,250.800 4.010 C 250.800 2.371,244.842 1.600,232.171 1.600 C 222.267 1.600,222.000 1.579,222.000 0.800 C 222.000 0.005,221.733 0.000,182.600 0.000 C 143.467 0.000,143.200 0.005,143.200 0.800 M180.655 37.073 C 181.581 37.680,183.745 37.749,202.940 37.790 L 224.200 37.835 227.600 38.894 C 231.551 40.125,232.546 40.265,242.257 40.964 L 249.515 41.485 252.435 43.543 C 254.808 45.215,255.664 45.600,257.006 45.600 C 257.914 45.600,260.354 45.985,262.428 46.457 C 264.503 46.928,267.010 47.392,268.000 47.489 C 268.990 47.587,270.690 48.101,271.779 48.633 C 272.867 49.165,274.127 49.601,274.579 49.602 C 275.030 49.604,275.940 49.899,276.600 50.259 C 280.137 52.187,281.743 52.800,283.260 52.800 C 284.426 52.800,285.323 53.104,286.256 53.815 C 286.988 54.374,288.335 55.095,289.250 55.418 C 290.164 55.740,291.328 56.453,291.837 57.002 C 292.526 57.746,293.170 58.000,294.362 58.000 C 295.989 58.000,298.000 58.681,298.000 59.232 C 298.000 59.398,298.639 59.930,299.420 60.412 C 300.201 60.895,301.751 62.067,302.864 63.017 C 304.192 64.151,305.436 64.837,306.485 65.014 C 308.261 65.314,310.185 67.024,313.027 70.827 C 313.942 72.052,316.065 74.474,317.745 76.209 C 319.425 77.945,320.800 79.563,320.800 79.806 C 320.800 80.049,321.618 81.206,322.617 82.376 C 323.616 83.547,324.701 85.021,325.027 85.652 C 325.353 86.284,325.775 86.800,325.965 86.800 C 326.154 86.800,326.609 87.432,326.975 88.204 C 327.342 88.977,328.127 89.910,328.721 90.277 C 330.081 91.120,332.300 93.478,333.014 94.841 C 333.314 95.413,334.018 96.182,334.580 96.550 C 335.141 96.918,335.600 97.489,335.600 97.819 C 335.600 98.149,336.192 99.280,336.916 100.333 C 337.640 101.385,338.568 103.136,338.979 104.223 C 339.389 105.310,340.121 106.678,340.605 107.263 C 341.090 107.847,341.597 109.023,341.734 109.876 C 341.878 110.781,342.971 112.943,344.356 115.067 C 345.661 117.069,347.054 119.763,347.450 121.053 C 347.847 122.344,348.567 124.030,349.052 124.800 C 349.536 125.570,350.146 127.263,350.407 128.562 C 350.669 129.861,351.329 132.109,351.874 133.558 C 352.546 135.342,353.106 138.258,353.612 142.596 C 354.023 146.118,354.738 150.170,355.200 151.600 C 355.662 153.030,356.216 155.370,356.432 156.800 C 356.648 158.230,357.166 160.056,357.584 160.859 C 358.586 162.782,359.199 166.238,359.202 169.973 C 359.204 171.638,359.391 174.080,359.618 175.400 C 360.946 183.119,361.203 185.286,361.582 192.000 C 362.511 208.470,361.880 229.011,359.787 250.400 C 358.689 261.624,358.485 262.834,357.427 264.372 C 355.425 267.283,354.365 270.720,353.777 276.200 C 353.635 277.520,353.086 279.536,352.557 280.680 C 351.043 283.954,350.876 284.521,350.399 288.009 C 350.103 290.172,349.629 291.791,349.013 292.747 C 348.382 293.728,347.987 295.110,347.799 297.000 C 347.435 300.659,346.774 302.153,344.636 304.154 C 343.222 305.476,342.708 306.355,342.022 308.624 C 341.553 310.177,340.726 312.322,340.184 313.392 C 339.643 314.461,339.200 315.620,339.200 315.968 C 339.200 316.851,335.628 323.897,334.299 325.638 C 333.694 326.429,333.200 327.342,333.200 327.668 C 333.200 328.637,331.421 330.014,329.837 330.271 C 328.608 330.471,328.219 330.788,327.527 332.156 C 326.683 333.822,325.421 335.397,322.059 338.981 C 320.297 340.859,318.877 341.793,314.161 344.173 C 313.039 344.740,311.184 346.102,310.037 347.201 C 308.396 348.776,307.672 349.200,306.631 349.200 C 305.387 349.200,303.755 350.187,301.853 352.090 C 301.473 352.470,300.541 353.075,299.781 353.436 C 299.022 353.796,298.400 354.246,298.400 354.435 C 298.400 355.013,296.116 356.000,294.780 356.000 C 293.533 356.000,291.157 356.897,290.000 357.805 C 289.670 358.064,288.637 358.571,287.705 358.933 C 286.773 359.294,285.653 359.947,285.216 360.384 C 284.778 360.822,283.921 361.283,283.310 361.410 C 282.700 361.536,280.760 362.344,279.000 363.205 C 277.240 364.066,274.768 365.059,273.507 365.411 C 272.246 365.764,271.111 366.221,270.984 366.426 C 270.857 366.632,269.951 366.800,268.971 366.800 C 267.991 366.800,266.877 366.972,266.495 367.181 C 265.692 367.622,260.500 368.734,257.000 369.216 C 255.680 369.397,253.610 369.830,252.400 370.177 C 251.190 370.524,248.062 370.977,245.448 371.182 C 242.834 371.388,239.414 371.827,237.848 372.158 C 230.402 373.732,222.423 374.082,198.200 373.896 C 175.182 373.719,170.730 373.486,165.845 372.201 C 164.550 371.860,161.220 371.398,158.445 371.174 C 155.670 370.950,152.230 370.478,150.800 370.126 C 149.370 369.774,147.210 369.341,146.000 369.163 C 144.790 368.985,142.180 368.460,140.200 367.995 C 138.220 367.531,135.494 367.019,134.142 366.859 C 132.790 366.698,131.440 366.373,131.142 366.136 C 130.844 365.898,129.880 365.577,129.000 365.421 C 128.120 365.264,126.612 364.791,125.649 364.368 C 124.686 363.946,123.308 363.600,122.586 363.600 C 121.020 363.600,116.381 361.592,114.721 360.195 C 114.071 359.648,113.308 359.200,113.025 359.200 C 112.743 359.200,111.849 358.750,111.038 358.200 C 110.228 357.650,109.257 357.192,108.882 357.182 C 106.907 357.132,103.670 355.179,99.638 351.605 C 98.889 350.941,97.567 350.206,96.699 349.973 C 95.831 349.739,94.464 348.924,93.661 348.160 C 92.857 347.397,91.750 346.347,91.200 345.827 C 90.650 345.307,89.615 344.588,88.900 344.230 C 88.185 343.872,87.600 343.413,87.600 343.209 C 87.600 343.005,86.835 342.304,85.900 341.650 C 83.549 340.006,79.200 335.876,79.200 335.287 C 79.200 335.021,78.525 334.056,77.700 333.144 C 76.875 332.232,75.910 330.861,75.555 330.097 C 74.998 328.898,71.953 326.003,71.244 325.999 C 71.110 325.998,70.652 325.143,70.227 324.099 C 69.801 323.054,69.109 321.952,68.687 321.650 C 68.266 321.347,67.407 319.952,66.777 318.550 C 66.148 317.147,65.461 316.000,65.249 316.000 C 65.038 316.000,64.488 314.866,64.026 313.480 C 63.361 311.479,62.812 310.645,61.367 309.437 C 59.584 307.947,58.992 306.964,58.006 303.856 C 57.737 303.007,57.105 301.707,56.603 300.966 C 56.100 300.225,55.493 298.507,55.253 297.146 C 55.014 295.786,54.358 293.795,53.797 292.721 C 53.162 291.507,52.563 289.349,52.212 287.016 C 51.903 284.953,51.297 282.573,50.865 281.728 C 50.434 280.883,49.776 278.303,49.403 275.996 C 48.481 270.303,47.852 268.267,46.268 265.853 C 44.611 263.326,44.130 261.396,43.811 256.000 C 43.675 253.690,43.132 248.470,42.605 244.400 C 40.963 231.724,40.793 227.860,40.808 203.600 C 40.822 179.685,41.280 167.902,42.563 158.400 C 42.905 155.870,43.349 151.820,43.549 149.400 C 43.749 146.980,44.231 143.526,44.619 141.725 L 45.326 138.449 46.805 138.199 L 48.284 137.949 48.951 134.275 C 49.317 132.254,49.784 129.035,49.988 127.122 C 50.192 125.209,50.717 122.779,51.153 121.722 C 51.590 120.665,52.236 118.474,52.589 116.854 C 52.942 115.234,53.585 113.213,54.019 112.363 C 54.453 111.513,55.084 109.598,55.421 108.109 C 55.758 106.619,56.551 104.320,57.181 103.000 C 57.812 101.680,58.520 99.880,58.754 99.000 C 59.109 97.667,59.499 97.233,61.090 96.400 C 63.021 95.389,64.340 93.535,64.381 91.775 C 64.391 91.321,64.931 90.441,65.581 89.819 C 66.230 89.197,66.880 88.146,67.026 87.484 C 67.171 86.822,67.961 85.622,68.781 84.818 C 69.602 84.014,70.436 83.076,70.636 82.734 C 70.836 82.391,71.824 81.750,72.831 81.308 C 74.192 80.712,74.940 80.032,75.746 78.656 C 76.342 77.639,77.228 76.372,77.715 75.841 C 78.822 74.633,80.906 72.140,81.995 70.722 C 82.450 70.130,83.589 69.262,84.526 68.794 C 85.462 68.326,87.212 66.853,88.414 65.520 C 94.206 59.098,95.002 58.400,96.543 58.400 C 97.644 58.400,98.375 58.059,99.547 57.000 C 100.400 56.230,101.218 55.600,101.365 55.600 C 101.513 55.600,102.031 55.218,102.517 54.751 C 104.743 52.612,106.537 51.600,108.102 51.600 C 109.206 51.600,110.044 51.298,110.873 50.600 C 111.527 50.050,112.378 49.600,112.765 49.600 C 113.152 49.600,114.263 48.999,115.234 48.265 C 117.300 46.704,120.829 45.200,122.429 45.200 C 123.516 45.200,129.171 43.592,131.200 42.705 C 131.750 42.465,133.100 42.129,134.200 41.960 C 135.300 41.790,137.730 41.274,139.600 40.814 C 141.470 40.353,144.260 39.814,145.800 39.616 C 147.340 39.417,149.590 38.975,150.800 38.632 C 152.010 38.290,154.170 38.010,155.600 38.011 C 159.814 38.014,174.862 37.148,176.600 36.803 C 179.059 36.315,179.548 36.347,180.655 37.073 " stroke="none" fill="#fbfbfb" fill-rule="evenodd"></path><path id="path2" d="M196.096 38.930 L 195.193 39.432 196.425 41.375 C 197.728 43.429,199.843 49.697,201.003 54.937 C 202.109 59.936,201.678 73.721,200.269 78.400 C 199.706 80.270,198.974 83.111,198.642 84.713 C 198.309 86.315,197.674 88.088,197.229 88.654 C 196.785 89.219,196.303 90.338,196.158 91.141 C 195.832 92.946,195.456 93.682,193.637 96.068 C 190.652 99.983,189.600 101.490,189.600 101.849 C 189.600 102.285,185.674 106.378,181.959 109.817 C 179.084 112.479,176.258 116.084,175.357 118.242 C 175.037 119.008,174.503 119.739,174.170 119.867 C 173.838 119.994,173.193 120.841,172.738 121.749 C 169.833 127.540,162.506 128.181,160.851 122.790 C 160.549 121.805,159.948 120.199,159.517 119.219 C 158.377 116.633,157.690 111.931,156.824 100.800 C 156.508 96.733,155.225 89.173,154.554 87.424 C 154.421 87.077,154.197 85.858,154.056 84.714 L 153.800 82.635 151.389 81.805 C 150.063 81.348,148.353 80.597,147.589 80.136 C 146.825 79.675,145.481 79.067,144.602 78.785 C 143.723 78.504,142.211 77.852,141.242 77.337 C 140.274 76.821,139.189 76.400,138.832 76.400 C 137.900 76.400,135.555 74.358,134.180 72.350 C 133.531 71.402,132.704 70.325,132.342 69.956 C 131.980 69.586,131.481 68.334,131.231 67.172 C 130.982 66.010,130.438 64.506,130.022 63.830 C 129.603 63.147,129.061 61.087,128.805 59.200 C 127.909 52.603,126.830 48.899,125.279 47.100 C 124.086 45.716,118.583 46.537,116.606 48.394 C 116.157 48.816,115.083 49.457,114.220 49.817 C 113.357 50.178,112.082 50.907,111.388 51.437 C 110.548 52.077,109.597 52.400,108.551 52.400 C 107.686 52.400,106.533 52.708,105.989 53.085 C 104.767 53.932,101.047 56.938,99.905 58.003 C 98.997 58.848,98.624 58.991,96.293 59.385 C 93.610 59.837,91.808 64.000,94.295 64.000 C 95.203 64.000,99.574 67.957,99.841 69.021 C 99.970 69.536,100.509 70.242,101.038 70.588 C 101.567 70.935,102.000 71.449,102.000 71.730 C 102.000 72.011,102.688 73.312,103.530 74.620 C 105.898 78.303,106.489 80.149,106.650 84.354 C 106.840 89.338,107.746 92.173,109.588 93.547 C 110.364 94.126,111.245 94.832,111.544 95.116 C 111.844 95.399,112.924 96.055,113.944 96.572 C 114.965 97.090,116.143 97.893,116.562 98.357 C 116.981 98.821,117.625 99.200,117.992 99.200 C 118.360 99.200,119.097 99.668,119.630 100.240 C 120.164 100.812,121.590 101.809,122.800 102.455 C 127.880 105.168,130.962 108.258,131.340 111.016 C 131.480 112.035,131.991 113.425,132.475 114.106 L 133.357 115.343 132.309 118.372 C 131.733 120.037,131.144 121.983,131.000 122.695 C 129.966 127.821,120.963 127.763,120.373 122.627 C 120.219 121.277,119.909 120.519,119.395 120.227 C 118.981 119.992,118.016 119.210,117.249 118.490 C 116.483 117.769,115.483 117.097,115.028 116.996 C 109.846 115.854,108.592 115.513,107.511 114.954 C 104.831 113.568,97.539 115.811,96.180 118.438 C 95.850 119.077,95.388 119.600,95.154 119.600 C 94.920 119.600,93.463 120.873,91.916 122.429 C 88.855 125.509,87.581 125.992,82.516 125.998 C 81.332 125.999,80.258 126.216,80.030 126.500 C 79.809 126.775,79.075 127.661,78.399 128.470 L 77.170 129.940 79.216 131.870 C 80.341 132.931,81.684 133.983,82.200 134.208 C 82.717 134.432,85.152 136.502,87.612 138.808 C 90.072 141.113,92.425 143.315,92.842 143.700 C 93.343 144.163,93.600 144.943,93.600 146.000 C 93.600 147.015,93.856 147.833,94.300 148.236 C 94.685 148.587,96.390 150.162,98.089 151.736 C 99.787 153.311,101.407 154.803,101.689 155.051 C 101.970 155.299,102.496 155.839,102.857 156.251 C 108.526 162.709,113.368 164.590,114.229 160.669 C 114.379 159.983,114.927 158.749,115.446 157.928 C 115.964 157.107,116.550 155.712,116.749 154.830 C 117.226 152.704,118.937 149.840,120.302 148.880 C 123.313 146.763,123.723 146.684,133.400 146.371 C 143.884 146.032,144.490 146.144,146.212 148.746 C 146.798 149.631,148.206 150.996,149.342 151.778 C 150.479 152.561,151.633 153.561,151.907 154.000 C 152.182 154.440,152.646 154.800,152.937 154.800 C 153.229 154.800,153.926 155.295,154.485 155.900 C 156.194 157.747,159.317 160.199,160.902 160.939 C 162.917 161.879,164.110 164.168,163.752 166.408 C 163.320 169.112,158.617 175.200,156.960 175.200 C 156.667 175.200,155.837 175.716,155.114 176.346 C 154.391 176.977,153.047 177.874,152.127 178.340 C 151.207 178.807,150.339 179.375,150.199 179.602 C 150.058 179.829,149.056 180.465,147.972 181.014 C 146.887 181.564,146.000 182.193,146.000 182.412 C 146.000 182.631,145.010 183.279,143.800 183.852 C 142.590 184.425,141.600 185.026,141.600 185.187 C 141.600 185.348,140.700 186.040,139.600 186.724 C 138.500 187.407,137.600 188.176,137.600 188.431 C 137.600 189.824,132.626 193.809,128.359 195.834 C 126.441 196.745,116.800 206.029,116.800 206.966 C 116.800 207.238,116.354 207.880,115.808 208.393 C 115.262 208.905,114.436 210.062,113.971 210.962 C 113.506 211.863,112.791 212.962,112.382 213.405 C 111.973 213.848,111.343 214.928,110.982 215.805 C 110.621 216.682,109.923 217.850,109.430 218.400 C 108.937 218.950,108.307 220.197,108.030 221.171 C 107.752 222.145,107.266 223.338,106.949 223.822 C 105.925 225.385,105.565 227.292,105.218 233.000 C 104.840 239.214,104.447 240.505,102.400 242.250 C 99.626 244.615,95.286 244.672,94.114 242.359 C 93.846 241.832,93.396 240.924,93.114 240.343 C 92.831 239.762,90.980 237.308,89.000 234.890 C 87.020 232.472,84.934 229.891,84.364 229.155 L 83.327 227.817 78.845 227.664 C 74.178 227.504,72.800 227.921,72.800 229.491 C 72.800 229.802,72.363 230.810,71.830 231.729 C 71.296 232.648,70.561 234.570,70.196 236.000 C 69.831 237.430,69.201 239.140,68.796 239.800 C 68.391 240.460,67.742 242.260,67.356 243.799 C 66.969 245.339,66.146 247.562,65.526 248.740 C 64.672 250.365,64.400 251.434,64.400 253.171 C 64.400 255.784,63.678 256.757,61.131 257.571 L 59.663 258.041 60.281 259.856 C 60.802 261.384,61.169 261.787,62.604 262.402 C 63.542 262.804,65.035 263.591,65.921 264.150 C 66.808 264.710,68.011 265.288,68.595 265.435 C 69.179 265.581,70.499 266.278,71.529 266.984 C 72.558 267.689,74.026 268.390,74.790 268.541 C 75.555 268.692,76.864 269.290,77.701 269.870 C 78.612 270.501,80.298 271.119,81.910 271.412 C 83.390 271.681,85.673 272.193,86.984 272.550 C 88.295 272.908,89.915 273.201,90.584 273.201 C 91.253 273.202,93.390 273.481,95.333 273.821 C 97.277 274.161,102.331 274.574,106.565 274.739 C 113.382 275.005,114.428 275.137,115.709 275.893 C 119.811 278.314,124.077 279.245,136.220 280.370 C 142.641 280.964,144.554 281.281,145.814 281.956 C 146.680 282.420,147.585 282.800,147.825 282.800 C 148.066 282.800,149.062 283.329,150.039 283.976 C 151.170 284.726,152.736 285.301,154.351 285.561 C 156.326 285.879,157.360 286.327,159.026 287.585 C 160.203 288.473,161.294 289.200,161.451 289.200 C 162.316 289.200,163.231 290.822,163.852 293.454 C 164.453 296.006,164.733 296.540,165.814 297.209 C 166.507 297.637,167.741 298.517,168.555 299.165 C 169.370 299.812,170.928 300.533,172.017 300.766 C 173.106 301.000,174.870 301.647,175.936 302.205 C 177.163 302.846,178.866 303.311,180.572 303.470 C 182.363 303.638,183.702 304.017,184.561 304.599 C 185.272 305.082,186.352 305.602,186.961 305.755 C 187.570 305.907,188.502 306.520,189.031 307.116 C 189.561 307.712,190.349 308.605,190.783 309.100 C 191.216 309.595,191.983 310.003,192.486 310.006 C 192.989 310.009,193.850 310.274,194.400 310.595 C 194.950 310.916,195.943 311.438,196.606 311.755 C 197.886 312.368,201.297 317.919,201.805 320.217 C 201.948 320.868,202.447 322.383,202.913 323.584 C 203.950 326.256,204.036 329.369,203.118 331.000 C 202.023 332.943,201.568 334.015,200.368 337.485 C 198.963 341.546,197.839 343.786,196.863 344.474 C 196.451 344.763,195.987 345.405,195.830 345.900 C 195.674 346.395,195.385 346.800,195.187 346.800 C 194.990 346.800,194.147 347.688,193.314 348.774 C 191.817 350.725,184.609 359.373,182.362 361.913 C 181.723 362.636,181.200 363.372,181.200 363.550 C 181.200 363.728,179.762 365.387,178.004 367.237 C 176.247 369.086,174.807 370.723,174.804 370.873 C 174.802 371.023,174.422 371.266,173.960 371.413 C 167.964 373.316,218.751 374.455,227.400 372.612 C 229.160 372.237,232.130 371.773,234.000 371.581 C 235.870 371.390,238.570 371.049,240.000 370.825 C 241.430 370.600,243.806 370.412,245.280 370.408 C 248.430 370.399,251.640 369.780,253.600 368.805 C 254.411 368.401,256.515 367.990,258.600 367.827 C 262.997 367.483,265.839 366.903,266.534 366.209 C 266.821 365.922,267.943 365.605,269.028 365.506 C 271.281 365.299,276.769 363.654,277.466 362.978 C 277.722 362.729,278.532 362.305,279.266 362.037 C 283.559 360.465,283.607 360.314,283.491 349.000 C 283.402 340.396,283.421 340.160,284.359 338.401 C 284.886 337.412,285.568 335.526,285.875 334.211 C 286.182 332.895,286.966 330.989,287.617 329.974 C 289.108 327.650,289.149 325.745,287.785 322.123 C 287.227 320.640,286.499 317.531,286.168 315.213 C 285.836 312.896,285.140 310.010,284.621 308.800 C 284.102 307.590,283.550 305.812,283.395 304.849 C 282.642 300.180,277.998 297.233,272.566 297.977 C 265.390 298.960,253.419 298.084,250.367 296.352 C 249.395 295.801,247.610 295.109,246.400 294.815 C 245.190 294.521,243.660 293.878,243.000 293.386 C 242.340 292.894,241.080 292.130,240.200 291.688 C 236.671 289.916,233.210 285.209,233.202 282.170 C 233.201 281.713,232.777 280.942,232.259 280.455 C 231.742 279.969,231.115 278.894,230.867 278.067 C 230.619 277.239,229.842 275.694,229.139 274.634 C 226.586 270.779,228.019 258.621,231.808 252.000 C 232.122 251.450,232.719 250.279,233.133 249.399 C 234.133 247.275,237.361 243.541,239.600 241.920 C 240.590 241.202,241.638 240.387,241.929 240.108 C 242.219 239.829,242.673 239.600,242.937 239.600 C 243.202 239.600,244.065 239.066,244.857 238.414 C 245.648 237.762,247.354 236.849,248.648 236.387 C 249.941 235.924,251.664 235.192,252.475 234.761 C 254.807 233.521,260.070 233.078,268.644 233.398 C 276.639 233.696,276.733 233.713,277.439 235.000 C 278.413 236.773,279.158 236.866,290.400 236.614 C 304.143 236.307,308.425 235.872,313.200 234.301 C 317.529 232.877,324.948 232.539,327.402 233.654 C 330.053 234.858,333.200 239.282,333.200 241.803 C 333.200 242.290,333.713 243.658,334.341 244.844 C 334.968 246.030,335.603 247.783,335.752 248.739 C 336.744 255.126,339.324 255.263,345.115 249.234 C 346.718 247.565,348.212 246.020,348.435 245.800 C 351.946 242.330,353.262 240.763,353.644 239.600 C 353.897 238.830,354.235 238.020,354.394 237.800 C 355.896 235.727,355.209 233.476,352.153 230.457 C 351.565 229.876,350.651 228.500,350.123 227.400 C 347.979 222.932,346.921 221.401,345.508 220.719 C 344.731 220.345,343.489 219.337,342.748 218.479 C 341.106 216.579,340.498 216.245,337.191 215.431 C 335.766 215.080,333.700 214.532,332.600 214.213 C 331.500 213.895,328.769 213.358,326.532 213.019 C 320.762 212.147,320.400 211.971,320.400 210.037 C 320.400 208.354,321.422 207.258,323.600 206.605 C 324.150 206.440,324.872 206.067,325.205 205.777 C 325.538 205.486,326.708 205.039,327.805 204.785 C 332.127 203.783,332.850 203.534,333.064 202.977 C 333.186 202.660,334.841 201.927,336.743 201.350 C 338.644 200.772,340.703 199.944,341.319 199.509 C 341.934 199.075,343.194 198.622,344.119 198.504 C 348.603 197.932,349.358 195.490,346.300 191.451 C 344.309 188.821,342.366 186.137,341.800 185.237 C 337.955 179.116,335.726 177.898,331.464 179.590 C 329.889 180.215,327.214 180.947,325.519 181.215 C 322.123 181.753,320.010 183.534,318.545 187.092 C 318.203 187.921,317.582 188.970,317.165 189.422 C 316.748 189.874,315.887 191.314,315.251 192.622 C 314.616 193.930,313.715 195.343,313.248 195.762 C 312.782 196.181,312.400 196.744,312.400 197.013 C 312.400 197.792,311.486 198.345,309.732 198.625 C 307.749 198.942,304.996 196.653,303.680 193.593 C 303.256 192.607,302.164 191.035,301.254 190.100 C 299.868 188.674,299.594 188.124,299.560 186.700 C 299.528 185.345,299.464 185.201,299.244 185.992 C 299.056 186.667,298.526 187.118,297.584 187.404 C 295.755 187.961,293.151 190.516,291.881 193.000 C 289.477 197.702,283.839 201.810,280.600 201.219 C 278.131 200.768,277.754 200.287,278.504 198.540 C 280.039 194.968,280.048 194.203,278.573 192.773 C 277.295 191.535,277.225 191.317,277.115 188.240 C 276.972 184.231,276.704 184.049,270.740 183.902 C 267.306 183.818,266.407 183.922,265.590 184.501 C 261.646 187.295,260.602 188.133,260.227 188.808 C 259.363 190.360,256.438 194.635,255.442 195.800 C 252.778 198.914,251.003 200.462,247.826 202.439 L 245.052 204.165 239.626 204.512 C 230.525 205.093,229.332 205.054,228.096 204.135 C 225.932 202.525,226.295 199.689,229.562 192.693 C 230.463 190.764,231.200 189.012,231.200 188.801 C 231.200 188.397,234.458 185.248,235.488 184.656 C 235.818 184.466,237.243 184.070,238.656 183.774 C 240.069 183.478,241.742 182.868,242.374 182.418 C 243.006 181.968,243.634 181.600,243.770 181.600 C 243.905 181.600,245.388 180.250,247.065 178.600 C 248.742 176.950,250.363 175.600,250.668 175.600 C 250.972 175.600,252.023 174.798,253.003 173.818 C 253.983 172.838,255.104 171.866,255.494 171.657 C 256.489 171.124,257.124 168.443,257.317 163.964 C 257.459 160.666,257.642 159.844,258.621 158.102 C 260.306 155.105,259.814 154.689,254.795 154.865 C 250.826 155.004,247.483 156.482,245.682 158.894 C 245.396 159.276,244.361 160.058,243.382 160.632 C 242.402 161.206,241.600 161.819,241.600 161.994 C 241.600 162.169,240.756 162.709,239.723 163.194 C 238.691 163.679,237.252 164.530,236.526 165.084 C 231.114 169.212,224.249 164.872,226.211 158.564 C 226.547 157.484,226.995 154.571,227.207 152.091 C 227.475 148.966,227.841 147.095,228.402 145.996 C 228.995 144.834,229.145 143.998,228.965 142.869 C 228.504 139.986,233.428 137.335,238.557 137.706 C 240.120 137.819,242.557 137.733,243.970 137.514 C 246.901 137.060,248.976 137.497,250.979 138.990 C 251.650 139.491,252.864 140.114,253.675 140.373 C 254.486 140.633,255.566 141.171,256.075 141.568 C 256.584 141.966,258.051 142.595,259.335 142.967 C 260.618 143.338,262.632 144.083,263.809 144.621 C 264.986 145.160,266.118 145.600,266.325 145.600 C 266.532 145.600,268.389 146.139,270.451 146.797 C 279.704 149.752,295.817 150.534,297.485 148.109 C 298.041 147.301,297.944 147.403,301.177 144.200 C 302.789 142.603,303.659 141.399,303.779 140.600 C 304.075 138.614,304.532 130.068,304.570 125.800 C 304.599 122.458,304.746 121.570,305.460 120.400 C 305.930 119.630,306.436 118.137,306.584 117.083 C 306.764 115.807,307.241 114.726,308.011 113.849 C 310.337 111.199,310.758 98.569,308.576 96.853 C 307.228 95.793,302.776 95.454,300.100 96.208 C 298.945 96.534,297.055 97.063,295.900 97.385 C 292.553 98.318,291.702 99.563,291.684 103.547 C 291.673 106.130,291.499 107.070,290.829 108.153 C 290.366 108.902,289.737 110.347,289.431 111.365 C 289.124 112.382,288.329 114.067,287.662 115.107 C 286.996 116.148,286.254 117.522,286.013 118.160 C 284.243 122.840,276.595 129.114,272.181 129.506 C 267.285 129.941,265.406 126.145,264.607 114.200 C 264.322 109.939,263.913 108.897,261.419 106.054 C 259.768 104.173,259.718 101.293,261.309 99.671 C 261.887 99.082,262.696 98.240,263.108 97.800 C 263.520 97.360,264.947 95.974,266.278 94.720 C 267.610 93.466,268.807 92.158,268.939 91.814 C 269.071 91.470,269.589 91.026,270.090 90.829 C 270.590 90.631,271.610 90.011,272.355 89.452 C 273.100 88.892,274.720 88.245,275.955 88.013 C 282.519 86.782,282.180 86.926,283.643 84.751 C 284.389 83.642,285.330 82.074,285.734 81.267 C 286.988 78.762,288.503 76.767,289.574 76.213 C 290.138 75.920,291.199 75.108,291.931 74.407 C 292.664 73.706,293.879 72.876,294.631 72.561 C 295.384 72.247,296.000 71.815,296.000 71.603 C 296.000 71.390,296.729 70.845,297.619 70.390 C 300.870 68.732,304.035 66.014,303.620 65.238 C 303.174 64.404,300.138 61.600,299.682 61.600 C 299.509 61.600,298.699 60.970,297.882 60.200 C 296.651 59.038,296.099 58.800,294.644 58.800 C 293.310 58.800,292.424 58.480,290.945 57.463 C 289.875 56.728,288.324 55.904,287.497 55.631 C 286.670 55.359,285.809 54.790,285.583 54.368 C 285.273 53.788,284.738 53.600,283.401 53.600 C 281.620 53.600,277.917 52.379,276.800 51.424 C 275.868 50.627,272.447 49.599,269.800 49.321 C 268.480 49.183,266.950 48.749,266.400 48.358 C 265.758 47.901,263.682 47.413,260.600 46.995 C 257.960 46.636,255.204 46.256,254.476 46.149 C 253.748 46.042,252.488 45.362,251.676 44.638 C 248.979 42.232,246.569 41.686,236.654 41.235 C 231.012 40.979,229.457 40.774,227.893 40.083 C 224.170 38.435,198.653 37.511,196.096 38.930 M41.776 216.874 C 41.435 217.950,41.486 226.406,41.842 227.827 C 42.450 230.248,43.607 227.947,44.784 221.977 C 45.287 219.423,42.479 214.660,41.776 216.874 M50.480 272.480 C 49.518 273.442,50.149 278.940,51.389 280.400 C 51.971 281.085,52.640 283.941,53.006 287.297 C 53.156 288.668,53.729 290.479,54.429 291.790 C 55.155 293.150,55.757 295.090,56.012 296.883 C 56.317 299.036,56.671 300.039,57.391 300.790 C 57.946 301.369,58.477 302.542,58.637 303.538 C 58.862 304.948,59.431 305.833,61.657 308.234 C 63.563 310.289,64.400 311.505,64.400 312.216 C 64.400 313.488,65.372 315.427,66.163 315.730 C 66.489 315.855,66.975 316.732,67.244 317.679 C 67.513 318.625,68.282 319.989,68.954 320.710 C 69.626 321.430,70.541 322.773,70.988 323.693 C 71.472 324.689,72.528 325.870,73.600 326.612 C 74.781 327.430,75.718 328.523,76.326 329.792 C 76.835 330.856,77.690 332.070,78.226 332.492 C 78.762 332.913,79.200 333.488,79.200 333.770 C 79.200 334.388,83.139 338.800,83.690 338.800 C 83.904 338.800,84.646 339.348,85.340 340.017 C 88.466 343.035,89.060 343.544,90.000 344.011 C 90.550 344.285,91.450 344.923,92.000 345.430 C 94.637 347.859,96.085 348.888,97.366 349.242 C 98.134 349.454,99.528 350.341,100.463 351.214 C 101.399 352.086,102.288 352.800,102.439 352.800 C 102.590 352.800,103.584 353.520,104.649 354.400 C 106.163 355.651,106.920 356.000,108.116 356.000 C 109.188 356.000,110.089 356.342,111.123 357.142 C 111.936 357.770,113.230 358.519,114.000 358.806 C 114.770 359.093,115.857 359.746,116.415 360.257 C 117.600 361.342,120.764 362.389,122.876 362.396 C 123.688 362.398,124.471 362.591,124.615 362.825 C 125.059 363.543,126.879 364.046,128.081 363.782 C 129.571 363.455,129.397 362.308,126.897 356.000 C 124.712 350.487,122.220 347.301,116.572 342.800 C 115.330 341.810,114.019 340.550,113.660 340.000 C 112.290 337.902,109.923 336.057,108.246 335.781 C 105.836 335.383,104.401 334.427,104.395 333.214 C 104.387 331.757,103.968 330.400,103.527 330.400 C 102.073 330.400,91.915 320.366,91.211 318.235 C 90.296 315.461,91.266 313.133,95.159 308.765 C 96.808 306.915,101.973 303.612,103.249 303.591 C 107.007 303.530,105.606 298.605,101.600 297.795 C 100.830 297.640,99.571 297.037,98.803 296.456 C 98.035 295.875,96.769 295.111,95.990 294.759 C 95.211 294.406,94.283 293.826,93.928 293.471 C 93.573 293.116,92.481 292.324,91.503 291.712 C 87.133 288.980,85.600 287.907,85.600 287.581 C 85.600 286.885,79.711 284.437,75.636 283.439 C 73.317 282.871,71.102 282.081,70.636 281.655 C 70.176 281.235,68.810 280.608,67.600 280.263 C 66.390 279.917,64.775 279.173,64.011 278.609 C 63.246 278.044,61.896 277.391,61.011 277.157 C 60.125 276.922,58.950 276.315,58.400 275.807 C 57.850 275.300,56.770 274.754,56.000 274.594 C 54.286 274.239,52.715 273.461,52.022 272.626 C 51.398 271.874,51.113 271.847,50.480 272.480 M344.600 296.400 C 343.968 297.060,343.283 297.600,343.079 297.600 C 342.651 297.600,338.433 301.188,336.626 303.090 C 333.886 305.973,333.515 306.429,332.577 308.080 C 330.142 312.367,330.200 312.072,330.200 320.085 C 330.200 328.889,330.712 330.519,332.419 327.151 C 332.908 326.188,333.823 324.809,334.454 324.086 C 335.084 323.363,335.605 322.373,335.610 321.886 C 335.616 321.399,336.246 320.018,337.010 318.819 C 337.775 317.619,338.400 316.264,338.400 315.807 C 338.400 315.351,339.042 313.637,339.827 311.999 C 340.612 310.361,341.424 308.116,341.631 307.010 C 342.063 304.704,342.937 303.340,344.713 302.200 C 346.471 301.072,347.373 297.958,346.557 295.833 C 346.216 294.944,345.910 295.032,344.600 296.400 " stroke="none" fill="#3c54ab" fill-rule="evenodd"></path></g></svg>